<?xml version="1.0" encoding="UTF-8" standalone="no"?>
<!-- Created with Inkscape (http://www.inkscape.org/) -->

<svg
   xmlns:dc="http://purl.org/dc/elements/1.1/"
   xmlns:cc="http://creativecommons.org/ns#"
   xmlns:rdf="http://www.w3.org/1999/02/22-rdf-syntax-ns#"
   xmlns:svg="http://www.w3.org/2000/svg"
   xmlns="http://www.w3.org/2000/svg"
   xmlns:sodipodi="http://sodipodi.sourceforge.net/DTD/sodipodi-0.dtd"
   xmlns:inkscape="http://www.inkscape.org/namespaces/inkscape"
   width="60.5mm"
   height="60mm"
   viewBox="0 0 60.499998 60"
   version="1.1"
   id="svg2684"
   inkscape:version="0.92.3 (2405546, 2018-03-11)"
   sodipodi:docname="engrenagem-android-icon.svg">
  <defs
     id="defs2678" />
  <sodipodi:namedview
     id="base"
     pagecolor="#ffffff"
     bordercolor="#666666"
     borderopacity="1.0"
     inkscape:pageopacity="0.0"
     inkscape:pageshadow="2"
     inkscape:zoom="2.56"
     inkscape:cx="159.40716"
     inkscape:cy="96.139739"
     inkscape:document-units="mm"
     inkscape:current-layer="layer1"
     showgrid="false"
     units="mm"
     inkscape:window-width="1920"
     inkscape:window-height="1001"
     inkscape:window-x="-9"
     inkscape:window-y="-9"
     inkscape:window-maximized="1" />
  <metadata
     id="metadata2681">
    <rdf:RDF>
      <cc:Work
         rdf:about="">
        <dc:format>image/svg+xml</dc:format>
        <dc:type
           rdf:resource="http://purl.org/dc/dcmitype/StillImage" />
        <dc:title></dc:title>
      </cc:Work>
    </rdf:RDF>
  </metadata>
  <g
     inkscape:groupmode="layer"
     id="layer2"
     inkscape:label="Camada 2"
     transform="translate(0,2)">
    <ellipse
       style="fill:#ffffff;fill-opacity:1;fill-rule:evenodd;stroke:none;stroke-width:0.26880667;stroke-linecap:round;stroke-linejoin:round;stroke-miterlimit:4;stroke-dasharray:none;stroke-opacity:1;paint-order:stroke markers fill"
       id="path889"
       cx="36.532139"
       cy="19.094044"
       rx="29.649769"
       ry="28.899984"
       transform="matrix(0.96828966,0.2498302,-0.24982633,0.96829066,0,0)" />
  </g>
  <g
     inkscape:label="Camada 1"
     inkscape:groupmode="layer"
     id="layer1"
     transform="translate(0,-236.99998)">
    <path
       style="fill:#275a94;fill-opacity:1;fill-rule:evenodd;stroke:none;stroke-width:0.1058329;stroke-miterlimit:4;stroke-dasharray:none;stroke-opacity:1"
       d="m 33.865446,237.90622 c -2.217276,-0.50816 -8.369417,-0.54829 -8.80586,0.0645 -0.12948,0.18179 -0.539948,1.91708 -0.911637,3.85603 l -0.67576,3.52517 -1.744338,0.75394 -1.744838,0.75381 -3.302386,-2.12864 c -2.563579,-1.65258 -3.417479,-2.09285 -3.817223,-1.96794 -0.800359,0.25011 -4.0220687,3.22702 -5.3108239,4.90699 l -1.1615945,1.51322 0.1327682,0.21144 -0.040114,0.05 0.6899453,0.98708 0.3700589,0.59074 c 0.6338554,1.01149 1.6146033,2.54778 2.1793553,3.41379 l 1.0266887,1.57457 -0.635602,1.76849 -0.6359739,1.76787 -3.869849,0.74509 -3.8703497,0.74496 -0.1276752,1.22709 c -0.1920714,1.8464 -0.1371442,4.92722 0.1220372,6.83494 l 0.060437,0.44628 9.682e-4,0.32099 0.062696,0.14587 0.1067641,0.78591 3.9184015,1.14762 3.7605715,1.10156 0.195323,0.12827 0.7453403,1.62045 0.783324,1.70283 -1.7679427,2.82497 c -0.9725088,1.55368 -1.8393851,3.11393 -1.9261858,3.46724 -0.1194744,0.48629 0.1492036,1.01379 1.1049211,2.17114 1.4878814,1.8018 4.8085924,4.81958 5.5000004,4.99797 0.284486,0.0734 1.742875,-0.68467 3.537164,-1.83852 l 3.053299,-1.96338 1.36658,0.52818 c 0.439473,0.16988 0.794179,0.30353 1.089545,0.43321 l 0.537861,0.27754 c 0.84531,0.53384 1.000693,1.32429 1.667951,4.15069 l 0.894223,3.78828 1.960682,0.34364 c 2.061123,0.36126 5.041549,0.42504 6.893887,0.14775 l 1.099686,-0.16457 0.454307,-2.41032 c 0.250027,-1.32584 0.590826,-3.03402 0.756892,-3.79616 l 0.301588,-1.3861 1.806254,-0.70434 1.805628,-0.70397 2.907959,1.96123 c 1.273465,0.85894 2.538263,1.61075 3.186596,1.9093 l 0.172124,0.11061 0.02538,-0.0239 c 0.07338,0.0282 0.135437,0.0481 0.177142,0.054 0.422852,0.0573 1.114919,-0.27444 1.961561,-0.94019 1.347709,-1.05974 4.702978,-4.72295 4.850888,-5.29622 0.06269,-0.24297 -2.789347,-4.89304 -4.091668,-6.67117 -0.08594,-0.11739 0.136229,-1.02694 0.493744,-2.02123 l 0.649935,-1.80749 3.868427,-0.75612 3.868795,-0.75551 0.109228,-1.14113 c 0.297535,-3.10618 -0.0025,-7.81682 -0.545655,-8.56877 -0.213057,-0.29495 -1.290817,-0.62641 -3.912597,-1.20323 l -3.618985,-0.79605 -0.8217,-1.88298 -0.821328,-1.88235 1.765423,-2.82348 c 0.971203,-1.5529 1.841279,-3.1134 1.933347,-3.46812 0.134796,-0.51927 -0.152288,-1.00522 -1.473239,-2.49352 -1.747091,-1.96843 -4.600517,-4.53374 -5.221409,-4.69394 -0.20602,-0.0532 -1.793079,0.81513 -3.52707,1.92973 l -3.152918,2.0268 -0.905074,-0.46355 c -0.497629,-0.25492 -1.313005,-0.64081 -1.812053,-0.85765 -0.874991,-0.38021 -0.938185,-0.52473 -1.781802,-4.04451 -0.481153,-2.00748 -1.039801,-3.76694 -1.241114,-3.91033 -0.128005,-0.0912 -0.364241,-0.1735 -0.680984,-0.24614 z m -0.540314,1.5812 0.392834,1.49535 c 0.21593,0.82225 0.647303,2.51315 0.95862,3.75794 0.391359,1.56483 0.729681,2.3409 1.096692,2.51537 0.291938,0.13883 1.501348,0.65542 2.687223,1.1475 l 2.15582,0.89459 3.177587,-1.97347 3.177082,-1.97359 1.973581,1.96084 c 1.085478,1.07865 2.194844,2.23052 2.464906,2.55938 l 0.490957,0.59792 -1.992846,3.21469 -1.992471,3.21533 0.447821,0.83335 c 0.246186,0.45851 0.767967,1.62352 1.159934,2.5888 l 0.712743,1.75507 3.784327,0.9764 3.784323,0.9764 0.142471,1.10466 c 0.207034,1.60726 0.163441,5.56611 -0.06277,5.71028 -0.106428,0.0679 -1.779564,0.45207 -3.718013,0.85365 l -3.524429,0.73014 -0.85957,2.10082 c -0.472825,1.15545 -0.934394,2.3487 -1.025777,2.65195 -0.119065,0.39507 0.445746,1.46789 1.993069,3.78414 l 1.996191,2.98814 0.111917,0.30053 -1.536448,1.67536 c -0.873118,0.95228 -1.980608,2.01357 -2.461549,2.35887 l -0.874562,0.62826 -3.2391,-2.12779 -3.239097,-2.12779 -0.79027,0.35327 c -0.43479,0.19405 -1.562964,0.61638 -2.507148,0.93872 l -1.717001,0.58594 -0.346537,1.41345 c -0.190561,0.77742 -0.533154,2.45938 -0.761094,3.73798 l -0.414181,2.32514 -0.928367,0.13352 c -0.510538,0.0737 -1.689308,0.10736 -2.619338,0.0745 -3.350487,-0.11819 -3.411427,-0.13242 -3.633985,-0.85169 -0.112384,-0.3632 -0.540071,-2.06838 -0.950619,-3.78895 -0.54794,-2.29639 -0.888852,-3.19589 -1.281676,-3.38285 -0.294324,-0.14007 -1.486972,-0.64922 -2.650245,-1.13156 l -2.114969,-0.8771 -3.176439,1.938 -3.176067,1.93863 -1.143894,-1.00654 c -1.758383,-1.54673 -3.8330411,-3.82411 -3.7558848,-4.12316 0.038069,-0.14755 0.9220608,-1.63735 1.9642398,-3.31067 l 1.894538,-3.04259 -0.616188,-1.1778 c -0.339118,-0.64789 -0.854295,-1.8282 -1.144638,-2.62327 l -0.527816,-1.44585 -3.7249803,-0.8858 C 4.3640281,269.73361 3.6322492,269.48409 3.514921,269.13392 3.3533146,268.6516 3.1649332,264.76353 3.237391,263.40843 l 0.04657,-0.8755 3.7186434,-0.70512 3.7181426,-0.70525 0.560799,-1.53855 c 0.308231,-0.84631 0.768263,-2.03968 1.022517,-2.65172 l 0.462089,-1.11253 -2.089111,-3.1306 c -1.1491934,-1.72191 -2.0420577,-3.31505 -1.9840082,-3.54004 0.1111752,-0.4309 3.4889092,-3.8639 4.2440032,-4.31339 0.374282,-0.2228 0.929862,0.0616 3.669111,1.88009 l 3.228203,2.14313 2.294456,-0.95623 c 1.262125,-0.52604 2.390913,-0.93188 2.507744,-0.90173 0.116831,0.0301 0.574237,-1.68761 1.016878,-3.81715 l 0.804711,-3.87188 1.900004,-0.0707 c 1.04497,-0.0389 2.590098,2.7e-4 3.433552,0.0875 z m 13.069826,49.23834 0.02917,0.0193 -0.0083,-0.005 z m -20.886732,-1.37355 c 0.0013,0.004 0.0028,0.009 0.0039,0.0138 z"
       id="path2405"
       inkscape:connector-curvature="0" />
    <path
       style="fill:#275a94;fill-opacity:1;fill-rule:evenodd;stroke:none;stroke-width:0.26458222;stroke-opacity:1"
       d="m 34.577379,251.72263 c -6.937787,-1.79933 -13.818718,1.0722 -17.596561,7.34296 -1.156777,1.9201 -2.199446,5.95951 -2.112678,8.18442 0.140064,3.59285 1.336937,6.9106 3.439932,9.53436 1.506023,1.87894 2.514619,2.74272 4.55843,3.90434 2.256797,1.28265 6.303421,2.20564 8.995239,2.05189 3.798502,-0.21695 8.019541,-2.29873 10.58017,-5.21839 1.819401,-2.07451 2.717941,-3.80145 3.446721,-6.6261 1.125234,-4.36125 0.576152,-8.31105 -1.681596,-12.09868 -2.184636,-3.66496 -5.296394,-5.95109 -9.629623,-7.07479 z m -0.421455,2.45882 c 2.863643,0.77903 5.53069,2.56289 7.496532,5.37434 2.000402,2.86088 2.752942,7.18097 1.856263,10.65637 -1.427012,5.53089 -6.440517,9.67409 -12.024452,9.93713 -5.076336,0.23912 -9.518233,-2.0918 -12.052378,-6.32459 -2.45308,-4.09738 -2.582656,-9.48068 -0.319641,-13.27149 3.392873,-5.68345 9.576738,-7.85907 15.043676,-6.37176 z"
       id="path2397"
       inkscape:connector-curvature="0" />
    <path
       id="path2357"
       style="fill:#e73135;fill-opacity:1;fill-rule:nonzero;stroke:none;stroke-width:0.26458222;stroke-opacity:1"
       d="m 33.112766,260.36067 c 0.29648,-0.47219 -0.202203,-1.35267 -0.6672,-1.17801 -0.351614,0.13207 -0.580293,0.92203 -0.361346,1.24824 0.251674,0.37495 0.771294,0.33948 1.028548,-0.0702 z m -4.099873,-1.2375 c -0.42561,-1.04798 2.70348,-0.74212 3.734539,-0.53927 0.912785,0.1796 1.915874,0.76465 1.743903,1.63873 -0.270749,1.37614 -4.946888,0.20939 -5.478438,-1.09948 z m -0.125396,0.75835 c -0.0461,-0.26515 -0.27935,-0.48287 -0.518338,-0.48383 -0.556472,-0.002 -0.907291,0.84358 -0.504801,1.21705 0.41747,0.38736 1.129276,-0.12274 1.023139,-0.73322 z m -2.683862,0.93311 c -0.159832,-0.36107 0.698848,-1.00104 0.744427,-1.2327 0.101079,-0.51377 1.056175,-1.12227 1.595062,-1.01625 0.980109,0.19283 4.754008,2.51888 3.897862,3.09352 -0.593181,0.39815 -5.92119,-0.13037 -6.237351,-0.84457 z m 4.195399,0.57713 c 2.59763,-0.0869 1.336883,-0.77167 1.672486,-0.70564 0.335606,0.0661 2.201901,-0.0733 2.201901,-0.0733 -0.616872,-0.23402 -0.584277,-1.24239 -1.484622,-2.05602 -0.956238,-0.86413 0.519787,-1.14133 0.808592,-1.89548 0.366705,-0.95755 0.50672,0.1473 -0.08495,0.97297 -0.317912,0.44363 -1.209175,2.03867 -2.944023,2.08887 -2.076816,0.0601 -2.931471,-2.3728 -3.342805,-2.92427 -0.300638,-0.40297 0.257715,-0.16783 0.02548,-0.0119 -0.23224,0.15588 -0.355413,-0.36984 0,0 l 1.958048,1.96945 -2.261075,0.82556 c -0.629332,0.80871 0.229483,-0.67647 0,0 -0.382855,1.12855 -1.291611,0.8172 -0.811269,0.76742 0.287909,-0.0298 1.384933,0.81094 3.982565,0.72394 z m -6.216407,1.84252 c -0.06436,-1.24483 0.714547,-3.40535 1.683594,-4.67002 0.830375,-1.0837 0.905774,-1.28417 0.634804,-1.68789 -0.800177,-1.19218 0.702548,-2.02482 1.797625,-0.99606 0.407857,0.38317 0.676311,0.44256 1.470902,0.32538 0.534587,-0.0788 1.269347,-0.0916 1.6328,-0.0285 0.448771,0.078 0.857611,-0.10609 1.274108,-0.5735 0.34061,-0.38228 0.833547,-0.64497 1.108682,-0.59084 0.5918,0.11644 0.947913,1.0947 0.617703,1.69686 -0.166412,0.30347 0.01926,0.7138 0.631141,1.39485 1.063318,1.18353 1.99846,3.30129 2.000732,4.53096 0.0016,0.88788 -0.0189,0.90671 -0.65982,0.60483 -0.755657,-0.35591 -10.268286,-0.16117 -10.999875,0.22518 -0.969476,0.51198 -1.15584,0.47583 -1.192339,-0.23153 z m 15.594309,4.71357 c 0.02907,-0.0124 -0.579374,-0.46106 -0.590557,-1.16584 -0.01754,-1.10528 0.620402,0.11084 0.07173,0.003 -0.819697,-0.16128 -0.191314,-1.44799 -0.09526,-0.0534 0.07158,1.03925 -0.680628,0.028 0,0 0.405054,-0.0166 0.585039,1.22861 0.61408,1.21623 z m -2.213078,0.28008 c -0.04197,-0.11949 -0.07671,-0.64204 -0.07722,-1.16124 -5.2e-4,-0.51919 -0.01756,-1.15339 -0.03787,-1.40935 -0.04989,-0.62868 1.086729,-1.35051 1.880605,-1.19431 0.837452,0.16477 1.195628,1.08932 1.085982,2.8032 l -0.08694,1.359 -0.872693,0.003 c -1.150971,0.004 -1.798173,-0.13326 -1.891851,-0.40005 z m 1.151977,2.0463 c 0.807735,-0.24733 0.786975,-0.0529 0,0 0,0 0.183888,0.0342 0,0 -0.25368,-0.0468 -0.133298,-0.43537 0,0 0.202641,0.66181 -0.747914,0.22902 0,0 z m -0.989958,0.36279 c -0.345056,-1.12692 -0.03782,-1.56082 1.15097,-1.62545 0.617247,-0.034 1.271621,0.0327 1.454108,0.14733 0.408881,0.25673 0.145992,1.77196 -0.367199,2.11642 -0.607106,0.40748 -2.043079,-0.002 -2.237882,-0.6383 z M 22.63452,267.30457 c 0.326561,0.0642 -0.482621,1.26655 -0.448396,0.3408 0.02314,-0.62576 0.291092,0.49464 0.151555,0.29653 -0.347327,-0.49315 0.01163,-1.21587 0.232499,-0.71603 0.122886,0.27812 -0.0014,0.14744 -0.38405,0.4195 -0.0062,0.70537 -0.0956,-0.20821 0.01643,-0.48482 0.48966,-1.20914 0.211238,0.10056 0.431984,0.144 z m -1.554275,0.20851 c -0.0206,-1.97627 0.272553,-2.4786 1.440515,-2.46829 1.229809,0.0108 1.498345,0.39959 1.545965,2.23803 0.04677,1.80563 -0.122322,1.981 -1.77885,1.84481 l -1.191818,-0.098 z m 1.620565,3.20715 c 0.242898,-0.0422 -0.05622,0.28576 0,0 0.086,-0.4371 0.665751,-0.007 0.036,0.0258 -0.930162,0.0482 -0.133199,-0.58491 -0.036,-0.0258 0.08639,0.49688 -0.681055,0.11844 0,0 z m -1.269707,0.64881 c -0.120283,-0.221 -0.196067,-0.68227 -0.168407,-1.02507 0.04276,-0.53004 0.235213,-0.64065 1.286594,-0.73947 1.107682,-0.10415 1.261018,-0.0635 1.473843,0.38965 0.32182,0.68533 0.16012,1.3408 -0.428161,1.73566 -0.595816,0.3999 -1.865015,0.18827 -2.163865,-0.36082 z m 9.203187,2.57722 c 3.912919,-0.14449 -2.700987,0.53139 -2.025661,-0.38071 0.803546,-1.08529 -0.913907,-1.17343 -1.035451,-4.58007 -0.135593,-3.80032 4.157069,2.08109 3.772876,1.83987 -0.429417,-0.26963 0.444769,-0.29853 0,0 -0.427914,0.28722 -2.357972,1.35375 -1.90181,2.98461 0.284327,1.01653 1.025911,-1.63247 1.701768,-1.49726 0.166942,0.0333 -2.129681,1.69334 -0.511723,1.63357 z m -5.037304,0.89034 c -0.990045,-1.32471 -1.087112,-1.7696 -1.21884,-5.5865 -0.121948,-3.53362 0.09027,-4.89524 0.795257,-5.10244 0.696472,-0.20468 9.928187,-0.51644 10.714098,-0.3618 0.352838,0.0694 0.780462,0.3659 0.950269,0.65886 0.327115,0.56434 0.665248,7.29773 0.425185,8.46688 -0.180504,0.87911 -1.332716,2.48498 -2.075678,2.89295 -0.630298,0.3461 -6.582349,0.58016 -7.918519,0.31139 -0.595516,-0.12023 -1.085193,-0.49448 -1.671775,-1.27934 z m 8.513991,3.16114 c -0.551638,-0.0973 0,0 -0.822456,-0.23407 -0.584684,-0.16641 -0.463322,-0.37343 0.291771,-0.22486 0.46062,0.0906 0.530693,0.45889 0.530693,0.45889 z m -1.945207,0.62848 c -0.358882,-0.68851 -0.326106,-1.53066 0.06765,-1.7383 0.210586,-0.11104 0.883991,-0.18642 1.496457,-0.16748 1.091146,0.0337 1.113971,0.0522 1.132977,0.91841 0.01593,0.72634 -0.100429,0.94734 -0.652495,1.23925 -0.778189,0.41148 -1.761994,0.2903 -2.044593,-0.25187 z m -3.333193,-0.59577 c 0.274637,-0.4374 0.312381,0.0171 -0.396757,0.0301 -0.748191,0.014 0.498882,-0.099 0.396757,-0.0301 -0.378941,0.25435 0.574799,-1.07432 -0.09033,0.52888 -0.127484,0.30727 -0.02585,-0.34378 0.09033,-0.52888 z m -1.179411,0.7047 c -0.200781,-0.29914 -0.261854,-0.8158 -0.141061,-1.1933 0.179511,-0.56099 0.39769,-0.66807 1.386594,-0.68059 1.278415,-0.0161 1.591364,0.29088 1.388565,1.36231 -0.20151,1.06464 -2.025178,1.41881 -2.634102,0.51158 z"
       inkscape:connector-curvature="0"
       sodipodi:nodetypes="cccccssccsccscsssccssccscscccccccccccsccssscccccccscccccssccsccssccssssssscsscssccccsccssccsscscssccssccssccccscsscccccccscccccccccccccc" />
  </g>
</svg>
