<?xml version="1.0" encoding="UTF-8" standalone="no"?>
<!-- Created with Inkscape (http://www.inkscape.org/) -->

<svg
   xmlns:dc="http://purl.org/dc/elements/1.1/"
   xmlns:cc="http://creativecommons.org/ns#"
   xmlns:rdf="http://www.w3.org/1999/02/22-rdf-syntax-ns#"
   xmlns:svg="http://www.w3.org/2000/svg"
   xmlns="http://www.w3.org/2000/svg"
   xmlns:sodipodi="http://sodipodi.sourceforge.net/DTD/sodipodi-0.dtd"
   xmlns:inkscape="http://www.inkscape.org/namespaces/inkscape"
   width="190mm"
   height="12mm"
   viewBox="0 0 190 12"
   version="1.1"
   id="svg8"
   inkscape:version="0.92.3 (2405546, 2018-03-11)"
   sodipodi:docname="logo.svg">
  <defs
     id="defs2" />
  <sodipodi:namedview
     id="base"
     pagecolor="#ffffff"
     bordercolor="#666666"
     borderopacity="1.0"
     inkscape:pageopacity="0.0"
     inkscape:pageshadow="2"
     inkscape:zoom="1"
     inkscape:cx="313.90082"
     inkscape:cy="-16.790534"
     inkscape:document-units="mm"
     inkscape:current-layer="text817"
     showgrid="false"
     inkscape:window-width="1920"
     inkscape:window-height="1001"
     inkscape:window-x="1911"
     inkscape:window-y="-9"
     inkscape:window-maximized="1" />
  <metadata
     id="metadata5">
    <rdf:RDF>
      <cc:Work
         rdf:about="">
        <dc:format>image/svg+xml</dc:format>
        <dc:type
           rdf:resource="http://purl.org/dc/dcmitype/StillImage" />
        <dc:title />
      </cc:Work>
    </rdf:RDF>
  </metadata>
  <g
     inkscape:label="Camada 1"
     inkscape:groupmode="layer"
     id="layer1"
     transform="translate(0,-285)">
    <g
       aria-label="#inovareaprender"
       style="font-style:normal;font-variant:normal;font-weight:normal;font-stretch:normal;font-size:19.32367134px;line-height:1.25;font-family:headplane;-inkscape-font-specification:headplane;letter-spacing:0px;word-spacing:0px;fill:#1a1a1a;fill-opacity:1;stroke:none;stroke-width:0.48309177"
       id="text817">
      <path
         d="m 11.241546,291.89372 q -0.289855,1.4686 -1.5845412,1.4686 H 8.3429951 L 8.0917874,294.657 q -0.2705314,1.29469 -1.7391304,1.29469 l 0.5217391,-2.58937 H 5.057971 L 4.8067633,294.657 q -0.2705314,1.29469 -1.7391305,1.29469 L 3.589372,293.36232 H 1 q 0.2898551,-1.4686 1.584541,-1.4686 h 1.294686 l 0.3671498,-1.81643 h -2.589372 q 0.2898551,-1.46859 1.5845411,-1.46859 h 1.294686 l 0.2705314,-1.31401 Q 5.057971,286 6.52657,286 l -0.5217391,2.6087 H 7.821256 l 0.2705314,-1.31401 Q 8.3429951,286 9.8115941,286 l -0.5217391,2.6087 h 2.608696 q -0.289855,1.46859 -1.584541,1.46859 H 8.9999999 l -0.3671497,1.81643 z m -4.0772948,0 0.3671497,-1.81643 H 5.7149758 l -0.3671497,1.81643 z"
         style="fill:#275a94;fill-opacity:1;stroke-width:0.48309177"
         id="path833" />
      <path
         d="m 14.867754,295.95169 q -2.318841,0 -2.318841,-1.93237 V 286 q 2.318841,0 2.318841,1.91304 z"
         style="fill:#275a94;fill-opacity:1;stroke-width:0.48309177"
         id="path835" />
      <path
         d="m 26.441124,294.03865 q 0,1.91304 -2.318841,1.91304 l -5.971014,-6.70531 V 294 q 0,1.95169 -2.318841,1.95169 v -8.03865 Q 15.832428,286 18.151269,286 l 5.971014,6.64734 v -4.75362 Q 24.122283,286 26.441124,286 Z"
         style="fill:#275a94;fill-opacity:1;stroke-width:0.48309177"
         id="path837" />
      <path
         d="m 39.747585,292.80193 q 0,1.35266 -0.94686,2.26087 -0.94686,0.88889 -2.299517,0.88889 h -5.835749 q -1.352657,0 -2.299516,-0.88889 -0.94686,-0.90821 -0.94686,-2.26087 v -3.65217 q 0,-1.35266 0.94686,-2.24155 Q 29.312802,286 30.665459,286 h 5.835749 q 1.352657,0 2.299517,0.90821 0.94686,0.88889 0.94686,2.24155 z m -2.318841,0 v -3.65217 q 0,-0.83092 -0.927536,-0.83092 h -5.835749 q -0.927536,0 -0.927536,0.83092 v 3.65217 q 0,0.83092 0.927536,0.83092 h 5.835749 q 0.927536,0 0.927536,-0.83092 z"
         style="fill:#275a94;fill-opacity:1;stroke-width:0.48309177"
         id="path839" />
      <path
         d="m 52.20169,286 -5.062802,9.10145 q -0.94686,1.7971 -1.971015,0 L 40.085748,286 h 2.589372 l 3.497584,6.16425 L 49.612318,286 Z"
         style="fill:#275a94;fill-opacity:1;stroke-width:0.48309177"
         id="path841" />
      <path
         d="m 55.288949,295.97101 q -2.318841,-0.0193 -2.318841,-2.14492 v -1.39131 q -0.01932,-2.18357 2.26087,-2.24154 h 7.613526 v -1.12078 q 0,-0.75362 -0.502415,-0.75362 l -7.748793,0.0386 q 0.15459,-0.8116 0.714976,-1.44928 Q 56.081219,286 57.317934,286 h 5.024155 q 1.256038,0 2.028985,0.90821 0.792271,0.90822 0.792271,2.16425 v 4.8116 q 0,2.06763 -2.222223,2.06763 z m 7.555555,-2.22222 v -1.23671 h -7.555555 v 1.23671 z"
         style="fill:#275a94;fill-opacity:1;stroke-width:0.48309177"
         id="path843" />
      <path
         d="m 74.876206,292.68599 h 0.01932 l 2.917874,3.2657 h -3.169082 l -2.879227,-3.24638 h -3.304348 v 3.24638 h -2.31884 v -5.58454 l 8.367149,0.0193 q 0.502416,0 0.502416,-1.02415 0,-1.04348 -0.502416,-1.04348 h -6.183574 q -2.183575,0 -2.183575,-2.31884 h 8.367149 q 1.294686,0 2.086957,1.0628 0.734299,0.96619 0.734299,2.29952 0,1.33333 -0.734299,2.28019 -0.676329,0.90821 -1.719807,1.04348 z"
         style="fill:#275a94;fill-opacity:1;stroke-width:0.48309177"
         id="path845" />
      <path
         d="m 88.080312,288.29952 -0.01932,0.0193 h -0.135266 q -0.231884,0.0386 -1.584541,0 h -4.444444 v 1.48792 h 7.47826 q -0.154589,0.8116 -0.714975,1.44928 -0.772947,0.90821 -2.009662,0.85024 l -4.173913,0.0193 h -0.57971 v 1.50725 l 4.405797,-0.0193 3.826087,-0.0193 q -0.15459,0.8116 -0.714976,1.44928 -0.772947,0.90821 -2.009662,0.90821 h -5.507246 q -2.318841,0 -2.318841,-2.31884 v -5.29469 q 0,-2.33816 2.26087,-2.33816 h 8.328502 q -0.154589,0.81159 -0.714976,1.44928 -0.560386,0.657 -1.37198,0.85024 z"
         style="fill:#275a94;fill-opacity:1;stroke-width:0.48309177"
         id="path847" />
      <path
         d="m 93.483391,295.97101 q -2.31884,-0.0193 -2.31884,-2.14492 v -1.39131 q -0.01932,-2.18357 2.260869,-2.24154 h 7.61353 v -1.12078 q 0,-0.75362 -0.50242,-0.75362 l -7.748791,0.0386 q 0.15459,-0.8116 0.714976,-1.44928 Q 94.275662,286 95.512377,286 h 5.024153 q 1.25604,0 2.02899,0.90821 0.79227,0.90822 0.79227,2.16425 v 4.8116 q 0,2.06763 -2.22222,2.06763 z m 7.555559,-2.22222 v -1.23671 h -7.555559 v 1.23671 z"
         style="fill:#e73135;fill-opacity:1;stroke-width:0.48309177"
         id="path849" />
      <path
         d="m 112.7035,290.38647 q 0.50241,0 0.50241,-1.02415 0,-1.04348 -0.50241,-1.04348 h -6.18358 q -2.18357,0 -2.18357,-2.31884 h 8.36715 q 1.29469,0 2.08696,1.0628 0.7343,0.96619 0.7343,2.29952 0,1.33333 -0.7343,2.28019 -0.79227,1.0628 -2.08696,1.0628 h -6.04831 v 3.24638 h -2.31884 v -5.58454 z"
         style="fill:#e73135;fill-opacity:1;stroke-width:0.48309177"
         id="path851" />
      <path
         d="m 126.4689,292.68599 h 0.0193 l 2.91787,3.2657 h -3.16908 l -2.87923,-3.24638 h -3.30435 v 3.24638 h -2.31884 v -5.58454 l 8.36715,0.0193 q 0.50242,0 0.50242,-1.02415 0,-1.04348 -0.50242,-1.04348 h -6.18357 q -2.18358,0 -2.18358,-2.31884 h 8.36715 q 1.29469,0 2.08696,1.0628 0.7343,0.96619 0.7343,2.29952 0,1.33333 -0.7343,2.28019 -0.67633,0.90821 -1.71981,1.04348 z"
         style="fill:#e73135;fill-opacity:1;stroke-width:0.48309177"
         id="path853" />
      <path
         d="m 139.67301,288.29952 -0.0193,0.0193 h -0.13526 q -0.23188,0.0386 -1.58454,0 h -4.44445 v 1.48792 h 7.47826 q -0.15458,0.8116 -0.71497,1.44928 -0.77295,0.90821 -2.00966,0.85024 l -4.17392,0.0193 h -0.57971 v 1.50725 l 4.4058,-0.0193 3.82609,-0.0193 q -0.15459,0.8116 -0.71498,1.44928 -0.77294,0.90821 -2.00966,0.90821 h -5.50725 q -2.31884,0 -2.31884,-2.31884 v -5.29469 q 0,-2.33816 2.26087,-2.33816 h 8.32851 q -0.15459,0.81159 -0.71498,1.44928 -0.56039,0.657 -1.37198,0.85024 z"
         style="fill:#e73135;fill-opacity:1;stroke-width:0.48309177"
         id="path855" />
      <path
         d="m 153.36594,294.03865 q 0,1.91304 -2.31884,1.91304 l -5.97101,-6.70531 V 294 q 0,1.95169 -2.31884,1.95169 v -8.03865 q 0,-1.91304 2.31884,-1.91304 l 5.97101,6.64734 v -4.75362 Q 151.0471,286 153.36594,286 Z"
         style="fill:#e73135;fill-opacity:1;stroke-width:0.48309177"
         id="path857" />
      <path
         d="m 162.0154,286 q 1.35266,0 2.28019,0.90821 0.94686,0.88889 0.94686,2.24155 v 3.65217 q 0,1.35266 -0.94686,2.26087 -0.92753,0.88889 -2.28019,0.88889 h -7.6715 v -6.78261 h 2.31884 v 4.46377 h 5.35266 q 0.88889,0 0.88889,-0.83092 v -3.65217 q 0,-0.83092 -0.88889,-0.83092 h -4.83092 q -2.22222,0 -2.84058,-2.31884 z"
         style="fill:#e73135;fill-opacity:1;stroke-width:0.48309177"
         id="path859" />
      <path
         d="m 174.69716,288.29952 -0.0193,0.0193 h -0.13527 q -0.23188,0.0386 -1.58454,0 h -4.44444 v 1.48792 h 7.47826 q -0.15459,0.8116 -0.71498,1.44928 -0.77294,0.90821 -2.00966,0.85024 l -4.17391,0.0193 h -0.57971 v 1.50725 l 4.4058,-0.0193 3.82608,-0.0193 q -0.15459,0.8116 -0.71497,1.44928 -0.77295,0.90821 -2.00967,0.90821 h -5.50724 q -2.31884,0 -2.31884,-2.31884 v -5.29469 q 0,-2.33816 2.26087,-2.33816 h 8.3285 q -0.15459,0.81159 -0.71498,1.44928 -0.56038,0.657 -1.37198,0.85024 z"
         style="fill:#e73135;fill-opacity:1;stroke-width:0.48309177"
         id="path861" />
      <path
         d="m 186.5157,292.68599 h 0.0193 l 2.91787,3.2657 h -3.16908 l -2.87923,-3.24638 h -3.30435 v 3.24638 h -2.31884 v -5.58454 l 8.36715,0.0193 q 0.50242,0 0.50242,-1.02415 0,-1.04348 -0.50242,-1.04348 h -6.18357 q -2.18358,0 -2.18358,-2.31884 h 8.36715 q 1.29469,0 2.08696,1.0628 0.7343,0.96619 0.7343,2.29952 0,1.33333 -0.7343,2.28019 -0.67633,0.90821 -1.71981,1.04348 z"
         style="fill:#e73135;fill-opacity:1;stroke-width:0.48309177"
         id="path863" />
    </g>
  </g>
</svg>
