<?xml version="1.0" encoding="UTF-8" standalone="no"?>
<!-- Created with Inkscape (http://www.inkscape.org/) -->

<svg
   xmlns:dc="http://purl.org/dc/elements/1.1/"
   xmlns:cc="http://creativecommons.org/ns#"
   xmlns:rdf="http://www.w3.org/1999/02/22-rdf-syntax-ns#"
   xmlns:svg="http://www.w3.org/2000/svg"
   xmlns="http://www.w3.org/2000/svg"
   xmlns:sodipodi="http://sodipodi.sourceforge.net/DTD/sodipodi-0.dtd"
   xmlns:inkscape="http://www.inkscape.org/namespaces/inkscape"
   version="1.1"
   id="svg10"
   width="802"
   height="803"
   viewBox="0 0 802 803"
   sodipodi:docname="Missão.svg"
   inkscape:version="0.92.3 (2405546, 2018-03-11)">
  <metadata
     id="metadata16">
    <rdf:RDF>
      <cc:Work
         rdf:about="">
        <dc:format>image/svg+xml</dc:format>
        <dc:type
           rdf:resource="http://purl.org/dc/dcmitype/StillImage" />
        <dc:title />
      </cc:Work>
    </rdf:RDF>
  </metadata>
  <defs
     id="defs14" />
  <sodipodi:namedview
     pagecolor="#ffffff"
     bordercolor="#666666"
     borderopacity="1"
     objecttolerance="10"
     gridtolerance="10"
     guidetolerance="10"
     inkscape:pageopacity="0"
     inkscape:pageshadow="2"
     inkscape:window-width="1920"
     inkscape:window-height="1001"
     id="namedview12"
     showgrid="false"
     inkscape:zoom="0.74939507"
     inkscape:cx="381.54068"
     inkscape:cy="362.87886"
     inkscape:window-x="-9"
     inkscape:window-y="-9"
     inkscape:window-maximized="1"
     inkscape:current-layer="svg10" />
  <path
     id="path272"
     style="fill:#3e4095;fill-opacity:1;stroke-width:0.9416247"
     d="m 423.21951,649.40005 c 15.8532,-1.47919 34.14204,-4.99928 49.69492,-9.56482 13.90183,-4.08093 38.49504,-14.54515 49.58775,-21.09928 4.4535,-2.63136 8.27691,-4.77417 8.49638,-4.76178 0.21946,0.0124 1.17786,-0.53404 2.12976,-1.21428 0.95189,-0.68024 6.37092,-4.51213 12.04224,-8.51531 29.23764,-20.63787 53.7888,-48.01245 71.94094,-80.21426 20.64752,-36.62856 31.52339,-75.88798 32.17029,-116.12774 C 650.43991,335.8655 623.77718,271.71125 571.80858,221.49096 525.91484,177.14122 459.50656,151.57814 395.2358,153.5213 c -33.257,1.00551 -61.45698,7.19997 -92.13338,20.23827 -26.05936,11.07587 -46.64917,24.25412 -68.47812,43.82853 -71.53946,64.15051 -99.24901,164.43682 -71.11578,257.38172 4.21882,13.93799 15.0798,38.82181 22.45884,51.45606 17.34419,29.6963 40.54329,55.48817 68.79627,76.48507 27.90919,20.74145 68.57668,38.01779 102.73641,43.64443 5.13822,0.84635 10.81267,1.798 12.60989,2.11479 8.25785,1.45559 40.57224,1.89969 53.10958,0.72988 z M 370.4937,800.53576 c -10.99837,-1.74869 -29.87805,-5.01417 -30.04034,-5.19587 -0.10287,-0.11533 -5.23066,-24.04404 -11.39519,-53.17512 -6.16443,-29.13101 -11.5275,-53.83252 -11.91801,-54.89224 -0.50545,-1.37196 -3.46837,-2.99846 -10.29006,-5.64874 -14.03993,-5.45463 -24.59269,-10.3932 -38.41341,-17.97704 l -12.28495,-6.74117 -4.94107,2.88339 c -2.71752,1.58586 -23.69343,13.82524 -46.61308,27.19862 l -41.67198,24.31524 -4.74485,-3.81897 c -7.09032,-5.70676 -26.09643,-23.13324 -32.74646,-30.02485 -12.17864,-12.62095 -33.241769,-37.14298 -38.380648,-44.68337 -1.103178,-1.61878 -3.317509,-4.50307 -4.920693,-6.40951 -1.603185,-1.90643 -2.707222,-4.09128 -2.453352,-4.8552 0.253868,-0.76392 13.680976,-21.22943 29.838063,-45.47889 l 29.37654,-44.08992 -3.36378,-6.79677 c -5.7193,-11.55606 -13.27377,-30.0882 -17.636,-43.26319 L 113.72498,469.28925 60.87294,454.69828 C 31.804352,446.67326 7.5520932,439.90347 6.9791049,439.6543 5.7763441,439.13129 4.1684441,427.38609 2.6099992,407.73863 1.3779795,392.20659 2.9130499,342.90885 5.0871676,328.18902 l 1.2402985,-8.39737 53.6688059,-8.78632 c 37.35932,-6.11621 53.920528,-9.20154 54.496698,-10.15267 0.45523,-0.7515 2.67415,-6.76844 4.93074,-13.37097 4.09807,-11.9899 12.23594,-30.42626 17.24705,-39.07295 1.45879,-2.51714 2.6767,-5.00821 2.70648,-5.53574 0.0298,-0.52752 -13.15633,-22.49822 -29.30249,-48.82377 -16.146148,-26.32557 -29.340842,-48.14442 -29.321537,-48.48635 0.05165,-0.91485 7.310233,-9.81616 8.260893,-10.13047 0.446793,-0.14773 0.844248,-0.83279 0.883179,-1.52236 0.03893,-0.68959 0.399071,-1.37676 0.800372,-1.52706 0.401301,-0.15029 2.303451,-2.09466 4.22698,-4.32082 1.923529,-2.22617 3.756159,-4.24521 4.072566,-4.48677 0.316406,-0.24156 1.300017,-1.38164 2.185937,-2.5335 4.46967,-5.81198 35.91933,-34.861194 46.05988,-42.544305 6.40249,-4.850982 15.03368,-10.949753 16.87059,-11.920715 0.66352,-0.350717 19.38978,12.202589 44.51774,29.842837 23.85486,16.746523 44.6526,31.311093 46.21723,32.365713 l 2.84464,1.91748 12.91878,-5.55607 c 12.83964,-5.5221 35.11694,-13.23836 42.95285,-14.87776 2.68354,-0.56141 4.43109,-1.55453 5.06372,-2.8776 0.53125,-1.11118 6.1211,-25.256229 12.42184,-53.655696 6.30073,-28.399462 11.56492,-51.7315566 11.69818,-51.8491096 0.13337,-0.1175483 6.20748,-0.6515878 13.4981,-1.18673505 19.01639,-1.39587431 72.22196,1.58867885 91.6243,5.13961655 7.43235,1.3602486 13.59757,2.5674734 13.70045,2.6827185 0.10287,0.1152536 5.23065,24.0440266 11.39519,53.1750676 6.16443,29.131027 11.52751,53.832518 11.91801,54.892238 0.50586,1.37307 3.46305,2.99406 10.29059,5.64083 12.48655,4.84062 29.65898,12.95973 41.30895,19.53093 l 9.3014,5.24646 4.98477,-2.90903 c 2.74169,-1.59995 23.7372,-13.85086 46.65683,-27.22425 l 41.67198,-24.315235 4.74485,3.818976 c 7.12557,5.735179 26.12093,23.157169 32.73557,30.024219 13.31506,13.82305 32.78499,36.48729 38.38591,44.68367 1.10628,1.61897 3.32315,4.50339 4.92634,6.40983 1.60319,1.90644 2.70684,4.09125 2.4526,4.85516 -0.25425,0.7639 -13.68297,21.22615 -29.84152,45.47168 l -29.37924,44.08278 3.36723,6.80396 c 5.72222,11.5625 13.27627,30.09239 17.63792,43.26595 l 4.16809,12.5885 53.49262,14.86214 c 29.42102,8.1742 53.71491,15.12333 53.98656,15.44253 0.96921,1.13912 3.55293,28.20943 4.11116,43.0732 0.58859,15.67378 -1.27025,56.42827 -3.15341,69.1361 l -1.03658,6.99526 -53.66882,8.78492 c -37.36517,6.11623 -53.92007,9.20003 -54.49587,10.15134 -0.45495,0.75152 -2.63446,6.70191 -4.84339,13.22311 -3.52877,10.4173 -10.41412,26.06359 -17.93006,40.74433 l -2.38163,4.65198 29.46471,48.02309 c 16.20553,26.41269 29.44888,48.3034 29.42954,48.64601 -0.0517,0.91571 -7.30963,9.81713 -8.26106,10.13167 -0.4468,0.14773 -0.84416,0.8328 -0.88309,1.52239 -0.0389,0.68958 -0.39916,1.37675 -0.80047,1.52704 -0.4013,0.15028 -2.30335,2.09465 -4.22688,4.32082 -1.92353,2.22617 -3.75625,4.24522 -4.07266,4.48678 -0.3164,0.24155 -1.35806,1.45624 -2.31476,2.69932 -4.60524,5.98354 -30.8441,30.1361 -45.38326,41.77471 -7.19464,5.75938 -17.56027,13.1587 -18.36981,13.11299 -0.15048,-0.008 -19.77322,-13.71021 -43.60612,-30.44829 -23.83299,-16.73806 -44.60818,-31.29229 -46.16719,-32.34273 l -2.83452,-1.9099 -12.44697,5.36268 c -13.27876,5.72106 -33.03971,12.63245 -42.0772,14.71643 -3.82971,0.88313 -5.79051,1.87234 -6.45001,3.25397 -0.52112,1.09178 -6.10262,25.221 -12.40336,53.62045 -6.30073,28.3995 -11.5648,51.72945 -11.69792,51.84447 -0.13322,0.11503 -5.78126,0.61959 -12.5514,1.12138 -11.75011,0.87086 -66.1488,-0.9535 -76.23135,-2.55654 z"
     inkscape:connector-curvature="0" />
  <g
     aria-label="MISSÃO"
     transform="matrix(1.095682,0,0,1.095682,-216.81689,-38.700615)"
     style="font-style:normal;font-variant:normal;font-weight:bold;font-stretch:normal;font-size:37.33333206px;line-height:1.25;font-family:'Malgun Gothic';-inkscape-font-specification:'Malgun Gothic Bold';text-align:center;letter-spacing:0px;word-spacing:0px;text-anchor:middle;fill:#000000;fill-opacity:1;stroke:none"
     id="flowRoot278">
    <path
       d="m 508.9955,256.541 h -6.89696 v -18.0007 l -4.98314,11.6815 h -4.78454 l -4.98315,-11.6815 v 18.0007 h -6.53586 v -26.88369 h 8.05247 l 6.04838,13.48698 6.03032,-13.48698 h 8.05248 z"
       style="font-style:normal;font-variant:normal;font-weight:bold;font-stretch:normal;font-size:37.33333206px;font-family:'Josefin Sans';-inkscape-font-specification:'Josefin Sans Bold';stroke-width:0.99043834"
       id="path286"
       inkscape:connector-curvature="0" />
    <path
       d="m 530.37245,256.541 h -15.74384 v -4.76648 h 4.40539 v -17.35073 h -4.40539 v -4.76648 h 15.74384 v 4.76648 h -4.40538 v 17.35073 h 4.40538 z"
       style="font-style:normal;font-variant:normal;font-weight:bold;font-stretch:normal;font-size:37.33333206px;font-family:'Josefin Sans';-inkscape-font-specification:'Josefin Sans Bold';stroke-width:0.99043834"
       id="path288"
       inkscape:connector-curvature="0" />
    <path
       d="m 557.58114,248.09133 q 0,3.97207 -3.37626,6.46364 -3.3582,2.47352 -9.13576,2.47352 -3.34015,0 -5.83173,-0.57776 -2.47351,-0.59581 -4.64009,-1.49855 v -6.44559 h 0.7583 q 2.14853,1.71521 4.80259,2.63601 2.67212,0.9208 5.12759,0.9208 0.63192,0 1.66104,-0.10833 1.02913,-0.10833 1.6791,-0.3611 0.79442,-0.32498 1.29995,-0.81246 0.5236,-0.48749 0.5236,-1.44439 0,-0.88469 -0.75831,-1.51661 -0.74024,-0.64997 -2.18464,-0.99302 -1.51661,-0.3611 -3.21376,-0.66803 -1.6791,-0.32499 -3.1596,-0.81247 -3.39432,-1.10135 -4.89287,-2.97905 -1.4805,-1.89577 -1.4805,-4.69427 0,-3.75541 3.35821,-6.12059 3.37625,-2.38325 8.66633,-2.38325 2.65406,0 5.23591,0.52359 2.5999,0.50554 4.49566,1.28189 v 6.19283 h -0.74025 q -1.62493,-1.29995 -3.99012,-2.16659 -2.34714,-0.88468 -4.80259,-0.88468 -0.86664,0 -1.73327,0.12638 -0.84858,0.10833 -1.643,0.43331 -0.70413,0.27083 -1.20967,0.83052 -0.50554,0.54166 -0.50554,1.2458 0,1.06523 0.81247,1.64299 0.81247,0.55969 3.06932,1.02912 1.4805,0.30694 2.83462,0.59582 1.37217,0.28887 2.94295,0.79441 3.08737,1.01107 4.54982,2.76239 1.4805,1.73327 1.4805,4.51372 z"
       style="font-style:normal;font-variant:normal;font-weight:bold;font-stretch:normal;font-size:37.33333206px;font-family:'Josefin Sans';-inkscape-font-specification:'Josefin Sans Bold';stroke-width:0.99043834"
       id="path290"
       inkscape:connector-curvature="0" />
    <path
       d="m 583.86902,248.09133 q 0,3.97207 -3.37626,6.46364 -3.35821,2.47352 -9.13576,2.47352 -3.34016,0 -5.83172,-0.57776 -2.47352,-0.59581 -4.64011,-1.49855 v -6.44559 h 0.75831 q 2.14853,1.71521 4.8026,2.63601 2.67211,0.9208 5.12758,0.9208 0.63192,0 1.66104,-0.10833 1.02914,-0.10833 1.67911,-0.3611 0.79441,-0.32498 1.29995,-0.81246 0.52359,-0.48749 0.52359,-1.44439 0,-0.88469 -0.7583,-1.51661 -0.74026,-0.64997 -2.18464,-0.99302 -1.51661,-0.3611 -3.21377,-0.66803 -1.67911,-0.32499 -3.1596,-0.81247 -3.39431,-1.10135 -4.89287,-2.97905 -1.4805,-1.89577 -1.4805,-4.69427 0,-3.75541 3.3582,-6.12059 3.37626,-2.38325 8.66634,-2.38325 2.65407,0 5.23591,0.52359 2.5999,0.50554 4.49566,1.28189 v 6.19283 h -0.74024 q -1.62494,-1.29995 -3.99013,-2.16659 -2.34713,-0.88468 -4.8026,-0.88468 -0.86663,0 -1.73326,0.12638 -0.84858,0.10833 -1.64299,0.43331 -0.70414,0.27083 -1.20968,0.83052 -0.50553,0.54166 -0.50553,1.2458 0,1.06523 0.81246,1.64299 0.81247,0.55969 3.06933,1.02912 1.4805,0.30694 2.83462,0.59582 1.37216,0.28887 2.94293,0.79441 3.08739,1.01107 4.54983,2.76239 1.4805,1.73327 1.4805,4.51372 z"
       style="font-style:normal;font-variant:normal;font-weight:bold;font-stretch:normal;font-size:37.33333206px;font-family:'Josefin Sans';-inkscape-font-specification:'Josefin Sans Bold';stroke-width:0.99043834"
       id="path292"
       inkscape:connector-curvature="0" />
    <path
       d="m 613.47899,256.541 h -7.16778 l -1.85965,-5.43451 h -9.96628 l -1.85965,5.43451 h -6.98723 l 9.93017,-26.88369 h 7.98025 z m -10.70653,-10.36349 -3.30404,-9.64129 -3.30404,9.64129 z m 4.0804,-25.58374 q -0.18054,3.05127 -1.49855,4.53177 -1.29995,1.46245 -3.64708,1.46245 -0.84858,0 -1.62494,-0.32499 -0.7583,-0.34304 -1.39022,-0.7222 -0.55971,-0.34304 -1.2458,-0.68608 -0.66803,-0.3611 -1.1194,-0.3611 -0.88468,0 -1.19162,0.57776 -0.28888,0.57775 -0.34303,1.62493 h -3.95402 q 0.10832,-2.72628 1.49855,-4.35122 1.40828,-1.62493 3.62903,-1.62493 0.86663,0 1.64299,0.32498 0.77636,0.30694 1.42634,0.68609 0.66803,0.36109 1.24578,0.68608 0.57776,0.30693 1.06523,0.30693 0.86664,0 1.19163,-0.57775 0.32498,-0.57776 0.36109,-1.55272 z"
       style="font-style:normal;font-variant:normal;font-weight:bold;font-stretch:normal;font-size:37.33333206px;font-family:'Josefin Sans';-inkscape-font-specification:'Josefin Sans Bold';stroke-width:0.99043834"
       id="path294"
       inkscape:connector-curvature="0" />
    <path
       d="m 643.52229,243.10818 q 0,6.42754 -3.6832,10.21906 -3.68319,3.77347 -10.18294,3.77347 -6.4817,0 -10.16489,-3.77347 -3.68319,-3.79152 -3.68319,-10.21906 0,-6.48169 3.68319,-10.2371 3.68319,-3.77347 10.16489,-3.77347 6.46364,0 10.16489,3.77347 3.70125,3.75541 3.70125,10.2371 z m -9.18992,6.80669 q 1.01107,-1.22773 1.49855,-2.88878 0.48747,-1.6791 0.48747,-3.93596 0,-2.41935 -0.55969,-4.11651 -0.5597,-1.69716 -1.46245,-2.74434 -0.9208,-1.08329 -2.13047,-1.57077 -1.19162,-0.48748 -2.49157,-0.48748 -1.31801,0 -2.49157,0.46942 -1.15552,0.46943 -2.13048,1.55272 -0.90274,1.01108 -1.4805,2.7985 -0.5597,1.76938 -0.5597,4.11651 0,2.4013 0.54164,4.09846 0.55971,1.67911 1.46246,2.74434 0.90273,1.06524 2.11241,1.57077 1.20967,0.50554 2.54574,0.50554 1.33606,0 2.54573,-0.50554 1.20968,-0.52359 2.11243,-1.60688 z"
       style="font-style:normal;font-variant:normal;font-weight:bold;font-stretch:normal;font-size:37.33333206px;font-family:'Josefin Sans';-inkscape-font-specification:'Josefin Sans Bold';stroke-width:0.99043834"
       id="path296"
       inkscape:connector-curvature="0" />
    <g
       aria-label="Formar autores de novas tecnologias através do ensino da robótica educacional"
       transform="scale(0.99982808,1.0001719)"
       style="font-style:normal;font-variant:normal;font-weight:normal;font-stretch:normal;font-size:35.29146194px;line-height:1.25;font-family:'Josefin Sans';-inkscape-font-specification:'Josefin Sans';letter-spacing:0px;word-spacing:0px;fill:#000000;fill-opacity:1;stroke:none;stroke-width:0.75949341"
       id="text301">
      <path
         d="m 419.58295,327.40137 h -12.97582 v 7.2375 h 11.14921 v 3.03286 h -11.14921 v 12.35546 h -3.41196 v -25.65868 h 16.38778 z"
         style="font-size:35.29146194px;stroke-width:0.75949341"
         id="path1114" />
      <path
         d="m 438.77957,340.41165 q 0,4.70438 -2.4125,7.42706 -2.4125,2.72268 -6.46206,2.72268 -4.08402,0 -6.49652,-2.72268 -2.39527,-2.72268 -2.39527,-7.42706 0,-4.70438 2.39527,-7.42706 2.4125,-2.73992 6.49652,-2.73992 4.04956,0 6.46206,2.73992 2.4125,2.72268 2.4125,7.42706 z m -3.34303,0 q 0,-3.73938 -1.46474,-5.54876 -1.46473,-1.82661 -4.06679,-1.82661 -2.63652,0 -4.10125,1.82661 -1.4475,1.80938 -1.4475,5.54876 0,3.61875 1.46473,5.49706 1.46473,1.86107 4.08402,1.86107 2.58483,0 4.04956,-1.84384 1.48197,-1.86108 1.48197,-5.51429 z"
         style="font-size:35.29146194px;stroke-width:0.75949341"
         id="path1116" />
      <path
         d="m 455.82218,334.31146 h -0.17232 q -0.72375,-0.17232 -1.41304,-0.24125 -0.67206,-0.0862 -1.60259,-0.0862 -1.4992,0 -2.895,0.67206 -1.39581,0.65482 -2.68822,1.70598 v 13.6651 h -3.23965 v -19.24832 h 3.23965 v 2.84331 q 1.93,-1.5509 3.39473,-2.18849 1.48197,-0.65482 3.01563,-0.65482 0.84438,0 1.22348,0.0517 0.37911,0.0345 1.13733,0.15509 z"
         style="font-size:35.29146194px;stroke-width:0.75949341"
         id="path1118" />
      <path
         d="m 486.99516,350.02719 h -3.23965 v -10.95965 q 0,-1.24072 -0.12062,-2.39527 -0.1034,-1.15456 -0.46527,-1.84384 -0.39634,-0.74099 -1.13732,-1.12009 -0.74099,-0.37911 -2.13679,-0.37911 -1.36134,0 -2.72268,0.68929 -1.36134,0.67205 -2.72268,1.72321 0.0517,0.39634 0.0862,0.93054 0.0345,0.51696 0.0345,1.03393 v 12.32099 h -3.23965 v -10.95965 q 0,-1.27518 -0.12062,-2.4125 -0.10339,-1.15456 -0.46527,-1.84385 -0.39634,-0.74098 -1.13732,-1.10285 -0.74098,-0.37911 -2.13679,-0.37911 -1.32688,0 -2.67098,0.65482 -1.32688,0.65482 -2.65376,1.67152 v 14.37162 h -3.23964 v -19.24832 h 3.23964 v 2.13679 q 1.51643,-1.25795 3.01563,-1.96447 1.51643,-0.70652 3.22242,-0.70652 1.96446,0 3.3258,0.82715 1.37857,0.82714 2.05063,2.29187 1.96446,-1.65428 3.58429,-2.37803 1.61982,-0.74099 3.46366,-0.74099 3.17072,0 4.66992,1.93 1.51643,1.91277 1.51643,5.35921 z"
         style="font-size:35.29146194px;stroke-width:0.75949341"
         id="path1120" />
      <path
         d="m 508.19071,350.02719 h -3.22241 v -2.05063 q -0.4308,0.29295 -1.17179,0.82715 -0.72375,0.51696 -1.41303,0.82714 -0.80992,0.39634 -1.86108,0.65482 -1.05116,0.27572 -2.4642,0.27572 -2.60205,0 -4.41143,-1.72322 -1.80938,-1.72321 -1.80938,-4.3942 0,-2.18848 0.93054,-3.53259 0.94777,-1.36134 2.68822,-2.13679 1.75768,-0.77545 4.22188,-1.05116 2.4642,-0.27572 5.29027,-0.41357 v -0.49973 q 0,-1.10286 -0.39634,-1.82661 -0.37911,-0.72375 -1.10286,-1.13733 -0.68928,-0.39634 -1.65429,-0.53419 -0.965,-0.13786 -2.01616,-0.13786 -1.27518,0 -2.8433,0.34464 -1.56813,0.32741 -3.23965,0.965 h -0.17232 v -3.29134 q 0.94777,-0.25848 2.73991,-0.56866 1.79215,-0.31018 3.53259,-0.31018 2.0334,0 3.5326,0.34464 1.51643,0.32742 2.61928,1.13733 1.08563,0.79268 1.65429,2.05062 0.56866,1.25795 0.56866,3.11902 z m -3.22241,-4.73884 v -5.3592 q -1.48197,0.0862 -3.49813,0.25848 -1.99893,0.17232 -3.17072,0.49973 -1.3958,0.39634 -2.25741,1.24072 -0.86161,0.82714 -0.86161,2.29187 0,1.65429 0.99947,2.49867 0.99946,0.82714 3.05009,0.82714 1.70598,0 3.11902,-0.65482 1.41304,-0.67206 2.61929,-1.60259 z"
         style="font-size:35.29146194px;stroke-width:0.75949341"
         id="path1122" />
      <path
         d="m 526.47403,334.31146 h -0.17232 q -0.72375,-0.17232 -1.41304,-0.24125 -0.67205,-0.0862 -1.60259,-0.0862 -1.49919,0 -2.895,0.67206 -1.3958,0.65482 -2.68822,1.70598 v 13.6651 h -3.23964 v -19.24832 h 3.23964 v 2.84331 q 1.93001,-1.5509 3.39474,-2.18849 1.48196,-0.65482 3.01563,-0.65482 0.84437,0 1.22348,0.0517 0.37911,0.0345 1.13732,0.15509 z"
         style="font-size:35.29146194px;stroke-width:0.75949341"
         id="path1124" />
      <path
         d="m 556.92327,350.02719 h -3.22242 v -2.05063 q -0.4308,0.29295 -1.17179,0.82715 -0.72375,0.51696 -1.41303,0.82714 -0.80991,0.39634 -1.86108,0.65482 -1.05116,0.27572 -2.46419,0.27572 -2.60206,0 -4.41144,-1.72322 -1.80937,-1.72321 -1.80937,-4.3942 0,-2.18848 0.93053,-3.53259 0.94777,-1.36134 2.68822,-2.13679 1.75768,-0.77545 4.22188,-1.05116 2.4642,-0.27572 5.29027,-0.41357 v -0.49973 q 0,-1.10286 -0.39634,-1.82661 -0.37911,-0.72375 -1.10286,-1.13733 -0.68928,-0.39634 -1.65428,-0.53419 -0.965,-0.13786 -2.01617,-0.13786 -1.27518,0 -2.8433,0.34464 -1.56813,0.32741 -3.23965,0.965 h -0.17232 v -3.29134 q 0.94777,-0.25848 2.73991,-0.56866 1.79215,-0.31018 3.5326,-0.31018 2.03339,0 3.53259,0.34464 1.51643,0.32742 2.61929,1.13733 1.08562,0.79268 1.65428,2.05062 0.56867,1.25795 0.56867,3.11902 z m -3.22242,-4.73884 v -5.3592 q -1.48196,0.0862 -3.49813,0.25848 -1.99893,0.17232 -3.17071,0.49973 -1.39581,0.39634 -2.25742,1.24072 -0.86161,0.82714 -0.86161,2.29187 0,1.65429 0.99947,2.49867 0.99947,0.82714 3.05009,0.82714 1.70599,0 3.11902,-0.65482 1.41304,-0.67206 2.61929,-1.60259 z"
         style="font-size:35.29146194px;stroke-width:0.75949341"
         id="path1126" />
      <path
         d="m 579.15274,350.02719 h -3.23964 v -2.13679 q -1.63706,1.29242 -3.13626,1.9817 -1.4992,0.68929 -3.30857,0.68929 -3.03286,0 -4.72161,-1.84384 -1.68876,-1.86108 -1.68876,-5.44537 v -12.49331 h 3.23965 v 10.95965 q 0,1.46474 0.13786,2.5159 0.13786,1.03393 0.58589,1.77491 0.46527,0.75822 1.20625,1.10286 0.74099,0.34464 2.15402,0.34464 1.25795,0 2.73992,-0.65482 1.49919,-0.65482 2.79161,-1.67152 v -14.37162 h 3.23964 z"
         style="font-size:35.29146194px;stroke-width:0.75949341"
         id="path1128" />
      <path
         d="m 595.5233,349.85487 q -0.9133,0.24125 -1.99893,0.39634 -1.06839,0.15509 -1.91277,0.15509 -2.9467,0 -4.48036,-1.58536 -1.53366,-1.58536 -1.53366,-5.08349 v -10.2359 h -2.18849 v -2.72268 h 2.18849 v -5.53152 h 3.23964 v 5.53152 h 6.68608 v 2.72268 h -6.68608 v 8.77117 q 0,1.51643 0.0689,2.37804 0.0689,0.84437 0.4825,1.58536 0.37911,0.68928 1.03393,1.01669 0.67205,0.31018 2.0334,0.31018 0.79267,0 1.65428,-0.22402 0.86161,-0.24125 1.24072,-0.39634 h 0.17232 z"
         style="font-size:35.29146194px;stroke-width:0.75949341"
         id="path1130" />
      <path
         d="m 615.85725,340.41165 q 0,4.70438 -2.41251,7.42706 -2.4125,2.72268 -6.46205,2.72268 -4.08403,0 -6.49653,-2.72268 -2.39527,-2.72268 -2.39527,-7.42706 0,-4.70438 2.39527,-7.42706 2.4125,-2.73992 6.49653,-2.73992 4.04955,0 6.46205,2.73992 2.41251,2.72268 2.41251,7.42706 z m -3.34304,0 q 0,-3.73938 -1.46474,-5.54876 -1.46473,-1.82661 -4.06678,-1.82661 -2.63653,0 -4.10126,1.82661 -1.4475,1.80938 -1.4475,5.54876 0,3.61875 1.46473,5.49706 1.46474,1.86107 4.08403,1.86107 2.58482,0 4.04955,-1.84384 1.48197,-1.86108 1.48197,-5.51429 z"
         style="font-size:35.29146194px;stroke-width:0.75949341"
         id="path1132" />
      <path
         d="m 632.89984,334.31146 h -0.17232 q -0.72375,-0.17232 -1.41303,-0.24125 -0.67206,-0.0862 -1.60259,-0.0862 -1.4992,0 -2.89501,0.67206 -1.3958,0.65482 -2.68821,1.70598 v 13.6651 h -3.23965 v -19.24832 h 3.23965 v 2.84331 q 1.93,-1.5509 3.39473,-2.18849 1.48197,-0.65482 3.01563,-0.65482 0.84437,0 1.22348,0.0517 0.37911,0.0345 1.13732,0.15509 z"
         style="font-size:35.29146194px;stroke-width:0.75949341"
         id="path1134" />
      <path
         d="m 652.09648,340.73906 h -14.18207 q 0,1.77491 0.5342,3.10179 0.5342,1.30964 1.46473,2.15402 0.89608,0.82714 2.11956,1.24071 1.24072,0.41357 2.72268,0.41357 1.96447,0 3.94617,-0.77544 1.99893,-0.79268 2.8433,-1.5509 h 0.17232 v 3.53259 q -1.63705,0.68929 -3.34304,1.15456 -1.70598,0.46527 -3.58428,0.46527 -4.79054,0 -7.47876,-2.58483 -2.68822,-2.60205 -2.68822,-7.37536 0,-4.72161 2.56759,-7.49599 2.58483,-2.77438 6.78947,-2.77438 3.89447,0 5.9968,2.27465 2.11955,2.27464 2.11955,6.46206 z m -3.15348,-2.48143 q -0.0172,-2.55036 -1.29242,-3.94617 -1.25794,-1.3958 -3.84277,-1.3958 -2.60205,0 -4.15295,1.53366 -1.53366,1.53366 -1.74045,3.80831 z"
         style="font-size:35.29146194px;stroke-width:0.75949341"
         id="path1136" />
      <path
         d="m 670.7589,344.47844 q 0,2.63652 -2.18848,4.32527 -2.17126,1.68875 -5.9451,1.68875 -2.13679,0 -3.92893,-0.49973 -1.77491,-0.51697 -2.98117,-1.12009 v -3.63599 h 0.17233 q 1.53366,1.15456 3.41196,1.84384 1.87831,0.67206 3.60152,0.67206 2.13679,0 3.34304,-0.68929 1.20625,-0.68929 1.20625,-2.17125 0,-1.13732 -0.65482,-1.72322 -0.65482,-0.58589 -2.51589,-0.99946 -0.68929,-0.15509 -1.80938,-0.36188 -1.10286,-0.20678 -2.01616,-0.44803 -2.53313,-0.67206 -3.60152,-1.96447 -1.05116,-1.30965 -1.05116,-3.20518 0,-1.18902 0.4825,-2.24018 0.49973,-1.05117 1.49919,-1.87831 0.965,-0.80991 2.44697,-1.27518 1.4992,-0.4825 3.34304,-0.4825 1.72321,0 3.4809,0.43081 1.77491,0.41357 2.94669,1.01669 v 3.46367 h -0.17232 q -1.24071,-0.91331 -3.01563,-1.53367 -1.77491,-0.63759 -3.48089,-0.63759 -1.77491,0 -2.9984,0.68929 -1.22348,0.67205 -1.22348,2.01616 0,1.18902 0.74098,1.79215 0.72375,0.60312 2.34358,0.98223 0.89607,0.20679 1.99893,0.41357 1.12009,0.20679 1.86107,0.37911 2.25741,0.51697 3.4809,1.77491 1.22348,1.27518 1.22348,3.37751 z"
         style="font-size:35.29146194px;stroke-width:0.75949341"
         id="path1138" />
      <path
         d="m 703.43107,350.02719 h -3.23965 v -2.01616 q -1.3958,1.20625 -2.91223,1.8783 -1.51643,0.67206 -3.29134,0.67206 -3.44644,0 -5.47983,-2.65375 -2.01616,-2.65376 -2.01616,-7.35814 0,-2.44696 0.68928,-4.35973 0.70652,-1.91277 1.89554,-3.25688 1.17179,-1.30964 2.72268,-1.99893 1.56813,-0.68929 3.23965,-0.68929 1.51643,0 2.68821,0.32741 1.17179,0.31018 2.4642,0.98224 v -8.34037 h 3.23965 z m -3.23965,-4.73884 v -11.04582 q -1.30964,-0.58589 -2.34357,-0.80991 -1.03393,-0.22402 -2.25741,-0.22402 -2.72268,0 -4.23911,1.89554 -1.51643,1.89554 -1.51643,5.37643 0,3.4292 1.17178,5.22135 1.17179,1.77491 3.75661,1.77491 1.37858,0 2.79161,-0.60312 1.41304,-0.62036 2.63652,-1.58536 z"
         style="font-size:35.29146194px;stroke-width:0.75949341"
         id="path1140" />
      <path
         d="m 725.91905,340.73906 h -14.18207 q 0,1.77491 0.5342,3.10179 0.5342,1.30964 1.46474,2.15402 0.89607,0.82714 2.11955,1.24071 1.24072,0.41357 2.72268,0.41357 1.96447,0 3.94617,-0.77544 1.99893,-0.79268 2.8433,-1.5509 h 0.17232 v 3.53259 q -1.63705,0.68929 -3.34303,1.15456 -1.70599,0.46527 -3.58429,0.46527 -4.79054,0 -7.47876,-2.58483 -2.68822,-2.60205 -2.68822,-7.37536 0,-4.72161 2.56759,-7.49599 2.58483,-2.77438 6.78948,-2.77438 3.89446,0 5.99679,2.27465 2.11955,2.27464 2.11955,6.46206 z m -3.15348,-2.48143 q -0.0172,-2.55036 -1.29242,-3.94617 -1.25794,-1.3958 -3.84277,-1.3958 -2.60205,0 -4.15295,1.53366 -1.53366,1.53366 -1.74045,3.80831 z"
         style="font-size:35.29146194px;stroke-width:0.75949341"
         id="path1142" />
      <path
         d="m 425.30403,394.14152 h -3.23965 v -10.95965 q 0,-1.32688 -0.15509,-2.48144 -0.15509,-1.17178 -0.56866,-1.8266 -0.43081,-0.72376 -1.24072,-1.0684 -0.80991,-0.36187 -2.10232,-0.36187 -1.32688,0 -2.77438,0.65482 -1.4475,0.65482 -2.77438,1.67152 v 14.37162 h -3.23964 V 374.8932 h 3.23964 v 2.13678 q 1.51643,-1.25794 3.13626,-1.96446 1.61982,-0.70652 3.3258,-0.70652 3.11903,0 4.75608,1.87831 1.63706,1.8783 1.63706,5.41089 z"
         style="font-size:35.29146194px;stroke-width:0.75949341"
         id="path1144" />
      <path
         d="m 447.94708,384.52597 q 0,4.70438 -2.4125,7.42706 -2.4125,2.72269 -6.46206,2.72269 -4.08402,0 -6.49652,-2.72269 -2.39527,-2.72268 -2.39527,-7.42706 0,-4.70438 2.39527,-7.42706 2.4125,-2.73991 6.49652,-2.73991 4.04956,0 6.46206,2.73991 2.4125,2.72268 2.4125,7.42706 z m -3.34304,0 q 0,-3.73937 -1.46473,-5.54875 -1.46473,-1.82661 -4.06679,-1.82661 -2.63652,0 -4.10125,1.82661 -1.4475,1.80938 -1.4475,5.54875 0,3.61876 1.46473,5.49706 1.46473,1.86108 4.08402,1.86108 2.58482,0 4.04956,-1.84385 1.48196,-1.86107 1.48196,-5.51429 z"
         style="font-size:35.29146194px;stroke-width:0.75949341"
         id="path1146" />
      <path
         d="m 469.34942,374.8932 -7.78893,19.24832 h -3.25688 l -7.73724,-19.24832 h 3.51536 l 5.96233,15.31939 5.91063,-15.31939 z"
         style="font-size:35.29146194px;stroke-width:0.75949341"
         id="path1148" />
      <path
         d="m 487.85676,394.14152 h -3.22241 v -2.05063 q -0.43081,0.29295 -1.17179,0.82715 -0.72375,0.51696 -1.41304,0.82714 -0.80991,0.39634 -1.86107,0.65482 -1.05116,0.27572 -2.4642,0.27572 -2.60205,0 -4.41143,-1.72322 -1.80938,-1.72322 -1.80938,-4.3942 0,-2.18849 0.93054,-3.53259 0.94777,-1.36134 2.68822,-2.13679 1.75768,-0.77545 4.22188,-1.05116 2.46419,-0.27572 5.29027,-0.41357 v -0.49974 q 0,-1.10286 -0.39634,-1.82661 -0.37911,-0.72375 -1.10286,-1.13732 -0.68929,-0.39634 -1.65429,-0.5342 -0.965,-0.13785 -2.01616,-0.13785 -1.27518,0 -2.84331,0.34464 -1.56812,0.32741 -3.23964,0.965 h -0.17232 v -3.29134 q 0.94777,-0.25848 2.73991,-0.56866 1.79215,-0.31018 3.53259,-0.31018 2.0334,0 3.5326,0.34464 1.51643,0.32741 2.61928,1.13732 1.08563,0.79268 1.65429,2.05063 0.56866,1.25795 0.56866,3.11902 z m -3.22241,-4.73885 v -5.3592 q -1.48197,0.0862 -3.49813,0.25849 -1.99893,0.17232 -3.17072,0.49973 -1.3958,0.39634 -2.25741,1.24071 -0.86161,0.82715 -0.86161,2.29188 0,1.65429 0.99947,2.49866 0.99946,0.82715 3.05009,0.82715 1.70598,0 3.11902,-0.65482 1.41304,-0.67206 2.61929,-1.6026 z"
         style="font-size:35.29146194px;stroke-width:0.75949341"
         id="path1150" />
      <path
         d="m 507.88053,388.59276 q 0,2.63652 -2.18848,4.32528 -2.17125,1.68875 -5.9451,1.68875 -2.13678,0 -3.92893,-0.49974 -1.77491,-0.51696 -2.98116,-1.12009 v -3.63598 h 0.17232 q 1.53366,1.15455 3.41197,1.84384 1.8783,0.67205 3.60152,0.67205 2.13679,0 3.34304,-0.68928 1.20625,-0.68929 1.20625,-2.17125 0,-1.13733 -0.65482,-1.72322 -0.65482,-0.58589 -2.5159,-0.99947 -0.68928,-0.15509 -1.80937,-0.36187 -1.10286,-0.20679 -2.01617,-0.44804 -2.53312,-0.67205 -3.60152,-1.96446 -1.05116,-1.30965 -1.05116,-3.20519 0,-1.18901 0.4825,-2.24018 0.49973,-1.05116 1.4992,-1.8783 0.965,-0.80991 2.44696,-1.27518 1.4992,-0.4825 3.34304,-0.4825 1.72322,0 3.4809,0.4308 1.77491,0.41357 2.9467,1.0167 v 3.46366 H 506.95 q -1.24072,-0.9133 -3.01563,-1.53366 -1.77491,-0.63759 -3.4809,-0.63759 -1.77491,0 -2.99839,0.68929 -1.22349,0.67205 -1.22349,2.01616 0,1.18902 0.74099,1.79215 0.72375,0.60312 2.34357,0.98223 0.89607,0.20678 1.99893,0.41357 1.12009,0.20679 1.86107,0.37911 2.25742,0.51696 3.4809,1.77491 1.22348,1.27518 1.22348,3.3775 z"
         style="font-size:35.29146194px;stroke-width:0.75949341"
         id="path1152" />
      <path
         d="m 534.93502,393.9692 q -0.91331,0.24125 -1.99893,0.39634 -1.06839,0.15509 -1.91277,0.15509 -2.9467,0 -4.48036,-1.58536 -1.53366,-1.58536 -1.53366,-5.08349 v -10.2359 h -2.18849 v -2.72268 h 2.18849 v -5.53153 h 3.23964 v 5.53153 h 6.68608 v 2.72268 h -6.68608 v 8.77117 q 0,1.51643 0.0689,2.37803 0.0689,0.84438 0.4825,1.58536 0.37911,0.68929 1.03393,1.0167 0.67205,0.31018 2.0334,0.31018 0.79267,0 1.65428,-0.22402 0.86161,-0.24125 1.24072,-0.39634 h 0.17232 z"
         style="font-size:35.29146194px;stroke-width:0.75949341"
         id="path1154" />
      <path
         d="m 554.97603,384.85338 h -14.18207 q 0,1.77492 0.5342,3.10179 0.53419,1.30965 1.46473,2.15402 0.89607,0.82715 2.11956,1.24072 1.24071,0.41357 2.72268,0.41357 1.96446,0 3.94616,-0.77545 1.99893,-0.79268 2.84331,-1.55089 h 0.17232 v 3.53259 q -1.63706,0.68929 -3.34304,1.15456 -1.70598,0.46526 -3.58429,0.46526 -4.79054,0 -7.47876,-2.58482 -2.68821,-2.60206 -2.68821,-7.37536 0,-4.72161 2.56759,-7.49599 2.58482,-2.77438 6.78947,-2.77438 3.89447,0 5.99679,2.27464 2.11956,2.27465 2.11956,6.46206 z m -3.15349,-2.48143 q -0.0172,-2.55036 -1.29241,-3.94616 -1.25795,-1.39581 -3.84277,-1.39581 -2.60206,0 -4.15295,1.53367 -1.53366,1.53366 -1.74045,3.8083 z"
         style="font-size:35.29146194px;stroke-width:0.75949341"
         id="path1156" />
      <path
         d="m 574.12095,392.93527 q -1.61983,0.77544 -3.08456,1.20625 -1.4475,0.4308 -3.08456,0.4308 -2.08509,0 -3.82554,-0.60312 -1.74044,-0.62036 -2.98116,-1.86108 -1.25795,-1.24071 -1.94723,-3.13625 -0.68929,-1.89554 -0.68929,-4.42866 0,-4.72162 2.58482,-7.40983 2.60206,-2.68822 6.8584,-2.68822 1.65429,0 3.23965,0.46527 1.60259,0.46527 2.92947,1.13732 v 3.60152 h -0.17233 q -1.48196,-1.15455 -3.06732,-1.77491 -1.56813,-0.62036 -3.06732,-0.62036 -2.75715,0 -4.35974,1.86108 -1.58536,1.84384 -1.58536,5.42813 0,3.48089 1.5509,5.3592 1.56812,1.86107 4.3942,1.86107 0.98223,0 1.99893,-0.25848 1.01669,-0.25848 1.82661,-0.67206 0.70651,-0.36187 1.32687,-0.75821 0.62036,-0.41357 0.98223,-0.70652 h 0.17233 z"
         style="font-size:35.29146194px;stroke-width:0.75949341"
         id="path1158" />
      <path
         d="m 594.38597,394.14152 h -3.23965 v -10.95965 q 0,-1.32688 -0.15509,-2.48144 -0.15509,-1.17178 -0.56866,-1.8266 -0.43081,-0.72376 -1.24072,-1.0684 -0.80991,-0.36187 -2.10232,-0.36187 -1.32688,0 -2.77438,0.65482 -1.4475,0.65482 -2.77438,1.67152 v 14.37162 h -3.23964 V 374.8932 h 3.23964 v 2.13678 q 1.51643,-1.25794 3.13626,-1.96446 1.61982,-0.70652 3.3258,-0.70652 3.11902,0 4.75608,1.87831 1.63706,1.8783 1.63706,5.41089 z"
         style="font-size:35.29146194px;stroke-width:0.75949341"
         id="path1160" />
      <path
         d="m 617.02903,384.52597 q 0,4.70438 -2.4125,7.42706 -2.4125,2.72269 -6.46206,2.72269 -4.08402,0 -6.49653,-2.72269 -2.39527,-2.72268 -2.39527,-7.42706 0,-4.70438 2.39527,-7.42706 2.41251,-2.73991 6.49653,-2.73991 4.04956,0 6.46206,2.73991 2.4125,2.72268 2.4125,7.42706 z m -3.34304,0 q 0,-3.73937 -1.46473,-5.54875 -1.46474,-1.82661 -4.06679,-1.82661 -2.63652,0 -4.10126,1.82661 -1.4475,1.80938 -1.4475,5.54875 0,3.61876 1.46474,5.49706 1.46473,1.86108 4.08402,1.86108 2.58482,0 4.04956,-1.84385 1.48196,-1.86107 1.48196,-5.51429 z"
         style="font-size:35.29146194px;stroke-width:0.75949341"
         id="path1162" />
      <path
         d="m 625.33492,394.14152 h -3.23964 v -26.81324 h 3.23964 z"
         style="font-size:35.29146194px;stroke-width:0.75949341"
         id="path1164" />
      <path
         d="m 648.18478,384.52597 q 0,4.70438 -2.41251,7.42706 -2.4125,2.72269 -6.46206,2.72269 -4.08402,0 -6.49652,-2.72269 -2.39527,-2.72268 -2.39527,-7.42706 0,-4.70438 2.39527,-7.42706 2.4125,-2.73991 6.49652,-2.73991 4.04956,0 6.46206,2.73991 2.41251,2.72268 2.41251,7.42706 z m -3.34304,0 q 0,-3.73937 -1.46474,-5.54875 -1.46473,-1.82661 -4.06679,-1.82661 -2.63652,0 -4.10125,1.82661 -1.4475,1.80938 -1.4475,5.54875 0,3.61876 1.46473,5.49706 1.46474,1.86108 4.08402,1.86108 2.58483,0 4.04956,-1.84385 1.48197,-1.86107 1.48197,-5.51429 z"
         style="font-size:35.29146194px;stroke-width:0.75949341"
         id="path1166" />
      <path
         d="m 668.82889,391.95303 q 0,4.89394 -2.22294,7.18581 -2.22295,2.29188 -6.84117,2.29188 -1.53366,0 -2.9984,-0.22402 -1.4475,-0.20678 -2.86053,-0.60312 V 397.295 h 0.17232 q 0.79268,0.31018 2.51589,0.75822 1.72322,0.46527 3.44643,0.46527 1.65429,0 2.73992,-0.39634 1.08562,-0.39634 1.68875,-1.10286 0.60312,-0.67206 0.86161,-1.61982 0.25848,-0.94777 0.25848,-2.11956 v -1.75768 q -1.46473,1.17179 -2.80884,1.75768 -1.32688,0.56866 -3.39474,0.56866 -3.44643,0 -5.47982,-2.48143 -2.01617,-2.49866 -2.01617,-7.03072 0,-2.48143 0.68929,-4.27358 0.70652,-1.80937 1.91277,-3.11902 1.12009,-1.22348 2.72268,-1.89553 1.60259,-0.68929 3.18795,-0.68929 1.67152,0 2.79161,0.34464 1.13732,0.32741 2.39527,1.0167 l 0.20678,-0.82714 h 3.03286 z m -3.23964,-3.10178 v -10.49439 q -1.29241,-0.58589 -2.4125,-0.82714 -1.10286,-0.25849 -2.20572,-0.25849 -2.67098,0 -4.20465,1.79215 -1.53366,1.79214 -1.53366,5.20411 0,3.23965 1.13732,4.91117 1.13733,1.67152 3.77385,1.67152 1.41303,0 2.82607,-0.5342 1.43027,-0.55143 2.61929,-1.46473 z"
         style="font-size:35.29146194px;stroke-width:0.75949341"
         id="path1168" />
      <path
         d="m 678.68569,371.67078 h -3.65322 v -3.36027 h 3.65322 z m -0.20679,22.47074 h -3.23964 V 374.8932 h 3.23964 z"
         style="font-size:35.29146194px;stroke-width:0.75949341"
         id="path1170" />
      <path
         d="m 699.88124,394.14152 h -3.22241 v -2.05063 q -0.43081,0.29295 -1.17179,0.82715 -0.72375,0.51696 -1.41304,0.82714 -0.80991,0.39634 -1.86107,0.65482 -1.05116,0.27572 -2.4642,0.27572 -2.60205,0 -4.41143,-1.72322 -1.80938,-1.72322 -1.80938,-4.3942 0,-2.18849 0.93054,-3.53259 0.94777,-1.36134 2.68822,-2.13679 1.75768,-0.77545 4.22187,-1.05116 2.4642,-0.27572 5.29028,-0.41357 v -0.49974 q 0,-1.10286 -0.39634,-1.82661 -0.37911,-0.72375 -1.10286,-1.13732 -0.68929,-0.39634 -1.65429,-0.5342 -0.965,-0.13785 -2.01616,-0.13785 -1.27518,0 -2.84331,0.34464 -1.56812,0.32741 -3.23964,0.965 h -0.17232 v -3.29134 q 0.94776,-0.25848 2.73991,-0.56866 1.79214,-0.31018 3.53259,-0.31018 2.0334,0 3.53259,0.34464 1.51643,0.32741 2.61929,1.13732 1.08563,0.79268 1.65429,2.05063 0.56866,1.25795 0.56866,3.11902 z m -3.22241,-4.73885 v -5.3592 q -1.48197,0.0862 -3.49813,0.25849 -1.99893,0.17232 -3.17072,0.49973 -1.3958,0.39634 -2.25741,1.24071 -0.86161,0.82715 -0.86161,2.29188 0,1.65429 0.99947,2.49866 0.99946,0.82715 3.05009,0.82715 1.70598,0 3.11902,-0.65482 1.41304,-0.67206 2.61929,-1.6026 z"
         style="font-size:35.29146194px;stroke-width:0.75949341"
         id="path1172" />
      <path
         d="m 719.90503,388.59276 q 0,2.63652 -2.18848,4.32528 -2.17125,1.68875 -5.9451,1.68875 -2.13678,0 -3.92893,-0.49974 -1.77491,-0.51696 -2.98116,-1.12009 v -3.63598 h 0.17232 q 1.53366,1.15455 3.41197,1.84384 1.8783,0.67205 3.60152,0.67205 2.13679,0 3.34304,-0.68928 1.20625,-0.68929 1.20625,-2.17125 0,-1.13733 -0.65482,-1.72322 -0.65483,-0.58589 -2.5159,-0.99947 -0.68929,-0.15509 -1.80938,-0.36187 -1.10285,-0.20679 -2.01616,-0.44804 -2.53313,-0.67205 -3.60152,-1.96446 -1.05116,-1.30965 -1.05116,-3.20519 0,-1.18901 0.4825,-2.24018 0.49973,-1.05116 1.4992,-1.8783 0.965,-0.80991 2.44696,-1.27518 1.4992,-0.4825 3.34304,-0.4825 1.72322,0 3.4809,0.4308 1.77491,0.41357 2.9467,1.0167 v 3.46366 h -0.17232 q -1.24072,-0.9133 -3.01563,-1.53366 -1.77491,-0.63759 -3.4809,-0.63759 -1.77491,0 -2.99839,0.68929 -1.22349,0.67205 -1.22349,2.01616 0,1.18902 0.74099,1.79215 0.72375,0.60312 2.34357,0.98223 0.89607,0.20678 1.99893,0.41357 1.12009,0.20679 1.86107,0.37911 2.25742,0.51696 3.4809,1.77491 1.22348,1.27518 1.22348,3.3775 z"
         style="font-size:35.29146194px;stroke-width:0.75949341"
         id="path1174" />
      <path
         d="m 396.8365,438.25585 h -3.22242 v -2.05063 q -0.4308,0.29295 -1.17178,0.82714 -0.72375,0.51697 -1.41304,0.82715 -0.80991,0.39634 -1.86107,0.65482 -1.05116,0.27571 -2.4642,0.27571 -2.60206,0 -4.41143,-1.72321 -1.80938,-1.72322 -1.80938,-4.3942 0,-2.18849 0.93054,-3.5326 0.94776,-1.36134 2.68821,-2.13678 1.75768,-0.77545 4.22188,-1.05117 2.4642,-0.27571 5.29027,-0.41357 v -0.49973 q 0,-1.10286 -0.39633,-1.82661 -0.37911,-0.72375 -1.10286,-1.13732 -0.68929,-0.39634 -1.65429,-0.5342 -0.965,-0.13786 -2.01616,-0.13786 -1.27518,0 -2.84331,0.34465 -1.56813,0.32741 -3.23965,0.965 h -0.17232 v -3.29134 q 0.94777,-0.25849 2.73992,-0.56867 1.79214,-0.31017 3.53259,-0.31017 2.03339,0 3.53259,0.34464 1.51643,0.32741 2.61929,1.13732 1.08563,0.79268 1.65429,2.05063 0.56866,1.25795 0.56866,3.11902 z m -3.22242,-4.73885 v -5.3592 q -1.48196,0.0862 -3.49812,0.25848 -1.99893,0.17232 -3.17072,0.49974 -1.39581,0.39634 -2.25741,1.24071 -0.86161,0.82714 -0.86161,2.29188 0,1.65429 0.99946,2.49866 0.99947,0.82715 3.0501,0.82715 1.70598,0 3.11902,-0.65483 1.41303,-0.67205 2.61928,-1.60259 z"
         style="font-size:35.29146194px;stroke-width:0.75949341"
         id="path1176" />
      <path
         d="m 413.10366,438.08352 q -0.91331,0.24125 -1.99893,0.39634 -1.0684,0.15509 -1.91277,0.15509 -2.9467,0 -4.48036,-1.58536 -1.53367,-1.58535 -1.53367,-5.08348 v -10.2359 h -2.18848 v -2.72269 h 2.18848 V 413.476 h 3.23965 v 5.53152 h 6.68608 v 2.72269 h -6.68608 v 8.77116 q 0,1.51643 0.0689,2.37804 0.0689,0.84438 0.4825,1.58536 0.37911,0.68929 1.03393,1.0167 0.67205,0.31018 2.03339,0.31018 0.79268,0 1.65429,-0.22402 0.86161,-0.24125 1.24072,-0.39634 h 0.17232 z"
         style="font-size:35.29146194px;stroke-width:0.75949341"
         id="path1178" />
      <path
         d="m 429.04341,422.54012 h -0.17233 q -0.72375,-0.17232 -1.41303,-0.24125 -0.67206,-0.0862 -1.60259,-0.0862 -1.4992,0 -2.89501,0.67205 -1.3958,0.65482 -2.68821,1.70598 v 13.66511 h -3.23965 v -19.24833 h 3.23965 v 2.84331 q 1.93,-1.55089 3.39473,-2.18848 1.48197,-0.65483 3.01563,-0.65483 0.84438,0 1.22348,0.0517 0.37911,0.0345 1.13733,0.15509 z"
         style="font-size:35.29146194px;stroke-width:0.75949341"
         id="path1180" />
      <path
         d="m 446.46512,438.25585 h -3.22242 v -2.05063 q -0.4308,0.29295 -1.17178,0.82714 -0.72375,0.51697 -1.41304,0.82715 -0.80991,0.39634 -1.86107,0.65482 -1.05116,0.27571 -2.4642,0.27571 -2.60206,0 -4.41143,-1.72321 -1.80938,-1.72322 -1.80938,-4.3942 0,-2.18849 0.93054,-3.5326 0.94776,-1.36134 2.68821,-2.13678 1.75768,-0.77545 4.22188,-1.05117 2.4642,-0.27571 5.29027,-0.41357 v -0.49973 q 0,-1.10286 -0.39633,-1.82661 -0.37911,-0.72375 -1.10286,-1.13732 -0.68929,-0.39634 -1.65429,-0.5342 -0.965,-0.13786 -2.01616,-0.13786 -1.27518,0 -2.84331,0.34465 -1.56813,0.32741 -3.23965,0.965 h -0.17232 v -3.29134 q 0.94777,-0.25849 2.73992,-0.56867 1.79214,-0.31017 3.53259,-0.31017 2.03339,0 3.53259,0.34464 1.51643,0.32741 2.61929,1.13732 1.08563,0.79268 1.65429,2.05063 0.56866,1.25795 0.56866,3.11902 z M 443.2427,433.517 v -5.3592 q -1.48196,0.0862 -3.49812,0.25848 -1.99893,0.17232 -3.17072,0.49974 -1.39581,0.39634 -2.25741,1.24071 -0.86161,0.82714 -0.86161,2.29188 0,1.65429 0.99946,2.49866 0.99947,0.82715 3.0501,0.82715 1.70598,0 3.11902,-0.65483 1.41303,-0.67205 2.61928,-1.60259 z"
         style="font-size:35.29146194px;stroke-width:0.75949341"
         id="path1182" />
      <path
         d="m 469.10817,419.00752 -7.78893,19.24833 h -3.25688 l -7.73724,-19.24833 h 3.51536 l 5.96233,15.31939 5.91063,-15.31939 z"
         style="font-size:35.29146194px;stroke-width:0.75949341"
         id="path1184" />
      <path
         d="m 489.45935,428.96771 h -14.18206 q 0,1.77491 0.53419,3.10179 0.5342,1.30964 1.46474,2.15402 0.89607,0.82714 2.11955,1.24072 1.24072,0.41357 2.72268,0.41357 1.96447,0 3.94617,-0.77545 1.99893,-0.79268 2.8433,-1.55089 h 0.17233 v 3.53259 q -1.63706,0.68929 -3.34304,1.15455 -1.70599,0.46527 -3.58429,0.46527 -4.79054,0 -7.47876,-2.58482 -2.68822,-2.60206 -2.68822,-7.37537 0,-4.72161 2.5676,-7.49599 2.58482,-2.77437 6.78947,-2.77437 3.89446,0 5.99679,2.27464 2.11955,2.27465 2.11955,6.46206 z m -3.15348,-2.48143 q -0.0172,-2.55036 -1.29241,-3.94616 -1.25795,-1.39581 -3.84278,-1.39581 -2.60205,0 -4.15295,1.53366 -1.53366,1.53367 -1.74044,3.80831 z m 0.39634,-17.11153 -4.70438,6.44482 h -2.56759 l 3.08455,-6.44482 z"
         style="font-size:35.29146194px;stroke-width:0.75949341"
         id="path1186" />
      <path
         d="m 508.12178,432.70709 q 0,2.63652 -2.18849,4.32527 -2.17125,1.68875 -5.94509,1.68875 -2.13679,0 -3.92893,-0.49973 -1.77492,-0.51696 -2.98117,-1.12009 v -3.63598 h 0.17233 q 1.53366,1.15455 3.41196,1.84384 1.87831,0.67205 3.60152,0.67205 2.13679,0 3.34304,-0.68929 1.20625,-0.68928 1.20625,-2.17125 0,-1.13732 -0.65482,-1.72321 -0.65482,-0.5859 -2.51589,-0.99947 -0.68929,-0.15509 -1.80938,-0.36187 -1.10286,-0.20679 -2.01616,-0.44804 -2.53313,-0.67205 -3.60152,-1.96447 -1.05117,-1.30964 -1.05117,-3.20518 0,-1.18902 0.48251,-2.24018 0.49973,-1.05116 1.49919,-1.8783 0.965,-0.80992 2.44697,-1.27518 1.4992,-0.4825 3.34304,-0.4825 1.72321,0 3.48089,0.4308 1.77492,0.41357 2.9467,1.0167 v 3.46366 h -0.17232 q -1.24071,-0.9133 -3.01563,-1.53366 -1.77491,-0.63759 -3.48089,-0.63759 -1.77491,0 -2.9984,0.68929 -1.22348,0.67205 -1.22348,2.01616 0,1.18902 0.74098,1.79214 0.72375,0.60313 2.34358,0.98224 0.89607,0.20678 1.99893,0.41357 1.12009,0.20678 1.86107,0.37911 2.25741,0.51696 3.4809,1.77491 1.22348,1.27518 1.22348,3.3775 z"
         style="font-size:35.29146194px;stroke-width:0.75949341"
         id="path1188" />
      <path
         d="m 540.79396,438.25585 h -3.23964 v -2.01617 q -1.39581,1.20625 -2.91224,1.87831 -1.51643,0.67205 -3.29134,0.67205 -3.44643,0 -5.47983,-2.65375 -2.01616,-2.65375 -2.01616,-7.35813 0,-2.44697 0.68929,-4.35974 0.70652,-1.91277 1.89553,-3.25688 1.17179,-1.30964 2.72269,-1.99893 1.56812,-0.68928 3.23964,-0.68928 1.51643,0 2.68822,0.32741 1.17179,0.31018 2.4642,0.98223 v -8.34036 h 3.23964 z m -3.23964,-4.73885 v -11.04581 q -1.30965,-0.5859 -2.34358,-0.80991 -1.03393,-0.22402 -2.25741,-0.22402 -2.72268,0 -4.23911,1.89554 -1.51643,1.89553 -1.51643,5.37643 0,3.4292 1.17179,5.22134 1.17178,1.77492 3.75661,1.77492 1.37857,0 2.79161,-0.60313 1.41303,-0.62036 2.63652,-1.58536 z"
         style="font-size:35.29146194px;stroke-width:0.75949341"
         id="path1190" />
      <path
         d="m 563.57486,428.6403 q 0,4.70438 -2.4125,7.42706 -2.4125,2.72268 -6.46206,2.72268 -4.08402,0 -6.49652,-2.72268 -2.39527,-2.72268 -2.39527,-7.42706 0,-4.70438 2.39527,-7.42706 2.4125,-2.73991 6.49652,-2.73991 4.04956,0 6.46206,2.73991 2.4125,2.72268 2.4125,7.42706 z m -3.34304,0 q 0,-3.73938 -1.46473,-5.54875 -1.46473,-1.82661 -4.06679,-1.82661 -2.63652,0 -4.10125,1.82661 -1.4475,1.80937 -1.4475,5.54875 0,3.61875 1.46473,5.49706 1.46473,1.86107 4.08402,1.86107 2.58482,0 4.04956,-1.84384 1.48196,-1.86107 1.48196,-5.51429 z"
         style="font-size:35.29146194px;stroke-width:0.75949341"
         id="path1192" />
      <path
         d="m 597.12588,428.96771 h -14.18207 q 0,1.77491 0.5342,3.10179 0.5342,1.30964 1.46473,2.15402 0.89608,0.82714 2.11956,1.24072 1.24071,0.41357 2.72268,0.41357 1.96447,0 3.94616,-0.77545 1.99893,-0.79268 2.84331,-1.55089 h 0.17232 v 3.53259 q -1.63705,0.68929 -3.34304,1.15455 -1.70598,0.46527 -3.58429,0.46527 -4.79054,0 -7.47875,-2.58482 -2.68822,-2.60206 -2.68822,-7.37537 0,-4.72161 2.56759,-7.49599 2.58483,-2.77437 6.78947,-2.77437 3.89447,0 5.99679,2.27464 2.11956,2.27465 2.11956,6.46206 z m -3.15349,-2.48143 q -0.0172,-2.55036 -1.29241,-3.94616 -1.25794,-1.39581 -3.84277,-1.39581 -2.60205,0 -4.15295,1.53366 -1.53366,1.53367 -1.74045,3.80831 z"
         style="font-size:35.29146194px;stroke-width:0.75949341"
         id="path1194" />
      <path
         d="m 618.13189,438.25585 h -3.23965 v -10.95966 q 0,-1.32687 -0.15509,-2.48143 -0.15509,-1.17178 -0.56866,-1.82661 -0.4308,-0.72375 -1.24072,-1.06839 -0.80991,-0.36188 -2.10232,-0.36188 -1.32687,0 -2.77438,0.65483 -1.4475,0.65482 -2.77437,1.67152 v 14.37162 h -3.23965 v -19.24833 h 3.23965 v 2.13679 q 1.51643,-1.25795 3.13625,-1.96446 1.61982,-0.70652 3.32581,-0.70652 3.11902,0 4.75607,1.8783 1.63706,1.87831 1.63706,5.4109 z"
         style="font-size:35.29146194px;stroke-width:0.75949341"
         id="path1196" />
      <path
         d="m 638.12118,432.70709 q 0,2.63652 -2.18848,4.32527 -2.17125,1.68875 -5.9451,1.68875 -2.13678,0 -3.92893,-0.49973 -1.77491,-0.51696 -2.98116,-1.12009 v -3.63598 h 0.17232 q 1.53366,1.15455 3.41197,1.84384 1.8783,0.67205 3.60152,0.67205 2.13679,0 3.34304,-0.68929 1.20625,-0.68928 1.20625,-2.17125 0,-1.13732 -0.65482,-1.72321 -0.65482,-0.5859 -2.5159,-0.99947 -0.68928,-0.15509 -1.80937,-0.36187 -1.10286,-0.20679 -2.01617,-0.44804 -2.53312,-0.67205 -3.60152,-1.96447 -1.05116,-1.30964 -1.05116,-3.20518 0,-1.18902 0.4825,-2.24018 0.49973,-1.05116 1.4992,-1.8783 0.965,-0.80992 2.44696,-1.27518 1.4992,-0.4825 3.34304,-0.4825 1.72322,0 3.4809,0.4308 1.77491,0.41357 2.9467,1.0167 v 3.46366 h -0.17232 q -1.24072,-0.9133 -3.01563,-1.53366 -1.77491,-0.63759 -3.4809,-0.63759 -1.77491,0 -2.99839,0.68929 -1.22349,0.67205 -1.22349,2.01616 0,1.18902 0.74099,1.79214 0.72375,0.60313 2.34357,0.98224 0.89607,0.20678 1.99893,0.41357 1.12009,0.20678 1.86107,0.37911 2.25742,0.51696 3.4809,1.77491 1.22348,1.27518 1.22348,3.3775 z"
         style="font-size:35.29146194px;stroke-width:0.75949341"
         id="path1198" />
      <path
         d="m 646.25478,415.78511 h -3.65322 v -3.36027 h 3.65322 z m -0.20679,22.47074 h -3.23964 v -19.24833 h 3.23964 z"
         style="font-size:35.29146194px;stroke-width:0.75949341"
         id="path1200" />
      <path
         d="m 668.58765,438.25585 h -3.23964 v -10.95966 q 0,-1.32687 -0.15509,-2.48143 -0.15509,-1.17178 -0.56867,-1.82661 -0.4308,-0.72375 -1.24071,-1.06839 -0.80991,-0.36188 -2.10232,-0.36188 -1.32688,0 -2.77438,0.65483 -1.4475,0.65482 -2.77438,1.67152 v 14.37162 h -3.23965 v -19.24833 h 3.23965 v 2.13679 q 1.51643,-1.25795 3.13625,-1.96446 1.61983,-0.70652 3.32581,-0.70652 3.11902,0 4.75608,1.8783 1.63705,1.87831 1.63705,5.4109 z"
         style="font-size:35.29146194px;stroke-width:0.75949341"
         id="path1202" />
      <path
         d="m 691.23072,428.6403 q 0,4.70438 -2.41251,7.42706 -2.4125,2.72268 -6.46206,2.72268 -4.08402,0 -6.49652,-2.72268 -2.39527,-2.72268 -2.39527,-7.42706 0,-4.70438 2.39527,-7.42706 2.4125,-2.73991 6.49652,-2.73991 4.04956,0 6.46206,2.73991 2.41251,2.72268 2.41251,7.42706 z m -3.34304,0 q 0,-3.73938 -1.46474,-5.54875 -1.46473,-1.82661 -4.06679,-1.82661 -2.63652,0 -4.10125,1.82661 -1.4475,1.80937 -1.4475,5.54875 0,3.61875 1.46473,5.49706 1.46474,1.86107 4.08402,1.86107 2.58483,0 4.04956,-1.84384 1.48197,-1.86107 1.48197,-5.51429 z"
         style="font-size:35.29146194px;stroke-width:0.75949341"
         id="path1204" />
      <path
         d="m 724.282,438.25585 h -3.23965 v -2.01617 q -1.3958,1.20625 -2.91223,1.87831 -1.51643,0.67205 -3.29134,0.67205 -3.44643,0 -5.47983,-2.65375 -2.01616,-2.65375 -2.01616,-7.35813 0,-2.44697 0.68928,-4.35974 0.70652,-1.91277 1.89554,-3.25688 1.17179,-1.30964 2.72268,-1.99893 1.56813,-0.68928 3.23965,-0.68928 1.51643,0 2.68822,0.32741 1.17178,0.31018 2.46419,0.98223 v -8.34036 h 3.23965 z m -3.23965,-4.73885 v -11.04581 q -1.30964,-0.5859 -2.34357,-0.80991 -1.03393,-0.22402 -2.25741,-0.22402 -2.72268,0 -4.23911,1.89554 -1.51643,1.89553 -1.51643,5.37643 0,3.4292 1.17178,5.22134 1.17179,1.77492 3.75661,1.77492 1.37858,0 2.79161,-0.60313 1.41304,-0.62036 2.63652,-1.58536 z"
         style="font-size:35.29146194px;stroke-width:0.75949341"
         id="path1206" />
      <path
         d="m 745.6154,438.25585 h -3.22242 v -2.05063 q -0.4308,0.29295 -1.17178,0.82714 -0.72375,0.51697 -1.41304,0.82715 -0.80991,0.39634 -1.86107,0.65482 -1.05116,0.27571 -2.4642,0.27571 -2.60206,0 -4.41143,-1.72321 -1.80938,-1.72322 -1.80938,-4.3942 0,-2.18849 0.93054,-3.5326 0.94776,-1.36134 2.68821,-2.13678 1.75768,-0.77545 4.22188,-1.05117 2.4642,-0.27571 5.29027,-0.41357 v -0.49973 q 0,-1.10286 -0.39633,-1.82661 -0.37911,-0.72375 -1.10286,-1.13732 -0.68929,-0.39634 -1.65429,-0.5342 -0.965,-0.13786 -2.01616,-0.13786 -1.27518,0 -2.84331,0.34465 -1.56813,0.32741 -3.23965,0.965 h -0.17232 v -3.29134 q 0.94777,-0.25849 2.73992,-0.56867 1.79214,-0.31017 3.53259,-0.31017 2.03339,0 3.53259,0.34464 1.51643,0.32741 2.61929,1.13732 1.08563,0.79268 1.65429,2.05063 0.56866,1.25795 0.56866,3.11902 z m -3.22242,-4.73885 v -5.3592 q -1.48196,0.0862 -3.49812,0.25848 -1.99893,0.17232 -3.17072,0.49974 -1.39581,0.39634 -2.25741,1.24071 -0.86161,0.82714 -0.86161,2.29188 0,1.65429 0.99946,2.49866 0.99947,0.82715 3.0501,0.82715 1.70598,0 3.11902,-0.65483 1.41303,-0.67205 2.61928,-1.60259 z"
         style="font-size:35.29146194px;stroke-width:0.75949341"
         id="path1208" />
      <path
         d="m 397.16391,466.65444 h -0.17232 q -0.72375,-0.17232 -1.41304,-0.24125 -0.67205,-0.0862 -1.60259,-0.0862 -1.4992,0 -2.895,0.67206 -1.39581,0.65482 -2.68822,1.70598 v 13.6651 h -3.23965 v -19.24832 h 3.23965 v 2.84331 q 1.93,-1.5509 3.39474,-2.18849 1.48196,-0.65482 3.01562,-0.65482 0.84438,0 1.22349,0.0517 0.3791,0.0345 1.13732,0.15509 z"
         style="font-size:35.29146194px;stroke-width:0.75949341"
         id="path1210" />
      <path
         d="m 416.65348,472.75463 q 0,4.70438 -2.4125,7.42706 -2.4125,2.72268 -6.46206,2.72268 -4.08402,0 -6.49652,-2.72268 -2.39527,-2.72268 -2.39527,-7.42706 0,-4.70438 2.39527,-7.42706 2.4125,-2.73992 6.49652,-2.73992 4.04956,0 6.46206,2.73992 2.4125,2.72268 2.4125,7.42706 z m -3.34304,0 q 0,-3.73938 -1.46473,-5.54876 -1.46473,-1.82661 -4.06679,-1.82661 -2.63652,0 -4.10125,1.82661 -1.44751,1.80938 -1.44751,5.54876 0,3.61875 1.46474,5.49706 1.46473,1.86107 4.08402,1.86107 2.58482,0 4.04956,-1.84384 1.48196,-1.86107 1.48196,-5.51429 z"
         style="font-size:35.29146194px;stroke-width:0.75949341"
         id="path1212" />
      <path
         d="m 438.62448,472.59954 q 0,2.4125 -0.68928,4.3425 -0.67206,1.93001 -1.82661,3.23965 -1.22348,1.36134 -2.68822,2.05063 -1.46473,0.67205 -3.22241,0.67205 -1.63706,0 -2.86054,-0.39634 -1.22348,-0.37911 -2.4125,-1.03393 l -0.20679,0.89607 h -3.03286 v -26.81324 h 3.23965 v 9.58108 q 1.36134,-1.12009 2.895,-1.8266 1.53366,-0.72376 3.44643,-0.72376 3.41197,0 5.37644,2.61929 1.98169,2.61929 1.98169,7.3926 z m -3.34303,0.0862 q 0,-3.44643 -1.13733,-5.22134 -1.13732,-1.79215 -3.67045,-1.79215 -1.41303,0 -2.86054,0.62036 -1.4475,0.60312 -2.68821,1.56813 v 11.02858 q 1.37857,0.62036 2.3608,0.86161 0.99947,0.24125 2.25742,0.24125 2.68821,0 4.20464,-1.75768 1.53367,-1.77492 1.53367,-5.54876 z"
         style="font-size:35.29146194px;stroke-width:0.75949341"
         id="path1214" />
      <path
         d="m 460.07852,472.75463 q 0,4.70438 -2.4125,7.42706 -2.4125,2.72268 -6.46206,2.72268 -4.08402,0 -6.49652,-2.72268 -2.39527,-2.72268 -2.39527,-7.42706 0,-4.70438 2.39527,-7.42706 2.4125,-2.73992 6.49652,-2.73992 4.04956,0 6.46206,2.73992 2.4125,2.72268 2.4125,7.42706 z m -3.34304,0 q 0,-3.73938 -1.46473,-5.54876 -1.46473,-1.82661 -4.06679,-1.82661 -2.63652,0 -4.10125,1.82661 -1.4475,1.80938 -1.4475,5.54876 0,3.61875 1.46473,5.49706 1.46473,1.86107 4.08402,1.86107 2.58482,0 4.04956,-1.84384 1.48196,-1.86107 1.48196,-5.51429 z m -0.17232,-19.26556 -4.70438,6.44483 h -2.56759 l 3.08456,-6.44483 z"
         style="font-size:35.29146194px;stroke-width:0.75949341"
         id="path1216" />
      <path
         d="m 475.10496,482.19785 q -0.9133,0.24125 -1.99893,0.39634 -1.06839,0.15509 -1.91277,0.15509 -2.9467,0 -4.48036,-1.58536 -1.53366,-1.58536 -1.53366,-5.08348 v -10.23591 h -2.18849 v -2.72268 h 2.18849 v -5.53152 h 3.23964 v 5.53152 h 6.68608 v 2.72268 h -6.68608 v 8.77117 q 0,1.51643 0.0689,2.37804 0.0689,0.84438 0.4825,1.58536 0.37911,0.68928 1.03393,1.0167 0.67206,0.31017 2.0334,0.31017 0.79268,0 1.65428,-0.22401 0.86161,-0.24125 1.24072,-0.39634 h 0.17232 z"
         style="font-size:35.29146194px;stroke-width:0.75949341"
         id="path1218" />
      <path
         d="m 482.5148,459.89944 h -3.65322 v -3.36027 h 3.65322 z m -0.20679,22.47073 h -3.23965 v -19.24832 h 3.23965 z"
         style="font-size:35.29146194px;stroke-width:0.75949341"
         id="path1220" />
      <path
         d="m 502.9866,481.16392 q -1.61983,0.77545 -3.08456,1.20625 -1.4475,0.43081 -3.08456,0.43081 -2.08509,0 -3.82554,-0.60313 -1.74044,-0.62036 -2.98116,-1.86107 -1.25795,-1.24072 -1.94723,-3.13625 -0.68929,-1.89554 -0.68929,-4.42867 0,-4.72161 2.58482,-7.40983 2.60206,-2.68821 6.8584,-2.68821 1.65429,0 3.23965,0.46526 1.60259,0.46527 2.92947,1.13733 v 3.60152 h -0.17232 q -1.48197,-1.15456 -3.06733,-1.77491 -1.56813,-0.62036 -3.06732,-0.62036 -2.75715,0 -4.35974,1.86107 -1.58536,1.84384 -1.58536,5.42813 0,3.4809 1.5509,5.3592 1.56812,1.86108 4.3942,1.86108 0.98223,0 1.99893,-0.25849 1.01669,-0.25848 1.82661,-0.67205 0.70651,-0.36188 1.32687,-0.75822 0.62036,-0.41357 0.98224,-0.70651 h 0.17232 z"
         style="font-size:35.29146194px;stroke-width:0.75949341"
         id="path1222" />
      <path
         d="m 522.11429,482.37017 h -3.22241 v -2.05062 q -0.4308,0.29294 -1.17179,0.82714 -0.72375,0.51696 -1.41303,0.82714 -0.80992,0.39634 -1.86108,0.65483 -1.05116,0.27571 -2.4642,0.27571 -2.60205,0 -4.41143,-1.72322 -1.80938,-1.72321 -1.80938,-4.3942 0,-2.18848 0.93054,-3.53259 0.94777,-1.36134 2.68822,-2.13679 1.75768,-0.77544 4.22188,-1.05116 2.4642,-0.27571 5.29027,-0.41357 v -0.49973 q 0,-1.10286 -0.39634,-1.82661 -0.37911,-0.72375 -1.10286,-1.13732 -0.68928,-0.39634 -1.65429,-0.5342 -0.965,-0.13786 -2.01616,-0.13786 -1.27518,0 -2.8433,0.34464 -1.56813,0.32742 -3.23965,0.96501 h -0.17232 v -3.29135 q 0.94777,-0.25848 2.73991,-0.56866 1.79215,-0.31018 3.53259,-0.31018 2.0334,0 3.5326,0.34465 1.51643,0.32741 2.61929,1.13732 1.08562,0.79268 1.65428,2.05063 0.56866,1.25794 0.56866,3.11902 z m -3.22241,-4.73884 v -5.3592 q -1.48197,0.0862 -3.49813,0.25848 -1.99893,0.17232 -3.17072,0.49973 -1.3958,0.39634 -2.25741,1.24072 -0.86161,0.82714 -0.86161,2.29188 0,1.65428 0.99947,2.49866 0.99946,0.82714 3.05009,0.82714 1.70598,0 3.11902,-0.65482 1.41304,-0.67205 2.61929,-1.60259 z"
         style="font-size:35.29146194px;stroke-width:0.75949341"
         id="path1224" />
      <path
         d="m 556.90603,473.08204 h -14.18206 q 0,1.77491 0.53419,3.10179 0.5342,1.30964 1.46474,2.15402 0.89607,0.82714 2.11955,1.24071 1.24072,0.41358 2.72268,0.41358 1.96447,0 3.94617,-0.77545 1.99893,-0.79268 2.8433,-1.5509 h 0.17233 v 3.5326 q -1.63706,0.68928 -3.34304,1.15455 -1.70599,0.46527 -3.58429,0.46527 -4.79054,0 -7.47876,-2.58482 -2.68822,-2.60206 -2.68822,-7.37537 0,-4.72161 2.56759,-7.49599 2.58483,-2.77438 6.78948,-2.77438 3.89446,0 5.99679,2.27465 2.11955,2.27464 2.11955,6.46206 z m -3.15348,-2.48143 q -0.0172,-2.55036 -1.29241,-3.94617 -1.25795,-1.3958 -3.84278,-1.3958 -2.60205,0 -4.15295,1.53366 -1.53366,1.53366 -1.74044,3.80831 z"
         style="font-size:35.29146194px;stroke-width:0.75949341"
         id="path1226" />
      <path
         d="m 577.42952,482.37017 h -3.23964 v -2.01616 q -1.39581,1.20625 -2.91224,1.87831 -1.51643,0.67205 -3.29134,0.67205 -3.44643,0 -5.47983,-2.65375 -2.01616,-2.65375 -2.01616,-7.35813 0,-2.44697 0.68929,-4.35974 0.70652,-1.91277 1.89554,-3.25688 1.17178,-1.30964 2.72268,-1.99893 1.56812,-0.68929 3.23964,-0.68929 1.51643,0 2.68822,0.32742 1.17179,0.31017 2.4642,0.98223 v -8.34037 h 3.23964 z m -3.23964,-4.73884 v -11.04581 q -1.30965,-0.5859 -2.34358,-0.80992 -1.03393,-0.22401 -2.25741,-0.22401 -2.72268,0 -4.23911,1.89553 -1.51643,1.89554 -1.51643,5.37644 0,3.4292 1.17179,5.22134 1.17178,1.77491 3.75661,1.77491 1.37857,0 2.79161,-0.60312 1.41303,-0.62036 2.63652,-1.58536 z"
         style="font-size:35.29146194px;stroke-width:0.75949341"
         id="path1228" />
      <path
         d="m 599.7624,482.37017 h -3.23964 v -2.13678 q -1.63706,1.29241 -3.13626,1.98169 -1.49919,0.68929 -3.30857,0.68929 -3.03286,0 -4.72161,-1.84384 -1.68875,-1.86107 -1.68875,-5.44536 v -12.49332 h 3.23964 v 10.95965 q 0,1.46474 0.13786,2.5159 0.13786,1.03393 0.58589,1.77491 0.46527,0.75822 1.20625,1.10286 0.74099,0.34464 2.15402,0.34464 1.25795,0 2.73992,-0.65482 1.49919,-0.65482 2.79161,-1.67152 v -14.37162 h 3.23964 z"
         style="font-size:35.29146194px;stroke-width:0.75949341"
         id="path1230" />
      <path
         d="m 620.37207,481.16392 q -1.61982,0.77545 -3.08455,1.20625 -1.44751,0.43081 -3.08456,0.43081 -2.08509,0 -3.82554,-0.60313 -1.74045,-0.62036 -2.98116,-1.86107 -1.25795,-1.24072 -1.94724,-3.13625 -0.68928,-1.89554 -0.68928,-4.42867 0,-4.72161 2.58482,-7.40983 2.60206,-2.68821 6.8584,-2.68821 1.65429,0 3.23965,0.46526 1.60259,0.46527 2.92946,1.13733 v 3.60152 h -0.17232 q -1.48196,-1.15456 -3.06732,-1.77491 -1.56813,-0.62036 -3.06733,-0.62036 -2.75714,0 -4.35973,1.86107 -1.58536,1.84384 -1.58536,5.42813 0,3.4809 1.55089,5.3592 1.56813,1.86108 4.3942,1.86108 0.98224,0 1.99893,-0.25849 1.0167,-0.25848 1.82661,-0.67205 0.70652,-0.36188 1.32688,-0.75822 0.62036,-0.41357 0.98223,-0.70651 h 0.17232 z"
         style="font-size:35.29146194px;stroke-width:0.75949341"
         id="path1232" />
      <path
         d="m 639.49977,482.37017 h -3.22241 v -2.05062 q -0.43081,0.29294 -1.17179,0.82714 -0.72375,0.51696 -1.41304,0.82714 -0.80991,0.39634 -1.86107,0.65483 -1.05116,0.27571 -2.4642,0.27571 -2.60206,0 -4.41143,-1.72322 -1.80938,-1.72321 -1.80938,-4.3942 0,-2.18848 0.93054,-3.53259 0.94777,-1.36134 2.68821,-2.13679 1.75768,-0.77544 4.22188,-1.05116 2.4642,-0.27571 5.29028,-0.41357 v -0.49973 q 0,-1.10286 -0.39634,-1.82661 -0.37911,-0.72375 -1.10286,-1.13732 -0.68929,-0.39634 -1.65429,-0.5342 -0.965,-0.13786 -2.01616,-0.13786 -1.27518,0 -2.84331,0.34464 -1.56813,0.32742 -3.23964,0.96501 h -0.17233 v -3.29135 q 0.94777,-0.25848 2.73992,-0.56866 1.79214,-0.31018 3.53259,-0.31018 2.03339,0 3.53259,0.34465 1.51643,0.32741 2.61929,1.13732 1.08563,0.79268 1.65429,2.05063 0.56866,1.25794 0.56866,3.11902 z m -3.22241,-4.73884 v -5.3592 q -1.48197,0.0862 -3.49813,0.25848 -1.99893,0.17232 -3.17072,0.49973 -1.39581,0.39634 -2.25741,1.24072 -0.86161,0.82714 -0.86161,2.29188 0,1.65428 0.99946,2.49866 0.99947,0.82714 3.0501,0.82714 1.70598,0 3.11902,-0.65482 1.41303,-0.67205 2.61929,-1.60259 z"
         style="font-size:35.29146194px;stroke-width:0.75949341"
         id="path1234" />
      <path
         d="m 660.00603,481.16392 q -1.61982,0.77545 -3.08456,1.20625 -1.4475,0.43081 -3.08455,0.43081 -2.0851,0 -3.82554,-0.60313 -1.74045,-0.62036 -2.98117,-1.86107 -1.25794,-1.24072 -1.94723,-3.13625 -0.68929,-1.89554 -0.68929,-4.42867 0,-4.72161 2.58483,-7.40983 2.60205,-2.68821 6.8584,-2.68821 1.65428,0 3.23964,0.46526 1.60259,0.46527 2.92947,1.13733 v 3.60152 h -0.17232 q -1.48197,-1.15456 -3.06733,-1.77491 -1.56812,-0.62036 -3.06732,-0.62036 -2.75715,0 -4.35974,1.86107 -1.58536,1.84384 -1.58536,5.42813 0,3.4809 1.5509,5.3592 1.56812,1.86108 4.3942,1.86108 0.98223,0 1.99893,-0.25849 1.0167,-0.25848 1.82661,-0.67205 0.70652,-0.36188 1.32687,-0.75822 0.62036,-0.41357 0.98224,-0.70651 h 0.17232 z"
         style="font-size:35.29146194px;stroke-width:0.75949341"
         id="path1236" />
      <path
         d="m 667.65712,459.89944 h -3.65321 v -3.36027 h 3.65321 z m -0.20678,22.47073 h -3.23965 v -19.24832 h 3.23965 z"
         style="font-size:35.29146194px;stroke-width:0.75949341"
         id="path1238" />
      <path
         d="m 690.30018,472.75463 q 0,4.70438 -2.41251,7.42706 -2.4125,2.72268 -6.46206,2.72268 -4.08402,0 -6.49652,-2.72268 -2.39527,-2.72268 -2.39527,-7.42706 0,-4.70438 2.39527,-7.42706 2.4125,-2.73992 6.49652,-2.73992 4.04956,0 6.46206,2.73992 2.41251,2.72268 2.41251,7.42706 z m -3.34304,0 q 0,-3.73938 -1.46474,-5.54876 -1.46473,-1.82661 -4.06679,-1.82661 -2.63652,0 -4.10125,1.82661 -1.4475,1.80938 -1.4475,5.54876 0,3.61875 1.46473,5.49706 1.46474,1.86107 4.08402,1.86107 2.58483,0 4.04956,-1.84384 1.48197,-1.86107 1.48197,-5.51429 z"
         style="font-size:35.29146194px;stroke-width:0.75949341"
         id="path1240" />
      <path
         d="m 711.42679,482.37017 h -3.23964 v -10.95965 q 0,-1.32688 -0.15509,-2.48143 -0.15509,-1.17179 -0.56866,-1.82661 -0.43081,-0.72375 -1.24072,-1.06839 -0.80991,-0.36188 -2.10232,-0.36188 -1.32688,0 -2.77438,0.65482 -1.4475,0.65483 -2.77438,1.67152 v 14.37162 h -3.23964 v -19.24832 h 3.23964 v 2.13679 q 1.51643,-1.25795 3.13626,-1.96447 1.61982,-0.70652 3.3258,-0.70652 3.11902,0 4.75608,1.87831 1.63705,1.87831 1.63705,5.4109 z"
         style="font-size:35.29146194px;stroke-width:0.75949341"
         id="path1242" />
      <path
         d="m 732.62236,482.37017 h -3.22242 v -2.05062 q -0.4308,0.29294 -1.17178,0.82714 -0.72375,0.51696 -1.41304,0.82714 -0.80991,0.39634 -1.86107,0.65483 -1.05116,0.27571 -2.4642,0.27571 -2.60206,0 -4.41143,-1.72322 -1.80938,-1.72321 -1.80938,-4.3942 0,-2.18848 0.93054,-3.53259 0.94776,-1.36134 2.68821,-2.13679 1.75768,-0.77544 4.22188,-1.05116 2.4642,-0.27571 5.29027,-0.41357 v -0.49973 q 0,-1.10286 -0.39634,-1.82661 -0.3791,-0.72375 -1.10285,-1.13732 -0.68929,-0.39634 -1.65429,-0.5342 -0.965,-0.13786 -2.01616,-0.13786 -1.27518,0 -2.84331,0.34464 -1.56813,0.32742 -3.23965,0.96501 h -0.17232 v -3.29135 q 0.94777,-0.25848 2.73992,-0.56866 1.79214,-0.31018 3.53259,-0.31018 2.03339,0 3.53259,0.34465 1.51643,0.32741 2.61929,1.13732 1.08563,0.79268 1.65429,2.05063 0.56866,1.25794 0.56866,3.11902 z m -3.22242,-4.73884 v -5.3592 q -1.48196,0.0862 -3.49812,0.25848 -1.99893,0.17232 -3.17072,0.49973 -1.39581,0.39634 -2.25741,1.24072 -0.86161,0.82714 -0.86161,2.29188 0,1.65428 0.99946,2.49866 0.99947,0.82714 3.0501,0.82714 1.70598,0 3.11902,-0.65482 1.41303,-0.67205 2.61928,-1.60259 z"
         style="font-size:35.29146194px;stroke-width:0.75949341"
         id="path1244" />
      <path
         d="m 742.16897,482.37017 h -3.23965 v -26.81324 h 3.23965 z"
         style="font-size:35.29146194px;stroke-width:0.75949341"
         id="path1246" />
    </g>
  </g>
</svg>
