<?xml version="1.0" encoding="UTF-8" standalone="no"?>
<!-- Created with Inkscape (http://www.inkscape.org/) -->

<svg
   xmlns:dc="http://purl.org/dc/elements/1.1/"
   xmlns:cc="http://creativecommons.org/ns#"
   xmlns:rdf="http://www.w3.org/1999/02/22-rdf-syntax-ns#"
   xmlns:svg="http://www.w3.org/2000/svg"
   xmlns="http://www.w3.org/2000/svg"
   xmlns:sodipodi="http://sodipodi.sourceforge.net/DTD/sodipodi-0.dtd"
   xmlns:inkscape="http://www.inkscape.org/namespaces/inkscape"
   version="1.1"
   id="svg2208"
   width="802"
   height="802"
   viewBox="0 0 802 802"
   sodipodi:docname="Valores.svg"
   inkscape:version="0.92.3 (2405546, 2018-03-11)">
  <metadata
     id="metadata2214">
    <rdf:RDF>
      <cc:Work
         rdf:about="">
        <dc:format>image/svg+xml</dc:format>
        <dc:type
           rdf:resource="http://purl.org/dc/dcmitype/StillImage" />
        <dc:title />
      </cc:Work>
    </rdf:RDF>
  </metadata>
  <defs
     id="defs2212" />
  <sodipodi:namedview
     pagecolor="#ffffff"
     bordercolor="#666666"
     borderopacity="1"
     objecttolerance="10"
     gridtolerance="10"
     guidetolerance="10"
     inkscape:pageopacity="0"
     inkscape:pageshadow="2"
     inkscape:window-width="1920"
     inkscape:window-height="1001"
     id="namedview2210"
     showgrid="false"
     inkscape:zoom="0.5"
     inkscape:cx="-620.33814"
     inkscape:cy="258.49271"
     inkscape:window-x="-9"
     inkscape:window-y="-9"
     inkscape:window-maximized="1"
     inkscape:current-layer="svg2208" />
  <path
     id="path2570"
     style="fill:#3e4095;fill-opacity:1;stroke-width:0.94161755"
     d="m 412.29909,650.08551 c 53.73649,-2.78123 104.01758,-22.26133 145.5688,-56.39679 42.08038,-34.57021 71.05314,-81.20981 84.26301,-135.64447 3.56988,-14.71067 6.91389,-49.67928 6.18962,-64.72473 -2.97129,-61.71514 -24.70063,-114.63975 -65.59613,-159.76748 -44.09751,-48.66126 -111.6316,-79.20368 -176.92397,-80.01431 -34.75784,-0.43151 -62.73589,4.45756 -94.46816,16.508 -73.33379,27.84895 -128.41914,88.0272 -150.21301,164.10125 -11.97958,41.81606 -12.45107,88.38941 -1.32887,131.2604 3.65695,14.09597 13.51207,39.39523 20.37883,52.31507 16.01617,30.13442 38.49743,57.29284 65.29707,78.88203 11.06773,8.91589 34.39527,23.50043 47.2667,29.55151 19.19435,9.02353 41.45348,16.30212 61.88205,20.23512 13.65923,2.62972 42.52976,4.47875 57.68406,3.6944 z m -59.2063,148.87395 c -6.61971,-1.2331 -29.17385,-6.15367 -29.38928,-6.41183 -0.10722,-0.12843 -4.26623,-24.23315 -9.24218,-53.56599 -4.97594,-29.33286 -9.32992,-54.21143 -9.67555,-55.28575 -0.448,-1.39207 -3.33632,-3.13223 -10.05173,-6.05609 -13.80528,-6.01071 -24.15505,-11.36951 -37.64338,-19.4906 l -11.98682,-7.21704 -47.67556,25.30465 -47.67566,25.30464 -4.59391,-4.01128 c -6.5651,-5.73242 -24.92643,-23.92631 -31.60459,-31.31648 -10.85593,-12.01319 -30.669211,-37.07822 -36.486111,-46.1572 -1.018883,-1.59015 -3.107532,-4.53841 -4.641653,-6.55172 -1.534121,-2.01331 -2.55687,-4.27679 -2.272708,-5.02995 0.284062,-0.75317 14.519175,-20.66641 31.633542,-44.25163 l 31.11716,-42.8822 -3.08374,-6.92217 c -5.25558,-11.79722 -12.05703,-30.60826 -15.87953,-43.9184 L 110.28333,457.76352 56.962545,440.7183 3.6417566,423.6731 3.1653171,417.47492 C 2.2370466,405.39841 1.5340378,386.41419 1.6058146,375.3635 1.6851418,363.14876 5.6448399,320.91647 7.6843264,310.53275 L 8.9567656,304.05374 62.932848,297.425 c 37.574022,-4.61443 54.244022,-7.03355 54.857882,-7.96088 0.48493,-0.73267 2.94453,-6.66811 5.46559,-13.18986 4.0366,-10.44213 11.48065,-25.6842 19.4404,-39.80519 l 2.55639,-4.53514 -27.50913,-49.15825 C 102.61391,155.73862 90.262573,133.3299 90.296573,132.97852 90.478029,131.10335 113.486,106.7435 122.89389,98.465971 c 8.34641,-7.3437 30.31951,-25.507685 34.21184,-28.281131 5.91579,-4.215329 20.01518,-13.433357 20.47832,-13.388542 0.22983,0.02223 19.35268,14.505435 42.49518,32.18489 23.14269,17.679452 43.31756,33.054342 44.8331,34.166382 l 2.75568,2.02191 12.65149,-4.85989 c 13.45247,-5.16767 33.51166,-11.29794 42.5541,-13.00493 3.00921,-0.56806 5.80186,-1.46785 6.20594,-1.99954 0.40399,-0.5317 6.97732,-24.420798 14.60736,-53.086904 7.63004,-28.666103 13.99062,-52.21606144 14.13467,-52.33323141 0.14406,-0.11716997 6.23946,-0.41164275 13.5454,-0.65437165 19.05657,-0.63309584 72.09829,4.48011136 91.34217,8.80532806 7.3717,1.6568551 13.49684,3.126348 13.61136,3.265535 0.11453,0.139178 4.27984,24.254522 9.25617,53.589645 4.97643,29.335134 9.33211,54.215729 9.67934,55.290199 0.44969,1.39133 3.34365,3.13448 10.05462,6.05638 13.59781,5.92041 24.01622,11.31957 37.63623,19.50438 l 11.98265,7.20085 47.67766,-25.3066 47.67773,-25.30657 4.59749,4.0144 c 6.60541,5.76768 24.95768,23.9584 31.60729,31.32906 11.35027,12.58104 31.01049,37.48155 36.49917,46.22775 1.02548,1.6341 3.11262,4.58222 4.63811,6.55137 1.52549,1.96914 2.54272,4.19664 2.26056,4.95001 -0.28216,0.75335 -14.51572,20.66672 -31.63015,44.25194 l -31.11712,42.8822 3.0838,6.92218 c 5.25669,11.79969 12.05733,30.60929 15.88199,43.92732 l 3.66035,12.74581 53.31699,17.03761 53.31698,17.03761 0.4777,6.19686 c 0.93575,12.13863 1.63206,31.07695 1.53628,41.78377 -0.10989,12.28338 -4.10241,55.29959 -6.04957,65.17915 l -1.28103,6.49982 -53.975,6.60529 c -37.65909,4.6086 -54.24103,7.0086 -54.85509,7.9395 -0.48405,0.73383 -2.89967,6.59315 -5.36804,13.02073 -3.94266,10.26658 -11.45138,25.62975 -19.54426,39.98842 l -2.56294,4.54726 27.51502,49.15324 c 15.13327,27.03427 27.48753,49.43754 27.45391,49.78501 -0.10788,1.11441 -9.79709,11.89774 -20.2817,22.57179 -16.32604,16.6211 -50.16791,44.15103 -63.21027,51.42081 l -4.05815,2.26199 -42.15551,-32.19516 C 556.85619,697.25817 536.6466,681.85633 535.13144,680.73918 l -2.75476,-2.03118 -12.6514,4.85991 c -13.45257,5.16766 -33.51175,11.29792 -42.55431,13.00492 -3.00909,0.56807 -5.80174,1.46786 -6.20574,1.99954 -0.40408,0.53171 -6.97751,24.42078 -14.60745,53.08688 -7.63003,28.66614 -13.99042,52.21401 -14.13423,52.32869 -0.1438,0.11457 -5.81243,0.39672 -12.59704,0.62693 -11.78421,0.39987 -65.22782,-3.54929 -76.53372,-5.65541 z"
     inkscape:connector-curvature="0" />
  <g
     aria-label="VALORES"
     transform="matrix(0.96951335,0,0,0.96951335,838.59496,-230.24867)"
     style="font-style:normal;font-variant:normal;font-weight:normal;font-stretch:normal;font-size:40px;line-height:1.25;font-family:'Josefin Sans';-inkscape-font-specification:'Josefin Sans';letter-spacing:0px;word-spacing:0px;fill:#000000;fill-opacity:1;stroke:none"
     id="flowRoot2575">
    <path
       d="m -525.92187,457.41118 -10.60547,29.08203 h -8.39844 l -10.60547,-29.08203 h 7.87109 l 7.03125,20.42969 7.03125,-20.42969 z"
       style="font-style:normal;font-variant:normal;font-weight:bold;font-stretch:normal;font-family:'Josefin Sans';-inkscape-font-specification:'Josefin Sans Bold'"
       id="path3371"
       inkscape:connector-curvature="0" />
    <path
       d="m -494.86719,486.49321 h -7.7539 l -2.01172,-5.8789 h -10.78125 l -2.01172,5.8789 h -7.55859 l 10.74218,-29.08203 h 8.63282 z m -11.58203,-11.21093 -3.57422,-10.42969 -3.57422,10.42969 z"
       style="font-style:normal;font-variant:normal;font-weight:bold;font-stretch:normal;font-family:'Josefin Sans';-inkscape-font-specification:'Josefin Sans Bold'"
       id="path3373"
       inkscape:connector-curvature="0" />
    <path
       d="m -469.67187,486.49321 h -20.97657 v -29.08203 h 7.5 v 23.45703 h 13.47657 z"
       style="font-style:normal;font-variant:normal;font-weight:bold;font-stretch:normal;font-family:'Josefin Sans';-inkscape-font-specification:'Josefin Sans Bold'"
       id="path3375"
       inkscape:connector-curvature="0" />
    <path
       d="m -436.89844,471.96196 q 0,6.95313 -3.98437,11.05469 -3.98438,4.08203 -11.01563,4.08203 -7.01172,0 -10.99609,-4.08203 -3.98438,-4.10156 -3.98438,-11.05469 0,-7.01172 3.98438,-11.07422 3.98437,-4.08203 10.99609,-4.08203 6.99219,0 10.9961,4.08203 4.0039,4.0625 4.0039,11.07422 z m -9.9414,7.36328 q 1.09375,-1.32812 1.62109,-3.125 0.52734,-1.8164 0.52734,-4.25781 0,-2.61719 -0.60546,-4.45312 -0.60547,-1.83594 -1.58204,-2.96875 -0.99609,-1.17188 -2.30468,-1.69922 -1.28907,-0.52735 -2.69532,-0.52735 -1.42578,0 -2.69531,0.50782 -1.25,0.50781 -2.30469,1.67968 -0.97656,1.09375 -1.60156,3.02735 -0.60547,1.91406 -0.60547,4.45312 0,2.59766 0.58594,4.4336 0.60547,1.8164 1.58203,2.96875 0.97656,1.15234 2.28516,1.69922 1.30859,0.54687 2.7539,0.54687 1.44532,0 2.75391,-0.54687 1.30859,-0.56641 2.28516,-1.73829 z"
       style="font-style:normal;font-variant:normal;font-weight:bold;font-stretch:normal;font-family:'Josefin Sans';-inkscape-font-specification:'Josefin Sans Bold'"
       id="path3377"
       inkscape:connector-curvature="0" />
    <path
       d="m -414.88672,466.31743 q 0,-1.09375 -0.44922,-1.875 -0.44922,-0.78125 -1.54297,-1.23047 -0.76171,-0.3125 -1.77734,-0.37109 -1.01562,-0.0781 -2.36328,-0.0781 h -2.71484 v 7.83204 h 2.30468 q 1.79688,0 3.00782,-0.17579 1.21093,-0.17578 2.03125,-0.80078 0.78125,-0.60547 1.13281,-1.32812 0.37109,-0.74219 0.37109,-1.97266 z m 11.69922,20.17578 h -9.16016 l -7.92968,-10.66406 h -3.45703 v 10.66406 h -7.46094 v -29.08203 h 12.57812 q 2.57813,0 4.4336,0.29297 1.85547,0.29297 3.47656,1.26953 1.64062,0.97656 2.59766,2.53906 0.97656,1.54297 0.97656,3.88672 0,3.22266 -1.50391,5.25391 -1.48437,2.03125 -4.25781,3.37891 z"
       style="font-style:normal;font-variant:normal;font-weight:bold;font-stretch:normal;font-family:'Josefin Sans';-inkscape-font-specification:'Josefin Sans Bold'"
       id="path3379"
       inkscape:connector-curvature="0" />
    <path
       d="m -378.83203,486.49321 h -21.03516 v -29.08203 h 21.03516 v 5.625 h -13.57422 v 5.01953 h 12.59766 v 5.625 h -12.59766 v 7.1875 h 13.57422 z"
       style="font-style:normal;font-variant:normal;font-weight:bold;font-stretch:normal;font-family:'Josefin Sans';-inkscape-font-specification:'Josefin Sans Bold'"
       id="path3381"
       inkscape:connector-curvature="0" />
    <path
       d="m -349.24219,477.35259 q 0,4.29687 -3.65234,6.99219 -3.63281,2.67578 -9.88281,2.67578 -3.61328,0 -6.3086,-0.625 -2.67578,-0.64453 -5.01953,-1.6211 v -6.97265 h 0.82031 q 2.32422,1.85547 5.19532,2.85156 2.89062,0.99609 5.54687,0.99609 0.6836,0 1.79688,-0.11718 1.11328,-0.11719 1.8164,-0.39063 0.85938,-0.35156 1.40625,-0.87891 0.56641,-0.52734 0.56641,-1.5625 0,-0.95703 -0.82031,-1.64062 -0.80078,-0.70313 -2.36328,-1.07422 -1.64063,-0.39062 -3.47657,-0.72266 -1.8164,-0.35156 -3.41797,-0.8789 -3.67187,-1.19141 -5.29296,-3.22266 -1.60157,-2.05078 -1.60157,-5.07812 0,-4.0625 3.63282,-6.6211 3.65234,-2.57812 9.375,-2.57812 2.87109,0 5.66406,0.5664 2.8125,0.54688 4.86328,1.38672 v 6.69922 h -0.80078 q -1.75781,-1.40625 -4.31641,-2.34375 -2.53906,-0.95703 -5.19531,-0.95703 -0.9375,0 -1.875,0.13672 -0.91797,0.11719 -1.77734,0.46875 -0.76172,0.29297 -1.3086,0.89844 -0.54687,0.58593 -0.54687,1.34765 0,1.15235 0.8789,1.77735 0.87891,0.60547 3.32032,1.11328 1.60156,0.33203 3.0664,0.64453 1.48438,0.3125 3.1836,0.85937 3.33984,1.09375 4.92187,2.98829 1.60156,1.875 1.60156,4.88281 z"
       style="font-style:normal;font-variant:normal;font-weight:bold;font-stretch:normal;font-family:'Josefin Sans';-inkscape-font-specification:'Josefin Sans Bold'"
       id="path3383"
       inkscape:connector-curvature="0" />
  </g>
  <g
     aria-label="Adesão voluntária Autonomia de trabalho Comprometimento Cooperação Criatividade e Inovação Empatia Ética Parceria"
     transform="matrix(0.852268,0,0,0.852268,1471.2343,163.57388)"
     style="font-style:normal;font-variant:normal;font-weight:normal;font-stretch:normal;font-size:40px;line-height:1.25;font-family:'Josefin Sans';-inkscape-font-specification:'Josefin Sans';text-align:center;letter-spacing:0px;word-spacing:0px;text-anchor:middle;fill:#000000;fill-opacity:1;stroke:none"
     id="flowRoot2806">
    <path
       d="m -1410.5156,174.49321 h -4.1211 l -2.8516,-8.10547 h -12.5781 l -2.8516,8.10547 h -3.9258 l 10.586,-29.08203 h 5.1562 z m -8.1641,-11.42578 -5.0976,-14.27734 -5.1172,14.27734 z"
       id="path3386"
       inkscape:connector-curvature="0" />
    <path
       d="m -1388.6992,174.49321 h -3.6719 v -2.28515 q -1.582,1.36718 -3.3008,2.1289 -1.7187,0.76172 -3.7304,0.76172 -3.9063,0 -6.211,-3.00781 -2.2851,-3.00781 -2.2851,-8.33984 0,-2.77344 0.7812,-4.94141 0.8008,-2.16797 2.1484,-3.69141 1.3282,-1.48437 3.086,-2.26562 1.7773,-0.78125 3.6719,-0.78125 1.7187,0 3.0468,0.37109 1.3282,0.35156 2.793,1.11328 v -9.45312 h 3.6719 z m -3.6719,-5.37109 v -12.51953 q -1.4844,-0.66406 -2.6562,-0.91797 -1.1719,-0.25391 -2.5586,-0.25391 -3.086,0 -4.8047,2.14844 -1.7188,2.14844 -1.7188,6.09375 0,3.88672 1.3281,5.91797 1.3282,2.01172 4.2579,2.01172 1.5625,0 3.164,-0.6836 1.6016,-0.70312 2.9883,-1.79687 z"
       id="path3388"
       inkscape:connector-curvature="0" />
    <path
       d="m -1363.2109,163.96587 h -16.0743 q 0,2.01172 0.6055,3.51562 0.6055,1.48438 1.6602,2.44141 1.0156,0.9375 2.4023,1.40625 1.4063,0.46875 3.0859,0.46875 2.2266,0 4.4727,-0.87891 2.2656,-0.89843 3.2227,-1.75781 h 0.1953 v 4.00391 q -1.8555,0.78125 -3.7891,1.30859 -1.9336,0.52735 -4.0625,0.52735 -5.4297,0 -8.4766,-2.92969 -3.0468,-2.94922 -3.0468,-8.35938 0,-5.35156 2.9101,-8.49609 2.9297,-3.14453 7.6953,-3.14453 4.4141,0 6.7969,2.57812 2.4024,2.57813 2.4024,7.32422 z m -3.5743,-2.8125 q -0.019,-2.89063 -1.4648,-4.47266 -1.4258,-1.58203 -4.3555,-1.58203 -2.9492,0 -4.707,1.73828 -1.7383,1.73828 -1.9727,4.31641 z"
       id="path3390"
       inkscape:connector-curvature="0" />
    <path
       d="m -1342.0586,168.20415 q 0,2.98828 -2.4805,4.90234 -2.4609,1.91407 -6.7382,1.91407 -2.4219,0 -4.4532,-0.56641 -2.0117,-0.58594 -3.3789,-1.26953 v -4.12109 h 0.1953 q 1.7383,1.30859 3.8672,2.08984 2.1289,0.76172 4.0821,0.76172 2.4218,0 3.789,-0.78125 1.3672,-0.78125 1.3672,-2.46094 0,-1.28906 -0.7422,-1.95312 -0.7422,-0.66407 -2.8515,-1.13282 -0.7813,-0.17578 -2.0508,-0.41015 -1.25,-0.23438 -2.2852,-0.50782 -2.8711,-0.76171 -4.082,-2.22656 -1.1914,-1.48437 -1.1914,-3.63281 0,-1.34766 0.5469,-2.53906 0.5664,-1.19141 1.6992,-2.12891 1.0937,-0.91797 2.7734,-1.44531 1.6992,-0.54688 3.7891,-0.54688 1.9531,0 3.9453,0.48828 2.0117,0.46875 3.3398,1.15235 v 3.92578 h -0.1953 q -1.4062,-1.03516 -3.418,-1.73828 -2.0117,-0.72266 -3.9453,-0.72266 -2.0117,0 -3.3984,0.78125 -1.3867,0.76172 -1.3867,2.28516 0,1.34765 0.8398,2.03125 0.8203,0.68359 2.6563,1.11328 1.0156,0.23437 2.2656,0.46875 1.2695,0.23437 2.1094,0.42969 2.5586,0.58593 3.9453,2.01172 1.3867,1.44531 1.3867,3.82812 z"
       id="path3392"
       inkscape:connector-curvature="0" />
    <path
       d="m -1319.832,174.49321 h -3.6524 v -2.32422 q -0.4883,0.33204 -1.3281,0.9375 -0.8203,0.58594 -1.6016,0.9375 -0.9179,0.44922 -2.1093,0.74219 -1.1914,0.3125 -2.793,0.3125 -2.9492,0 -5,-1.95312 -2.0508,-1.95313 -2.0508,-4.98047 0,-2.48047 1.0547,-4.00391 1.0742,-1.54297 3.0469,-2.42187 1.9922,-0.87891 4.7851,-1.19141 2.793,-0.3125 5.9961,-0.46875 v -0.56641 q 0,-1.25 -0.4492,-2.07031 -0.4297,-0.82031 -1.25,-1.28906 -0.7812,-0.44922 -1.875,-0.60547 -1.0937,-0.15625 -2.2852,-0.15625 -1.4453,0 -3.2226,0.39063 -1.7774,0.37109 -3.6719,1.09375 h -0.1953 v -3.73047 q 1.0742,-0.29297 3.1055,-0.64453 2.0312,-0.35157 4.0039,-0.35157 2.3047,0 4.0039,0.39063 1.7187,0.37109 2.9687,1.28906 1.2305,0.89844 1.875,2.32422 0.6446,1.42578 0.6446,3.53516 z m -3.6524,-5.37109 v -6.07422 q -1.6797,0.0977 -3.9648,0.29297 -2.2656,0.19531 -3.5938,0.56641 -1.582,0.44921 -2.5586,1.40625 -0.9765,0.9375 -0.9765,2.59765 0,1.875 1.1328,2.83203 1.1328,0.9375 3.457,0.9375 1.9336,0 3.5352,-0.74218 1.6015,-0.76172 2.9687,-1.81641 z m 3.3594,-26.25 q -0.2148,2.96875 -1.5039,4.47266 -1.2891,1.5039 -3.457,1.5039 -1.0547,0 -1.9532,-0.37109 -0.8984,-0.39063 -1.6992,-1.11328 -0.918,-0.83985 -1.5625,-1.25 -0.625,-0.42969 -1.3867,-0.42969 -1.0156,0 -1.5234,0.87891 -0.5079,0.8789 -0.586,2.36328 h -2.5586 q 0.1563,-2.94922 1.543,-4.45313 1.3867,-1.5039 3.3984,-1.5039 0.9766,0 1.875,0.39062 0.918,0.37109 1.7383,1.07422 0.918,0.80078 1.6211,1.21094 0.7227,0.39062 1.3672,0.39062 0.9961,0 1.543,-0.89844 0.5664,-0.89843 0.625,-2.26562 z"
       id="path3394"
       inkscape:connector-curvature="0" />
    <path
       d="m -1294.1289,163.59478 q 0,5.33203 -2.7344,8.41796 -2.7344,3.08594 -7.3242,3.08594 -4.6289,0 -7.3633,-3.08594 -2.7148,-3.08593 -2.7148,-8.41796 0,-5.33204 2.7148,-8.41797 2.7344,-3.10547 7.3633,-3.10547 4.5898,0 7.3242,3.10547 2.7344,3.08593 2.7344,8.41797 z m -3.7891,0 q 0,-4.23829 -1.6601,-6.28907 -1.6602,-2.07031 -4.6094,-2.07031 -2.9883,0 -4.6484,2.07031 -1.6407,2.05078 -1.6407,6.28907 0,4.10156 1.6602,6.23046 1.6601,2.10938 4.6289,2.10938 2.9297,0 4.5898,-2.08984 1.6797,-2.10938 1.6797,-6.25 z"
       id="path3396"
       inkscape:connector-curvature="0" />
    <path
       d="m -1255.4961,152.67681 -8.8281,21.8164 h -3.6914 l -8.7696,-21.8164 h 3.9844 l 6.7578,17.36328 6.6992,-17.36328 z"
       id="path3398"
       inkscape:connector-curvature="0" />
    <path
       d="m -1232.4102,163.59478 q 0,5.33203 -2.7343,8.41796 -2.7344,3.08594 -7.3243,3.08594 -4.6289,0 -7.3632,-3.08594 -2.7149,-3.08593 -2.7149,-8.41796 0,-5.33204 2.7149,-8.41797 2.7343,-3.10547 7.3632,-3.10547 4.5899,0 7.3243,3.10547 2.7343,3.08593 2.7343,8.41797 z m -3.789,0 q 0,-4.23829 -1.6602,-6.28907 -1.6601,-2.07031 -4.6094,-2.07031 -2.9882,0 -4.6484,2.07031 -1.6406,2.05078 -1.6406,6.28907 0,4.10156 1.6601,6.23046 1.6602,2.10938 4.6289,2.10938 2.9297,0 4.5899,-2.08984 1.6797,-2.10938 1.6797,-6.25 z"
       id="path3400"
       inkscape:connector-curvature="0" />
    <path
       d="m -1222.9961,174.49321 h -3.6719 v -30.39062 h 3.6719 z"
       id="path3402"
       inkscape:connector-curvature="0" />
    <path
       d="m -1197.6055,174.49321 h -3.6718 v -2.42187 q -1.8555,1.46484 -3.5547,2.24609 -1.6993,0.78125 -3.75,0.78125 -3.4375,0 -5.3516,-2.08984 -1.9141,-2.10938 -1.9141,-6.17188 v -14.16015 h 3.6719 v 12.42187 q 0,1.66016 0.1563,2.85156 0.1562,1.17188 0.664,2.01172 0.5274,0.85938 1.3672,1.25 0.8399,0.39063 2.4414,0.39063 1.4258,0 3.1055,-0.74219 1.6992,-0.74219 3.1641,-1.89453 v -16.28906 h 3.6718 z"
       id="path3404"
       inkscape:connector-curvature="0" />
    <path
       d="m -1172.1367,174.49321 h -3.6719 v -12.42187 q 0,-1.50391 -0.1758,-2.8125 -0.1758,-1.32813 -0.6445,-2.07031 -0.4883,-0.82032 -1.4063,-1.21094 -0.9179,-0.41016 -2.3828,-0.41016 -1.5039,0 -3.1445,0.74219 -1.6406,0.74219 -3.1445,1.89453 v 16.28906 h -3.6719 v -21.8164 h 3.6719 v 2.42187 q 1.7187,-1.42578 3.5547,-2.22656 1.8359,-0.80078 3.7695,-0.80078 3.5351,0 5.3906,2.1289 1.8555,2.12891 1.8555,6.13282 z"
       id="path3406"
       inkscape:connector-curvature="0" />
    <path
       d="m -1153.7383,174.2979 q -1.0351,0.27344 -2.2656,0.44922 -1.2109,0.17578 -2.168,0.17578 -3.3398,0 -5.0781,-1.79687 -1.7383,-1.79688 -1.7383,-5.76172 v -11.60157 h -2.4805 v -3.08593 h 2.4805 v -6.26953 h 3.6719 v 6.26953 h 7.5781 v 3.08593 h -7.5781 v 9.94141 q 0,1.71875 0.078,2.69531 0.078,0.95703 0.5469,1.79688 0.4297,0.78125 1.1719,1.15234 0.7617,0.35156 2.3047,0.35156 0.8984,0 1.875,-0.2539 0.9765,-0.27344 1.4062,-0.44922 h 0.1953 z"
       id="path3408"
       inkscape:connector-curvature="0" />
    <path
       d="m -1132.332,174.49321 h -3.6524 v -2.32422 q -0.4883,0.33204 -1.3281,0.9375 -0.8203,0.58594 -1.6016,0.9375 -0.9179,0.44922 -2.1093,0.74219 -1.1914,0.3125 -2.793,0.3125 -2.9492,0 -5,-1.95312 -2.0508,-1.95313 -2.0508,-4.98047 0,-2.48047 1.0547,-4.00391 1.0742,-1.54297 3.0469,-2.42187 1.9922,-0.87891 4.7851,-1.19141 2.793,-0.3125 5.9961,-0.46875 v -0.56641 q 0,-1.25 -0.4492,-2.07031 -0.4297,-0.82031 -1.25,-1.28906 -0.7812,-0.44922 -1.875,-0.60547 -1.0937,-0.15625 -2.2852,-0.15625 -1.4453,0 -3.2226,0.39063 -1.7774,0.37109 -3.6719,1.09375 h -0.1953 v -3.73047 q 1.0742,-0.29297 3.1055,-0.64453 2.0312,-0.35157 4.0039,-0.35157 2.3047,0 4.0039,0.39063 1.7187,0.37109 2.9687,1.28906 1.2305,0.89844 1.875,2.32422 0.6446,1.42578 0.6446,3.53516 z m -3.6524,-5.37109 v -6.07422 q -1.6797,0.0977 -3.9648,0.29297 -2.2656,0.19531 -3.5938,0.56641 -1.582,0.44921 -2.5586,1.40625 -0.9765,0.9375 -0.9765,2.59765 0,1.875 1.1328,2.83203 1.1328,0.9375 3.457,0.9375 1.9336,0 3.5352,-0.74218 1.6015,-0.76172 2.9687,-1.81641 z m 1.3281,-27.36328 -5.332,7.30469 h -2.9101 l 3.4961,-7.30469 z"
       id="path3410"
       inkscape:connector-curvature="0" />
    <path
       d="m -1111.6094,156.68071 h -0.1953 q -0.8203,-0.19531 -1.6016,-0.27343 -0.7617,-0.0977 -1.8164,-0.0977 -1.6992,0 -3.2812,0.76172 -1.582,0.74219 -3.0469,1.93359 v 15.48828 h -3.6719 v -21.8164 h 3.6719 v 3.22265 q 2.1875,-1.75781 3.8477,-2.48047 1.6797,-0.74218 3.4179,-0.74218 0.9571,0 1.3868,0.0586 0.4296,0.0391 1.289,0.17578 z"
       id="path3412"
       inkscape:connector-curvature="0" />
    <path
       d="m -1104.168,149.02446 h -4.1406 v -3.80859 h 4.1406 z m -0.2343,25.46875 h -3.6719 v -21.8164 h 3.6719 z"
       id="path3414"
       inkscape:connector-curvature="0" />
    <path
       d="m -1080.1445,174.49321 h -3.6524 v -2.32422 q -0.4883,0.33204 -1.3281,0.9375 -0.8203,0.58594 -1.6016,0.9375 -0.9179,0.44922 -2.1093,0.74219 -1.1914,0.3125 -2.793,0.3125 -2.9492,0 -5,-1.95312 -2.0508,-1.95313 -2.0508,-4.98047 0,-2.48047 1.0547,-4.00391 1.0742,-1.54297 3.0469,-2.42187 1.9922,-0.87891 4.7851,-1.19141 2.793,-0.3125 5.9961,-0.46875 v -0.56641 q 0,-1.25 -0.4492,-2.07031 -0.4297,-0.82031 -1.25,-1.28906 -0.7812,-0.44922 -1.875,-0.60547 -1.0937,-0.15625 -2.2852,-0.15625 -1.4453,0 -3.2226,0.39063 -1.7774,0.37109 -3.6719,1.09375 h -0.1953 v -3.73047 q 1.0742,-0.29297 3.1055,-0.64453 2.0312,-0.35157 4.0039,-0.35157 2.3047,0 4.0039,0.39063 1.7187,0.37109 2.9687,1.28906 1.2305,0.89844 1.875,2.32422 0.6446,1.42578 0.6446,3.53516 z m -3.6524,-5.37109 v -6.07422 q -1.6797,0.0977 -3.9648,0.29297 -2.2656,0.19531 -3.5938,0.56641 -1.582,0.44921 -2.5586,1.40625 -0.9765,0.9375 -0.9765,2.59765 0,1.875 1.1328,2.83203 1.1328,0.9375 3.457,0.9375 1.9336,0 3.5352,-0.74218 1.6015,-0.76172 2.9687,-1.81641 z"
       id="path3416"
       inkscape:connector-curvature="0" />
    <path
       d="m -1459.6172,224.49321 h -4.1211 l -2.8515,-8.10547 h -12.5782 l -2.8515,8.10547 h -3.9258 l 10.5859,-29.08203 h 5.1563 z m -8.1641,-11.42578 -5.0976,-14.27734 -5.1172,14.27734 z"
       id="path3418"
       inkscape:connector-curvature="0" />
    <path
       d="m -1437.5664,224.49321 h -3.6719 v -2.42187 q -1.8555,1.46484 -3.5547,2.24609 -1.6992,0.78125 -3.75,0.78125 -3.4375,0 -5.3515,-2.08984 -1.9141,-2.10938 -1.9141,-6.17188 v -14.16015 h 3.6719 v 12.42187 q 0,1.66016 0.1562,2.85156 0.1563,1.17188 0.6641,2.01172 0.5273,0.85938 1.3672,1.25 0.8398,0.39063 2.4414,0.39063 1.4258,0 3.1055,-0.74219 1.6992,-0.74219 3.164,-1.89453 v -16.28906 h 3.6719 z"
       id="path3420"
       inkscape:connector-curvature="0" />
    <path
       d="m -1419.0117,224.2979 q -1.0352,0.27344 -2.2656,0.44922 -1.211,0.17578 -2.168,0.17578 -3.3399,0 -5.0781,-1.79687 -1.7383,-1.79688 -1.7383,-5.76172 v -11.60157 h -2.4805 v -3.08593 h 2.4805 v -6.26953 h 3.6719 v 6.26953 h 7.5781 v 3.08593 h -7.5781 v 9.94141 q 0,1.71875 0.078,2.69531 0.078,0.95703 0.5469,1.79688 0.4296,0.78125 1.1718,1.15234 0.7617,0.35156 2.3047,0.35156 0.8985,0 1.875,-0.2539 0.9766,-0.27344 1.4063,-0.44922 h 0.1953 z"
       id="path3422"
       inkscape:connector-curvature="0" />
    <path
       d="m -1395.9648,213.59478 q 0,5.33203 -2.7344,8.41796 -2.7344,3.08594 -7.3242,3.08594 -4.6289,0 -7.3633,-3.08594 -2.7149,-3.08593 -2.7149,-8.41796 0,-5.33204 2.7149,-8.41797 2.7344,-3.10547 7.3633,-3.10547 4.5898,0 7.3242,3.10547 2.7344,3.08593 2.7344,8.41797 z m -3.7891,0 q 0,-4.23829 -1.6602,-6.28907 -1.6601,-2.07031 -4.6093,-2.07031 -2.9883,0 -4.6485,2.07031 -1.6406,2.05078 -1.6406,6.28907 0,4.10156 1.6602,6.23046 1.6601,2.10938 4.6289,2.10938 2.9296,0 4.5898,-2.08984 1.6797,-2.10938 1.6797,-6.25 z"
       id="path3424"
       inkscape:connector-curvature="0" />
    <path
       d="m -1372.0195,224.49321 h -3.6719 v -12.42187 q 0,-1.50391 -0.1758,-2.8125 -0.1758,-1.32813 -0.6445,-2.07031 -0.4883,-0.82032 -1.4063,-1.21094 -0.9179,-0.41016 -2.3828,-0.41016 -1.5039,0 -3.1445,0.74219 -1.6406,0.74219 -3.1445,1.89453 v 16.28906 h -3.6719 v -21.8164 h 3.6719 v 2.42187 q 1.7187,-1.42578 3.5546,-2.22656 1.836,-0.80078 3.7696,-0.80078 3.5351,0 5.3906,2.1289 1.8555,2.12891 1.8555,6.13282 z"
       id="path3426"
       inkscape:connector-curvature="0" />
    <path
       d="m -1346.3555,213.59478 q 0,5.33203 -2.7343,8.41796 -2.7344,3.08594 -7.3243,3.08594 -4.6289,0 -7.3632,-3.08594 -2.7149,-3.08593 -2.7149,-8.41796 0,-5.33204 2.7149,-8.41797 2.7343,-3.10547 7.3632,-3.10547 4.5899,0 7.3243,3.10547 2.7343,3.08593 2.7343,8.41797 z m -3.789,0 q 0,-4.23829 -1.6602,-6.28907 -1.6601,-2.07031 -4.6094,-2.07031 -2.9882,0 -4.6484,2.07031 -1.6406,2.05078 -1.6406,6.28907 0,4.10156 1.6601,6.23046 1.6602,2.10938 4.6289,2.10938 2.9297,0 4.5899,-2.08984 1.6797,-2.10938 1.6797,-6.25 z"
       id="path3428"
       inkscape:connector-curvature="0" />
    <path
       d="m -1308.8164,224.49321 h -3.6719 v -12.42187 q 0,-1.40625 -0.1367,-2.71485 -0.1172,-1.30859 -0.5273,-2.08984 -0.4493,-0.83984 -1.2891,-1.26953 -0.8399,-0.42969 -2.4219,-0.42969 -1.543,0 -3.0859,0.78125 -1.543,0.76172 -3.086,1.95313 0.059,0.44922 0.098,1.05468 0.039,0.58594 0.039,1.17188 v 13.96484 h -3.6719 v -12.42187 q 0,-1.44531 -0.1367,-2.73438 -0.1172,-1.30859 -0.5274,-2.08984 -0.4492,-0.83984 -1.289,-1.25 -0.8399,-0.42969 -2.4219,-0.42969 -1.5039,0 -3.0274,0.74219 -1.5039,0.74219 -3.0078,1.89453 v 16.28906 h -3.6718 v -21.8164 h 3.6718 v 2.42187 q 1.7188,-1.42578 3.418,-2.22656 1.7187,-0.80078 3.6523,-0.80078 2.2266,0 3.7696,0.9375 1.5625,0.9375 2.3242,2.59765 2.2266,-1.875 4.0625,-2.69531 1.8359,-0.83984 3.9258,-0.83984 3.5937,0 5.2929,2.1875 1.7188,2.16797 1.7188,6.07422 z"
       id="path3430"
       inkscape:connector-curvature="0" />
    <path
       d="m -1297.8008,199.02446 h -4.1406 v -3.80859 h 4.1406 z m -0.2344,25.46875 h -3.6718 v -21.8164 h 3.6718 z"
       id="path3432"
       inkscape:connector-curvature="0" />
    <path
       d="m -1273.7773,224.49321 h -3.6524 v -2.32422 q -0.4883,0.33204 -1.3281,0.9375 -0.8203,0.58594 -1.6016,0.9375 -0.9179,0.44922 -2.1094,0.74219 -1.1914,0.3125 -2.7929,0.3125 -2.9492,0 -5,-1.95312 -2.0508,-1.95313 -2.0508,-4.98047 0,-2.48047 1.0547,-4.00391 1.0742,-1.54297 3.0469,-2.42187 1.9921,-0.87891 4.7851,-1.19141 2.793,-0.3125 5.9961,-0.46875 v -0.56641 q 0,-1.25 -0.4492,-2.07031 -0.4297,-0.82031 -1.25,-1.28906 -0.7813,-0.44922 -1.875,-0.60547 -1.0938,-0.15625 -2.2852,-0.15625 -1.4453,0 -3.2226,0.39063 -1.7774,0.37109 -3.6719,1.09375 h -0.1953 v -3.73047 q 1.0742,-0.29297 3.1055,-0.64453 2.0312,-0.35157 4.0039,-0.35157 2.3047,0 4.0039,0.39063 1.7187,0.37109 2.9687,1.28906 1.2305,0.89844 1.875,2.32422 0.6446,1.42578 0.6446,3.53516 z m -3.6524,-5.37109 v -6.07422 q -1.6797,0.0977 -3.9648,0.29297 -2.2657,0.19531 -3.5938,0.56641 -1.582,0.44921 -2.5586,1.40625 -0.9765,0.9375 -0.9765,2.59765 0,1.875 1.1328,2.83203 1.1328,0.9375 3.457,0.9375 1.9336,0 3.5352,-0.74218 1.6015,-0.76172 2.9687,-1.81641 z"
       id="path3434"
       inkscape:connector-curvature="0" />
    <path
       d="m -1234.9102,224.49321 h -3.6718 v -2.28515 q -1.5821,1.36718 -3.3008,2.1289 -1.7188,0.76172 -3.7305,0.76172 -3.9062,0 -6.2109,-3.00781 -2.2852,-3.00781 -2.2852,-8.33984 0,-2.77344 0.7813,-4.94141 0.8008,-2.16797 2.1484,-3.69141 1.3281,-1.48437 3.0859,-2.26562 1.7774,-0.78125 3.6719,-0.78125 1.7188,0 3.0469,0.37109 1.3281,0.35156 2.793,1.11328 v -9.45312 h 3.6718 z m -3.6718,-5.37109 v -12.51953 q -1.4844,-0.66406 -2.6563,-0.91797 -1.1719,-0.25391 -2.5586,-0.25391 -3.0859,0 -4.8047,2.14844 -1.7187,2.14844 -1.7187,6.09375 0,3.88672 1.3281,5.91797 1.3281,2.01172 4.2578,2.01172 1.5625,0 3.1641,-0.6836 1.6015,-0.70312 2.9883,-1.79687 z"
       id="path3436"
       inkscape:connector-curvature="0" />
    <path
       d="m -1209.4219,213.96587 h -16.0742 q 0,2.01172 0.6055,3.51562 0.6054,1.48438 1.6601,2.44141 1.0157,0.9375 2.4024,1.40625 1.4062,0.46875 3.0859,0.46875 2.2266,0 4.4727,-0.87891 2.2656,-0.89843 3.2226,-1.75781 h 0.1953 v 4.00391 q -1.8554,0.78125 -3.789,1.30859 -1.9336,0.52735 -4.0625,0.52735 -5.4297,0 -8.4766,-2.92969 -3.0469,-2.94922 -3.0469,-8.35938 0,-5.35156 2.9102,-8.49609 2.9297,-3.14453 7.6953,-3.14453 4.4141,0 6.7969,2.57812 2.4023,2.57813 2.4023,7.32422 z m -3.5742,-2.8125 q -0.019,-2.89063 -1.4648,-4.47266 -1.4258,-1.58203 -4.3555,-1.58203 -2.9492,0 -4.707,1.73828 -1.7383,1.73828 -1.9727,4.31641 z"
       id="path3438"
       inkscape:connector-curvature="0" />
    <path
       d="m -1178.4648,224.2979 q -1.0352,0.27344 -2.2657,0.44922 -1.2109,0.17578 -2.1679,0.17578 -3.3399,0 -5.0782,-1.79687 -1.7382,-1.79688 -1.7382,-5.76172 v -11.60157 h -2.4805 v -3.08593 h 2.4805 v -6.26953 h 3.6718 v 6.26953 h 7.5782 v 3.08593 h -7.5782 v 9.94141 q 0,1.71875 0.078,2.69531 0.078,0.95703 0.5468,1.79688 0.4297,0.78125 1.1719,1.15234 0.7617,0.35156 2.3047,0.35156 0.8984,0 1.875,-0.2539 0.9766,-0.27344 1.4062,-0.44922 h 0.1954 z"
       id="path3440"
       inkscape:connector-curvature="0" />
    <path
       d="m -1160.3984,206.68071 h -0.1954 q -0.8203,-0.19531 -1.6015,-0.27343 -0.7617,-0.0977 -1.8164,-0.0977 -1.6992,0 -3.2813,0.76172 -1.582,0.74219 -3.0468,1.93359 v 15.48828 h -3.6719 v -21.8164 h 3.6719 v 3.22265 q 2.1875,-1.75781 3.8476,-2.48047 1.6797,-0.74218 3.418,-0.74218 0.957,0 1.3867,0.0586 0.4297,0.0391 1.2891,0.17578 z"
       id="path3442"
       inkscape:connector-curvature="0" />
    <path
       d="m -1140.6523,224.49321 h -3.6524 v -2.32422 q -0.4883,0.33204 -1.3281,0.9375 -0.8203,0.58594 -1.6016,0.9375 -0.9179,0.44922 -2.1094,0.74219 -1.1914,0.3125 -2.7929,0.3125 -2.9492,0 -5,-1.95312 -2.0508,-1.95313 -2.0508,-4.98047 0,-2.48047 1.0547,-4.00391 1.0742,-1.54297 3.0469,-2.42187 1.9921,-0.87891 4.7851,-1.19141 2.793,-0.3125 5.9961,-0.46875 v -0.56641 q 0,-1.25 -0.4492,-2.07031 -0.4297,-0.82031 -1.25,-1.28906 -0.7813,-0.44922 -1.875,-0.60547 -1.0938,-0.15625 -2.2852,-0.15625 -1.4453,0 -3.2226,0.39063 -1.7774,0.37109 -3.6719,1.09375 h -0.1953 v -3.73047 q 1.0742,-0.29297 3.1055,-0.64453 2.0312,-0.35157 4.0039,-0.35157 2.3047,0 4.0039,0.39063 1.7187,0.37109 2.9687,1.28906 1.2305,0.89844 1.875,2.32422 0.6446,1.42578 0.6446,3.53516 z m -3.6524,-5.37109 v -6.07422 q -1.6797,0.0977 -3.9648,0.29297 -2.2657,0.19531 -3.5938,0.56641 -1.582,0.44921 -2.5586,1.40625 -0.9765,0.9375 -0.9765,2.59765 0,1.875 1.1328,2.83203 1.1328,0.9375 3.457,0.9375 1.9336,0 3.5352,-0.74218 1.6015,-0.76172 2.9687,-1.81641 z"
       id="path3444"
       inkscape:connector-curvature="0" />
    <path
       d="m -1114.3438,213.41899 q 0,2.73438 -0.7812,4.92188 -0.7617,2.1875 -2.0703,3.67187 -1.3867,1.54297 -3.0469,2.32422 -1.6601,0.76172 -3.6523,0.76172 -1.8555,0 -3.2422,-0.44922 -1.3867,-0.42968 -2.7344,-1.17187 l -0.2344,1.01562 h -3.4375 v -30.39062 h 3.6719 v 10.85937 q 1.543,-1.26953 3.2813,-2.07031 1.7382,-0.82031 3.9062,-0.82031 3.8672,0 6.0938,2.96875 2.246,2.96875 2.246,8.3789 z m -3.789,0.0977 q 0,-3.90625 -1.2891,-5.91797 -1.289,-2.03125 -4.1601,-2.03125 -1.6016,0 -3.2422,0.70313 -1.6406,0.68359 -3.0469,1.77734 v 12.5 q 1.5625,0.70313 2.6758,0.97656 1.1328,0.27344 2.5586,0.27344 3.0469,0 4.7656,-1.99219 1.7383,-2.01172 1.7383,-6.28906 z"
       id="path3446"
       inkscape:connector-curvature="0" />
    <path
       d="m -1091.668,224.49321 h -3.6523 v -2.32422 q -0.4883,0.33204 -1.3281,0.9375 -0.8204,0.58594 -1.6016,0.9375 -0.918,0.44922 -2.1094,0.74219 -1.1914,0.3125 -2.7929,0.3125 -2.9493,0 -5,-1.95312 -2.0508,-1.95313 -2.0508,-4.98047 0,-2.48047 1.0547,-4.00391 1.0742,-1.54297 3.0468,-2.42187 1.9922,-0.87891 4.7852,-1.19141 2.793,-0.3125 5.9961,-0.46875 v -0.56641 q 0,-1.25 -0.4492,-2.07031 -0.4297,-0.82031 -1.25,-1.28906 -0.7813,-0.44922 -1.875,-0.60547 -1.0938,-0.15625 -2.2852,-0.15625 -1.4453,0 -3.2226,0.39063 -1.7774,0.37109 -3.6719,1.09375 h -0.1953 v -3.73047 q 1.0742,-0.29297 3.1054,-0.64453 2.0313,-0.35157 4.0039,-0.35157 2.3047,0 4.0039,0.39063 1.7188,0.37109 2.9688,1.28906 1.2305,0.89844 1.875,2.32422 0.6445,1.42578 0.6445,3.53516 z m -3.6523,-5.37109 v -6.07422 q -1.6797,0.0977 -3.9649,0.29297 -2.2656,0.19531 -3.5937,0.56641 -1.582,0.44921 -2.5586,1.40625 -0.9766,0.9375 -0.9766,2.59765 0,1.875 1.1328,2.83203 1.1329,0.9375 3.4571,0.9375 1.9336,0 3.5351,-0.74218 1.6016,-0.76172 2.9688,-1.81641 z"
       id="path3448"
       inkscape:connector-curvature="0" />
    <path
       d="m -1080.8477,224.49321 h -3.6718 v -30.39062 h 3.6718 z"
       id="path3450"
       inkscape:connector-curvature="0" />
    <path
       d="m -1055.3008,224.49321 h -3.6719 v -12.42187 q 0,-1.50391 -0.1757,-2.8125 -0.1758,-1.32813 -0.6446,-2.07031 -0.4883,-0.82032 -1.4062,-1.21094 -0.918,-0.41016 -2.3828,-0.41016 -1.5039,0 -3.1446,0.74219 -1.6406,0.74219 -3.1445,1.89453 v 16.28906 h -3.6719 v -30.39062 h 3.6719 v 10.99609 q 1.7188,-1.42578 3.5547,-2.22656 1.8359,-0.80078 3.7695,-0.80078 3.5352,0 5.3906,2.1289 1.8555,2.12891 1.8555,6.13282 z"
       id="path3452"
       inkscape:connector-curvature="0" />
    <path
       d="m -1029.6367,213.59478 q 0,5.33203 -2.7344,8.41796 -2.7344,3.08594 -7.3242,3.08594 -4.6289,0 -7.3633,-3.08594 -2.7148,-3.08593 -2.7148,-8.41796 0,-5.33204 2.7148,-8.41797 2.7344,-3.10547 7.3633,-3.10547 4.5898,0 7.3242,3.10547 2.7344,3.08593 2.7344,8.41797 z m -3.7891,0 q 0,-4.23829 -1.6601,-6.28907 -1.6602,-2.07031 -4.6094,-2.07031 -2.9883,0 -4.6485,2.07031 -1.6406,2.05078 -1.6406,6.28907 0,4.10156 1.6602,6.23046 1.6601,2.10938 4.6289,2.10938 2.9297,0 4.5898,-2.08984 1.6797,-2.10938 1.6797,-6.25 z"
       id="path3454"
       inkscape:connector-curvature="0" />
    <path
       d="m -1418.2109,272.38384 q -1.0743,0.46875 -1.9532,0.8789 -0.8593,0.41016 -2.2656,0.85938 -1.1914,0.37109 -2.5976,0.625 -1.3868,0.27344 -3.0665,0.27344 -3.164,0 -5.7617,-0.87891 -2.5781,-0.89844 -4.4922,-2.79297 -1.875,-1.85547 -2.9296,-4.70703 -1.0547,-2.87109 -1.0547,-6.66016 0,-3.59375 1.0156,-6.42578 1.0156,-2.83203 2.9297,-4.78515 1.8554,-1.89453 4.4726,-2.89063 2.6368,-0.99609 5.8399,-0.99609 2.3437,0 4.6679,0.5664 2.3438,0.56641 5.1954,1.99219 v 4.58985 h -0.293 q -2.4024,-2.01172 -4.7656,-2.92969 -2.3633,-0.91797 -5.0586,-0.91797 -2.2071,0 -3.9844,0.72266 -1.7578,0.70312 -3.1445,2.20703 -1.3477,1.46484 -2.1094,3.71093 -0.7422,2.22657 -0.7422,5.15625 0,3.06641 0.8203,5.27344 0.8399,2.20703 2.1485,3.59375 1.3671,1.44531 3.1835,2.14844 1.836,0.68359 3.8672,0.68359 2.793,0 5.2344,-0.95703 2.4414,-0.95703 4.5703,-2.87109 h 0.2735 z"
       id="path3456"
       inkscape:connector-curvature="0" />
    <path
       d="m -1394.4023,263.59478 q 0,5.33203 -2.7344,8.41796 -2.7344,3.08594 -7.3242,3.08594 -4.6289,0 -7.3633,-3.08594 -2.7149,-3.08593 -2.7149,-8.41796 0,-5.33204 2.7149,-8.41797 2.7344,-3.10547 7.3633,-3.10547 4.5898,0 7.3242,3.10547 2.7344,3.08593 2.7344,8.41797 z m -3.7891,0 q 0,-4.23829 -1.6602,-6.28907 -1.6601,-2.07031 -4.6093,-2.07031 -2.9883,0 -4.6485,2.07031 -1.6406,2.05078 -1.6406,6.28907 0,4.10156 1.6602,6.23046 1.6601,2.10938 4.6289,2.10938 2.9296,0 4.5898,-2.08984 1.6797,-2.10938 1.6797,-6.25 z"
       id="path3458"
       inkscape:connector-curvature="0" />
    <path
       d="m -1356.8633,274.49321 h -3.6719 v -12.42187 q 0,-1.40625 -0.1367,-2.71485 -0.1172,-1.30859 -0.5273,-2.08984 -0.4492,-0.83984 -1.2891,-1.26953 -0.8398,-0.42969 -2.4219,-0.42969 -1.5429,0 -3.0859,0.78125 -1.543,0.76172 -3.0859,1.95313 0.059,0.44922 0.098,1.05468 0.039,0.58594 0.039,1.17188 v 13.96484 h -3.6719 v -12.42187 q 0,-1.44531 -0.1367,-2.73438 -0.1172,-1.30859 -0.5274,-2.08984 -0.4492,-0.83984 -1.289,-1.25 -0.8399,-0.42969 -2.4219,-0.42969 -1.5039,0 -3.0273,0.74219 -1.5039,0.74219 -3.0078,1.89453 v 16.28906 h -3.6719 v -21.8164 h 3.6719 v 2.42187 q 1.7187,-1.42578 3.4179,-2.22656 1.7188,-0.80078 3.6524,-0.80078 2.2265,0 3.7695,0.9375 1.5625,0.9375 2.3242,2.59765 2.2266,-1.875 4.0625,-2.69531 1.836,-0.83984 3.9258,-0.83984 3.5937,0 5.293,2.1875 1.7187,2.16797 1.7187,6.07422 z"
       id="path3460"
       inkscape:connector-curvature="0" />
    <path
       d="m -1330.5938,263.32134 q 0,2.65625 -0.7617,4.86328 -0.7617,2.1875 -2.1484,3.71094 -1.2891,1.44531 -3.0469,2.24609 -1.7383,0.78125 -3.6914,0.78125 -1.6992,0 -3.0859,-0.37109 -1.3672,-0.3711 -2.793,-1.15235 v 9.14063 h -3.6719 v -29.86328 h 3.6719 v 2.28515 q 1.4648,-1.23047 3.2813,-2.05078 1.8359,-0.83984 3.9062,-0.83984 3.9453,0 6.1328,2.98828 2.207,2.96875 2.207,8.26172 z m -3.789,0.0976 q 0,-3.94531 -1.3477,-5.89843 -1.3476,-1.95313 -4.1406,-1.95313 -1.582,0 -3.1836,0.6836 -1.6016,0.68359 -3.0664,1.79687 v 12.36328 q 1.5625,0.70313 2.6758,0.95703 1.1328,0.25391 2.5586,0.25391 3.0664,0 4.7851,-2.07031 1.7188,-2.07032 1.7188,-6.13282 z"
       id="path3462"
       inkscape:connector-curvature="0" />
    <path
       d="m -1311.2578,256.68071 h -0.1953 q -0.8203,-0.19531 -1.6016,-0.27343 -0.7617,-0.0977 -1.8164,-0.0977 -1.6992,0 -3.2812,0.76172 -1.5821,0.74219 -3.0469,1.93359 v 15.48828 h -3.6719 v -21.8164 h 3.6719 v 3.22265 q 2.1875,-1.75781 3.8476,-2.48047 1.6797,-0.74218 3.418,-0.74218 0.957,0 1.3867,0.0586 0.4297,0.0391 1.2891,0.17578 z"
       id="path3464"
       inkscape:connector-curvature="0" />
    <path
       d="m -1289.168,263.59478 q 0,5.33203 -2.7343,8.41796 -2.7344,3.08594 -7.3243,3.08594 -4.6289,0 -7.3632,-3.08594 -2.7149,-3.08593 -2.7149,-8.41796 0,-5.33204 2.7149,-8.41797 2.7343,-3.10547 7.3632,-3.10547 4.5899,0 7.3243,3.10547 2.7343,3.08593 2.7343,8.41797 z m -3.789,0 q 0,-4.23829 -1.6602,-6.28907 -1.6601,-2.07031 -4.6094,-2.07031 -2.9882,0 -4.6484,2.07031 -1.6406,2.05078 -1.6406,6.28907 0,4.10156 1.6601,6.23046 1.6602,2.10938 4.6289,2.10938 2.9297,0 4.5899,-2.08984 1.6797,-2.10938 1.6797,-6.25 z"
       id="path3466"
       inkscape:connector-curvature="0" />
    <path
       d="m -1251.6289,274.49321 h -3.6719 v -12.42187 q 0,-1.40625 -0.1367,-2.71485 -0.1172,-1.30859 -0.5273,-2.08984 -0.4493,-0.83984 -1.2891,-1.26953 -0.8399,-0.42969 -2.4219,-0.42969 -1.543,0 -3.0859,0.78125 -1.543,0.76172 -3.086,1.95313 0.059,0.44922 0.098,1.05468 0.039,0.58594 0.039,1.17188 v 13.96484 h -3.6719 v -12.42187 q 0,-1.44531 -0.1367,-2.73438 -0.1172,-1.30859 -0.5274,-2.08984 -0.4492,-0.83984 -1.289,-1.25 -0.8399,-0.42969 -2.4219,-0.42969 -1.5039,0 -3.0274,0.74219 -1.5039,0.74219 -3.0078,1.89453 v 16.28906 h -3.6718 v -21.8164 h 3.6718 v 2.42187 q 1.7188,-1.42578 3.418,-2.22656 1.7187,-0.80078 3.6523,-0.80078 2.2266,0 3.7696,0.9375 1.5625,0.9375 2.3242,2.59765 2.2266,-1.875 4.0625,-2.69531 1.8359,-0.83984 3.9258,-0.83984 3.5937,0 5.2929,2.1875 1.7188,2.16797 1.7188,6.07422 z"
       id="path3468"
       inkscape:connector-curvature="0" />
    <path
       d="m -1226.2969,263.96587 h -16.0742 q 0,2.01172 0.6055,3.51562 0.6054,1.48438 1.6601,2.44141 1.0157,0.9375 2.4024,1.40625 1.4062,0.46875 3.0859,0.46875 2.2266,0 4.4727,-0.87891 2.2656,-0.89843 3.2226,-1.75781 h 0.1953 v 4.00391 q -1.8554,0.78125 -3.789,1.30859 -1.9336,0.52735 -4.0625,0.52735 -5.4297,0 -8.4766,-2.92969 -3.0469,-2.94922 -3.0469,-8.35938 0,-5.35156 2.9102,-8.49609 2.9297,-3.14453 7.6953,-3.14453 4.4141,0 6.7969,2.57812 2.4023,2.57813 2.4023,7.32422 z m -3.5742,-2.8125 q -0.019,-2.89063 -1.4648,-4.47266 -1.4258,-1.58203 -4.3555,-1.58203 -2.9492,0 -4.707,1.73828 -1.7383,1.73828 -1.9727,4.31641 z"
       id="path3470"
       inkscape:connector-curvature="0" />
    <path
       d="m -1209.4023,274.2979 q -1.0352,0.27344 -2.2657,0.44922 -1.2109,0.17578 -2.1679,0.17578 -3.3399,0 -5.0782,-1.79687 -1.7382,-1.79688 -1.7382,-5.76172 v -11.60157 h -2.4805 v -3.08593 h 2.4805 v -6.26953 h 3.6718 v 6.26953 h 7.5782 v 3.08593 h -7.5782 v 9.94141 q 0,1.71875 0.078,2.69531 0.078,0.95703 0.5468,1.79688 0.4297,0.78125 1.1719,1.15234 0.7617,0.35156 2.3047,0.35156 0.8984,0 1.875,-0.2539 0.9766,-0.27344 1.4062,-0.44922 h 0.1954 z"
       id="path3472"
       inkscape:connector-curvature="0" />
    <path
       d="m -1201.0039,249.02446 h -4.1406 v -3.80859 h 4.1406 z m -0.2344,25.46875 h -3.6719 v -21.8164 h 3.6719 z"
       id="path3474"
       inkscape:connector-curvature="0" />
    <path
       d="m -1162.0977,274.49321 h -3.6718 v -12.42187 q 0,-1.40625 -0.1368,-2.71485 -0.1171,-1.30859 -0.5273,-2.08984 -0.4492,-0.83984 -1.2891,-1.26953 -0.8398,-0.42969 -2.4218,-0.42969 -1.543,0 -3.086,0.78125 -1.5429,0.76172 -3.0859,1.95313 0.059,0.44922 0.098,1.05468 0.039,0.58594 0.039,1.17188 v 13.96484 h -3.6719 v -12.42187 q 0,-1.44531 -0.1367,-2.73438 -0.1172,-1.30859 -0.5273,-2.08984 -0.4492,-0.83984 -1.2891,-1.25 -0.8398,-0.42969 -2.4219,-0.42969 -1.5039,0 -3.0273,0.74219 -1.5039,0.74219 -3.0078,1.89453 v 16.28906 h -3.6719 v -21.8164 h 3.6719 v 2.42187 q 1.7187,-1.42578 3.4179,-2.22656 1.7188,-0.80078 3.6524,-0.80078 2.2266,0 3.7695,0.9375 1.5625,0.9375 2.3242,2.59765 2.2266,-1.875 4.0625,-2.69531 1.836,-0.83984 3.9258,-0.83984 3.5938,0 5.293,2.1875 1.7187,2.16797 1.7187,6.07422 z"
       id="path3476"
       inkscape:connector-curvature="0" />
    <path
       d="m -1136.7656,263.96587 h -16.0742 q 0,2.01172 0.6054,3.51562 0.6055,1.48438 1.6602,2.44141 1.0156,0.9375 2.4023,1.40625 1.4063,0.46875 3.086,0.46875 2.2265,0 4.4726,-0.87891 2.2656,-0.89843 3.2227,-1.75781 h 0.1953 v 4.00391 q -1.8555,0.78125 -3.7891,1.30859 -1.9336,0.52735 -4.0625,0.52735 -5.4297,0 -8.4765,-2.92969 -3.0469,-2.94922 -3.0469,-8.35938 0,-5.35156 2.9101,-8.49609 2.9297,-3.14453 7.6954,-3.14453 4.414,0 6.7968,2.57812 2.4024,2.57813 2.4024,7.32422 z m -3.5742,-2.8125 q -0.02,-2.89063 -1.4649,-4.47266 -1.4258,-1.58203 -4.3555,-1.58203 -2.9492,0 -4.707,1.73828 -1.7383,1.73828 -1.9726,4.31641 z"
       id="path3478"
       inkscape:connector-curvature="0" />
    <path
       d="m -1112.957,274.49321 h -3.6719 v -12.42187 q 0,-1.50391 -0.1758,-2.8125 -0.1758,-1.32813 -0.6445,-2.07031 -0.4883,-0.82032 -1.4063,-1.21094 -0.9179,-0.41016 -2.3828,-0.41016 -1.5039,0 -3.1445,0.74219 -1.6406,0.74219 -3.1445,1.89453 v 16.28906 h -3.6719 v -21.8164 h 3.6719 v 2.42187 q 1.7187,-1.42578 3.5546,-2.22656 1.836,-0.80078 3.7696,-0.80078 3.5351,0 5.3906,2.1289 1.8555,2.12891 1.8555,6.13282 z"
       id="path3480"
       inkscape:connector-curvature="0" />
    <path
       d="m -1094.5586,274.2979 q -1.0352,0.27344 -2.2656,0.44922 -1.211,0.17578 -2.168,0.17578 -3.3398,0 -5.0781,-1.79687 -1.7383,-1.79688 -1.7383,-5.76172 v -11.60157 h -2.4805 v -3.08593 h 2.4805 v -6.26953 h 3.6719 v 6.26953 h 7.5781 v 3.08593 h -7.5781 v 9.94141 q 0,1.71875 0.078,2.69531 0.078,0.95703 0.5469,1.79688 0.4297,0.78125 1.1719,1.15234 0.7617,0.35156 2.3046,0.35156 0.8985,0 1.875,-0.2539 0.9766,-0.27344 1.4063,-0.44922 h 0.1953 z"
       id="path3482"
       inkscape:connector-curvature="0" />
    <path
       d="m -1071.5117,263.59478 q 0,5.33203 -2.7344,8.41796 -2.7344,3.08594 -7.3242,3.08594 -4.6289,0 -7.3633,-3.08594 -2.7148,-3.08593 -2.7148,-8.41796 0,-5.33204 2.7148,-8.41797 2.7344,-3.10547 7.3633,-3.10547 4.5898,0 7.3242,3.10547 2.7344,3.08593 2.7344,8.41797 z m -3.7891,0 q 0,-4.23829 -1.6601,-6.28907 -1.6602,-2.07031 -4.6094,-2.07031 -2.9883,0 -4.6485,2.07031 -1.6406,2.05078 -1.6406,6.28907 0,4.10156 1.6602,6.23046 1.6601,2.10938 4.6289,2.10938 2.9297,0 4.5898,-2.08984 1.6797,-2.10938 1.6797,-6.25 z"
       id="path3484"
       inkscape:connector-curvature="0" />
    <path
       d="m -1348.1328,322.38384 q -1.0742,0.46875 -1.9531,0.8789 -0.8594,0.41016 -2.2657,0.85938 -1.1914,0.37109 -2.5976,0.625 -1.3867,0.27344 -3.0664,0.27344 -3.1641,0 -5.7617,-0.87891 -2.5782,-0.89844 -4.4922,-2.79297 -1.875,-1.85547 -2.9297,-4.70703 -1.0547,-2.87109 -1.0547,-6.66016 0,-3.59375 1.0156,-6.42578 1.0156,-2.83203 2.9297,-4.78515 1.8555,-1.89453 4.4727,-2.89063 2.6367,-0.99609 5.8398,-0.99609 2.3438,0 4.668,0.5664 2.3437,0.56641 5.1953,1.99219 v 4.58985 h -0.293 q -2.4023,-2.01172 -4.7656,-2.92969 -2.3633,-0.91797 -5.0586,-0.91797 -2.207,0 -3.9844,0.72266 -1.7578,0.70312 -3.1445,2.20703 -1.3477,1.46484 -2.1094,3.71093 -0.7422,2.22657 -0.7422,5.15625 0,3.06641 0.8203,5.27344 0.8399,2.20703 2.1485,3.59375 1.3672,1.44531 3.1836,2.14844 1.8359,0.68359 3.8672,0.68359 2.7929,0 5.2343,-0.95703 2.4414,-0.95703 4.5703,-2.87109 h 0.2735 z"
       id="path3486"
       inkscape:connector-curvature="0" />
    <path
       d="m -1324.3242,313.59478 q 0,5.33203 -2.7344,8.41796 -2.7344,3.08594 -7.3242,3.08594 -4.6289,0 -7.3633,-3.08594 -2.7148,-3.08593 -2.7148,-8.41796 0,-5.33204 2.7148,-8.41797 2.7344,-3.10547 7.3633,-3.10547 4.5898,0 7.3242,3.10547 2.7344,3.08593 2.7344,8.41797 z m -3.7891,0 q 0,-4.23829 -1.6601,-6.28907 -1.6602,-2.07031 -4.6094,-2.07031 -2.9883,0 -4.6485,2.07031 -1.6406,2.05078 -1.6406,6.28907 0,4.10156 1.6602,6.23046 1.6601,2.10938 4.6289,2.10938 2.9297,0 4.5898,-2.08984 1.6797,-2.10938 1.6797,-6.25 z"
       id="path3488"
       inkscape:connector-curvature="0" />
    <path
       d="m -1300.0273,313.59478 q 0,5.33203 -2.7344,8.41796 -2.7344,3.08594 -7.3242,3.08594 -4.6289,0 -7.3633,-3.08594 -2.7149,-3.08593 -2.7149,-8.41796 0,-5.33204 2.7149,-8.41797 2.7344,-3.10547 7.3633,-3.10547 4.5898,0 7.3242,3.10547 2.7344,3.08593 2.7344,8.41797 z m -3.7891,0 q 0,-4.23829 -1.6602,-6.28907 -1.6601,-2.07031 -4.6093,-2.07031 -2.9883,0 -4.6485,2.07031 -1.6406,2.05078 -1.6406,6.28907 0,4.10156 1.6602,6.23046 1.6601,2.10938 4.6289,2.10938 2.9296,0 4.5898,-2.08984 1.6797,-2.10938 1.6797,-6.25 z"
       id="path3490"
       inkscape:connector-curvature="0" />
    <path
       d="m -1275.125,313.32134 q 0,2.65625 -0.7617,4.86328 -0.7617,2.1875 -2.1485,3.71094 -1.289,1.44531 -3.0468,2.24609 -1.7383,0.78125 -3.6914,0.78125 -1.6993,0 -3.086,-0.37109 -1.3672,-0.3711 -2.7929,-1.15235 v 9.14063 h -3.6719 v -29.86328 h 3.6719 v 2.28515 q 1.4648,-1.23047 3.2812,-2.05078 1.8359,-0.83984 3.9063,-0.83984 3.9453,0 6.1328,2.98828 2.207,2.96875 2.207,8.26172 z m -3.7891,0.0976 q 0,-3.94531 -1.3476,-5.89843 -1.3477,-1.95313 -4.1406,-1.95313 -1.5821,0 -3.1836,0.6836 -1.6016,0.68359 -3.0664,1.79687 v 12.36328 q 1.5625,0.70313 2.6757,0.95703 1.1328,0.25391 2.5586,0.25391 3.0664,0 4.7852,-2.07031 1.7187,-2.07032 1.7187,-6.13282 z"
       id="path3492"
       inkscape:connector-curvature="0" />
    <path
       d="m -1251.1406,313.96587 h -16.0742 q 0,2.01172 0.6054,3.51562 0.6055,1.48438 1.6602,2.44141 1.0156,0.9375 2.4023,1.40625 1.4063,0.46875 3.086,0.46875 2.2265,0 4.4726,-0.87891 2.2656,-0.89843 3.2227,-1.75781 h 0.1953 v 4.00391 q -1.8555,0.78125 -3.7891,1.30859 -1.9336,0.52735 -4.0625,0.52735 -5.4297,0 -8.4765,-2.92969 -3.0469,-2.94922 -3.0469,-8.35938 0,-5.35156 2.9101,-8.49609 2.9297,-3.14453 7.6954,-3.14453 4.414,0 6.7968,2.57812 2.4024,2.57813 2.4024,7.32422 z m -3.5742,-2.8125 q -0.02,-2.89063 -1.4649,-4.47266 -1.4258,-1.58203 -4.3555,-1.58203 -2.9492,0 -4.707,1.73828 -1.7383,1.73828 -1.9726,4.31641 z"
       id="path3494"
       inkscape:connector-curvature="0" />
    <path
       d="m -1231.9609,306.68071 h -0.1954 q -0.8203,-0.19531 -1.6015,-0.27343 -0.7617,-0.0977 -1.8164,-0.0977 -1.6992,0 -3.2813,0.76172 -1.582,0.74219 -3.0468,1.93359 v 15.48828 h -3.6719 v -21.8164 h 3.6719 v 3.22265 q 2.1875,-1.75781 3.8476,-2.48047 1.6797,-0.74218 3.418,-0.74218 0.957,0 1.3867,0.0586 0.4297,0.0391 1.2891,0.17578 z"
       id="path3496"
       inkscape:connector-curvature="0" />
    <path
       d="m -1212.2148,324.49321 h -3.6524 v -2.32422 q -0.4883,0.33204 -1.3281,0.9375 -0.8203,0.58594 -1.6016,0.9375 -0.9179,0.44922 -2.1094,0.74219 -1.1914,0.3125 -2.7929,0.3125 -2.9492,0 -5,-1.95312 -2.0508,-1.95313 -2.0508,-4.98047 0,-2.48047 1.0547,-4.00391 1.0742,-1.54297 3.0469,-2.42187 1.9921,-0.87891 4.7851,-1.19141 2.793,-0.3125 5.9961,-0.46875 v -0.56641 q 0,-1.25 -0.4492,-2.07031 -0.4297,-0.82031 -1.25,-1.28906 -0.7813,-0.44922 -1.875,-0.60547 -1.0938,-0.15625 -2.2852,-0.15625 -1.4453,0 -3.2226,0.39063 -1.7774,0.37109 -3.6719,1.09375 h -0.1953 v -3.73047 q 1.0742,-0.29297 3.1055,-0.64453 2.0312,-0.35157 4.0039,-0.35157 2.3047,0 4.0039,0.39063 1.7187,0.37109 2.9687,1.28906 1.2305,0.89844 1.875,2.32422 0.6446,1.42578 0.6446,3.53516 z m -3.6524,-5.37109 v -6.07422 q -1.6797,0.0977 -3.9648,0.29297 -2.2657,0.19531 -3.5938,0.56641 -1.582,0.44921 -2.5586,1.40625 -0.9765,0.9375 -0.9765,2.59765 0,1.875 1.1328,2.83203 1.1328,0.9375 3.457,0.9375 1.9336,0 3.5352,-0.74218 1.6015,-0.76172 2.9687,-1.81641 z"
       id="path3498"
       inkscape:connector-curvature="0" />
    <path
       d="m -1188.9727,323.12603 q -0.6445,0.29296 -1.4062,0.60546 -0.7422,0.29297 -1.3086,0.46875 0.059,0.3711 0.098,0.91797 0.058,0.56641 0.058,1.11328 0,3.16407 -1.7968,4.84375 -1.7774,1.67969 -4.6289,1.67969 -0.7227,0 -1.8555,-0.13672 -1.1328,-0.13672 -2.0117,-0.37109 v -3.125 h 0.1758 q 0.5078,0.19531 1.3671,0.44922 0.8594,0.2539 1.836,0.2539 2.0312,0 2.9883,-0.76171 0.957,-0.76172 0.957,-2.48047 0,-0.42969 -0.039,-0.87891 -0.02,-0.44922 -0.059,-0.83984 -0.3125,0.0391 -0.6054,0.0781 -0.2735,0.0391 -0.7617,0.0391 -2.3633,0 -4.336,-0.68359 -1.9726,-0.70312 -3.3789,-2.10937 -1.4258,-1.40625 -2.207,-3.55469 -0.7813,-2.14844 -0.7813,-5.01953 0,-5.35157 2.9297,-8.39844 2.9492,-3.04688 7.7735,-3.04688 1.875,0 3.6718,0.52735 1.8164,0.52734 3.3203,1.28906 v 4.08203 h -0.1953 q -1.6797,-1.30859 -3.4765,-2.01172 -1.7774,-0.70312 -3.4766,-0.70312 -3.125,0 -4.9414,2.10937 -1.7969,2.08985 -1.7969,6.15235 0,3.94531 1.7578,6.07422 1.7774,2.10937 4.9805,2.10937 1.1133,0 2.2656,-0.29297 1.1524,-0.29297 2.0703,-0.76172 0.8008,-0.41015 1.5039,-0.85937 0.7032,-0.46875 1.1133,-0.80078 h 0.1953 z"
       id="path3500"
       inkscape:connector-curvature="0" />
    <path
       d="m -1167.293,324.49321 h -3.6523 v -2.32422 q -0.4883,0.33204 -1.3281,0.9375 -0.8204,0.58594 -1.6016,0.9375 -0.918,0.44922 -2.1094,0.74219 -1.1914,0.3125 -2.7929,0.3125 -2.9493,0 -5,-1.95312 -2.0508,-1.95313 -2.0508,-4.98047 0,-2.48047 1.0547,-4.00391 1.0742,-1.54297 3.0468,-2.42187 1.9922,-0.87891 4.7852,-1.19141 2.793,-0.3125 5.9961,-0.46875 v -0.56641 q 0,-1.25 -0.4492,-2.07031 -0.4297,-0.82031 -1.25,-1.28906 -0.7813,-0.44922 -1.875,-0.60547 -1.0938,-0.15625 -2.2852,-0.15625 -1.4453,0 -3.2226,0.39063 -1.7774,0.37109 -3.6719,1.09375 h -0.1953 v -3.73047 q 1.0742,-0.29297 3.1054,-0.64453 2.0313,-0.35157 4.0039,-0.35157 2.3047,0 4.0039,0.39063 1.7188,0.37109 2.9688,1.28906 1.2305,0.89844 1.875,2.32422 0.6445,1.42578 0.6445,3.53516 z m -3.6523,-5.37109 v -6.07422 q -1.6797,0.0977 -3.9649,0.29297 -2.2656,0.19531 -3.5937,0.56641 -1.582,0.44921 -2.5586,1.40625 -0.9766,0.9375 -0.9766,2.59765 0,1.875 1.1328,2.83203 1.1329,0.9375 3.4571,0.9375 1.9336,0 3.5351,-0.74218 1.6016,-0.76172 2.9688,-1.81641 z m 3.3594,-26.25 q -0.2149,2.96875 -1.5039,4.47266 -1.2891,1.5039 -3.4571,1.5039 -1.0547,0 -1.9531,-0.37109 -0.8984,-0.39063 -1.6992,-1.11328 -0.918,-0.83985 -1.5625,-1.25 -0.625,-0.42969 -1.3867,-0.42969 -1.0157,0 -1.5235,0.87891 -0.5078,0.8789 -0.5859,2.36328 h -2.5586 q 0.1562,-2.94922 1.543,-4.45313 1.3867,-1.5039 3.3984,-1.5039 0.9766,0 1.875,0.39062 0.918,0.37109 1.7383,1.07422 0.9179,0.80078 1.6211,1.21094 0.7226,0.39062 1.3672,0.39062 0.9961,0 1.5429,-0.89844 0.5664,-0.89843 0.625,-2.26562 z"
       id="path3502"
       inkscape:connector-curvature="0" />
    <path
       d="m -1141.5898,313.59478 q 0,5.33203 -2.7344,8.41796 -2.7344,3.08594 -7.3242,3.08594 -4.6289,0 -7.3633,-3.08594 -2.7149,-3.08593 -2.7149,-8.41796 0,-5.33204 2.7149,-8.41797 2.7344,-3.10547 7.3633,-3.10547 4.5898,0 7.3242,3.10547 2.7344,3.08593 2.7344,8.41797 z m -3.7891,0 q 0,-4.23829 -1.6602,-6.28907 -1.6601,-2.07031 -4.6093,-2.07031 -2.9883,0 -4.6485,2.07031 -1.6406,2.05078 -1.6406,6.28907 0,4.10156 1.6602,6.23046 1.6601,2.10938 4.6289,2.10938 2.9296,0 4.5898,-2.08984 1.6797,-2.10938 1.6797,-6.25 z"
       id="path3504"
       inkscape:connector-curvature="0" />
    <path
       d="m -1467.4688,372.38384 q -1.0742,0.46875 -1.9531,0.8789 -0.8594,0.41016 -2.2656,0.85938 -1.1914,0.37109 -2.5977,0.625 -1.3867,0.27344 -3.0664,0.27344 -3.164,0 -5.7617,-0.87891 -2.5781,-0.89844 -4.4922,-2.79297 -1.875,-1.85547 -2.9297,-4.70703 -1.0546,-2.87109 -1.0546,-6.66016 0,-3.59375 1.0156,-6.42578 1.0156,-2.83203 2.9297,-4.78515 1.8554,-1.89453 4.4726,-2.89063 2.6367,-0.99609 5.8399,-0.99609 2.3437,0 4.6679,0.5664 2.3438,0.56641 5.1953,1.99219 v 4.58985 h -0.2929 q -2.4024,-2.01172 -4.7656,-2.92969 -2.3633,-0.91797 -5.0586,-0.91797 -2.2071,0 -3.9844,0.72266 -1.7578,0.70312 -3.1445,2.20703 -1.3477,1.46484 -2.1094,3.71093 -0.7422,2.22657 -0.7422,5.15625 0,3.06641 0.8203,5.27344 0.8398,2.20703 2.1484,3.59375 1.3672,1.44531 3.1836,2.14844 1.836,0.68359 3.8672,0.68359 2.793,0 5.2344,-0.95703 2.4414,-0.95703 4.5703,-2.87109 h 0.2734 z"
       id="path3506"
       inkscape:connector-curvature="0" />
    <path
       d="m -1448.6406,356.68071 h -0.1953 q -0.8204,-0.19531 -1.6016,-0.27343 -0.7617,-0.0977 -1.8164,-0.0977 -1.6992,0 -3.2813,0.76172 -1.582,0.74219 -3.0468,1.93359 v 15.48828 h -3.6719 v -21.8164 h 3.6719 v 3.22265 q 2.1875,-1.75781 3.8476,-2.48047 1.6797,-0.74218 3.418,-0.74218 0.957,0 1.3867,0.0586 0.4297,0.0391 1.2891,0.17578 z"
       id="path3508"
       inkscape:connector-curvature="0" />
    <path
       d="m -1441.1992,349.02446 h -4.1406 v -3.80859 h 4.1406 z m -0.2344,25.46875 h -3.6719 v -21.8164 h 3.6719 z"
       id="path3510"
       inkscape:connector-curvature="0" />
    <path
       d="m -1417.1758,374.49321 h -3.6523 v -2.32422 q -0.4883,0.33204 -1.3282,0.9375 -0.8203,0.58594 -1.6015,0.9375 -0.918,0.44922 -2.1094,0.74219 -1.1914,0.3125 -2.793,0.3125 -2.9492,0 -5,-1.95312 -2.0507,-1.95313 -2.0507,-4.98047 0,-2.48047 1.0546,-4.00391 1.0743,-1.54297 3.0469,-2.42187 1.9922,-0.87891 4.7852,-1.19141 2.7929,-0.3125 5.9961,-0.46875 v -0.56641 q 0,-1.25 -0.4492,-2.07031 -0.4297,-0.82031 -1.25,-1.28906 -0.7813,-0.44922 -1.875,-0.60547 -1.0938,-0.15625 -2.2852,-0.15625 -1.4453,0 -3.2227,0.39063 -1.7773,0.37109 -3.6718,1.09375 h -0.1953 v -3.73047 q 1.0742,-0.29297 3.1054,-0.64453 2.0313,-0.35157 4.0039,-0.35157 2.3047,0 4.0039,0.39063 1.7188,0.37109 2.9688,1.28906 1.2305,0.89844 1.875,2.32422 0.6445,1.42578 0.6445,3.53516 z m -3.6523,-5.37109 v -6.07422 q -1.6797,0.0977 -3.9649,0.29297 -2.2656,0.19531 -3.5937,0.56641 -1.5821,0.44921 -2.5586,1.40625 -0.9766,0.9375 -0.9766,2.59765 0,1.875 1.1328,2.83203 1.1328,0.9375 3.4571,0.9375 1.9336,0 3.5351,-0.74218 1.6016,-0.76172 2.9688,-1.81641 z"
       id="path3512"
       inkscape:connector-curvature="0" />
    <path
       d="m -1398.7383,374.2979 q -1.0351,0.27344 -2.2656,0.44922 -1.2109,0.17578 -2.168,0.17578 -3.3398,0 -5.0781,-1.79687 -1.7383,-1.79688 -1.7383,-5.76172 v -11.60157 h -2.4805 v -3.08593 h 2.4805 v -6.26953 h 3.6719 v 6.26953 h 7.5781 v 3.08593 h -7.5781 v 9.94141 q 0,1.71875 0.078,2.69531 0.078,0.95703 0.5469,1.79688 0.4297,0.78125 1.1719,1.15234 0.7617,0.35156 2.3047,0.35156 0.8984,0 1.875,-0.2539 0.9765,-0.27344 1.4062,-0.44922 h 0.1953 z"
       id="path3514"
       inkscape:connector-curvature="0" />
    <path
       d="m -1390.3398,349.02446 h -4.1407 v -3.80859 h 4.1407 z m -0.2344,25.46875 h -3.6719 v -21.8164 h 3.6719 z"
       id="path3516"
       inkscape:connector-curvature="0" />
    <path
       d="m -1364.4023,352.67681 -8.8282,21.8164 h -3.6914 l -8.7695,-21.8164 h 3.9844 l 6.7578,17.36328 6.6992,-17.36328 z"
       id="path3518"
       inkscape:connector-curvature="0" />
    <path
       d="m -1355.6523,349.02446 h -4.1407 v -3.80859 h 4.1407 z m -0.2344,25.46875 h -3.6719 v -21.8164 h 3.6719 z"
       id="path3520"
       inkscape:connector-curvature="0" />
    <path
       d="m -1330.8867,374.49321 h -3.6719 v -2.28515 q -1.582,1.36718 -3.3008,2.1289 -1.7187,0.76172 -3.7304,0.76172 -3.9063,0 -6.211,-3.00781 -2.2851,-3.00781 -2.2851,-8.33984 0,-2.77344 0.7812,-4.94141 0.8008,-2.16797 2.1484,-3.69141 1.3282,-1.48437 3.086,-2.26562 1.7773,-0.78125 3.6719,-0.78125 1.7187,0 3.0468,0.37109 1.3282,0.35156 2.793,1.11328 v -9.45312 h 3.6719 z m -3.6719,-5.37109 v -12.51953 q -1.4844,-0.66406 -2.6562,-0.91797 -1.1719,-0.25391 -2.5586,-0.25391 -3.086,0 -4.8047,2.14844 -1.7188,2.14844 -1.7188,6.09375 0,3.88672 1.3281,5.91797 1.3282,2.01172 4.2579,2.01172 1.5625,0 3.164,-0.6836 1.6016,-0.70312 2.9883,-1.79687 z"
       id="path3522"
       inkscape:connector-curvature="0" />
    <path
       d="m -1306.707,374.49321 h -3.6524 v -2.32422 q -0.4883,0.33204 -1.3281,0.9375 -0.8203,0.58594 -1.6016,0.9375 -0.9179,0.44922 -2.1093,0.74219 -1.1914,0.3125 -2.793,0.3125 -2.9492,0 -5,-1.95312 -2.0508,-1.95313 -2.0508,-4.98047 0,-2.48047 1.0547,-4.00391 1.0742,-1.54297 3.0469,-2.42187 1.9922,-0.87891 4.7851,-1.19141 2.793,-0.3125 5.9961,-0.46875 v -0.56641 q 0,-1.25 -0.4492,-2.07031 -0.4297,-0.82031 -1.25,-1.28906 -0.7812,-0.44922 -1.875,-0.60547 -1.0937,-0.15625 -2.2852,-0.15625 -1.4453,0 -3.2226,0.39063 -1.7774,0.37109 -3.6719,1.09375 h -0.1953 v -3.73047 q 1.0742,-0.29297 3.1055,-0.64453 2.0312,-0.35157 4.0039,-0.35157 2.3047,0 4.0039,0.39063 1.7187,0.37109 2.9687,1.28906 1.2305,0.89844 1.875,2.32422 0.6446,1.42578 0.6446,3.53516 z m -3.6524,-5.37109 v -6.07422 q -1.6797,0.0977 -3.9648,0.29297 -2.2656,0.19531 -3.5938,0.56641 -1.582,0.44921 -2.5586,1.40625 -0.9765,0.9375 -0.9765,2.59765 0,1.875 1.1328,2.83203 1.1328,0.9375 3.457,0.9375 1.9336,0 3.5352,-0.74218 1.6015,-0.76172 2.9687,-1.81641 z"
       id="path3524"
       inkscape:connector-curvature="0" />
    <path
       d="m -1281.9023,374.49321 h -3.6719 v -2.28515 q -1.5821,1.36718 -3.3008,2.1289 -1.7188,0.76172 -3.7305,0.76172 -3.9062,0 -6.2109,-3.00781 -2.2852,-3.00781 -2.2852,-8.33984 0,-2.77344 0.7813,-4.94141 0.8008,-2.16797 2.1484,-3.69141 1.3281,-1.48437 3.086,-2.26562 1.7773,-0.78125 3.6718,-0.78125 1.7188,0 3.0469,0.37109 1.3281,0.35156 2.793,1.11328 v -9.45312 h 3.6719 z m -3.6719,-5.37109 v -12.51953 q -1.4844,-0.66406 -2.6563,-0.91797 -1.1718,-0.25391 -2.5586,-0.25391 -3.0859,0 -4.8047,2.14844 -1.7187,2.14844 -1.7187,6.09375 0,3.88672 1.3281,5.91797 1.3281,2.01172 4.2578,2.01172 1.5625,0 3.1641,-0.6836 1.6016,-0.70312 2.9883,-1.79687 z"
       id="path3526"
       inkscape:connector-curvature="0" />
    <path
       d="m -1256.4141,363.96587 h -16.0742 q 0,2.01172 0.6055,3.51562 0.6055,1.48438 1.6601,2.44141 1.0157,0.9375 2.4024,1.40625 1.4062,0.46875 3.0859,0.46875 2.2266,0 4.4727,-0.87891 2.2656,-0.89843 3.2226,-1.75781 h 0.1953 v 4.00391 q -1.8554,0.78125 -3.789,1.30859 -1.9336,0.52735 -4.0625,0.52735 -5.4297,0 -8.4766,-2.92969 -3.0469,-2.94922 -3.0469,-8.35938 0,-5.35156 2.9102,-8.49609 2.9297,-3.14453 7.6953,-3.14453 4.4141,0 6.7969,2.57812 2.4023,2.57813 2.4023,7.32422 z m -3.5742,-2.8125 q -0.02,-2.89063 -1.4648,-4.47266 -1.4258,-1.58203 -4.3555,-1.58203 -2.9492,0 -4.707,1.73828 -1.7383,1.73828 -1.9727,4.31641 z"
       id="path3528"
       inkscape:connector-curvature="0" />
    <path
       d="m -1218.5234,363.96587 h -16.0743 q 0,2.01172 0.6055,3.51562 0.6055,1.48438 1.6602,2.44141 1.0156,0.9375 2.4023,1.40625 1.4063,0.46875 3.0859,0.46875 2.2266,0 4.4727,-0.87891 2.2656,-0.89843 3.2227,-1.75781 h 0.1953 v 4.00391 q -1.8555,0.78125 -3.7891,1.30859 -1.9336,0.52735 -4.0625,0.52735 -5.4297,0 -8.4766,-2.92969 -3.0468,-2.94922 -3.0468,-8.35938 0,-5.35156 2.9101,-8.49609 2.9297,-3.14453 7.6953,-3.14453 4.4141,0 6.7969,2.57812 2.4024,2.57813 2.4024,7.32422 z m -3.5743,-2.8125 q -0.019,-2.89063 -1.4648,-4.47266 -1.4258,-1.58203 -4.3555,-1.58203 -2.9492,0 -4.707,1.73828 -1.7383,1.73828 -1.9727,4.31641 z"
       id="path3530"
       inkscape:connector-curvature="0" />
    <path
       d="m -1188.3477,374.49321 h -11.4843 v -2.96875 h 3.8086 v -23.14453 h -3.8086 v -2.96875 h 11.4843 v 2.96875 h -3.8086 v 23.14453 h 3.8086 z"
       id="path3532"
       inkscape:connector-curvature="0" />
    <path
       d="m -1163.7773,374.49321 h -3.6719 v -12.42187 q 0,-1.50391 -0.1758,-2.8125 -0.1758,-1.32813 -0.6445,-2.07031 -0.4883,-0.82032 -1.4063,-1.21094 -0.918,-0.41016 -2.3828,-0.41016 -1.5039,0 -3.1445,0.74219 -1.6407,0.74219 -3.1446,1.89453 v 16.28906 h -3.6718 v -21.8164 h 3.6718 v 2.42187 q 1.7188,-1.42578 3.5547,-2.22656 1.836,-0.80078 3.7696,-0.80078 3.5351,0 5.3906,2.1289 1.8555,2.12891 1.8555,6.13282 z"
       id="path3534"
       inkscape:connector-curvature="0" />
    <path
       d="m -1138.1133,363.59478 q 0,5.33203 -2.7344,8.41796 -2.7343,3.08594 -7.3242,3.08594 -4.6289,0 -7.3633,-3.08594 -2.7148,-3.08593 -2.7148,-8.41796 0,-5.33204 2.7148,-8.41797 2.7344,-3.10547 7.3633,-3.10547 4.5899,0 7.3242,3.10547 2.7344,3.08593 2.7344,8.41797 z m -3.789,0 q 0,-4.23829 -1.6602,-6.28907 -1.6602,-2.07031 -4.6094,-2.07031 -2.9883,0 -4.6484,2.07031 -1.6406,2.05078 -1.6406,6.28907 0,4.10156 1.6601,6.23046 1.6602,2.10938 4.6289,2.10938 2.9297,0 4.5899,-2.08984 1.6797,-2.10938 1.6797,-6.25 z"
       id="path3536"
       inkscape:connector-curvature="0" />
    <path
       d="m -1113.8555,352.67681 -8.8281,21.8164 h -3.6914 l -8.7695,-21.8164 h 3.9843 l 6.7579,17.36328 6.6992,-17.36328 z"
       id="path3538"
       inkscape:connector-curvature="0" />
    <path
       d="m -1092.8789,374.49321 h -3.6524 v -2.32422 q -0.4882,0.33204 -1.3281,0.9375 -0.8203,0.58594 -1.6015,0.9375 -0.918,0.44922 -2.1094,0.74219 -1.1914,0.3125 -2.793,0.3125 -2.9492,0 -5,-1.95312 -2.0508,-1.95313 -2.0508,-4.98047 0,-2.48047 1.0547,-4.00391 1.0742,-1.54297 3.0469,-2.42187 1.9922,-0.87891 4.7852,-1.19141 2.7929,-0.3125 5.996,-0.46875 v -0.56641 q 0,-1.25 -0.4492,-2.07031 -0.4297,-0.82031 -1.25,-1.28906 -0.7812,-0.44922 -1.875,-0.60547 -1.0937,-0.15625 -2.2851,-0.15625 -1.4453,0 -3.2227,0.39063 -1.7773,0.37109 -3.6719,1.09375 h -0.1953 v -3.73047 q 1.0742,-0.29297 3.1055,-0.64453 2.0312,-0.35157 4.0039,-0.35157 2.3047,0 4.0039,0.39063 1.7188,0.37109 2.9688,1.28906 1.2304,0.89844 1.875,2.32422 0.6445,1.42578 0.6445,3.53516 z m -3.6524,-5.37109 v -6.07422 q -1.6796,0.0977 -3.9648,0.29297 -2.2656,0.19531 -3.5937,0.56641 -1.5821,0.44921 -2.5586,1.40625 -0.9766,0.9375 -0.9766,2.59765 0,1.875 1.1328,2.83203 1.1328,0.9375 3.457,0.9375 1.9336,0 3.5352,-0.74218 1.6016,-0.76172 2.9687,-1.81641 z"
       id="path3540"
       inkscape:connector-curvature="0" />
    <path
       d="m -1069.6367,373.12603 q -0.6446,0.29296 -1.4063,0.60546 -0.7422,0.29297 -1.3086,0.46875 0.059,0.3711 0.098,0.91797 0.059,0.56641 0.059,1.11328 0,3.16407 -1.7969,4.84375 -1.7773,1.67969 -4.6289,1.67969 -0.7227,0 -1.8555,-0.13672 -1.1328,-0.13672 -2.0117,-0.37109 v -3.125 h 0.1758 q 0.5078,0.19531 1.3672,0.44922 0.8594,0.2539 1.8359,0.2539 2.0313,0 2.9883,-0.76171 0.957,-0.76172 0.957,-2.48047 0,-0.42969 -0.039,-0.87891 -0.02,-0.44922 -0.059,-0.83984 -0.3125,0.0391 -0.6055,0.0781 -0.2734,0.0391 -0.7617,0.0391 -2.3633,0 -4.3359,-0.68359 -1.9727,-0.70312 -3.379,-2.10937 -1.4257,-1.40625 -2.207,-3.55469 -0.7812,-2.14844 -0.7812,-5.01953 0,-5.35157 2.9297,-8.39844 2.9492,-3.04688 7.7734,-3.04688 1.875,0 3.6719,0.52735 1.8164,0.52734 3.3203,1.28906 v 4.08203 h -0.1953 q -1.6797,-1.30859 -3.4766,-2.01172 -1.7773,-0.70312 -3.4766,-0.70312 -3.125,0 -4.9414,2.10937 -1.7968,2.08985 -1.7968,6.15235 0,3.94531 1.7578,6.07422 1.7773,2.10937 4.9804,2.10937 1.1133,0 2.2657,-0.29297 1.1523,-0.29297 2.0703,-0.76172 0.8008,-0.41015 1.5039,-0.85937 0.7031,-0.46875 1.1133,-0.80078 h 0.1953 z"
       id="path3542"
       inkscape:connector-curvature="0" />
    <path
       d="m -1047.957,374.49321 h -3.6524 v -2.32422 q -0.4883,0.33204 -1.3281,0.9375 -0.8203,0.58594 -1.6016,0.9375 -0.9179,0.44922 -2.1093,0.74219 -1.1914,0.3125 -2.793,0.3125 -2.9492,0 -5,-1.95312 -2.0508,-1.95313 -2.0508,-4.98047 0,-2.48047 1.0547,-4.00391 1.0742,-1.54297 3.0469,-2.42187 1.9922,-0.87891 4.7851,-1.19141 2.793,-0.3125 5.9961,-0.46875 v -0.56641 q 0,-1.25 -0.4492,-2.07031 -0.4297,-0.82031 -1.25,-1.28906 -0.7812,-0.44922 -1.875,-0.60547 -1.0937,-0.15625 -2.2852,-0.15625 -1.4453,0 -3.2226,0.39063 -1.7774,0.37109 -3.6719,1.09375 h -0.1953 v -3.73047 q 1.0742,-0.29297 3.1055,-0.64453 2.0312,-0.35157 4.0039,-0.35157 2.3047,0 4.0039,0.39063 1.7187,0.37109 2.9687,1.28906 1.2305,0.89844 1.875,2.32422 0.6446,1.42578 0.6446,3.53516 z m -3.6524,-5.37109 v -6.07422 q -1.6797,0.0977 -3.9648,0.29297 -2.2656,0.19531 -3.5938,0.56641 -1.582,0.44921 -2.5586,1.40625 -0.9765,0.9375 -0.9765,2.59765 0,1.875 1.1328,2.83203 1.1328,0.9375 3.457,0.9375 1.9336,0 3.5352,-0.74218 1.6015,-0.76172 2.9687,-1.81641 z m 3.3594,-26.25 q -0.2148,2.96875 -1.5039,4.47266 -1.2891,1.5039 -3.457,1.5039 -1.0547,0 -1.9532,-0.37109 -0.8984,-0.39063 -1.6992,-1.11328 -0.918,-0.83985 -1.5625,-1.25 -0.625,-0.42969 -1.3867,-0.42969 -1.0156,0 -1.5234,0.87891 -0.5079,0.8789 -0.586,2.36328 h -2.5586 q 0.1563,-2.94922 1.543,-4.45313 1.3867,-1.5039 3.3984,-1.5039 0.9766,0 1.875,0.39062 0.918,0.37109 1.7383,1.07422 0.918,0.80078 1.6211,1.21094 0.7227,0.39062 1.3672,0.39062 0.9961,0 1.543,-0.89844 0.5664,-0.89843 0.625,-2.26562 z"
       id="path3544"
       inkscape:connector-curvature="0" />
    <path
       d="m -1022.2539,363.59478 q 0,5.33203 -2.7344,8.41796 -2.7344,3.08594 -7.3242,3.08594 -4.6289,0 -7.3633,-3.08594 -2.7148,-3.08593 -2.7148,-8.41796 0,-5.33204 2.7148,-8.41797 2.7344,-3.10547 7.3633,-3.10547 4.5898,0 7.3242,3.10547 2.7344,3.08593 2.7344,8.41797 z m -3.7891,0 q 0,-4.23829 -1.6601,-6.28907 -1.6602,-2.07031 -4.6094,-2.07031 -2.9883,0 -4.6484,2.07031 -1.6407,2.05078 -1.6407,6.28907 0,4.10156 1.6602,6.23046 1.6601,2.10938 4.6289,2.10938 2.9297,0 4.5898,-2.08984 1.6797,-2.10938 1.6797,-6.25 z"
       id="path3546"
       inkscape:connector-curvature="0" />
    <path
       d="m -1315.9648,424.49321 h -19.1602 v -29.08203 h 19.1602 v 3.4375 h -15.293 v 7.96875 h 15.293 v 3.4375 h -15.293 v 10.80078 h 15.293 z"
       id="path3548"
       inkscape:connector-curvature="0" />
    <path
       d="m -1278.2695,424.49321 h -3.6719 v -12.42187 q 0,-1.40625 -0.1367,-2.71485 -0.1172,-1.30859 -0.5274,-2.08984 -0.4492,-0.83984 -1.289,-1.26953 -0.8399,-0.42969 -2.4219,-0.42969 -1.543,0 -3.0859,0.78125 -1.543,0.76172 -3.086,1.95313 0.059,0.44922 0.098,1.05468 0.039,0.58594 0.039,1.17188 v 13.96484 h -3.6718 v -12.42187 q 0,-1.44531 -0.1368,-2.73438 -0.1171,-1.30859 -0.5273,-2.08984 -0.4492,-0.83984 -1.2891,-1.25 -0.8398,-0.42969 -2.4218,-0.42969 -1.5039,0 -3.0274,0.74219 -1.5039,0.74219 -3.0078,1.89453 v 16.28906 h -3.6719 v -21.8164 h 3.6719 v 2.42187 q 1.7188,-1.42578 3.418,-2.22656 1.7187,-0.80078 3.6523,-0.80078 2.2266,0 3.7695,0.9375 1.5625,0.9375 2.3243,2.59765 2.2265,-1.875 4.0625,-2.69531 1.8359,-0.83984 3.9257,-0.83984 3.5938,0 5.293,2.1875 1.7188,2.16797 1.7188,6.07422 z"
       id="path3550"
       inkscape:connector-curvature="0" />
    <path
       d="m -1252,413.32134 q 0,2.65625 -0.7617,4.86328 -0.7617,2.1875 -2.1485,3.71094 -1.289,1.44531 -3.0468,2.24609 -1.7383,0.78125 -3.6914,0.78125 -1.6993,0 -3.086,-0.37109 -1.3672,-0.3711 -2.7929,-1.15235 v 9.14063 h -3.6719 v -29.86328 h 3.6719 v 2.28515 q 1.4648,-1.23047 3.2812,-2.05078 1.8359,-0.83984 3.9063,-0.83984 3.9453,0 6.1328,2.98828 2.207,2.96875 2.207,8.26172 z m -3.7891,0.0976 q 0,-3.94531 -1.3476,-5.89843 -1.3477,-1.95313 -4.1406,-1.95313 -1.5821,0 -3.1836,0.6836 -1.6016,0.68359 -3.0664,1.79687 v 12.36328 q 1.5625,0.70313 2.6757,0.95703 1.1328,0.25391 2.5586,0.25391 3.0664,0 4.7852,-2.07031 1.7187,-2.07032 1.7187,-6.13282 z"
       id="path3552"
       inkscape:connector-curvature="0" />
    <path
       d="m -1229.3242,424.49321 h -3.6524 v -2.32422 q -0.4882,0.33204 -1.3281,0.9375 -0.8203,0.58594 -1.6016,0.9375 -0.9179,0.44922 -2.1093,0.74219 -1.1914,0.3125 -2.793,0.3125 -2.9492,0 -5,-1.95312 -2.0508,-1.95313 -2.0508,-4.98047 0,-2.48047 1.0547,-4.00391 1.0742,-1.54297 3.0469,-2.42187 1.9922,-0.87891 4.7851,-1.19141 2.793,-0.3125 5.9961,-0.46875 v -0.56641 q 0,-1.25 -0.4492,-2.07031 -0.4297,-0.82031 -1.25,-1.28906 -0.7812,-0.44922 -1.875,-0.60547 -1.0937,-0.15625 -2.2851,-0.15625 -1.4454,0 -3.2227,0.39063 -1.7773,0.37109 -3.6719,1.09375 h -0.1953 v -3.73047 q 1.0742,-0.29297 3.1055,-0.64453 2.0312,-0.35157 4.0039,-0.35157 2.3047,0 4.0039,0.39063 1.7187,0.37109 2.9687,1.28906 1.2305,0.89844 1.875,2.32422 0.6446,1.42578 0.6446,3.53516 z m -3.6524,-5.37109 v -6.07422 q -1.6797,0.0977 -3.9648,0.29297 -2.2656,0.19531 -3.5938,0.56641 -1.582,0.44921 -2.5586,1.40625 -0.9765,0.9375 -0.9765,2.59765 0,1.875 1.1328,2.83203 1.1328,0.9375 3.457,0.9375 1.9336,0 3.5352,-0.74218 1.6015,-0.76172 2.9687,-1.81641 z"
       id="path3554"
       inkscape:connector-curvature="0" />
    <path
       d="m -1210.8867,424.2979 q -1.0352,0.27344 -2.2656,0.44922 -1.211,0.17578 -2.168,0.17578 -3.3399,0 -5.0781,-1.79687 -1.7383,-1.79688 -1.7383,-5.76172 v -11.60157 h -2.4805 v -3.08593 h 2.4805 v -6.26953 h 3.6719 v 6.26953 h 7.5781 v 3.08593 h -7.5781 v 9.94141 q 0,1.71875 0.078,2.69531 0.078,0.95703 0.5469,1.79688 0.4296,0.78125 1.1718,1.15234 0.7617,0.35156 2.3047,0.35156 0.8985,0 1.875,-0.2539 0.9766,-0.27344 1.4063,-0.44922 h 0.1953 z"
       id="path3556"
       inkscape:connector-curvature="0" />
    <path
       d="m -1202.4883,399.02446 h -4.1406 v -3.80859 h 4.1406 z m -0.2344,25.46875 h -3.6718 v -21.8164 h 3.6718 z"
       id="path3558"
       inkscape:connector-curvature="0" />
    <path
       d="m -1178.4648,424.49321 h -3.6524 v -2.32422 q -0.4883,0.33204 -1.3281,0.9375 -0.8203,0.58594 -1.6016,0.9375 -0.9179,0.44922 -2.1094,0.74219 -1.1914,0.3125 -2.7929,0.3125 -2.9492,0 -5,-1.95312 -2.0508,-1.95313 -2.0508,-4.98047 0,-2.48047 1.0547,-4.00391 1.0742,-1.54297 3.0469,-2.42187 1.9921,-0.87891 4.7851,-1.19141 2.793,-0.3125 5.9961,-0.46875 v -0.56641 q 0,-1.25 -0.4492,-2.07031 -0.4297,-0.82031 -1.25,-1.28906 -0.7813,-0.44922 -1.875,-0.60547 -1.0938,-0.15625 -2.2852,-0.15625 -1.4453,0 -3.2226,0.39063 -1.7774,0.37109 -3.6719,1.09375 h -0.1953 v -3.73047 q 1.0742,-0.29297 3.1055,-0.64453 2.0312,-0.35157 4.0039,-0.35157 2.3047,0 4.0039,0.39063 1.7187,0.37109 2.9687,1.28906 1.2305,0.89844 1.875,2.32422 0.6446,1.42578 0.6446,3.53516 z m -3.6524,-5.37109 v -6.07422 q -1.6797,0.0977 -3.9648,0.29297 -2.2657,0.19531 -3.5938,0.56641 -1.582,0.44921 -2.5586,1.40625 -0.9765,0.9375 -0.9765,2.59765 0,1.875 1.1328,2.83203 1.1328,0.9375 3.457,0.9375 1.9336,0 3.5352,-0.74218 1.6015,-0.76172 2.9687,-1.81641 z"
       id="path3560"
       inkscape:connector-curvature="0" />
    <path
       d="m -1282.4492,474.49321 h -19.1602 v -29.08203 h 19.1602 v 3.4375 h -15.293 v 7.96875 h 15.293 v 3.4375 h -15.293 v 10.80078 h 15.293 z m -3.6719,-40.01953 -5.332,7.30469 h -2.9102 l 3.4961,-7.30469 z"
       id="path3562"
       inkscape:connector-curvature="0" />
    <path
       d="m -1265.2617,474.2979 q -1.0352,0.27344 -2.2656,0.44922 -1.211,0.17578 -2.168,0.17578 -3.3399,0 -5.0781,-1.79687 -1.7383,-1.79688 -1.7383,-5.76172 v -11.60157 h -2.4805 v -3.08593 h 2.4805 v -6.26953 h 3.6719 v 6.26953 h 7.5781 v 3.08593 h -7.5781 v 9.94141 q 0,1.71875 0.078,2.69531 0.078,0.95703 0.5469,1.79688 0.4296,0.78125 1.1718,1.15234 0.7617,0.35156 2.3047,0.35156 0.8985,0 1.875,-0.2539 0.9766,-0.27344 1.4063,-0.44922 h 0.1953 z"
       id="path3564"
       inkscape:connector-curvature="0" />
    <path
       d="m -1256.8633,449.02446 h -4.1406 v -3.80859 h 4.1406 z m -0.2344,25.46875 h -3.6718 v -21.8164 h 3.6718 z"
       id="path3566"
       inkscape:connector-curvature="0" />
    <path
       d="m -1233.6602,473.12603 q -1.8359,0.8789 -3.4961,1.36718 -1.6406,0.48828 -3.496,0.48828 -2.3633,0 -4.336,-0.68359 -1.9726,-0.70312 -3.3789,-2.10937 -1.4258,-1.40625 -2.207,-3.55469 -0.7813,-2.14844 -0.7813,-5.01953 0,-5.35157 2.9297,-8.39844 2.9492,-3.04688 7.7735,-3.04688 1.875,0 3.6718,0.52735 1.8164,0.52734 3.3203,1.28906 v 4.08203 h -0.1953 q -1.6797,-1.30859 -3.4765,-2.01172 -1.7774,-0.70312 -3.4766,-0.70312 -3.125,0 -4.9414,2.10937 -1.7969,2.08985 -1.7969,6.15235 0,3.94531 1.7578,6.07422 1.7774,2.10937 4.9805,2.10937 1.1133,0 2.2656,-0.29297 1.1524,-0.29297 2.0703,-0.76172 0.8008,-0.41015 1.5039,-0.85937 0.7032,-0.46875 1.1133,-0.80078 h 0.1953 z"
       id="path3568"
       inkscape:connector-curvature="0" />
    <path
       d="m -1211.9805,474.49321 h -3.6523 v -2.32422 q -0.4883,0.33204 -1.3281,0.9375 -0.8204,0.58594 -1.6016,0.9375 -0.918,0.44922 -2.1094,0.74219 -1.1914,0.3125 -2.7929,0.3125 -2.9493,0 -5,-1.95312 -2.0508,-1.95313 -2.0508,-4.98047 0,-2.48047 1.0547,-4.00391 1.0742,-1.54297 3.0468,-2.42187 1.9922,-0.87891 4.7852,-1.19141 2.793,-0.3125 5.9961,-0.46875 v -0.56641 q 0,-1.25 -0.4492,-2.07031 -0.4297,-0.82031 -1.25,-1.28906 -0.7813,-0.44922 -1.875,-0.60547 -1.0938,-0.15625 -2.2852,-0.15625 -1.4453,0 -3.2226,0.39063 -1.7774,0.37109 -3.6719,1.09375 h -0.1953 v -3.73047 q 1.0742,-0.29297 3.1054,-0.64453 2.0313,-0.35157 4.0039,-0.35157 2.3047,0 4.0039,0.39063 1.7188,0.37109 2.9688,1.28906 1.2305,0.89844 1.875,2.32422 0.6445,1.42578 0.6445,3.53516 z m -3.6523,-5.37109 v -6.07422 q -1.6797,0.0977 -3.9649,0.29297 -2.2656,0.19531 -3.5937,0.56641 -1.582,0.44921 -2.5586,1.40625 -0.9766,0.9375 -0.9766,2.59765 0,1.875 1.1328,2.83203 1.1329,0.9375 3.4571,0.9375 1.9336,0 3.5351,-0.74218 1.6016,-0.76172 2.9688,-1.81641 z"
       id="path3570"
       inkscape:connector-curvature="0" />
    <path
       d="m -1314.6953,504.20024 q 0,1.9336 -0.6836,3.59375 -0.6641,1.64063 -1.875,2.85157 -1.5039,1.5039 -3.5547,2.26562 -2.0508,0.74219 -5.1758,0.74219 h -3.8672 v 10.83984 h -3.8672 v -29.08203 h 7.8907 q 2.6172,0 4.4336,0.44922 1.8164,0.42969 3.2226,1.36719 1.6602,1.11328 2.5586,2.77344 0.918,1.66015 0.918,4.19921 z m -4.0235,0.0977 q 0,-1.50391 -0.5273,-2.61719 -0.5273,-1.11328 -1.6016,-1.8164 -0.9375,-0.60547 -2.1484,-0.85938 -1.1914,-0.27344 -3.0273,-0.27344 h -3.8282 v 11.6211 h 3.2618 q 2.3437,0 3.8085,-0.41016 1.4649,-0.42969 2.3829,-1.34765 0.9179,-0.9375 1.289,-1.97266 0.3906,-1.03516 0.3906,-2.32422 z"
       id="path3572"
       inkscape:connector-curvature="0" />
    <path
       d="m -1293.8555,524.49321 h -3.6523 v -2.32422 q -0.4883,0.33204 -1.3281,0.9375 -0.8204,0.58594 -1.6016,0.9375 -0.918,0.44922 -2.1094,0.74219 -1.1914,0.3125 -2.7929,0.3125 -2.9493,0 -5,-1.95312 -2.0508,-1.95313 -2.0508,-4.98047 0,-2.48047 1.0547,-4.00391 1.0742,-1.54297 3.0468,-2.42187 1.9922,-0.87891 4.7852,-1.19141 2.793,-0.3125 5.9961,-0.46875 v -0.56641 q 0,-1.25 -0.4492,-2.07031 -0.4297,-0.82031 -1.25,-1.28906 -0.7813,-0.44922 -1.875,-0.60547 -1.0938,-0.15625 -2.2852,-0.15625 -1.4453,0 -3.2226,0.39063 -1.7774,0.37109 -3.6719,1.09375 h -0.1953 v -3.73047 q 1.0742,-0.29297 3.1054,-0.64453 2.0313,-0.35157 4.0039,-0.35157 2.3047,0 4.0039,0.39063 1.7188,0.37109 2.9688,1.28906 1.2305,0.89844 1.875,2.32422 0.6445,1.42578 0.6445,3.53516 z m -3.6523,-5.37109 v -6.07422 q -1.6797,0.0977 -3.9649,0.29297 -2.2656,0.19531 -3.5937,0.56641 -1.582,0.44921 -2.5586,1.40625 -0.9766,0.9375 -0.9766,2.59765 0,1.875 1.1328,2.83203 1.1329,0.9375 3.4571,0.9375 1.9336,0 3.5351,-0.74218 1.6016,-0.76172 2.9688,-1.81641 z"
       id="path3574"
       inkscape:connector-curvature="0" />
    <path
       d="m -1273.1328,506.68071 h -0.1953 q -0.8203,-0.19531 -1.6016,-0.27343 -0.7617,-0.0977 -1.8164,-0.0977 -1.6992,0 -3.2812,0.76172 -1.5821,0.74219 -3.0469,1.93359 v 15.48828 h -3.6719 v -21.8164 h 3.6719 v 3.22265 q 2.1875,-1.75781 3.8476,-2.48047 1.6797,-0.74218 3.418,-0.74218 0.957,0 1.3867,0.0586 0.4297,0.0391 1.2891,0.17578 z"
       id="path3576"
       inkscape:connector-curvature="0" />
    <path
       d="m -1253.5039,523.12603 q -1.8359,0.8789 -3.4961,1.36718 -1.6406,0.48828 -3.4961,0.48828 -2.3633,0 -4.3359,-0.68359 -1.9727,-0.70312 -3.3789,-2.10937 -1.4258,-1.40625 -2.2071,-3.55469 -0.7812,-2.14844 -0.7812,-5.01953 0,-5.35157 2.9297,-8.39844 2.9492,-3.04688 7.7734,-3.04688 1.875,0 3.6719,0.52735 1.8164,0.52734 3.3203,1.28906 v 4.08203 h -0.1953 q -1.6797,-1.30859 -3.4766,-2.01172 -1.7773,-0.70312 -3.4765,-0.70312 -3.125,0 -4.9415,2.10937 -1.7968,2.08985 -1.7968,6.15235 0,3.94531 1.7578,6.07422 1.7773,2.10937 4.9805,2.10937 1.1132,0 2.2656,-0.29297 1.1523,-0.29297 2.0703,-0.76172 0.8008,-0.41015 1.5039,-0.85937 0.7031,-0.46875 1.1133,-0.80078 h 0.1953 z"
       id="path3578"
       inkscape:connector-curvature="0" />
    <path
       d="m -1230.5156,513.96587 h -16.0742 q 0,2.01172 0.6054,3.51562 0.6055,1.48438 1.6602,2.44141 1.0156,0.9375 2.4023,1.40625 1.4063,0.46875 3.086,0.46875 2.2265,0 4.4726,-0.87891 2.2656,-0.89843 3.2227,-1.75781 h 0.1953 v 4.00391 q -1.8555,0.78125 -3.7891,1.30859 -1.9336,0.52735 -4.0625,0.52735 -5.4297,0 -8.4765,-2.92969 -3.0469,-2.94922 -3.0469,-8.35938 0,-5.35156 2.9101,-8.49609 2.9297,-3.14453 7.6954,-3.14453 4.414,0 6.7968,2.57812 2.4024,2.57813 2.4024,7.32422 z m -3.5742,-2.8125 q -0.02,-2.89063 -1.4649,-4.47266 -1.4258,-1.58203 -4.3555,-1.58203 -2.9492,0 -4.707,1.73828 -1.7383,1.73828 -1.9726,4.31641 z"
       id="path3580"
       inkscape:connector-curvature="0" />
    <path
       d="m -1211.3359,506.68071 h -0.1954 q -0.8203,-0.19531 -1.6015,-0.27343 -0.7617,-0.0977 -1.8164,-0.0977 -1.6992,0 -3.2813,0.76172 -1.582,0.74219 -3.0468,1.93359 v 15.48828 h -3.6719 v -21.8164 h 3.6719 v 3.22265 q 2.1875,-1.75781 3.8476,-2.48047 1.6797,-0.74218 3.418,-0.74218 0.957,0 1.3867,0.0586 0.4297,0.0391 1.2891,0.17578 z"
       id="path3582"
       inkscape:connector-curvature="0" />
    <path
       d="m -1203.8945,499.02446 h -4.1407 v -3.80859 h 4.1407 z m -0.2344,25.46875 h -3.6719 v -21.8164 h 3.6719 z"
       id="path3584"
       inkscape:connector-curvature="0" />
    <path
       d="m -1179.8711,524.49321 h -3.6523 v -2.32422 q -0.4883,0.33204 -1.3282,0.9375 -0.8203,0.58594 -1.6015,0.9375 -0.918,0.44922 -2.1094,0.74219 -1.1914,0.3125 -2.793,0.3125 -2.9492,0 -5,-1.95312 -2.0508,-1.95313 -2.0508,-4.98047 0,-2.48047 1.0547,-4.00391 1.0743,-1.54297 3.0469,-2.42187 1.9922,-0.87891 4.7852,-1.19141 2.7929,-0.3125 5.9961,-0.46875 v -0.56641 q 0,-1.25 -0.4493,-2.07031 -0.4296,-0.82031 -1.25,-1.28906 -0.7812,-0.44922 -1.875,-0.60547 -1.0937,-0.15625 -2.2851,-0.15625 -1.4453,0 -3.2227,0.39063 -1.7773,0.37109 -3.6718,1.09375 h -0.1954 v -3.73047 q 1.0743,-0.29297 3.1055,-0.64453 2.0313,-0.35157 4.0039,-0.35157 2.3047,0 4.0039,0.39063 1.7188,0.37109 2.9688,1.28906 1.2304,0.89844 1.875,2.32422 0.6445,1.42578 0.6445,3.53516 z m -3.6523,-5.37109 v -6.07422 q -1.6797,0.0977 -3.9649,0.29297 -2.2656,0.19531 -3.5937,0.56641 -1.5821,0.44921 -2.5586,1.40625 -0.9766,0.9375 -0.9766,2.59765 0,1.875 1.1328,2.83203 1.1328,0.9375 3.4571,0.9375 1.9335,0 3.5351,-0.74218 1.6016,-0.76172 2.9688,-1.81641 z"
       id="path3586"
       inkscape:connector-curvature="0" />
  </g>
</svg>
