<?xml version="1.0" encoding="UTF-8" standalone="no"?>
<!-- Created with Inkscape (http://www.inkscape.org/) -->

<svg
   xmlns:dc="http://purl.org/dc/elements/1.1/"
   xmlns:cc="http://creativecommons.org/ns#"
   xmlns:rdf="http://www.w3.org/1999/02/22-rdf-syntax-ns#"
   xmlns:svg="http://www.w3.org/2000/svg"
   xmlns="http://www.w3.org/2000/svg"
   xmlns:sodipodi="http://sodipodi.sourceforge.net/DTD/sodipodi-0.dtd"
   xmlns:inkscape="http://www.inkscape.org/namespaces/inkscape"
   width="59.5mm"
   height="58mm"
   viewBox="0 0 59.499998 58"
   version="1.1"
   id="svg2684"
   inkscape:version="0.92.3 (2405546, 2018-03-11)"
   sodipodi:docname="engrenagem-quebra-cabeca-desencaixada.svg">
  <defs
     id="defs2678" />
  <sodipodi:namedview
     id="base"
     pagecolor="#ffffff"
     bordercolor="#666666"
     borderopacity="1.0"
     inkscape:pageopacity="0.0"
     inkscape:pageshadow="2"
     inkscape:zoom="2.8"
     inkscape:cx="138.22584"
     inkscape:cy="127.77205"
     inkscape:document-units="mm"
     inkscape:current-layer="layer1"
     showgrid="false"
     units="mm"
     inkscape:window-width="1920"
     inkscape:window-height="1001"
     inkscape:window-x="-9"
     inkscape:window-y="-9"
     inkscape:window-maximized="1" />
  <metadata
     id="metadata2681">
    <rdf:RDF>
      <cc:Work
         rdf:about="">
        <dc:format>image/svg+xml</dc:format>
        <dc:type
           rdf:resource="http://purl.org/dc/dcmitype/StillImage" />
        <dc:title></dc:title>
      </cc:Work>
    </rdf:RDF>
  </metadata>
  <g
     inkscape:label="Camada 1"
     inkscape:groupmode="layer"
     id="layer1"
     transform="translate(0,-238.99998)">
    <path
       id="path2262"
       style="fill:#e73135;fill-opacity:1;stroke-width:0.31760964"
       d="m 27.059614,266.77014 c -0.771919,-0.17309 -0.950702,-0.37477 -0.941649,-1.06231 0.0079,-0.61164 -0.181737,-0.89705 -0.67959,-1.02199 -1.340821,-0.33654 -1.284508,-2.08452 0.06718,-2.08452 0.63614,0 0.76004,-0.15852 0.76004,-0.97229 0,-0.96966 0.0038,-0.97172 1.402945,-0.7619 1.302772,0.19535 1.410504,0.15706 1.508647,-0.53636 0.07683,-0.5428 0.341208,-0.7739 0.968041,-0.84617 0.707762,-0.0816 0.900615,0.0531 1.075808,0.75101 0.198602,0.79126 0.30878,0.8397 1.582871,0.6961 1.29858,-0.14637 1.379758,-0.1072 1.569688,0.75763 0.110174,0.50159 0.393138,0.91198 0.628804,0.91198 0.235666,0 0.652814,0.22431 0.926975,0.49847 0.682448,0.68246 0.113955,1.7248 -0.940696,1.7248 -0.65164,0 -0.782844,0.15398 -0.782844,0.91885 0,1.0504 -0.440748,1.30443 -2.263157,1.30443 -0.822482,0 -1.24052,-0.13757 -1.206853,-0.39701 0.123741,-0.95274 -0.05714,-1.23049 -0.738316,-1.13375 -0.469045,0.0666 -0.714621,0.31977 -0.714621,0.73673 0,0.70455 -0.679748,0.8624 -2.223269,0.5163 z m -5.446402,7.68044 c -0.659516,-0.12894 -1.051256,-0.90639 -1.060245,-2.10417 -0.0031,-0.41878 0.157694,-0.52579 0.586022,-0.38982 0.344607,0.10936 0.762105,-0.0197 1.002884,-0.30967 0.453546,-0.54649 0.178179,-0.97783 -0.736601,-1.15395 -0.314941,-0.0606 -0.565059,-0.2174 -0.555816,-0.34842 0.0092,-0.13101 0.01683,-0.60043 0.01683,-1.04318 0,-0.78043 0.04755,-0.79866 1.561051,-0.59787 1.469961,0.19499 1.567277,0.16319 1.667451,-0.54489 0.145148,-1.02575 1.562766,-1.05211 2.007959,-0.0373 0.252786,0.57614 0.569285,0.71462 1.633468,0.71462 1.363148,0 1.705532,0.32831 1.705532,1.63541 0,0.47015 -0.150262,0.58296 -0.590374,0.44328 -0.340826,-0.10815 -0.76004,0.0172 -0.991735,0.29621 -0.553816,0.66733 0.15115,1.53014 1.023909,1.25316 0.561185,-0.17812 0.599806,-0.0927 0.391677,0.86624 -0.286771,1.32126 -0.59771,1.52929 -2.294952,1.53543 -1.239091,0.005 -1.349841,-0.0621 -1.349841,-0.81128 0,-0.66466 -0.132603,-0.79725 -0.714622,-0.71462 -0.459263,0.0652 -0.750893,0.35687 -0.81613,0.81613 -0.103031,0.72559 -0.699059,0.84418 -2.486407,0.49471 z m 10.210547,0.31508 c -0.839188,-0.19651 -1.429243,-0.99089 -1.429243,-1.92415 0,-0.59107 0.127996,-0.71409 0.590372,-0.56731 0.659485,0.2093 1.487938,-0.56112 1.165087,-1.0835 -0.112683,-0.18234 -0.569061,-0.33152 -1.014159,-0.33152 -0.60746,0 -0.761183,-0.12529 -0.61648,-0.50239 0.106045,-0.27633 0.192789,-0.78996 0.192789,-1.14147 0,-0.58284 0.137429,-0.62013 1.562512,-0.42413 1.468466,0.20197 1.56883,0.17031 1.667449,-0.52603 0.076,-0.53666 0.342637,-0.76829 0.967279,-0.84033 0.707762,-0.0816 0.900615,0.0531 1.075808,0.75102 0.198538,0.79101 0.309006,0.83967 1.580902,0.69634 1.42864,-0.16104 1.721508,0.0733 1.721508,1.37775 0,0.43084 -0.22255,0.60924 -0.76004,0.60924 -0.754863,0 -1.311125,0.74569 -0.969091,1.29909 0.09821,0.15893 0.523866,0.28895 0.945905,0.28895 0.695184,0 0.748448,0.0971 0.566521,1.03224 -0.251103,1.29079 -0.559437,1.49769 -2.241022,1.50378 -1.207838,0.005 -1.338344,-0.0685 -1.270438,-0.70975 0.0604,-0.57072 -0.08426,-0.71462 -0.718371,-0.71462 -0.634106,0 -0.778778,0.1439 -0.718368,0.71462 0.06276,0.59288 -0.0725,0.70833 -0.794025,0.67778 -0.478317,-0.0203 -1.155525,-0.10384 -1.504895,-0.18561 z"
       inkscape:connector-curvature="0" />
    <path
       style="fill:#275a94;fill-opacity:1;fill-rule:evenodd;stroke:none;stroke-width:0.10430996;stroke-miterlimit:4;stroke-dasharray:none;stroke-opacity:1"
       d="m 25.965983,239.35897 c -2.241214,0.061 -8.122522,1.53752 -8.3881,2.22977 -0.07882,0.20542 -0.04331,1.96253 0.07945,3.90455 l 0.223077,3.53062 -1.479082,1.14905 -1.479629,1.14896 -3.675789,-1.21824 c -2.8534905,-0.94594 -3.7768167,-1.1558 -4.1275593,-0.93823 -0.7022763,0.43579 -3.0438884,4.07009 -3.8601738,5.99073 l -0.735946,1.73018 0.1787698,0.16911 -0.026361,0.0576 0.901481,0.7721 0.4987139,0.47265 c 0.8539316,0.80925 2.168194,2.03393 2.9204239,2.72134 l 1.3675603,1.24988 -0.1711121,1.8443 -0.1716871,1.84374 -3.5097359,1.66394 L 1,269.34493 l 0.1803102,1.2026 c 0.2713022,1.8094 1.0823247,4.73602 1.7994651,6.49283 l 0.1675613,0.41104 0.079968,0.3061 0.095727,0.12371 0.295396,0.7238 4.0222372,0.13041 3.8601102,0.12531 0.217928,0.0743 1.110448,1.36295 1.166822,1.43222 -0.991656,3.13133 c -0.545552,1.72226 -0.988732,3.42471 -0.984581,3.78329 0.006,0.49349 0.392054,0.93077 1.589148,1.79995 1.863584,1.3532 5.775839,3.41553 6.47962,3.41553 0.289562,0 1.49478,-1.08256 2.923019,-2.62556 l 2.430515,-2.62558 1.434223,0.16758 c 0.461274,0.0539 0.832696,0.0941 1.146532,0.14516 l 0.581595,0.13241 c 0.938205,0.30134 1.2811,1.01741 2.613851,3.55053 l 1.78626,3.39514 1.955776,-0.15481 c 2.056015,-0.16278 4.916134,-0.83577 6.61566,-1.55649 l 1.00895,-0.42786 -0.15991,-2.41216 c -0.08789,-1.32689 -0.183248,-3.04104 -0.212376,-3.80927 l -0.05354,-1.39704 1.550406,-1.11703 1.54989,-1.11641 3.258142,1.15577 c 1.426858,0.50605 2.819048,0.91207 3.511256,1.03741 l 0.19151,0.0631 0.01849,-0.0292 c 0.07697,0.008 0.141075,0.0125 0.182333,0.008 0.417647,-0.0496 0.996452,-0.5365 1.640527,-1.38026 1.025285,-1.34331 3.325367,-5.66548 3.325367,-6.24901 0,-0.24729 -3.866828,-3.98285 -5.547548,-5.35908 -0.110907,-0.0909 -0.122835,-1.01364 -0.02652,-2.05058 l 0.175166,-1.88502 3.505724,-1.67416 L 59,265.97274 58.823205,264.85678 c -0.480863,-3.03762 -1.927055,-7.45937 -2.630643,-8.04328 -0.275897,-0.22902 -1.386131,-0.27994 -4.030265,-0.18489 l -3.649778,0.13142 -1.247904,-1.59464 -1.247323,-1.59421 0.989593,-3.12932 c 0.544491,-1.7211 0.990713,-3.42461 0.991168,-3.78582 9.52e-4,-0.52877 -0.392925,-0.92183 -2.019963,-2.0169 -2.152063,-1.44848 -5.506916,-3.194 -6.138889,-3.194 -0.209759,0 -1.510571,1.21939 -2.890972,2.71013 l -2.509948,2.71057 -0.977854,-0.21943 c -0.537723,-0.12083 -1.410908,-0.28828 -1.940599,-0.37236 -0.928561,-0.14735 -1.024554,-0.26973 -2.69634,-3.42113 -0.953484,-1.79737 -1.919865,-3.33896 -2.14722,-3.42625 -0.144718,-0.0555 -0.390431,-0.076 -0.710613,-0.0672 z m -0.126372,1.64205 0.743163,1.33035 c 0.408519,0.73156 1.236524,2.23903 1.840116,3.35035 0.758881,1.39701 1.272814,2.05442 1.666014,2.13049 0.312824,0.0605 1.594198,0.25583 2.84713,0.43342 l 2.277713,0.32291 2.54662,-2.6658 2.546117,-2.66574 2.36635,1.38533 c 1.301496,0.76208 2.64393,1.58824 2.982622,1.83556 l 0.615696,0.44979 -1.110223,3.55865 -1.1099,3.55915 0.632605,0.68502 c 0.34784,0.37696 1.132743,1.36031 1.744398,2.18501 l 1.112389,1.49947 h 3.852047 3.852062 l 0.40795,1.01915 c 0.593346,1.4829 1.526531,5.27178 1.346141,5.46506 -0.08487,0.091 -1.587013,0.86961 -3.338134,1.73019 l -3.183736,1.56466 -0.303116,2.21659 c -0.166669,1.2191 -0.313406,2.47153 -0.325967,2.78345 -0.01638,0.40637 0.786882,1.2911 2.833927,3.12062 l 2.640838,2.36022 0.180809,0.25923 -1.053832,1.9772 c -0.598774,1.12385 -1.394395,2.40936 -1.768346,2.85731 l -0.679935,0.81494 -3.615202,-1.23306 -3.615188,-1.23306 -0.667237,0.53167 c -0.367174,0.29228 -1.339831,0.97312 -2.161535,1.51323 l -1.494382,0.98204 0.01766,1.43419 c 0.0095,0.78885 0.09671,2.47858 0.194062,3.75478 l 0.177239,2.32096 -0.853084,0.35601 c -0.469132,0.19603 -1.58577,0.51847 -2.481462,0.71616 -3.226714,0.71223 -3.288292,0.71362 -3.677853,0.082 -0.196683,-0.31896 -1.024678,-1.84092 -1.840249,-3.38189 -1.08829,-2.05662 -1.635153,-2.83114 -2.056053,-2.91285 -0.315438,-0.0612 -1.57901,-0.25342 -2.807949,-0.4273 l -2.234387,-0.31633 -2.554246,2.63177 -2.553721,2.63213 -1.339531,-0.6789 c -2.059006,-1.0432 -4.599763,-2.70574 -4.599763,-3.01013 0,-0.15019 0.476797,-1.78966 1.059375,-3.64322 l 1.058918,-3.37031 -0.878112,-0.97218 c -0.483199,-0.53483 -1.265455,-1.53439 -1.738297,-2.22168 l -0.85981,-1.24988 -3.773019,0.0718 c -3.0590956,0.0581 -3.818894,2.3e-4 -4.017073,-0.30506 -0.2729854,-0.42052 -1.4101168,-4.08473 -1.6745555,-5.3958 l -0.1712329,-0.84699 3.375314,-1.58861 3.3747708,-1.58856 0.15641,-1.60642 c 0.085701,-0.88358 0.2309372,-2.13573 0.3228596,-2.78249 l 0.167015,-1.17548 -2.7645726,-2.4733 c -1.52075,-1.36033 -2.7651477,-2.66091 -2.7651477,-2.88991 0,-0.43862 2.3782706,-4.54665 2.9881637,-5.16155 0.3024279,-0.30473 0.9026434,-0.17007 3.9646986,0.89087 l 3.608593,1.25035 1.954225,-1.47751 c 1.074924,-0.81283 2.052286,-1.47806 2.171196,-1.47806 0.118925,0 0.132535,-1.75201 0.03053,-3.8933 l -0.185446,-3.89327 1.795883,-0.53529 c 0.987727,-0.29453 2.47199,-0.63757 3.298397,-0.762 z m 24.597379,43.77241 0.03224,0.0108 -0.0094,-0.004 z m -20.271637,3.83219 c 0.0029,0.004 0.0049,0.008 0.0077,0.0122 z"
       id="path2405-2-9-0-82"
       inkscape:connector-curvature="0" />
    <path
       style="fill:#275a94;fill-opacity:1;fill-rule:evenodd;stroke:none;stroke-width:0.26077488;stroke-opacity:1"
       d="m 30.047397,252.36937 c -7.064167,-0.008 -12.92401,4.42584 -14.985287,11.34059 -0.631236,2.1173 -0.631697,6.22908 -0.0013,8.33108 1.018279,3.3943 2.977489,6.2659 5.630524,8.25215 1.899943,1.4223 3.075286,1.99825 5.31177,2.60361 2.469659,0.66836 6.55888,0.55287 9.089903,-0.25676 3.571752,-1.14234 7.087523,-4.16844 8.812356,-7.58534 1.225608,-2.42782 1.657884,-4.29718 1.657884,-7.17233 0,-4.43924 -1.496599,-8.07353 -4.583873,-11.13234 -2.98743,-2.95969 -6.520075,-4.37525 -10.932229,-4.38066 z m 0.203194,2.45035 c 2.924865,0.0384 5.909376,1.08402 8.477745,3.28309 2.613585,2.23776 4.395495,6.17531 4.395495,9.71289 0,5.62977 -3.764491,10.81832 -9.028827,12.44434 -4.785691,1.4781 -9.598821,0.34737 -13.0596,-3.0682 -3.350048,-3.30633 -4.799218,-8.41198 -3.572889,-12.58698 1.838588,-6.25943 7.204514,-9.85843 12.788076,-9.78514 z"
       id="path2397-7-0-2-00"
       inkscape:connector-curvature="0" />
  </g>
</svg>
