<?xml version="1.0" encoding="UTF-8" standalone="no"?>
<!-- Created with Inkscape (http://www.inkscape.org/) -->

<svg
   xmlns:dc="http://purl.org/dc/elements/1.1/"
   xmlns:cc="http://creativecommons.org/ns#"
   xmlns:rdf="http://www.w3.org/1999/02/22-rdf-syntax-ns#"
   xmlns:svg="http://www.w3.org/2000/svg"
   xmlns="http://www.w3.org/2000/svg"
   xmlns:sodipodi="http://sodipodi.sourceforge.net/DTD/sodipodi-0.dtd"
   xmlns:inkscape="http://www.inkscape.org/namespaces/inkscape"
   width="59.5mm"
   height="58mm"
   viewBox="0 0 59.499998 58"
   version="1.1"
   id="svg2684"
   inkscape:version="0.92.3 (2405546, 2018-03-11)"
   sodipodi:docname="engrenagem-lupa.svg">
  <defs
     id="defs2678" />
  <sodipodi:namedview
     id="base"
     pagecolor="#ffffff"
     bordercolor="#666666"
     borderopacity="1.0"
     inkscape:pageopacity="0.0"
     inkscape:pageshadow="2"
     inkscape:zoom="0.7"
     inkscape:cx="583.3873"
     inkscape:cy="-36.655963"
     inkscape:document-units="mm"
     inkscape:current-layer="layer1"
     showgrid="false"
     units="mm"
     inkscape:window-width="1920"
     inkscape:window-height="1001"
     inkscape:window-x="-9"
     inkscape:window-y="-9"
     inkscape:window-maximized="1" />
  <metadata
     id="metadata2681">
    <rdf:RDF>
      <cc:Work
         rdf:about="">
        <dc:format>image/svg+xml</dc:format>
        <dc:type
           rdf:resource="http://purl.org/dc/dcmitype/StillImage" />
        <dc:title></dc:title>
      </cc:Work>
    </rdf:RDF>
  </metadata>
  <g
     inkscape:label="Camada 1"
     inkscape:groupmode="layer"
     id="layer1"
     transform="translate(0,-238.99998)">
    <path
       id="path2246"
       style="fill:#e73135;fill-opacity:1;stroke-width:0.31760964"
       d="m 30.453727,268.36295 c 1.056614,-1.05662 1.232904,-1.43159 1.231883,-2.62028 -0.0015,-1.67296 -0.87454,-3.23125 -2.192261,-3.91267 -2.860064,-1.479 -6.060368,0.5862 -6.063214,3.91267 -9.53e-4,1.18869 0.175269,1.56366 1.231884,2.62028 1.118316,1.11831 1.38782,1.23306 2.895854,1.23306 1.508033,0 1.777537,-0.11476 2.895854,-1.23306 z m -5.595537,2.97437 c -5.881124,-3.16679 -4.264872,-11.69936 2.301026,-12.14765 6.309982,-0.43082 9.14403,7.48709 4.112666,11.4902 -1.024777,0.81534 -1.532797,0.97775 -3.334901,1.06619 -1.515541,0.0744 -2.399545,-0.0429 -3.078791,-0.40874 z m 7.96326,1.46023 c -1.297195,-1.43339 0.470145,-3.32595 1.833103,-1.96299 l 0.669826,0.66983 -0.964108,0.96411 c -0.958549,0.95855 -0.967415,0.96044 -1.538821,0.32905 z m 2.204884,2.20258 -1.235915,-1.26569 0.774447,-0.87818 c 0.425943,-0.483 0.81317,-0.94071 0.860506,-1.01717 0.151744,-0.24507 2.931229,2.63843 2.931229,3.04093 0,0.56755 -0.913016,1.38581 -1.546277,1.38581 -0.301439,0 -1.104235,-0.56956 -1.78399,-1.2657 z"
       inkscape:connector-curvature="0" />
    <path
       style="fill:#275a94;fill-opacity:1;fill-rule:evenodd;stroke:none;stroke-width:0.10430997;stroke-miterlimit:4;stroke-dasharray:none;stroke-opacity:1"
       d="m 25.965984,239.35896 c -2.241212,0.0609 -8.12252,1.53753 -8.3881,2.22978 -0.07882,0.20542 -0.04331,1.96252 0.07946,3.90455 l 0.223076,3.53062 -1.479084,1.14905 -1.479628,1.14896 -3.675789,-1.21824 c -2.8534909,-0.94593 -3.7768173,-1.1558 -4.1275598,-0.93823 -0.7022764,0.43578 -3.0438886,4.07009 -3.8601741,5.99073 l -0.735946,1.73018 0.1787698,0.16911 -0.026362,0.0576 0.9014811,0.77209 0.4987138,0.47265 c 0.8539317,0.80925 2.1681941,2.03394 2.9204242,2.72134 l 1.3675604,1.24988 -0.1711121,1.84429 -0.1716871,1.84374 -3.5097399,1.66398 L 1,269.34493 l 0.1803107,1.20261 c 0.271302,1.80939 1.0823246,4.73601 1.799465,6.49281 l 0.1675613,0.41106 0.079968,0.30608 0.095728,0.12372 0.295396,0.72379 4.0222374,0.13041 3.8601106,0.12532 0.217928,0.0743 1.110449,1.36296 1.166822,1.43221 -0.991657,3.13132 c -0.545551,1.72226 -0.988731,3.42471 -0.984581,3.7833 0.0059,0.4935 0.392055,0.93076 1.589148,1.79995 1.863583,1.35319 5.77584,3.41553 6.479621,3.41553 0.289562,0 1.494779,-1.08256 2.923019,-2.62556 l 2.430514,-2.62558 1.434224,0.16758 c 0.461274,0.0539 0.832696,0.0941 1.146533,0.14516 l 0.581594,0.13241 c 0.938207,0.30134 1.281102,1.01741 2.613852,3.55052 l 1.786259,3.39515 1.955776,-0.15481 c 2.056015,-0.16279 4.916135,-0.83577 6.615661,-1.55651 l 1.008953,-0.42785 -0.159909,-2.41216 c -0.0879,-1.32689 -0.183252,-3.04103 -0.21238,-3.80926 l -0.05354,-1.39703 1.550405,-1.11704 1.549887,-1.11641 3.258143,1.15576 c 1.426858,0.50606 2.819048,0.91208 3.511257,1.03742 l 0.191509,0.0631 0.01849,-0.0292 c 0.07697,0.008 0.141078,0.0125 0.182333,0.008 0.417647,-0.0496 0.996452,-0.53651 1.640527,-1.38026 1.025285,-1.34331 3.325367,-5.6655 3.325367,-6.24901 0,-0.24731 -3.866828,-3.98285 -5.547549,-5.35908 -0.110906,-0.091 -0.122835,-1.01365 -0.02652,-2.0506 l 0.175166,-1.88502 3.505723,-1.67415 L 59,265.97274 58.823206,264.85678 c -0.480864,-3.03761 -1.927056,-7.45937 -2.630644,-8.04329 -0.275898,-0.22901 -1.386131,-0.27994 -4.030265,-0.18489 l -3.649779,0.13143 -1.247903,-1.59464 -1.247324,-1.59422 0.989593,-3.1293 c 0.544492,-1.72112 0.990713,-3.42462 0.991168,-3.78583 9.53e-4,-0.52876 -0.392924,-0.92183 -2.019963,-2.0169 -2.152063,-1.44848 -5.506917,-3.194 -6.13889,-3.194 -0.209758,0 -1.510571,1.21939 -2.890972,2.71013 l -2.509948,2.71057 -0.977853,-0.21943 c -0.537724,-0.12083 -1.41091,-0.28828 -1.940599,-0.37236 -0.928561,-0.14735 -1.024555,-0.26973 -2.696342,-3.42114 -0.953482,-1.79737 -1.919864,-3.33895 -2.147218,-3.42624 -0.14472,-0.0555 -0.390431,-0.076 -0.710614,-0.0673 z m -0.12637,1.64206 0.743162,1.33035 c 0.40852,0.73155 1.236525,2.23902 1.840115,3.35034 0.758882,1.39702 1.272816,2.05443 1.666017,2.1305 0.312822,0.0605 1.594197,0.25583 2.847128,0.43342 l 2.277716,0.32292 2.54662,-2.66582 2.546118,-2.66574 2.36635,1.38534 c 1.301495,0.76208 2.643929,1.58824 2.982623,1.83556 l 0.615694,0.44978 -1.110224,3.55866 -1.109899,3.55915 0.632606,0.68502 c 0.347839,0.37695 1.132742,1.36031 1.744399,2.18501 l 1.112389,1.49947 h 3.852046 3.852063 l 0.40795,1.01915 c 0.593345,1.4829 1.526531,5.27178 1.346142,5.46505 -0.08487,0.091 -1.587014,0.86962 -3.338136,1.7302 l -3.183734,1.56465 -0.303119,2.2166 c -0.166667,1.21909 -0.313404,2.47151 -0.325965,2.78344 -0.01638,0.40638 0.786881,1.29111 2.833926,3.12061 l 2.640839,2.36024 0.180809,0.25923 -1.053833,1.9772 c -0.598773,1.12385 -1.394395,2.40936 -1.768345,2.85731 l -0.679936,0.81492 -3.615201,-1.23304 -3.615189,-1.23308 -0.667238,0.53169 c -0.367173,0.29228 -1.33983,0.97311 -2.161534,1.51323 l -1.494381,0.98204 0.01765,1.43419 c 0.0095,0.78884 0.09671,2.47858 0.194063,3.75478 l 0.17724,2.32096 -0.853084,0.35601 c -0.469132,0.19603 -1.585771,0.51846 -2.481462,0.71615 -3.226714,0.71224 -3.288293,0.71363 -3.677854,0.082 -0.196681,-0.31896 -1.024681,-1.84093 -1.840252,-3.38189 -1.088291,-2.05663 -1.635153,-2.83115 -2.056052,-2.91287 -0.315438,-0.0613 -1.579009,-0.25342 -2.80795,-0.4273 l -2.234387,-0.31632 -2.554245,2.63179 -2.553722,2.63211 -1.339531,-0.6789 c -2.059007,-1.0432 -4.599764,-2.70574 -4.599764,-3.01014 0,-0.15017 0.476797,-1.78964 1.059374,-3.64322 l 1.058918,-3.37031 -0.878112,-0.97216 c -0.483199,-0.53483 -1.265455,-1.53441 -1.738296,-2.22169 l -0.85981,-1.24989 -3.7730191,0.0718 c -3.0590957,0.0581 -3.8188943,2.3e-4 -4.0170733,-0.30508 -0.2729853,-0.42051 -1.4101169,-4.08471 -1.6745556,-5.3958 l -0.1712329,-0.84697 3.3753142,-1.58861 3.3747711,-1.58857 0.15641,-1.60642 c 0.085702,-0.88357 0.2309372,-2.13573 0.3228596,-2.78248 l 0.167015,-1.17549 -2.7645729,-2.47329 c -1.52075,-1.36034 -2.7651477,-2.66092 -2.7651477,-2.88992 0,-0.43862 2.3782706,-4.54664 2.9881637,-5.16154 0.302428,-0.30474 0.9026436,-0.17007 3.9646989,0.89086 l 3.608592,1.25036 1.954227,-1.47752 c 1.074925,-0.81283 2.052285,-1.47805 2.171196,-1.47805 0.118925,0 0.132535,-1.75202 0.03053,-3.89331 l -0.185447,-3.89326 1.795883,-0.53529 c 0.987729,-0.29454 2.471992,-0.63758 3.2984,-0.762 z m 24.597383,43.77241 0.03225,0.0108 -0.0094,-0.004 z m -20.271641,3.83219 c 0.0028,0.004 0.0049,0.008 0.0077,0.0122 z"
       id="path2405-2-9-0-09"
       inkscape:connector-curvature="0" />
    <path
       style="fill:#275a94;fill-opacity:1;fill-rule:evenodd;stroke:none;stroke-width:0.26077488;stroke-opacity:1"
       d="m 30.047398,252.36937 c -7.064166,-0.008 -12.924011,4.42584 -14.985288,11.34059 -0.631235,2.1173 -0.631696,6.22908 -0.0013,8.33108 1.018279,3.39431 2.977488,6.2659 5.630523,8.25215 1.899945,1.42231 3.075289,1.99825 5.311772,2.6036 2.46966,0.66838 6.558881,0.55288 9.089906,-0.25675 3.57175,-1.14234 7.087524,-4.16844 8.812356,-7.58534 1.225608,-2.42782 1.657886,-4.29718 1.657886,-7.17233 0,-4.43923 -1.496601,-8.07353 -4.583875,-11.13234 -2.987429,-2.95969 -6.520075,-4.37525 -10.932233,-4.38066 z m 0.203195,2.45035 c 2.924867,0.0384 5.909378,1.08402 8.477748,3.28309 2.613584,2.23775 4.395495,6.1753 4.395495,9.71289 0,5.62976 -3.764493,10.81832 -9.028829,12.44434 -4.785692,1.47811 -9.598822,0.34737 -13.059602,-3.06822 -3.350048,-3.3063 -4.799218,-8.41196 -3.57289,-12.58696 1.838589,-6.25944 7.204515,-9.85843 12.788078,-9.78514 z"
       id="path2397-7-0-2-3"
       inkscape:connector-curvature="0" />
  </g>
</svg>
