<?xml version="1.0" encoding="UTF-8" standalone="no"?>
<!-- Created with Inkscape (http://www.inkscape.org/) -->

<svg
   xmlns:dc="http://purl.org/dc/elements/1.1/"
   xmlns:cc="http://creativecommons.org/ns#"
   xmlns:rdf="http://www.w3.org/1999/02/22-rdf-syntax-ns#"
   xmlns:svg="http://www.w3.org/2000/svg"
   xmlns="http://www.w3.org/2000/svg"
   xmlns:sodipodi="http://sodipodi.sourceforge.net/DTD/sodipodi-0.dtd"
   xmlns:inkscape="http://www.inkscape.org/namespaces/inkscape"
   width="59.5mm"
   height="58mm"
   viewBox="0 0 59.499998 58"
   version="1.1"
   id="svg2684"
   inkscape:version="0.92.3 (2405546, 2018-03-11)"
   sodipodi:docname="engrenagem-costura.svg">
  <defs
     id="defs2678" />
  <sodipodi:namedview
     id="base"
     pagecolor="#ffffff"
     bordercolor="#666666"
     borderopacity="1.0"
     inkscape:pageopacity="0.0"
     inkscape:pageshadow="2"
     inkscape:zoom="2.8"
     inkscape:cx="138.22584"
     inkscape:cy="127.77205"
     inkscape:document-units="mm"
     inkscape:current-layer="layer1"
     showgrid="false"
     units="mm"
     inkscape:window-width="1920"
     inkscape:window-height="1001"
     inkscape:window-x="-9"
     inkscape:window-y="-9"
     inkscape:window-maximized="1" />
  <metadata
     id="metadata2681">
    <rdf:RDF>
      <cc:Work
         rdf:about="">
        <dc:format>image/svg+xml</dc:format>
        <dc:type
           rdf:resource="http://purl.org/dc/dcmitype/StillImage" />
        <dc:title></dc:title>
      </cc:Work>
    </rdf:RDF>
  </metadata>
  <g
     inkscape:label="Camada 1"
     inkscape:groupmode="layer"
     id="layer1"
     transform="translate(0,-238.99998)">
    <path
       id="path2334"
       style="fill:#e73135;fill-opacity:1;stroke-width:0.3519122"
       d="m 25.8321,261.23148 c 0,-0.9971 0.134061,-1.23169 0.703825,-1.23169 0.569764,0 0.703825,0.23459 0.703825,1.23169 0,0.99707 -0.134061,1.23169 -0.703825,1.23169 -0.569764,0 -0.703825,-0.23462 -0.703825,-1.23169 z m 12.909312,5.2259 c -0.132261,-0.13235 -0.240472,-0.93993 -0.240472,-1.79475 0,-1.95457 0.827261,-1.89318 0.991766,0.0736 0.109836,1.31309 -0.275839,2.19664 -0.751294,1.72121 z m -14.075021,2.46483 c -0.133069,-0.13306 -0.241939,-0.61145 -0.241939,-1.06306 0,-0.59533 0.199981,-0.82112 0.727198,-0.82112 0.581387,0 0.704873,0.18859 0.615846,0.94059 -0.111392,0.94102 -0.645762,1.39892 -1.101105,0.94359 z m 9.373323,-5.96671 c -0.222168,-0.57897 0.51184,-1.28613 1.013278,-0.9762 0.154406,0.0954 0.280739,0.48084 0.280739,0.85654 0,0.82342 -0.988877,0.91483 -1.294017,0.11971 z m 1.629854,0.75872 c 0.672391,-0.81017 0.313033,-2.11369 -0.61914,-2.24583 -1.584348,-0.22459 -2.521885,1.61148 -1.212323,2.37424 0.855511,0.49827 1.339518,0.46435 1.831463,-0.12848 z m -13.82256,7.75709 c -0.104144,-0.27139 -0.0947,-0.58811 0.02101,-0.70382 0.115689,-0.11571 2.796908,-0.21033 5.958255,-0.21033 h 5.747898 v -2.59627 c 0,-3.23552 -0.223193,-3.45339 -3.396125,-3.31509 -2.22984,0.0972 -2.4372,0.1748 -2.866177,1.07257 -0.389719,0.81555 -0.682133,0.96775 -1.859593,0.96775 -1.617212,0 -1.838924,-0.35888 -2.240033,-3.62572 -0.270104,-2.19987 0.07724,-3.06061 1.235067,-3.06061 0.501947,0 0.663907,0.32351 0.748711,1.49563 0.105208,1.45406 0.142436,1.49561 1.339906,1.49561 1.197469,0 1.234697,-0.0415 1.339905,-1.49561 l 0.108214,-1.49563 h 4.484241 c 3.018527,0 4.622272,0.13802 4.906536,0.4223 0.589432,0.58941 0.589432,10.53096 0,11.12042 -0.661595,0.6616 -15.272321,0.59463 -15.527813,-0.0712 z m 0.265698,1.86179 c -0.505719,-0.81829 0.941142,-1.00562 7.766385,-1.00562 6.825242,0 8.272105,0.18733 7.766386,1.00562 -0.165219,0.26732 -2.625156,0.39127 -7.766386,0.39127 -5.14123,0 -7.601167,-0.12396 -7.766385,-0.39127 z"
       inkscape:connector-curvature="0" />
    <path
       style="fill:#275a94;fill-opacity:1;fill-rule:evenodd;stroke:none;stroke-width:0.10431004;stroke-miterlimit:4;stroke-dasharray:none;stroke-opacity:1"
       d="m 25.96615,239.35877 c -2.241194,0.0609 -8.122495,1.53754 -8.388098,2.22979 -0.07881,0.20542 -0.04332,1.96253 0.07944,3.90454 l 0.223095,3.53064 -1.479091,1.14905 -1.479633,1.14897 -3.6758,-1.21824 c -2.85349,-0.94593 -3.776814,-1.15584 -4.127564,-0.9382 -0.702265,0.43576 -3.043886,4.07004 -3.860165,5.99067 l -0.735921,1.73019 0.17874,0.16915 -0.0265,0.0576 0.901483,0.77209 0.498705,0.47261 c 0.853923,0.80931 2.168177,2.03396 2.920421,2.72137 l 1.367583,1.24987 -0.171159,1.84429 -0.171638,1.84374 -3.509754,1.66397 L 1,269.34479 l 0.18032,1.20259 c 0.271296,1.8094 1.082324,4.73604 1.799468,6.49286 l 0.16756,0.41101 0.07998,0.30613 0.09569,0.12369 0.29544,0.72377 4.022192,0.13048 3.860182,0.12529 0.217928,0.0744 1.110382,1.36296 1.166864,1.43222 -0.991665,3.13133 c -0.545566,1.72224 -0.988715,3.42475 -0.984604,3.7833 0.0061,0.49347 0.392069,0.93079 1.589141,1.79998 1.863603,1.35314 5.775877,3.41552 6.479649,3.41552 0.289603,0 1.494782,-1.08255 2.923036,-2.62556 l 2.430517,-2.6256 1.434225,0.16758 c 0.461245,0.0539 0.832691,0.0942 1.14653,0.14516 l 0.581592,0.13248 c 0.938211,0.30132 1.281094,1.01739 2.613887,3.5505 l 1.786246,3.39516 1.955771,-0.15482 c 2.056005,-0.16276 4.916118,-0.83574 6.615661,-1.55653 l 1.008946,-0.42783 -0.159905,-2.41216 c -0.08788,-1.32692 -0.183266,-3.04105 -0.212383,-3.80928 l -0.05351,-1.39705 1.550395,-1.11698 1.549857,-1.11644 3.258182,1.15575 c 1.426864,0.50608 2.819056,0.91211 3.511275,1.03743 l 0.191499,0.0632 0.01858,-0.0291 c 0.07696,0.009 0.141076,0.012 0.182333,0.008 0.417653,-0.0496 0.996423,-0.53647 1.640524,-1.38025 1.025297,-1.3433 3.325356,-5.66548 3.325356,-6.24902 0,-0.2473 -3.866812,-3.98285 -5.54753,-5.35907 -0.110914,-0.091 -0.122858,-1.01365 -0.02671,-2.05058 l 0.175204,-1.88502 3.505732,-1.67417 3.506168,-1.67361 -0.176826,-1.11595 c -0.480835,-3.03763 -1.927035,-7.4594 -2.630642,-8.04332 -0.275871,-0.229 -1.386123,-0.27992 -4.030237,-0.18487 l -3.649789,0.13141 -1.247916,-1.59463 -1.247319,-1.59424 0.989602,-3.12928 c 0.544497,-1.72114 0.990732,-3.42467 0.991169,-3.78585 0.0011,-0.52879 -0.392922,-0.92185 -2.019977,-2.01692 -2.15207,-1.44847 -5.506902,-3.19401 -6.138873,-3.19401 -0.209754,0 -1.510605,1.2194 -2.891008,2.71015 l -2.509926,2.71053 -0.977851,-0.2194 c -0.53774,-0.12077 -1.410915,-0.28829 -1.940585,-0.37234 -0.928615,-0.14734 -1.024579,-0.26976 -2.696363,-3.42115 -0.953484,-1.79738 -1.919874,-3.33896 -2.147252,-3.42625 -0.144703,-0.0555 -0.390397,-0.076 -0.710569,-0.0672 z m -0.126356,1.64207 0.743158,1.33036 c 0.408524,0.73156 1.236557,2.23901 1.840125,3.35034 0.758849,1.39702 1.272806,2.05443 1.666015,2.1305 0.312829,0.0605 1.594202,0.25583 2.847136,0.43345 l 2.277682,0.32289 2.546668,-2.66583 2.546114,-2.66573 2.366345,1.38533 c 1.301501,0.76208 2.643928,1.58825 2.982625,1.83558 l 0.615702,0.44976 -1.11024,3.55868 -1.109893,3.55916 0.632608,0.68501 c 0.34783,0.37695 1.132738,1.3603 1.744411,2.18499 l 1.11238,1.49949 h 3.85205 3.852045 l 0.407971,1.01916 c 0.593349,1.48289 1.526539,5.27178 1.346121,5.46506 -0.08483,0.091 -1.58698,0.8696 -3.33812,1.73019 l -3.183746,1.56467 -0.30311,2.21659 c -0.166679,1.21908 -0.313405,2.47151 -0.325937,2.78349 -0.0164,0.40632 0.786852,1.29107 2.833886,3.12053 l 2.640841,2.36028 0.180827,0.25921 -1.053823,1.97723 c -0.598786,1.12383 -1.394385,2.40937 -1.768369,2.85731 l -0.67992,0.81493 -3.615201,-1.23306 -3.615208,-1.23308 -0.667239,0.53168 c -0.367161,0.2923 -1.339832,0.97313 -2.161537,1.51324 l -1.494367,0.98204 0.01777,1.43418 c 0.0096,0.78886 0.09671,2.47856 0.194066,3.75478 l 0.17723,2.32098 -0.853078,0.35602 c -0.469126,0.19601 -1.585801,0.51848 -2.481449,0.71613 -3.226725,0.71225 -3.28833,0.71363 -3.677862,0.0819 -0.196673,-0.31896 -1.024698,-1.84094 -1.840261,-3.38189 -1.088282,-2.05661 -1.635144,-2.83112 -2.056069,-2.91286 -0.31543,-0.0612 -1.579003,-0.25343 -2.807919,-0.4273 l -2.234403,-0.31633 -2.554249,2.63174 -2.55375,2.63214 -1.339529,-0.67889 c -2.05901,-1.04321 -4.59977,-2.70572 -4.59977,-3.01013 0,-0.15016 0.476819,-1.78964 1.059403,-3.64322 l 1.058904,-3.37028 -0.878106,-0.97219 c -0.483178,-0.53486 -1.265443,-1.53441 -1.738319,-2.2217 l -0.859788,-1.24988 -3.773017,0.0718 c -3.059099,0.0581 -3.818898,2.5e-4 -4.017092,-0.30505 -0.272986,-0.42052 -1.410105,-4.08474 -1.674564,-5.39582 l -0.171197,-0.84698 3.375285,-1.5886 3.374784,-1.58859 0.156401,-1.60641 c 0.0857,-0.88358 0.230943,-2.13573 0.322898,-2.78249 l 0.166978,-1.17549 -2.764559,-2.47328 c -1.520764,-1.36033 -2.76515,-2.66092 -2.76515,-2.88992 0,-0.43863 2.378233,-4.54664 2.988161,-5.16157 0.302425,-0.3047 0.902633,-0.17006 3.964677,0.89089 l 3.60861,1.25036 1.954236,-1.47751 c 1.07493,-0.81285 2.052278,-1.47807 2.1712,-1.47807 0.118921,0 0.132501,-1.75201 0.03034,-3.89332 l -0.185451,-3.89325 1.795878,-0.5353 c 0.98772,-0.29454 2.472012,-0.63757 3.298399,-0.762 z m 24.59739,43.77245 0.03227,0.012 -0.0093,-0.004 z m -20.271666,3.8322 c 0.0032,0.004 0.0049,0.008 0.0077,0.012 z"
       id="path2405-2-9-0-2"
       inkscape:connector-curvature="0" />
    <path
       style="fill:#275a94;fill-opacity:1;fill-rule:evenodd;stroke:none;stroke-width:0.26077515;stroke-opacity:1"
       d="m 30.047594,252.36923 c -7.06417,-0.009 -12.924057,4.4258 -14.985338,11.34058 -0.63121,2.11729 -0.631672,6.2291 -0.0015,8.33107 1.018271,3.39432 2.97747,6.26594 5.630539,8.25215 1.899911,1.42234 3.07527,1.99828 5.311755,2.60363 2.469658,0.6684 6.558906,0.55288 9.089908,-0.25677 3.571733,-1.14233 7.087533,-4.16844 8.812386,-7.58531 1.225593,-2.42785 1.657888,-4.29722 1.657888,-7.17238 0,-4.43921 -1.496618,-8.07351 -4.583881,-11.13233 -2.987473,-2.95968 -6.520091,-4.37524 -10.932247,-4.38064 z m 0.203194,2.45028 c 2.924841,0.0384 5.909373,1.08405 8.477724,3.28313 2.613585,2.23775 4.395524,6.17532 4.395524,9.7129 0,5.62977 -3.764507,10.81834 -9.028825,12.44438 -4.785749,1.47811 -9.598846,0.34735 -13.059622,-3.06821 -3.35007,-3.30634 -4.799262,-8.41199 -3.572904,-12.58698 1.83859,-6.25947 7.204508,-9.85847 12.788103,-9.78522 z"
       id="path2397-7-0-2-5"
       inkscape:connector-curvature="0" />
  </g>
</svg>
