<?xml version="1.0" encoding="UTF-8" standalone="no"?>
<!-- Created with Inkscape (http://www.inkscape.org/) -->

<svg
   xmlns:dc="http://purl.org/dc/elements/1.1/"
   xmlns:cc="http://creativecommons.org/ns#"
   xmlns:rdf="http://www.w3.org/1999/02/22-rdf-syntax-ns#"
   xmlns:svg="http://www.w3.org/2000/svg"
   xmlns="http://www.w3.org/2000/svg"
   xmlns:sodipodi="http://sodipodi.sourceforge.net/DTD/sodipodi-0.dtd"
   xmlns:inkscape="http://www.inkscape.org/namespaces/inkscape"
   width="59.5mm"
   height="58mm"
   viewBox="0 0 59.499998 58"
   version="1.1"
   id="svg2684"
   inkscape:version="0.92.3 (2405546, 2018-03-11)"
   sodipodi:docname="engrenagem-impressora3d.svg">
  <defs
     id="defs2678" />
  <sodipodi:namedview
     id="base"
     pagecolor="#ffffff"
     bordercolor="#666666"
     borderopacity="1.0"
     inkscape:pageopacity="0.0"
     inkscape:pageshadow="2"
     inkscape:zoom="2.8"
     inkscape:cx="138.22584"
     inkscape:cy="127.77205"
     inkscape:document-units="mm"
     inkscape:current-layer="layer1"
     showgrid="false"
     units="mm"
     inkscape:window-width="1920"
     inkscape:window-height="1001"
     inkscape:window-x="-9"
     inkscape:window-y="-9"
     inkscape:window-maximized="1" />
  <metadata
     id="metadata2681">
    <rdf:RDF>
      <cc:Work
         rdf:about="">
        <dc:format>image/svg+xml</dc:format>
        <dc:type
           rdf:resource="http://purl.org/dc/dcmitype/StillImage" />
        <dc:title></dc:title>
      </cc:Work>
    </rdf:RDF>
  </metadata>
  <g
     inkscape:label="Camada 1"
     inkscape:groupmode="layer"
     id="layer1"
     transform="translate(0,-238.99998)">
    <path
       id="path2204"
       style="fill:#e73135;fill-opacity:1;stroke-width:0.29684582"
       d="m 33.648903,262.25155 c -0.377052,-0.40604 0.150821,-0.70188 1.147397,-0.70188 0.710017,0 1.02152,0.11601 1.02152,0.46406 0,0.29003 -0.307442,0.46405 -0.989616,0.46405 -0.545274,0 -1.074887,-0.058 -1.179301,-0.17402 z m -1.393351,-0.23202 c 0,-0.23203 0.208829,-0.46406 0.469863,-0.46406 0.522073,0 0.435062,0.63807 -0.116015,0.8237 -0.191426,0.058 -0.353848,-0.11602 -0.353848,-0.34804 z m -5.640113,-0.0244 c 0,-0.23203 0.203028,-0.46407 0.446661,-0.46407 0.243634,0 0.446662,0.17403 0.446662,0.46407 0,0.23202 -0.203028,0.46405 -0.446662,0.46405 -0.243633,0 -0.446661,-0.17402 -0.446661,-0.46405 z m -2.671846,0 c 0,-0.29004 0.313243,-0.46407 1.038923,-0.46407 0.725679,0 1.038923,0.11602 1.038923,0.46407 0,0.29003 -0.313244,0.46405 -1.038923,0.46405 -0.72568,0 -1.038923,-0.11602 -1.038923,-0.46405 z m 3.913796,-0.0146 -0.121816,-1.05574 2.037819,0.11602 c 1.892219,0.058 2.04478,0.11601 2.138173,0.79471 0.05512,0.40605 -0.08121,0.82371 -0.295841,0.95713 -0.232031,0.17402 0.932768,0.23203 2.794242,0.23203 l 3.191018,0.005 v -1.18917 -1.18917 h -7.718015 -7.717957 v 1.18917 1.18917 h 2.909098 2.909099 z m 7.960199,3.61391 c 0.406056,-0.0523 -0.359649,-0.11602 -1.706594,-0.11602 -1.346944,-0.0244 -2.449095,0.0557 -2.449095,0.17403 -2.9e-4,0.23203 2.40965,0.17402 4.156269,-0.0395 z m -5.343112,0.29004 c 0,-0.29004 -0.278438,-0.46406 -0.741922,-0.46406 -0.464063,0 -0.741921,0.17402 -0.741921,0.46406 0,0.29004 0.278438,0.46406 0.741921,0.46406 0.464064,0 0.741922,-0.17402 0.741922,-0.46406 z m -0.22043,1.43859 c -0.203028,-0.058 -0.539474,-0.058 -0.741922,0 -0.203028,0.058 -0.03712,0.17401 0.371251,0.17401 0.406056,0 0.574279,-0.058 0.371251,-0.17401 z m 6.159516,2.27391 c 0,-1.78086 -0.116016,-2.97 -0.295841,-2.97 -0.179825,0 -0.29584,1.18914 -0.29584,2.97 0,1.78084 0.116015,2.97001 0.29584,2.97001 0.179825,0 0.295841,-1.18917 0.295841,-2.97001 z m -1.780844,0.0285 v -2.94101 l -1.484424,-0.11602 c -1.450198,-0.11601 -1.484423,-0.058 -1.484423,0.7251 1.16e-4,0.52207 -0.197227,0.89913 -0.522072,1.01514 -0.284239,0.11602 -0.626485,0.34805 -0.757003,0.58588 -0.313243,0.52208 -1.098091,0.52208 -1.098091,-0.0174 0,-0.23203 -0.266836,-0.46406 -0.594001,-0.58008 -0.487267,-0.11602 -0.593422,-0.40606 -0.593422,-1.51981 v -1.36318 l -2.449095,0.058 -2.449096,0.058 2.300596,0.11602 c 1.771562,0.058 2.300595,0.17402 2.300595,0.52207 0,0.34805 -0.382853,0.40605 -1.484424,0.40605 h -1.484423 v 2.97002 2.96999 h 4.898191 4.897611 v -2.94098 z m -10.686398,-0.0285 c 0,-1.78086 -0.116016,-2.97 -0.295841,-2.97 -0.179826,0 -0.29584,1.18914 -0.29584,2.97 0,1.78084 0.116014,2.97001 0.29584,2.97001 0.179825,0 0.295841,-1.18917 0.295841,-2.97001 z m 8.608495,5.93711 c 0,-0.40605 -0.197227,-0.59168 -0.707697,-0.59168 -0.458263,0 -0.762224,0.23203 -0.862578,0.59168 -0.127618,0.52207 -0.0091,0.59168 0.707697,0.59168 0.664771,0 0.862578,-0.11601 0.862578,-0.59168 z m -3.772837,0 c -0.09861,-0.40605 -0.406056,-0.59168 -0.862578,-0.59168 -0.51047,0 -0.707697,0.17402 -0.707697,0.59168 0,0.46407 0.197227,0.59168 0.862578,0.59168 0.716398,0 0.836475,-0.11601 0.707697,-0.59168 z m 7.335106,-0.7425 c 0,-0.23203 0.203027,-0.46406 0.44666,-0.46406 0.243634,0 0.446661,0.17402 0.446661,0.46406 0,0.23203 -0.203027,0.46406 -0.446661,0.46406 -0.243633,0 -0.44666,-0.17402 -0.44666,-0.46406 z m -13.358071,0 c 0,-0.23203 0.203028,-0.46406 0.446661,-0.46406 0.243633,0 0.446661,0.17402 0.446661,0.46406 0,0.23203 -0.203028,0.46406 -0.446661,0.46406 -0.243633,0 -0.446661,-0.17402 -0.446661,-0.46406 z m 3.562268,0.29004 v -1.03834 h 3.562268 3.562268 v 1.03834 1.03834 h 2.077845 2.077844 v -1.33418 -1.33418 h -7.718015 -7.717957 v 1.33418 1.33418 h 2.077844 2.077845 z m -4.844244,1.73444 c -0.110215,-0.11602 -0.203028,-1.06155 -0.203028,-2.11149 0,-1.65903 0.07541,-1.92588 0.593422,-2.06509 0.556876,-0.17403 0.593421,-0.40606 0.593421,-4.25778 0,-3.86914 -0.03421,-4.11277 -0.606763,-4.2926 -0.545275,-0.17402 -0.597482,-0.40605 -0.522072,-2.16947 l 0.08701,-1.97808 h 8.46011 8.460111 l 0.08701,1.97808 c 0.07541,1.77502 0.02406,2.00125 -0.522071,2.16947 -0.574279,0.17403 -0.606763,0.40606 -0.606763,4.2926 0,3.88072 0.03225,4.11276 0.607923,4.25778 0.551076,0.11601 0.599222,0.34804 0.522072,2.1869 l -0.08701,2.03028 -8.331856,0.058 c -4.582628,0.0435 -8.422986,-0.0122 -8.534303,-0.11601 z"
       inkscape:connector-curvature="0" />
    <path
       style="fill:#275a94;fill-opacity:1;fill-rule:evenodd;stroke:none;stroke-width:0.10432381;stroke-miterlimit:4;stroke-dasharray:none;stroke-opacity:1"
       d="m 25.968651,239.4173 c -2.241427,0.058 -8.123607,1.53721 -8.389285,2.23331 -0.08121,0.23203 -0.04328,1.96068 0.08121,3.90393 l 0.220431,3.53269 -1.479202,1.14856 -1.479784,1.14855 -3.676543,-1.21816 c -2.8539909,-0.94553 -3.7774779,-1.15436 -4.128426,-0.93973 -0.702476,0.46406 -3.044257,4.07217 -3.860429,5.99164 l -0.736121,1.72865 0.179825,0.17402 -0.02622,0.058 0.901444,0.77149 0.498868,0.46407 c 0.853877,0.8121 2.168337,2.03608 2.9206999,2.72057 l 1.3678281,1.24717 -0.168223,1.84465 -0.174024,1.84467 -3.5100599,1.6648 L 1,269.40102 l 0.179825,1.20077 c 0.2726371,1.80984 1.082428,4.73924 1.799406,6.49341 l 0.168223,0.40605 0.08121,0.29004 0.09281,0.11602 0.2958409,0.7251 4.022851,0.11601 3.8604291,0.11602 0.220429,0.058 1.110853,1.36318 1.16712,1.43281 -0.991935,3.13241 c -0.545276,1.72284 -0.989037,3.42248 -0.984976,3.78213 0.0058,0.52207 0.394454,0.93392 1.589418,1.79825 1.863795,1.35159 5.776431,3.41665 6.480474,3.41665 0.290039,0 1.494864,-1.08475 2.9236,-2.62774 l 2.430533,-2.62777 1.434538,0.17402 c 0.464062,0.0538 0.832994,0.11602 1.146816,0.17403 l 0.581819,0.11601 c 0.938569,0.29004 1.281396,1.01515 2.614419,3.55008 l 1.786644,3.39348 1.956028,-0.17403 c 2.056382,-0.17402 4.916754,-0.83531 6.61662,-1.55461 l 1.009337,-0.40607 -0.162421,-2.41311 c -0.08701,-1.32838 -0.185627,-3.03962 -0.214631,-3.81113 l -0.05354,-1.39799 1.550554,-1.11956 1.549971,-1.11376 3.258306,1.15436 c 1.426995,0.52208 2.819188,0.91074 3.511801,1.03835 l 0.191427,0.058 0.01856,-0.029 c 0.07541,0.009 0.139218,0.0122 0.179824,0.008 0.417658,-0.05 0.996577,-0.52207 1.640465,-1.38058 1.025581,-1.34578 3.325595,-5.66738 3.325595,-6.24978 0,-0.23203 -3.867389,-3.98513 -5.548459,-5.35993 -0.110215,-0.11602 -0.121817,-1.01514 -0.02639,-2.05348 l 0.174022,-1.88527 3.506002,-1.67641 L 59,265.95766 58.825976,264.8439 c -0.481466,-3.03962 -1.927604,-7.4604 -2.631241,-8.04397 -0.278436,-0.23204 -1.386389,-0.29004 -4.030972,-0.17403 l -3.65044,0.11602 -1.248331,-1.59522 -1.247751,-1.5952 0.989615,-3.12664 c 0.545277,-1.72283 0.990777,-3.42248 0.991357,-3.78793 8.7e-4,-0.52206 -0.394454,-0.9223 -2.020417,-2.01865 -2.152675,-1.45021 -5.507855,-3.19625 -6.139736,-3.19625 -0.208828,0 -1.510526,1.21817 -2.891114,2.70897 l -2.510584,2.70896 -0.978015,-0.23203 c -0.539474,-0.11602 -1.411334,-0.29004 -1.940946,-0.34805 -0.928707,-0.17401 -1.025001,-0.29002 -2.69679,-3.42246 -0.95365,-1.79824 -1.920063,-3.34127 -2.147454,-3.42828 -0.14502,-0.055 -0.388653,-0.058 -0.710597,-0.058 z m -0.127618,1.64163 0.743082,1.32838 c 0.406056,0.7309 1.236729,2.23912 1.840592,3.35286 0.758744,1.39798 1.273275,2.05348 1.665988,2.12889 0.313243,0.058 1.594639,0.23203 2.84761,0.40606 l 2.277973,0.34804 2.547128,-2.66837 2.546549,-2.66836 2.366725,1.3864 c 1.301698,0.7599 2.644001,1.5894 2.982768,1.83303 l 0.615465,0.46407 -1.110272,3.5617 -1.110273,3.56168 0.632867,0.68449 c 0.348048,0.40605 1.132896,1.36319 1.744879,2.18691 l 1.112594,1.5024 h 3.852886 3.852308 l 0.406056,1.02094 c 0.59342,1.48502 1.526769,5.27293 1.346363,5.46435 -0.08701,0.11602 -1.587097,0.87012 -3.338357,1.72864 l -3.184055,1.56621 -0.301642,2.21592 c -0.168222,1.21814 -0.313242,2.47113 -0.324844,2.78437 -0.01636,0.40605 0.787168,1.29358 2.834268,3.12083 l 2.641101,2.36093 0.179826,0.23203 -1.054006,1.97805 c -0.598641,1.12537 -1.39451,2.40734 -1.768661,2.8598 l -0.679854,0.81212 -3.615634,-1.23557 -3.615636,-1.23557 -0.66709,0.52207 c -0.365451,0.29004 -1.339986,0.97453 -2.161958,1.51401 l -1.494864,0.98033 0.01776,1.43281 c 0.0095,0.7889 0.09861,2.47692 0.191426,3.7531 l 0.179825,2.32032 -0.853297,0.34805 c -0.469864,0.17402 -1.585937,0.52207 -2.48158,0.71929 -3.226982,0.71351 -3.28847,0.71351 -3.678284,0.058 -0.197227,-0.34805 -1.025,-1.83885 -1.840592,-3.38186 -1.088229,-2.05929 -1.635244,-2.83079 -2.056382,-2.91199 -0.313242,-0.058 -1.578976,-0.23203 -2.808164,-0.40606 l -2.234466,-0.29004 -2.55467,2.63355 -2.55409,2.63357 -1.339984,-0.6787 c -2.059282,-1.04414 -4.60061,-2.70318 -4.60061,-3.01062 0,-0.17402 0.475665,-1.79242 1.059225,-3.64289 l 1.059226,-3.37026 -0.87824,-0.97454 c -0.481468,-0.52207 -1.265736,-1.53719 -1.738499,-2.22169 l -0.859678,-1.24718 -3.7734171,0.058 c -3.0593389,0.058 -3.8192429,5.7e-4 -4.017631,-0.29004 -0.2726371,-0.40606 -1.410173,-4.08377 -1.674689,-5.39475 l -0.174024,-0.8469 3.375483,-1.58941 3.3754819,-1.58943 0.1566211,-1.60682 c 0.08701,-0.88172 0.2320318,-2.1347 0.3248461,-2.78439 l 0.168222,-1.17754 -2.7652391,-2.47115 c -1.520968,-1.36319 -2.765239,-2.66257 -2.765239,-2.8888 0,-0.46407 2.378326,-4.54782 2.98857,-5.16271 0.3016411,-0.29004 0.902603,-0.17402 3.9654231,0.89334 l 3.609255,1.25297 1.954287,-1.47921 c 1.074888,-0.81212 2.052903,-1.47921 2.171818,-1.47921 0.121816,0 0.133418,-1.75184 0.03064,-3.89234 l -0.185626,-3.89232 1.795926,-0.52207 c 0.987876,-0.29004 2.472299,-0.63809 3.298912,-0.75991 z m 24.600707,43.7786 0.03225,0.011 -0.0092,-0.003 z m -20.274416,3.83431 c 0.0027,0.003 0.0047,0.009 0.0076,0.0122 z"
       id="path2405-2-9-0-4"
       inkscape:connector-curvature="0" />
    <path
       style="fill:#275a94;fill-opacity:1;fill-rule:evenodd;stroke:none;stroke-width:0.26081008;stroke-opacity:1"
       d="m 30.050612,252.42966 c -7.065136,-0.009 -12.925738,4.42599 -14.987339,11.34228 -0.631127,2.1173 -0.631707,6.22948 -0.0012,8.33226 1.018619,3.39346 2.978128,6.26661 5.63141,8.25278 1.900342,1.42121 3.075583,2.00129 5.312369,2.60457 2.469978,0.66709 6.55977,0.58008 9.09112,-0.23203 3.572131,-1.14276 7.088514,-4.17076 8.813554,-7.58687 1.225708,-2.43052 1.658448,-4.29838 1.658448,-7.17326 0,-4.4376 -1.496605,-8.07412 -4.584369,-11.13346 -2.987989,-2.95841 -6.520962,-4.37379 -10.933744,-4.37959 z m 0.203028,2.45371 c 2.925341,0.0384 5.910197,1.08475 8.478905,3.28326 2.613838,2.23912 4.395843,6.17611 4.395843,9.71401 0,5.63257 -3.764716,10.82023 -9.03004,12.44618 -4.786235,1.47921 -9.600141,0.34805 -13.061359,-3.0686 -3.350539,-3.30647 -4.799578,-8.4129 -3.57329,-12.58831 1.838852,-6.2608 7.205458,-9.8602 12.789767,-9.78654 z"
       id="path2397-7-0-2-10"
       inkscape:connector-curvature="0" />
  </g>
</svg>
