<?xml version="1.0" encoding="UTF-8" standalone="no"?>
<!-- Created with Inkscape (http://www.inkscape.org/) -->

<svg
   xmlns:dc="http://purl.org/dc/elements/1.1/"
   xmlns:cc="http://creativecommons.org/ns#"
   xmlns:rdf="http://www.w3.org/1999/02/22-rdf-syntax-ns#"
   xmlns:svg="http://www.w3.org/2000/svg"
   xmlns="http://www.w3.org/2000/svg"
   xmlns:sodipodi="http://sodipodi.sourceforge.net/DTD/sodipodi-0.dtd"
   xmlns:inkscape="http://www.inkscape.org/namespaces/inkscape"
   width="59.5mm"
   height="58mm"
   viewBox="0 0 59.499998 58"
   version="1.1"
   id="svg2684"
   inkscape:version="0.92.3 (2405546, 2018-03-11)"
   sodipodi:docname="engrenagem-arroba.svg">
  <defs
     id="defs2678" />
  <sodipodi:namedview
     id="base"
     pagecolor="#ffffff"
     bordercolor="#666666"
     borderopacity="1.0"
     inkscape:pageopacity="0.0"
     inkscape:pageshadow="2"
     inkscape:zoom="2.8"
     inkscape:cx="138.22584"
     inkscape:cy="127.77205"
     inkscape:document-units="mm"
     inkscape:current-layer="layer1"
     showgrid="false"
     units="mm"
     inkscape:window-width="1920"
     inkscape:window-height="1001"
     inkscape:window-x="-9"
     inkscape:window-y="-9"
     inkscape:window-maximized="1" />
  <metadata
     id="metadata2681">
    <rdf:RDF>
      <cc:Work
         rdf:about="">
        <dc:format>image/svg+xml</dc:format>
        <dc:type
           rdf:resource="http://purl.org/dc/dcmitype/StillImage" />
        <dc:title></dc:title>
      </cc:Work>
    </rdf:RDF>
  </metadata>
  <g
     inkscape:label="Camada 1"
     inkscape:groupmode="layer"
     id="layer1"
     transform="translate(0,-238.99998)">
    <path
       id="path2276"
       style="fill:#e73135;fill-opacity:1;stroke-width:0.31760964"
       d="m 34.111482,264.91245 c -0.527893,-1.00231 -0.603289,-1.03222 -2.599965,-1.03222 -1.616087,0 -2.056306,-0.10204 -2.056306,-0.47642 0,-0.36138 0.392197,-0.47641 1.62411,-0.47641 h 1.624113 l -0.21433,-1.42925 c -0.11788,-0.78608 -0.140132,-1.42924 -0.04946,-1.42924 0.09068,0 0.541794,0.64316 1.002471,1.42924 l 0.837592,1.42925 h 2.669502 c 2.161153,0 2.669503,0.0908 2.669503,0.47641 0,0.37713 -0.453664,0.47642 -2.177323,0.47642 H 35.26407 l -0.304466,1.03222 -0.304471,1.03224 z m -6.879539,-0.11716 v -1.30814 l -1.032231,0.77481 c -1.803521,1.35378 -1.765322,1.36213 -2.621029,-0.57278 -0.440826,-0.99679 -0.726698,-1.88713 -0.635271,-1.97855 0.09142,-0.0915 0.573267,0.22373 1.070754,0.70034 0.902883,0.86504 0.906627,0.8656 2.06115,0.31503 1.952455,-0.93104 1.497597,-1.38671 -1.38425,-1.38671 h -2.540878 v 2.38206 2.38208 h 2.540878 2.540877 z m -5.581294,1.8388 c -0.0891,-0.23218 -0.120342,-1.69715 -0.06943,-3.25549 l 0.09255,-2.83334 2.927837,-0.0912 c 2.633588,-0.082 2.967481,-0.0276 3.322296,0.54041 0.393214,0.62966 0.397755,0.6296 1.439886,-0.0146 1.683776,-1.04062 1.932648,-0.49726 0.30697,0.67021 -1.467281,1.05374 -1.48599,1.08969 -1.48599,2.85548 0,0.98353 -0.17151,1.95981 -0.381132,2.16942 -0.555468,0.55547 -5.937868,0.51958 -6.152992,-0.041 z m 12.477501,2.86284 c -0.470029,-0.71738 -0.791708,-0.83424 -2.52323,-0.91682 -1.592329,-0.076 -2.005451,-0.20447 -2.090405,-0.65043 -0.08971,-0.47095 0.143181,-0.55581 1.524917,-0.55581 h 1.630798 l -0.214329,-1.42924 c -0.117881,-0.78609 -0.129378,-1.42925 -0.02553,-1.42925 0.103824,0 0.526275,0.66406 0.938771,1.47574 l 0.749991,1.47572 2.776997,-0.0668 c 2.529837,-0.0609 2.767222,-0.0156 2.667118,0.50933 -0.0908,0.47606 -0.477837,0.59231 -2.228667,0.66952 -1.961144,0.0864 -2.139205,0.15467 -2.393245,0.91678 l -0.27446,0.8234 -0.538707,-0.82217 z m -0.168615,4.38793 c -0.332064,-0.72881 -0.531911,-0.79402 -2.433053,-0.79402 -1.85953,0 -2.071271,-0.0649 -2.071271,-0.63521 0,-0.55157 0.211741,-0.63523 1.607508,-0.63523 h 1.607511 l -0.214329,-1.42925 c -0.117881,-0.78607 -0.129378,-1.42923 -0.02553,-1.42923 0.103824,0 0.526275,0.66405 0.938771,1.47574 l 0.749991,1.4757 2.7498,-0.0661 c 2.586925,-0.0622 2.749792,-0.0274 2.749792,0.58872 0,0.59889 -0.189575,0.65487 -2.217217,0.65487 -2.100147,0 -2.22774,0.0419 -2.416505,0.79403 -0.10961,0.43671 -0.303774,0.79403 -0.431482,0.79403 -0.127711,0 -0.394999,-0.35732 -0.59398,-0.79403 z m -8.50577,-1.49276 c 0.214789,-0.61076 0.181335,-0.99364 -0.118385,-1.35476 -0.380445,-0.4584 -0.470494,-0.45572 -1.007467,0.0301 -0.587398,0.53159 -0.790572,1.71649 -0.36696,2.14009 0.437383,0.43738 1.198376,0.0216 1.492807,-0.81555 z m -2.191943,3.27428 c -1.810159,-0.79019 -2.542398,-3.21924 -1.581108,-5.24499 0.664494,-1.40034 1.87585,-2.0947 3.654229,-2.0947 2.805856,0 4.266384,3.28362 2.294012,5.15751 -0.748701,0.71128 -1.115312,0.81842 -2.567286,0.75003 -1.883321,-0.0887 -2.263906,-0.4266 -2.271398,-2.01681 -0.0072,-1.52154 0.913257,-2.28658 2.707653,-2.25055 1.323314,0.0267 1.449873,0.0945 1.310182,0.70325 -0.57373,2.50028 -0.583722,2.73938 -0.106825,2.55638 0.259878,-0.0998 0.649622,-0.60892 0.866103,-1.13155 0.343103,-0.82833 0.312601,-1.05873 -0.237761,-1.79587 -0.745229,-0.99814 -1.797911,-1.32557 -3.114972,-0.9688 -1.373878,0.37214 -2.064463,1.36852 -2.064463,2.97867 0,1.10281 0.163697,1.49975 0.836858,2.02928 0.996532,0.78385 3.18679,0.88629 4.10479,0.19195 0.339087,-0.25646 0.899121,-0.47085 1.244521,-0.4764 0.569331,-0.01 0.549001,0.0689 -0.217585,0.83546 -0.661675,0.66168 -1.212728,0.86828 -2.533657,0.95001 -0.92844,0.0574 -1.973922,-0.0203 -2.323293,-0.17287 z"
       inkscape:connector-curvature="0" />
    <path
       style="fill:#275a94;fill-opacity:1;fill-rule:evenodd;stroke:none;stroke-width:0.10430996;stroke-miterlimit:4;stroke-dasharray:none;stroke-opacity:1"
       d="m 25.965983,239.35897 c -2.241212,0.061 -8.12252,1.53752 -8.3881,2.22977 -0.07882,0.20542 -0.04331,1.96253 0.07945,3.90455 l 0.223077,3.53062 -1.479084,1.14905 -1.479628,1.14896 -3.675789,-1.21824 c -2.8534907,-0.94594 -3.7768169,-1.1558 -4.1275595,-0.93823 -0.7022763,0.43579 -3.0438884,4.07009 -3.8601738,5.99073 l -0.735946,1.73018 0.1787698,0.16911 -0.026361,0.0576 0.901481,0.7721 0.4987139,0.47265 c 0.8539316,0.80925 2.1681939,2.03393 2.9204239,2.72134 l 1.3675603,1.24988 -0.1711121,1.8443 -0.1716871,1.84374 -3.5097359,1.66394 L 1,269.34493 l 0.1803102,1.2026 c 0.2713022,1.8094 1.0823247,4.73602 1.7994651,6.49282 l 0.1675613,0.41105 0.079968,0.3061 0.095727,0.12371 0.295396,0.72379 4.0222372,0.1304 3.8601102,0.12533 0.217928,0.0743 1.11045,1.36295 1.16682,1.43222 -0.991656,3.13131 c -0.545552,1.72228 -0.988732,3.42473 -0.98458,3.7833 0.006,0.4935 0.392054,0.93078 1.589147,1.79996 1.863584,1.3532 5.77584,3.41553 6.479621,3.41553 0.289562,0 1.494779,-1.08256 2.923019,-2.62556 l 2.430514,-2.62558 1.434224,0.16758 c 0.461273,0.0539 0.832696,0.0941 1.146532,0.14516 l 0.581594,0.13241 c 0.938207,0.30134 1.281101,1.01741 2.613852,3.55053 l 1.786259,3.39514 1.955776,-0.15481 c 2.056015,-0.16278 4.916134,-0.83577 6.61566,-1.5565 l 1.008954,-0.42786 -0.15991,-2.41217 c -0.08789,-1.32687 -0.183252,-3.04102 -0.21238,-3.80925 l -0.05354,-1.39704 1.550405,-1.11703 1.549887,-1.11641 3.258142,1.15577 c 1.426858,0.50605 2.819049,0.91207 3.511257,1.03741 l 0.191509,0.0631 0.01849,-0.0292 c 0.07697,0.008 0.141079,0.0125 0.182334,0.008 0.417647,-0.0496 0.996452,-0.53651 1.640527,-1.38026 1.025285,-1.34331 3.325376,-5.6655 3.325376,-6.24901 0,-0.24731 -3.866837,-3.98285 -5.547558,-5.35908 -0.110906,-0.091 -0.122835,-1.01364 -0.02652,-2.05059 l 0.175165,-1.88501 3.505724,-1.67416 L 59,265.97274 58.823186,264.85678 c -0.480861,-3.03762 -1.927032,-7.45937 -2.630634,-8.04328 -0.275906,-0.22902 -1.386124,-0.27994 -4.030259,-0.18489 l -3.649777,0.13142 -1.247904,-1.59464 -1.247323,-1.59421 0.989593,-3.12932 c 0.544491,-1.7211 0.990712,-3.42461 0.991167,-3.78582 9.52e-4,-0.52877 -0.392924,-0.92183 -2.019962,-2.0169 -2.152064,-1.44848 -5.506917,-3.194 -6.13889,-3.194 -0.209759,0 -1.510571,1.21939 -2.890972,2.71013 l -2.509948,2.71057 -0.977854,-0.21943 c -0.537723,-0.12083 -1.410908,-0.28828 -1.940598,-0.37236 -0.92856,-0.14735 -1.024555,-0.26973 -2.696341,-3.42113 -0.953483,-1.79737 -1.919865,-3.33896 -2.147218,-3.42625 -0.14472,-0.0555 -0.390432,-0.076 -0.710615,-0.0672 z m -0.12637,1.64205 0.743162,1.33035 c 0.408519,0.73156 1.236524,2.23903 1.840115,3.35035 0.758881,1.39701 1.272815,2.05442 1.666016,2.13049 0.312823,0.0605 1.594197,0.25583 2.847128,0.43342 l 2.277716,0.32291 2.546619,-2.6658 2.546119,-2.66574 2.36635,1.38533 c 1.301494,0.76208 2.643928,1.58824 2.982622,1.83556 l 0.615695,0.44979 -1.110224,3.55865 -1.109899,3.55915 0.632606,0.68502 c 0.347839,0.37696 1.132741,1.36031 1.744398,2.18501 l 1.112389,1.49947 h 3.852046 3.852062 l 0.407951,1.01915 c 0.59333,1.4829 1.526531,5.27178 1.346127,5.46506 -0.08487,0.091 -1.586999,0.86961 -3.338122,1.73019 l -3.183734,1.56466 -0.303118,2.21659 c -0.166668,1.21909 -0.313404,2.47152 -0.325965,2.78345 -0.01639,0.40637 0.786881,1.2911 2.833926,3.1206 l 2.640839,2.36024 0.180809,0.25923 -1.053833,1.9772 c -0.598773,1.12385 -1.394395,2.40936 -1.768345,2.85731 l -0.679937,0.81492 -3.6152,-1.23304 -3.615189,-1.23308 -0.667238,0.53169 c -0.367172,0.29228 -1.339829,0.97311 -2.161533,1.51323 l -1.494382,0.98204 0.01766,1.43419 c 0.0095,0.78884 0.09671,2.47858 0.194063,3.75478 l 0.17724,2.32096 -0.853084,0.35601 c -0.469132,0.19603 -1.585772,0.51846 -2.481462,0.71614 -3.226714,0.71225 -3.288293,0.71364 -3.677854,0.082 -0.196682,-0.31896 -1.024681,-1.84093 -1.840252,-3.38189 -1.08829,-2.05662 -1.635153,-2.83115 -2.056052,-2.91286 -0.315438,-0.0612 -1.579009,-0.25342 -2.807949,-0.4273 l -2.234387,-0.31633 -2.554245,2.63178 -2.553722,2.63211 -1.339531,-0.67889 c -2.059007,-1.04321 -4.599763,-2.70573 -4.599763,-3.01014 0,-0.15017 0.476796,-1.78965 1.059374,-3.64322 l 1.058918,-3.37031 -0.878112,-0.97216 c -0.483199,-0.53484 -1.265455,-1.53441 -1.738297,-2.22168 l -0.85981,-1.2499 -3.7730188,0.0718 c -3.0590956,0.0581 -3.818894,2.3e-4 -4.017073,-0.30508 -0.2729854,-0.42051 -1.4101168,-4.08472 -1.6745555,-5.3958 l -0.1712329,-0.84698 3.375314,-1.5886 3.3747707,-1.58857 0.1564104,-1.60642 c 0.085698,-0.88357 0.2309369,-2.13573 0.3228601,-2.78249 l 0.167015,-1.17548 -2.7645734,-2.47329 c -1.52075,-1.36034 -2.7651477,-2.66092 -2.7651477,-2.88992 0,-0.43862 2.3782706,-4.54664 2.9881637,-5.16154 0.3024279,-0.30474 0.9026434,-0.17008 3.9646984,0.89086 l 3.608593,1.25035 1.954226,-1.4775 c 1.074925,-0.81284 2.052285,-1.47806 2.171196,-1.47806 0.118925,0 0.132535,-1.75202 0.03053,-3.8933 l -0.185446,-3.89327 1.795882,-0.53529 c 0.987729,-0.29453 2.471992,-0.63758 3.298399,-0.762 z m 24.597381,43.77241 0.03224,0.0108 -0.0094,-0.004 z m -20.27164,3.83219 c 0.0029,0.004 0.0049,0.008 0.0077,0.0122 z"
       id="path2405-2-9-0"
       inkscape:connector-curvature="0" />
    <path
       style="fill:#275a94;fill-opacity:1;fill-rule:evenodd;stroke:none;stroke-width:0.26077488;stroke-opacity:1"
       d="m 30.047397,252.36937 c -7.064166,-0.008 -12.92401,4.42584 -14.985287,11.34059 -0.631236,2.1173 -0.631697,6.22908 -0.0013,8.33108 1.018279,3.3943 2.977489,6.2659 5.630524,8.25215 1.899943,1.4223 3.075287,1.99825 5.31177,2.60361 2.46966,0.66836 6.55888,0.55287 9.089906,-0.25676 3.571749,-1.14234 7.087523,-4.16844 8.812355,-7.58534 1.225609,-2.42782 1.657886,-4.29718 1.657886,-7.17233 0,-4.43924 -1.4966,-8.07353 -4.583874,-11.13234 -2.98743,-2.95969 -6.520075,-4.37525 -10.932232,-4.38066 z m 0.203194,2.45035 c 2.924867,0.0384 5.909378,1.08402 8.477748,3.28309 2.613584,2.23776 4.395495,6.17531 4.395495,9.71289 0,5.62977 -3.764494,10.81832 -9.02883,12.44434 -4.785691,1.4781 -9.598821,0.34737 -13.0596,-3.06821 -3.350048,-3.30632 -4.799218,-8.41197 -3.572889,-12.58697 1.838588,-6.25943 7.204514,-9.85843 12.788076,-9.78514 z"
       id="path2397-7-0-2"
       inkscape:connector-curvature="0" />
  </g>
</svg>
