<?xml version="1.0" encoding="UTF-8" standalone="no"?>
<!-- Created with Inkscape (http://www.inkscape.org/) -->

<svg
   xmlns:dc="http://purl.org/dc/elements/1.1/"
   xmlns:cc="http://creativecommons.org/ns#"
   xmlns:rdf="http://www.w3.org/1999/02/22-rdf-syntax-ns#"
   xmlns:svg="http://www.w3.org/2000/svg"
   xmlns="http://www.w3.org/2000/svg"
   xmlns:sodipodi="http://sodipodi.sourceforge.net/DTD/sodipodi-0.dtd"
   xmlns:inkscape="http://www.inkscape.org/namespaces/inkscape"
   width="59.5mm"
   height="58mm"
   viewBox="0 0 59.499998 58"
   version="1.1"
   id="svg2684"
   inkscape:version="0.92.3 (2405546, 2018-03-11)"
   sodipodi:docname="engrenagem-quebra-cabeca-encaixada.svg">
  <defs
     id="defs2678" />
  <sodipodi:namedview
     id="base"
     pagecolor="#ffffff"
     bordercolor="#666666"
     borderopacity="1.0"
     inkscape:pageopacity="0.0"
     inkscape:pageshadow="2"
     inkscape:zoom="2.8"
     inkscape:cx="138.22584"
     inkscape:cy="127.77205"
     inkscape:document-units="mm"
     inkscape:current-layer="layer1"
     showgrid="false"
     units="mm"
     inkscape:window-width="1920"
     inkscape:window-height="1001"
     inkscape:window-x="-9"
     inkscape:window-y="-9"
     inkscape:window-maximized="1" />
  <metadata
     id="metadata2681">
    <rdf:RDF>
      <cc:Work
         rdf:about="">
        <dc:format>image/svg+xml</dc:format>
        <dc:type
           rdf:resource="http://purl.org/dc/dcmitype/StillImage" />
        <dc:title></dc:title>
      </cc:Work>
    </rdf:RDF>
  </metadata>
  <g
     inkscape:label="Camada 1"
     inkscape:groupmode="layer"
     id="layer1"
     transform="translate(0,-238.99998)">
    <path
       id="path2188"
       style="fill:#e73135;fill-opacity:1;stroke-width:0.3331154"
       d="m 25.520455,268.65336 c -0.128449,-0.12847 -0.233579,-0.56136 -0.233579,-0.96196 0,-0.67331 -0.125918,-0.71626 -1.665578,-0.56833 -1.501517,0.14428 -1.665577,0.0938 -1.665577,-0.51246 0,-0.44393 0.290177,-0.74532 0.853808,-0.88679 0.692548,-0.17382 0.834088,-0.38508 0.749509,-1.11874 -0.07428,-0.64422 -0.319924,-0.93507 -0.853807,-1.01089 -1.057842,-0.15024 -0.987121,-1.31873 0.104964,-1.73393 1.39782,-0.53145 2.086735,-0.3987 2.203659,0.42464 0.07586,0.53386 0.366693,0.77951 1.010905,0.85379 0.733653,0.0846 0.944915,-0.0569 1.118735,-0.74951 0.216492,-0.86252 0.68262,-1.01246 2.026675,-0.65189 1.055809,0.28324 1.247684,1.42913 0.29967,1.78956 -1.366007,0.51935 -1.36071,1.82894 0.0097,2.34991 0.541245,0.20577 0.726425,0.47053 0.585616,0.83739 -0.157196,0.40968 -0.567162,0.51061 -1.734499,0.42706 -1.433228,-0.10261 -1.529165,-0.0578 -1.536628,0.71742 -0.0077,0.80193 -0.782588,1.28553 -1.2734,0.79473 z m 7.942675,-1.07486 c -0.219533,-0.69168 0.588506,-1.56057 1.136388,-1.22196 0.191239,0.11822 0.347706,0.5808 0.347706,1.02803 0,0.48123 0.193523,0.81312 0.474142,0.81312 0.405392,0 0.402334,-0.14394 -0.02109,-0.99272 -0.272379,-0.546 -0.622117,-1.07115 -0.777195,-1.16698 -0.537556,-0.33223 -1.296529,0.21917 -1.633938,1.18706 -0.277502,0.79604 -0.247412,0.97264 0.165728,0.97264 0.340417,0 0.440798,-0.20163 0.308264,-0.61919 z m -2.989181,5.42557 c -0.727491,-0.72748 -0.655338,-1.10845 0.276986,-1.46293 0.440211,-0.16737 0.890417,-0.44993 1.000411,-0.62791 0.34784,-0.56283 -0.17835,-1.38119 -1.024696,-1.59361 -0.537448,-0.13489 -0.752274,-0.37058 -0.629454,-0.6906 0.102534,-0.2672 0.186411,-0.5485 0.186411,-0.62513 0,-0.0767 0.412229,-0.15425 0.916067,-0.17252 l 1.612172,0.041 -1.528892,-0.313 c -0.659769,-0.18919 -0.81287,-0.42452 -0.736919,-1.1327 0.08058,-0.75093 -0.03362,-0.89391 -0.713867,-0.89391 -0.83059,0 -1.228063,-0.51148 -0.970764,-1.24917 0.07991,-0.22901 0.513198,-0.41639 0.962903,-0.41639 0.689616,0 0.802608,-0.14061 0.721728,-0.89805 -0.0928,-0.86937 -0.0471,-0.89525 1.43193,-0.81097 1.40715,0.0802 1.525549,0.0261 1.499033,-0.68427 -0.02082,-0.55729 0.179176,-0.80086 0.720715,-0.87776 0.616079,-0.0875 0.749511,0.0512 0.749511,0.77951 0,0.85076 0.06287,0.88146 1.582298,0.77268 1.510909,-0.10814 1.587055,-0.0719 1.687702,0.80278 0.08199,0.71257 0.281127,0.91608 0.896411,0.91608 0.435049,0 0.887702,0.15645 1.005895,0.3477 0.331204,0.5359 -0.529434,1.35618 -1.199699,1.14345 -0.478636,-0.15192 -0.617862,0.0256 -0.702479,0.89545 -0.08065,0.82921 -0.30182,1.13906 -0.938321,1.31465 l -1.617431,0.23752 1.70071,0.0254 c 1.14625,0.0415 1.256472,1.05834 0.166558,1.5365 -1.051985,0.46153 -1.038054,1.95351 0.01965,2.10343 0.616781,0.0874 0.74876,0.2854 0.666231,0.99935 -0.09095,0.78682 -0.26453,0.90209 -1.493146,0.99151 -1.233451,0.0898 -1.402497,0.0146 -1.49902,-0.66623 -0.149718,-1.05609 -1.642153,-1.06879 -2.103202,-0.0179 -0.392717,0.89514 -1.851656,1.01981 -2.645403,0.22605 z m -5.187073,0.6857 c 0,-0.84739 -0.06456,-0.87892 -1.582299,-0.77267 -1.522337,0.10651 -1.586395,0.0748 -1.690827,-0.83755 -0.08498,-0.74276 -0.244807,-0.91267 -0.737251,-0.7839 -0.345807,0.0904 -0.802509,-0.045 -1.014903,-0.30086 -0.522291,-0.62934 0.22995,-1.55133 1.052678,-1.29021 0.479719,0.15226 0.617663,-0.0261 0.702474,-0.90855 0.09824,-1.02195 0.197837,-1.10478 1.437992,-1.19568 1.119735,-0.0821 1.385661,0.0243 1.665578,0.66624 0.431851,0.99028 1.566875,0.99025 1.998692,-5e-5 0.270657,-0.62072 0.551706,-0.74563 1.49902,-0.66624 1.105709,0.0927 1.160308,0.15519 1.057242,1.21085 -0.09477,0.97062 -0.02631,1.08694 0.535915,0.90855 0.716131,-0.22729 1.594224,0.56703 1.247351,1.12833 -0.118185,0.19123 -0.591547,0.3477 -1.051878,0.3477 -0.716932,0 -0.821597,0.13137 -0.729856,0.91607 0.104662,0.89487 0.07175,0.91355 -1.421071,0.80735 -1.415441,-0.10072 -1.526035,-0.0515 -1.499019,0.66624 0.02099,0.56119 -0.177551,0.8043 -0.720329,0.88139 -0.61563,0.0874 -0.749509,-0.0514 -0.749509,-0.77701 z"
       inkscape:connector-curvature="0"
       sodipodi:nodetypes="cscscccccccccccscccccssccsscccccccsccccscscsccsccscsccccscccscccscccccccccccccscccss" />
    <path
       style="fill:#275a94;fill-opacity:1;fill-rule:evenodd;stroke:none;stroke-width:0.10431013;stroke-miterlimit:4;stroke-dasharray:none;stroke-opacity:1"
       d="m 25.966281,239.35887 c -2.241184,0.0609 -8.122507,1.53754 -8.38811,2.22979 -0.07882,0.20543 -0.04332,1.96255 0.07946,3.90453 l 0.2231,3.53064 -1.479091,1.14904 -1.479636,1.14897 -3.675822,-1.21822 c -2.853493,-0.94594 -3.7767983,-1.15585 -4.1275761,-0.93823 -0.7022631,0.43579 -3.0438457,4.07007 -3.8601407,5.99072 l -0.7359356,1.73019 0.1787429,0.16914 -0.026616,0.0575 0.9014966,0.7721 0.4987113,0.47261 c 0.8539208,0.80931 2.1681741,2.03395 2.920409,2.72138 l 1.3675955,1.24986 -0.1711511,1.8443 -0.1716584,1.84373 L 4.5103162,267.6809 1,269.34489 l 0.1803356,1.20259 c 0.2712632,1.80941 1.0822992,4.73605 1.7994528,6.49288 l 0.1675704,0.41101 0.07996,0.30612 0.095685,0.12376 0.2954464,0.72376 4.0222068,0.13042 3.860164,0.12527 0.217911,0.0743 1.11041,1.36293 1.166853,1.43224 -0.991657,3.13132 c -0.545567,1.72226 -0.988714,3.42476 -0.984593,3.78331 0.0062,0.4935 0.392047,0.93081 1.589144,1.79998 1.863596,1.35315 5.775854,3.41554 6.479656,3.41554 0.289565,0 1.494756,-1.08255 2.923042,-2.62558 l 2.430506,-2.62558 1.434229,0.16756 c 0.461245,0.0539 0.832679,0.0942 1.146543,0.14517 l 0.581576,0.13243 c 0.938217,0.30134 1.281092,1.01738 2.613865,3.5505 l 1.786261,3.39517 1.955785,-0.1548 c 2.055998,-0.16278 4.916107,-0.83577 6.615646,-1.55652 l 1.008956,-0.42785 -0.159892,-2.41217 c -0.08788,-1.32692 -0.183274,-3.04105 -0.212407,-3.80929 l -0.05351,-1.39703 1.550395,-1.11702 1.549877,-1.11643 3.258162,1.15577 c 1.426864,0.50608 2.819056,0.91212 3.511287,1.03743 l 0.191514,0.0632 0.01858,-0.0292 c 0.07695,0.009 0.141068,0.0127 0.182331,0.008 0.417643,-0.0496 0.996422,-0.53649 1.640513,-1.38025 1.025316,-1.34333 3.325365,-5.6655 3.325365,-6.24904 0,-0.24731 -3.866791,-3.98287 -5.547514,-5.35908 -0.11092,-0.0909 -0.122855,-1.01365 -0.02678,-2.05058 l 0.175197,-1.88501 3.505745,-1.67417 L 59,265.97186 58.823175,264.85592 c -0.480845,-3.03764 -1.927032,-7.45939 -2.630632,-8.04333 -0.27588,-0.22898 -1.386124,-0.27992 -4.030237,-0.18489 l -3.649813,0.13145 -1.247913,-1.59463 -1.247321,-1.59426 0.989616,-3.12928 c 0.544501,-1.72111 0.990708,-3.42466 0.991182,-3.78582 9.98e-4,-0.52879 -0.392934,-0.92185 -2.020013,-2.01693 -2.152059,-1.44852 -5.506887,-3.19403 -6.138871,-3.19403 -0.20975,0 -1.510588,1.21943 -2.890996,2.71016 l -2.509931,2.71055 -0.977871,-0.21943 c -0.537742,-0.12087 -1.410894,-0.28826 -1.940591,-0.37233 -0.928586,-0.14734 -1.02456,-0.26974 -2.696339,-3.42117 -0.953507,-1.79735 -1.919874,-3.33894 -2.147252,-3.42626 -0.144715,-0.0554 -0.390418,-0.0759 -0.710589,-0.0672 z m -0.126361,1.64208 0.743147,1.33033 c 0.408533,0.73152 1.236552,2.23902 1.840153,3.35037 0.75885,1.39701 1.272782,2.05441 1.666017,2.13049 0.312809,0.0606 1.5942,0.25582 2.847121,0.43344 l 2.277701,0.32291 2.546648,-2.66587 2.546121,-2.66573 2.366349,1.38533 c 1.301505,0.76213 2.643917,1.58827 2.982642,1.83562 l 0.615687,0.44974 -1.110233,3.5587 -1.109921,3.55914 0.632623,0.68505 c 0.347832,0.37695 1.132748,1.36028 1.744425,2.18497 l 1.112382,1.49951 h 3.852051 3.852036 l 0.407954,1.01915 c 0.593375,1.48287 1.526574,5.27177 1.346155,5.46506 -0.08485,0.091 -1.586991,0.86959 -3.338116,1.73017 l -3.183763,1.56468 -0.303096,2.21658 c -0.166691,1.21908 -0.313404,2.47153 -0.325967,2.78349 -0.01642,0.40632 0.786866,1.2911 2.833904,3.12055 l 2.640855,2.36029 0.180829,0.25922 -1.053831,1.9772 c -0.598779,1.12384 -1.394405,2.40938 -1.76839,2.8573 l -0.679902,0.81495 -3.615218,-1.23307 -3.615203,-1.23306 -0.667246,0.53166 c -0.367154,0.29232 -1.33983,0.97315 -2.161529,1.51323 l -1.494373,0.98204 0.01773,1.43422 c 0.0097,0.78885 0.09672,2.47854 0.194046,3.75475 l 0.177261,2.321 -0.853089,0.35604 c -0.469119,0.19597 -1.5858,0.51846 -2.481459,0.7161 -3.226717,0.71228 -3.288337,0.71364 -3.677863,0.082 -0.196671,-0.31896 -1.024696,-1.84092 -1.840242,-3.3819 -1.088299,-2.05662 -1.635164,-2.83112 -2.056092,-2.91285 -0.315414,-0.0612 -1.578984,-0.25343 -2.80792,-0.4273 l -2.234411,-0.31633 -2.55426,2.63175 -2.553743,2.63212 -1.33952,-0.67887 c -2.059014,-1.04323 -4.599783,-2.70574 -4.599783,-3.01014 0,-0.15018 0.476803,-1.78964 1.059405,-3.64325 l 1.058908,-3.37026 -0.878093,-0.97222 C 14.5956,279.80442 13.81335,278.80487 13.34048,278.11758 l -0.859792,-1.24989 -3.7730554,0.0718 c -3.0590585,0.0582 -3.8188575,2.3e-4 -4.0170623,-0.30504 -0.2729704,-0.42055 -1.4100937,-4.08477 -1.6745771,-5.39584 l -0.1711988,-0.84699 3.3753026,-1.58861 3.3747663,-1.58856 0.1564167,-1.60643 c 0.085701,-0.88357 0.2309293,-2.13573 0.322885,-2.78249 l 0.166996,-1.17548 -2.7645795,-2.47328 c -1.5207312,-1.36035 -2.7651581,-2.66094 -2.7651581,-2.88995 0,-0.43861 2.3782616,-4.54664 2.9881996,-5.16154 0.3024151,-0.30471 0.9026197,-0.17008 3.964673,0.89085 l 3.608602,1.2504 1.954234,-1.47752 c 1.074956,-0.81286 2.052288,-1.47809 2.171227,-1.47809 0.118902,0 0.132499,-1.75203 0.03058,-3.89329 l -0.185445,-3.89328 1.795872,-0.53532 c 0.987733,-0.29452 2.471999,-0.63757 3.298392,-0.76197 z m 24.597414,43.77247 0.03238,0.0113 -0.0094,-0.004 z m -20.271693,3.83223 c 0.003,0.004 0.0052,0.009 0.0078,0.0126 z"
       id="path2405-2-9-0-5"
       inkscape:connector-curvature="0" />
    <path
       style="fill:#275a94;fill-opacity:1;fill-rule:evenodd;stroke:none;stroke-width:0.26077548;stroke-opacity:1"
       d="m 30.047721,252.36933 c -7.064179,-0.009 -12.924066,4.42581 -14.985347,11.34059 -0.63122,2.11729 -0.631677,6.2291 -0.0014,8.33109 1.018258,3.39432 2.977479,6.26594 5.630547,8.25214 1.899914,1.42235 3.075278,1.99829 5.311742,2.60363 2.469685,0.66839 6.558909,0.5529 9.089952,-0.25678 3.571737,-1.14233 7.08754,-4.16843 8.812352,-7.58531 1.225616,-2.42783 1.657916,-4.29722 1.657916,-7.17234 0,-4.43927 -1.496615,-8.07354 -4.583895,-11.13239 -2.987453,-2.95967 -6.520112,-4.37523 -10.932243,-4.38063 z m 0.203191,2.45031 c 2.924843,0.0384 5.909412,1.08402 8.477739,3.2831 2.613583,2.23776 4.395498,6.17533 4.395498,9.7129 0,5.6298 -3.764478,10.81835 -9.028805,12.4444 -4.785734,1.4781 -9.598831,0.34738 -13.059631,-3.06822 -3.350076,-3.30632 -4.799251,-8.41199 -3.572903,-12.587 1.83859,-6.25945 7.2045,-9.85845 12.788102,-9.78518 z"
       id="path2397-7-0-2-8"
       inkscape:connector-curvature="0" />
  </g>
</svg>
