<?xml version="1.0" encoding="UTF-8" standalone="no"?>
<!-- Created with Inkscape (http://www.inkscape.org/) -->

<svg
   xmlns:dc="http://purl.org/dc/elements/1.1/"
   xmlns:cc="http://creativecommons.org/ns#"
   xmlns:rdf="http://www.w3.org/1999/02/22-rdf-syntax-ns#"
   xmlns:svg="http://www.w3.org/2000/svg"
   xmlns="http://www.w3.org/2000/svg"
   xmlns:sodipodi="http://sodipodi.sourceforge.net/DTD/sodipodi-0.dtd"
   xmlns:inkscape="http://www.inkscape.org/namespaces/inkscape"
   width="59.5mm"
   height="58mm"
   viewBox="0 0 59.499998 58"
   version="1.1"
   id="svg2684"
   inkscape:version="0.92.3 (2405546, 2018-03-11)"
   sodipodi:docname="engrenagem-cinema.svg">
  <defs
     id="defs2678" />
  <sodipodi:namedview
     id="base"
     pagecolor="#ffffff"
     bordercolor="#666666"
     borderopacity="1.0"
     inkscape:pageopacity="0.0"
     inkscape:pageshadow="2"
     inkscape:zoom="2.8"
     inkscape:cx="138.22584"
     inkscape:cy="127.77205"
     inkscape:document-units="mm"
     inkscape:current-layer="layer1"
     showgrid="false"
     units="mm"
     inkscape:window-width="1920"
     inkscape:window-height="1001"
     inkscape:window-x="-9"
     inkscape:window-y="-9"
     inkscape:window-maximized="1" />
  <metadata
     id="metadata2681">
    <rdf:RDF>
      <cc:Work
         rdf:about="">
        <dc:format>image/svg+xml</dc:format>
        <dc:type
           rdf:resource="http://purl.org/dc/dcmitype/StillImage" />
        <dc:title></dc:title>
      </cc:Work>
    </rdf:RDF>
  </metadata>
  <g
     inkscape:label="Camada 1"
     inkscape:groupmode="layer"
     id="layer1"
     transform="translate(0,-238.99998)">
    <path
       id="path2298"
       style="fill:#e73135;fill-opacity:1;stroke-width:0.40697771"
       d="m 33.770246,262.84463 c -0.446007,-1.66514 -0.301977,-1.95495 0.971497,-1.95495 1.223132,0 1.463737,0.25952 1.697546,1.83139 0.09604,0.64584 -0.141144,0.83948 -1.148451,0.93752 -1.034212,0.1006 -1.316044,-0.0503 -1.520592,-0.81396 z m -3.52813,0.66391 c -0.563013,-1.48091 -0.510309,-1.6796 0.518816,-1.95537 1.381486,-0.37022 1.412904,-0.35301 1.898184,1.03909 0.348373,0.9993 0.334211,1.37026 -0.0619,1.62169 -0.986962,0.62654 -1.959395,0.33527 -2.3551,-0.70541 z m -3.579654,0.26457 c -0.478809,-1.37346 -0.301041,-1.6625 1.022287,-1.6625 0.655682,0 1.08541,0.33066 1.35658,1.04394 0.599722,1.57736 0.500866,1.8049 -0.784206,1.8049 -0.938775,0 -1.265945,-0.24342 -1.594661,-1.18634 z m 7.659525,8.37655 c 0,-0.42596 -0.50213,-0.47378 -2.340122,-0.22282 -1.378149,0.18818 -2.39425,0.16506 -2.471821,-0.0562 -0.07245,-0.20667 -0.942356,-0.26466 -1.933143,-0.1289 -1.218248,0.16699 -1.801447,0.0972 -1.801447,-0.21537 0,-0.25428 0.512792,-0.46229 1.139537,-0.46229 0.626747,0 1.371637,-0.22893 1.655301,-0.50872 0.413001,-0.40737 0.611688,-0.38455 0.997095,0.11444 0.640014,0.82865 4.7546,0.60754 4.7546,-0.25551 0,-0.45564 -0.905566,-0.57119 -4.476756,-0.57119 h -4.476754 v 1.42442 1.42444 h 4.476754 c 3.458131,0 4.476756,-0.12352 4.476756,-0.54238 z m -10.971755,1.38746 c -0.526222,-0.98326 -0.439739,-9.7969 0.103166,-10.51081 0.623449,-0.8199 1.798801,-0.58833 2.065535,0.40697 0.391635,1.46143 0.303199,1.86123 -0.455693,2.05957 -0.511774,0.13382 -0.4421,0.19941 0.247606,0.23335 0.813751,0.0398 0.920949,0.20203 0.704477,1.06466 -0.184442,0.73476 -0.09149,1.01744 0.334537,1.01744 0.324442,0 0.648436,-0.41207 0.719943,-0.91571 0.09312,-0.65563 0.447919,-0.95229 1.249259,-1.0445 0.97174,-0.11183 1.119189,0.0138 1.119189,0.94964 0,1.29688 0.953141,1.18019 1.147474,-0.14059 0.09955,-0.67644 0.409866,-0.88379 1.322676,-0.88379 1.011096,0 1.192649,0.16002 1.192649,1.05135 0,1.27494 0.955788,1.13538 1.147475,-0.16756 0.09995,-0.67917 0.409499,-0.88379 1.336921,-0.88379 h 1.206893 l -0.115995,4.17152 -0.115994,4.17153 -6.390119,0.11198 c -6.006667,0.10521 -6.415882,0.0638 -6.820013,-0.6913 z"
       inkscape:connector-curvature="0" />
    <path
       style="fill:#275a94;fill-opacity:1;fill-rule:evenodd;stroke:none;stroke-width:0.10430986;stroke-miterlimit:4;stroke-dasharray:none;stroke-opacity:1"
       d="m 25.966152,239.35912 c -2.241195,0.0609 -8.122491,1.53752 -8.388089,2.22977 -0.07882,0.20544 -0.04331,1.96257 0.07943,3.90454 l 0.223129,3.53062 -1.479082,1.14904 -1.479653,1.14896 -3.675795,-1.21822 c -2.8535011,-0.94594 -3.7767989,-1.15584 -4.1275648,-0.9382 -0.7022562,0.43576 -3.0438555,4.07006 -3.8601511,5.99064 l -0.7359013,1.73021 0.1787203,0.16918 -0.026535,0.0575 0.9014965,0.77209 0.4987186,0.47256 c 0.8538956,0.80935 2.1681135,2.03399 2.9203745,2.72143 l 1.3675913,1.24982 -0.1711829,1.8443 -0.1716136,1.84371 -3.5097398,1.66401 L 1,269.34506 l 0.1803277,1.20258 c 0.2712629,1.80941 1.0823085,4.73604 1.7994726,6.49286 l 0.1675568,0.41097 0.079975,0.30618 0.095644,0.12367 0.2954659,0.72373 4.0221898,0.13043 3.8601962,0.12521 0.217899,0.0743 1.11037,1.36293 1.166862,1.43225 -0.991646,3.13131 c -0.54557,1.72222 -0.988695,3.42479 -0.984629,3.78329 0.0063,0.49348 0.392081,0.93083 1.589159,1.79998 1.863599,1.35311 5.775864,3.41554 6.479666,3.41554 0.289577,0 1.494732,-1.08254 2.923012,-2.62556 l 2.430533,-2.62557 1.434214,0.16756 c 0.461199,0.0538 0.832668,0.0941 1.146529,0.1452 l 0.581575,0.13244 c 0.938235,0.30131 1.281076,1.01734 2.613905,3.55046 l 1.786237,3.39516 1.95576,-0.1548 c 2.055995,-0.16276 4.9161,-0.83576 6.615611,-1.55654 l 1.008975,-0.42784 -0.159885,-2.41215 c -0.08791,-1.32695 -0.183299,-3.04107 -0.212414,-3.8093 l -0.05353,-1.39702 1.550399,-1.11697 1.549852,-1.11648 3.258174,1.15578 c 1.426861,0.50609 2.819051,0.91213 3.511263,1.03744 l 0.191514,0.0631 0.01869,-0.0292 c 0.07696,0.009 0.141067,0.0123 0.182338,0.008 0.417661,-0.0495 0.996403,-0.53647 1.640507,-1.38027 1.025331,-1.34328 3.325359,-5.66547 3.325359,-6.24899 0,-0.2473 -3.866789,-3.98288 -5.547502,-5.35908 -0.110934,-0.0909 -0.122871,-1.01362 -0.02673,-2.05054 l 0.175241,-1.88501 3.505734,-1.67419 L 59,265.97194 58.823147,264.85601 c -0.480799,-3.03762 -1.92701,-7.45938 -2.630646,-8.04333 -0.275842,-0.22899 -1.386114,-0.27992 -4.030187,-0.18488 l -3.649773,0.13152 -1.247951,-1.5947 -1.247293,-1.59422 0.989605,-3.12923 c 0.544508,-1.72116 0.990755,-3.42469 0.991187,-3.78586 0.0012,-0.52878 -0.392936,-0.92182 -2.020025,-2.01693 -2.152038,-1.44852 -5.50687,-3.19399 -6.138833,-3.19399 -0.209772,0 -1.510641,1.2194 -2.891043,2.71013 l -2.509873,2.71052 -0.977874,-0.21937 c -0.53774,-0.1209 -1.41089,-0.28831 -1.940539,-0.37238 -0.928626,-0.14736 -1.024599,-0.26975 -2.696369,-3.42114 -0.95353,-1.79737 -1.919866,-3.33898 -2.147248,-3.42624 -0.144743,-0.0554 -0.390434,-0.076 -0.710575,-0.0672 z m -0.126362,1.64206 0.743129,1.33033 c 0.408532,0.73156 1.236613,2.23905 1.840154,3.35039 0.75883,1.39698 1.272782,2.05437 1.666016,2.13045 0.312798,0.0606 1.594181,0.25581 2.847134,0.43346 l 2.27766,0.32291 2.546679,-2.66587 2.546097,-2.66571 2.366333,1.38531 c 1.301498,0.76212 2.643907,1.58826 2.98265,1.8356 l 0.615667,0.44977 -1.110252,3.55869 -1.109888,3.55913 0.632613,0.68503 c 0.347837,0.37695 1.132734,1.36028 1.744434,2.18496 l 1.112384,1.4995 h 3.852028 3.852032 l 0.407942,1.01917 c 0.593374,1.48285 1.526565,5.27177 1.346132,5.46506 -0.08482,0.0911 -1.586949,0.86956 -3.338085,1.73015 l -3.183741,1.56468 -0.303098,2.21657 c -0.166693,1.21907 -0.313437,2.47152 -0.325927,2.78348 -0.0164,0.40631 0.786822,1.29109 2.833843,3.12053 l 2.640822,2.36031 0.180876,0.25922 -1.053836,1.97721 c -0.598807,1.12383 -1.394371,2.40936 -1.768391,2.85728 l -0.679905,0.81493 -3.615183,-1.23305 -3.615212,-1.23306 -0.667244,0.53166 c -0.367155,0.2923 -1.339833,0.97313 -2.161545,1.51322 l -1.49434,0.98204 0.01778,1.43419 c 0.0097,0.78885 0.09674,2.47852 0.194056,3.75476 l 0.177266,2.321 -0.85309,0.35603 c -0.469119,0.19598 -1.585797,0.5185 -2.481421,0.71608 -3.226734,0.71229 -3.288363,0.71368 -3.677882,0.082 -0.19666,-0.31896 -1.024693,-1.84093 -1.840247,-3.3819 -1.088279,-2.05656 -1.635168,-2.83109 -2.056081,-2.91284 -0.315411,-0.0612 -1.578984,-0.25343 -2.807897,-0.42731 l -2.234398,-0.31634 -2.554282,2.63175 -2.553729,2.63211 -1.339521,-0.67886 c -2.059006,-1.04323 -4.599785,-2.70572 -4.599785,-3.0101 0,-0.15013 0.476835,-1.78965 1.059417,-3.64325 l 1.058919,-3.37025 -0.878099,-0.97223 c -0.483154,-0.53484 -1.265474,-1.5344 -1.738325,-2.22166 l -0.859794,-1.24989 -3.7730462,0.0718 c -3.0590396,0.0581 -3.8188346,2.5e-4 -4.0170603,-0.30504 -0.2729524,-0.42055 -1.4100889,-4.08478 -1.6745635,-5.39584 l -0.1711423,-0.847 3.3752294,-1.5886 3.3747733,-1.58858 0.1564133,-1.60637 c 0.085692,-0.88361 0.2309352,-2.13575 0.3228973,-2.78251 l 0.166979,-1.17548 -2.7645715,-2.47328 c -1.5207221,-1.36034 -2.7651619,-2.6609 -2.7651619,-2.88991 0,-0.43863 2.3782795,-4.54664 2.9882047,-5.16157 0.3024254,-0.30469 0.9026169,-0.17008 3.9646687,0.89088 l 3.60859,1.25039 1.95423,-1.47752 c 1.074945,-0.81285 2.052278,-1.47808 2.171209,-1.47808 0.118901,0 0.132484,-1.75202 0.03032,-3.89328 l -0.185475,-3.89324 1.795886,-0.53535 c 0.987694,-0.29453 2.471979,-0.63758 3.298367,-0.76197 z m 24.597331,43.77237 0.03223,0.0108 -0.0094,-0.005 z m -20.271642,3.83221 c 0.0037,0.005 0.0051,0.009 0.008,0.0123 z"
       id="path2405-2-9-0-55"
       inkscape:connector-curvature="0" />
    <path
       style="fill:#275a94;fill-opacity:1;fill-rule:evenodd;stroke:none;stroke-width:0.26077482;stroke-opacity:1"
       d="m 30.047568,252.36956 c -7.064128,-0.009 -12.924029,4.42578 -14.985314,11.34053 -0.631198,2.1173 -0.631655,6.22909 -0.0017,8.33111 1.018258,3.39428 2.977432,6.26592 5.630532,8.25209 1.899869,1.42235 3.075262,1.99829 5.311702,2.60364 2.469668,0.66839 6.558915,0.55289 9.089913,-0.25678 3.571707,-1.14233 7.087522,-4.16846 8.812378,-7.58529 1.225602,-2.42783 1.657861,-4.29724 1.657861,-7.17234 0,-4.43924 -1.496574,-8.07351 -4.583872,-11.13237 -2.987472,-2.95964 -6.520056,-4.37521 -10.932191,-4.38059 z m 0.203225,2.45028 c 2.924815,0.0383 5.909349,1.08402 8.477681,3.28309 2.613586,2.23779 4.395533,6.17534 4.395533,9.71288 0,5.62977 -3.764503,10.81831 -9.028808,12.44438 -4.78575,1.47811 -9.598831,0.34737 -13.059604,-3.06821 -3.350058,-3.30631 -4.799256,-8.41199 -3.57289,-12.58693 1.838584,-6.25948 7.204483,-9.85848 12.788088,-9.78521 z"
       id="path2397-7-0-2-53"
       inkscape:connector-curvature="0" />
  </g>
</svg>
