<?xml version="1.0" encoding="UTF-8" standalone="no"?>
<!-- Created with Inkscape (http://www.inkscape.org/) -->

<svg
   xmlns:dc="http://purl.org/dc/elements/1.1/"
   xmlns:cc="http://creativecommons.org/ns#"
   xmlns:rdf="http://www.w3.org/1999/02/22-rdf-syntax-ns#"
   xmlns:svg="http://www.w3.org/2000/svg"
   xmlns="http://www.w3.org/2000/svg"
   xmlns:sodipodi="http://sodipodi.sourceforge.net/DTD/sodipodi-0.dtd"
   xmlns:inkscape="http://www.inkscape.org/namespaces/inkscape"
   width="59.5mm"
   height="58mm"
   viewBox="0 0 59.499998 58"
   version="1.1"
   id="svg2684"
   inkscape:version="0.92.3 (2405546, 2018-03-11)"
   sodipodi:docname="engrenagem-trofeu.svg">
  <defs
     id="defs2678" />
  <sodipodi:namedview
     id="base"
     pagecolor="#ffffff"
     bordercolor="#666666"
     borderopacity="1.0"
     inkscape:pageopacity="0.0"
     inkscape:pageshadow="2"
     inkscape:zoom="1.979899"
     inkscape:cx="234.61526"
     inkscape:cy="131.27956"
     inkscape:document-units="mm"
     inkscape:current-layer="layer1"
     showgrid="false"
     units="mm"
     inkscape:window-width="1920"
     inkscape:window-height="1001"
     inkscape:window-x="-9"
     inkscape:window-y="-9"
     inkscape:window-maximized="1" />
  <metadata
     id="metadata2681">
    <rdf:RDF>
      <cc:Work
         rdf:about="">
        <dc:format>image/svg+xml</dc:format>
        <dc:type
           rdf:resource="http://purl.org/dc/dcmitype/StillImage" />
        <dc:title></dc:title>
      </cc:Work>
    </rdf:RDF>
  </metadata>
  <g
     inkscape:label="Camada 1"
     inkscape:groupmode="layer"
     id="layer1"
     transform="translate(0,-238.99998)">
    <path
       id="path2316"
       style="fill:#e73135;fill-opacity:1;stroke-width:0.36213857"
       d="m 30.545586,265.8271 c -0.124323,-0.32409 -0.04039,-0.81302 0.186654,-1.08654 0.319545,-0.38499 0.286883,-0.49733 -0.144647,-0.49733 -0.306556,0 -0.652415,-0.20369 -0.768615,-0.45264 -0.168995,-0.36206 -0.2535,-0.36206 -0.422484,0 -0.116135,0.24895 -0.462065,0.45264 -0.76863,0.45264 -0.446919,0 -0.470646,0.10489 -0.119726,0.52735 0.240702,0.29002 0.321734,0.715 0.180059,0.94413 -0.176779,0.28616 -0.02569,0.34332 0.481536,0.18222 0.406533,-0.12884 0.843964,-0.0638 0.972083,0.14227 0.365849,0.59209 0.65418,0.44039 0.403748,-0.2121 z m -6.482355,0.12784 c -0.82202,-1.77443 -1.698259,-2.26979 -1.698259,-0.96 0,0.69922 2.030216,3.13255 2.348253,2.81454 0.07861,-0.0779 -0.213885,-0.91312 -0.649994,-1.85454 z m 12.476405,1.33137 c 0.74897,-0.38102 1.759411,-2.05567 1.759411,-2.91648 0,-0.0692 -0.537883,-0.12676 -1.195318,-0.12676 -1.180851,0 -1.62235,0.53517 -3.094271,3.75002 -0.165287,0.36098 1.155855,-0.006 2.530178,-0.70657 z m -7.48206,6.64368 c -0.130222,-0.44804 -0.801521,-1.65376 -1.491709,-2.67927 -0.983746,-1.46161 -1.522426,-1.91444 -2.492962,-2.09671 -2.421319,-0.4542 -4.518635,-3.0645 -4.518635,-5.62385 0,-1.01348 0.09772,-1.09789 1.267495,-1.09789 1.260785,0 1.267479,-0.006 1.267479,-1.62976 v -1.62947 h 6.518482 6.518493 v 1.62947 1.62976 h 1.8107 1.8107 v 1.30322 c 0,2.99121 -2.073959,5.20756 -5.149643,5.50302 -1.595355,0.15332 -1.915608,0.33546 -2.843262,1.6159 -0.574969,0.7937 -1.244514,1.99378 -1.487869,2.66681 -0.515502,1.42567 -0.878117,1.5483 -1.209269,0.40877 z m -1.260524,4.1302 c 0,-1.40339 2.541503,-2.45584 3.838772,-1.5896 0.58157,0.38845 1.243334,1.76275 0.976997,2.0291 -0.125768,0.125 -1.260789,0.22881 -2.52224,0.22881 -1.987881,0 -2.293529,-0.0905 -2.293529,-0.66831 z"
       inkscape:connector-curvature="0" />
    <path
       style="fill:#275a94;fill-opacity:1;fill-rule:evenodd;stroke:none;stroke-width:0.10414998;stroke-miterlimit:4;stroke-dasharray:none;stroke-opacity:1"
       d="m 25.927849,239.44625 c -2.237734,0.0601 -8.110032,1.53516 -8.375237,2.22642 -0.0788,0.20504 -0.0432,1.95943 0.07932,3.89846 l 0.222764,3.52543 -1.476817,1.1471 -1.47736,1.14714 -3.67018,-1.21633 c -2.8491088,-0.94442 -3.7709941,-1.15392 -4.1212286,-0.93673 -0.7011901,0.4351 -3.0391913,4.06381 -3.8542383,5.9815 l -0.7348216,1.72754 0.1784863,0.16893 -0.026443,0.0576 0.9001092,0.77107 0.4979365,0.47184 c 0.8526331,0.80811 2.1648449,2.03096 2.9159348,2.71716 l 1.3654781,1.2481 -0.1708927,1.84147 -0.171377,1.84083 -3.5043543,1.66139 L 1,269.38624 l 0.1800371,1.20098 c 0.2708819,1.80647 1.080661,4.72854 1.7967164,6.48265 l 0.1673002,0.41041 0.079859,0.30571 0.095542,0.12286 0.2949783,0.72264 4.0160208,0.12988 3.8542652,0.12476 0.217601,0.074 1.108671,1.36086 1.165095,1.42997 -0.990183,3.12659 c -0.54472,1.71957 -0.987186,3.41929 -0.983074,3.77755 0.0058,0.49261 0.391478,0.92913 1.586685,1.79696 1.86079,1.35133 5.767042,3.41026 6.469755,3.41026 0.289141,0 1.492444,-1.08091 2.918547,-2.62149 l 2.426761,-2.62146 1.432056,0.16739 c 0.460511,0.0549 0.831392,0.0949 1.144748,0.14489 l 0.580728,0.13193 c 0.936738,0.30094 1.279124,1.01607 2.609851,3.54532 l 1.783496,3.38984 1.95279,-0.15457 c 2.05284,-0.16264 4.908578,-0.83454 6.605498,-1.55405 l 1.007413,-0.42727 -0.159661,-2.40848 c -0.08769,-1.32476 -0.182987,-3.03633 -0.212058,-3.80333 l -0.05342,-1.39492 1.548013,-1.11543 1.547519,-1.11462 3.253159,1.15405 c 1.424668,0.50506 2.814726,0.91046 3.505912,1.03578 l 0.191213,0.0618 0.01846,-0.0279 c 0.07679,0.007 0.140867,0.009 0.182066,0.006 0.416995,-0.0501 0.994905,-0.53581 1.638015,-1.37816 1.023702,-1.34128 3.320254,-5.65686 3.320254,-6.2394 0,-0.24697 -3.86089,-3.97679 -5.539017,-5.35085 -0.11071,-0.0917 -0.12264,-1.01223 -0.02671,-2.04748 l 0.174963,-1.88215 3.500349,-1.6716 3.500782,-1.67111 -0.176566,-1.11426 c -0.480098,-3.03298 -1.924064,-7.44784 -2.626593,-8.0309 -0.275435,-0.22867 -1.384008,-0.27948 -4.024065,-0.1846 l -3.644207,0.13116 -1.245967,-1.59219 -1.245421,-1.59168 0.988082,-3.1246 c 0.543662,-1.71839 0.989215,-3.4193 0.989646,-3.77993 10e-4,-0.52808 -0.392306,-0.92051 -2.016892,-2.0138 -2.148734,-1.44626 -5.498455,-3.18916 -6.12946,-3.18916 -0.209439,0 -1.508263,1.21748 -2.886547,2.70589 l -2.506096,2.70656 -0.976368,-0.21921 c -0.536909,-0.11999 -1.408716,-0.28782 -1.937574,-0.37176 -0.927205,-0.14717 -1.022994,-0.26933 -2.692219,-3.41588 -0.952052,-1.79461 -1.916945,-3.33384 -2.143984,-3.42096 -0.144464,-0.056 -0.389818,-0.0757 -0.709491,-0.0665 z m -0.126198,1.63955 0.742005,1.3283 c 0.407918,0.73041 1.234646,2.23556 1.837327,3.34526 0.75769,1.39482 1.270835,2.05143 1.66345,2.1272 0.312347,0.0598 1.591753,0.25538 2.842763,0.43283 l 2.274208,0.32233 2.542722,-2.6617 2.542202,-2.66171 2.362724,1.38323 c 1.299548,0.76092 2.639892,1.58585 2.978071,1.83276 l 0.614777,0.44907 -1.108561,3.55319 -1.108187,3.55375 0.631653,0.68391 c 0.347302,0.3764 1.130969,1.35845 1.741724,2.18166 l 1.110683,1.49717 h 3.84615 3.846144 l 0.407313,1.01763 c 0.59246,1.48065 1.524227,5.26373 1.344092,5.45669 -0.08483,0.0915 -1.584581,0.86824 -3.333008,1.72772 l -3.178858,1.56218 -0.302658,2.21314 c -0.166413,1.21715 -0.312928,2.46777 -0.325476,2.77925 -0.0165,0.40572 0.785669,1.28898 2.829574,3.11581 l 2.63681,2.35668 0.18055,0.25866 -1.05224,1.97421 c -0.597853,1.12207 -1.392271,2.40579 -1.765656,2.85299 l -0.678871,0.81358 -3.609697,-1.2311 -3.609623,-1.23125 -0.666196,0.53103 c -0.366617,0.29169 -1.337784,0.97164 -2.15826,1.51082 l -1.492064,0.98043 0.01749,1.43202 c 0.0086,0.78765 0.09659,2.47485 0.193727,3.74912 l 0.177017,2.31741 -0.851798,0.35534 c -0.468403,0.19575 -1.58335,0.51784 -2.477647,0.71516 -3.221769,0.71111 -3.283254,0.71254 -3.672235,0.0808 -0.196364,-0.31846 -1.023116,-1.83837 -1.837394,-3.3768 -1.086646,-2.05359 -1.632667,-2.82672 -2.05294,-2.90839 -0.314931,-0.0602 -1.576575,-0.25293 -2.80362,-0.42655 l -2.230963,-0.31606 -2.550368,2.62768 -2.549788,2.6283 -1.337501,-0.67778 c -2.05585,-1.04182 -4.592663,-2.70181 -4.592663,-3.00552 0,-0.15012 0.476042,-1.78709 1.057727,-3.6378 l 1.057284,-3.365 -0.87676,-0.97089 c -0.482469,-0.5339 -1.26351,-1.53207 -1.735648,-2.21817 l -0.858465,-1.2481 -3.7672554,0.0708 c -3.0543914,0.058 -3.8130275,4.3e-4 -4.0109041,-0.30462 -0.2725505,-0.41968 -1.407945,-4.07828 -1.672027,-5.38726 l -0.1709442,-0.84563 3.3701068,-1.58631 3.369629,-1.58617 0.1561683,-1.60398 c 0.085579,-0.88219 0.2305922,-2.13227 0.3223796,-2.77817 l 0.166766,-1.17342 -2.7603445,-2.46958 c -1.5183928,-1.35802 -2.7609034,-2.65656 -2.7609034,-2.88521 0,-0.43796 2.3746348,-4.53973 2.9836098,-5.15368 0.3019548,-0.30419 0.9012253,-0.16974 3.9585801,0.88952 l 3.603082,1.24846 1.951233,-1.47525 c 1.073309,-0.81161 2.049145,-1.47581 2.167895,-1.47581 0.118701,0 0.132329,-1.74928 0.03036,-3.88738 l -0.185161,-3.88728 1.793109,-0.53431 c 0.986249,-0.29424 2.468254,-0.63667 3.293356,-0.76095 z m 24.559675,43.70536 0.03247,0.008 -0.0085,-0.003 z m -20.240573,3.82622 c 0.0024,0.003 0.0036,0.006 0.0066,0.009 z"
       id="path2405-2-9"
       inkscape:connector-curvature="0" />
    <path
       style="fill:#275a94;fill-opacity:1;fill-rule:evenodd;stroke:none;stroke-width:0.26037535;stroke-opacity:1"
       d="m 30.00302,252.43683 c -7.053346,-0.007 -12.904222,4.41903 -14.962333,11.32313 -0.630266,2.11401 -0.630738,6.21957 -0.0011,8.31828 1.016718,3.38912 2.972931,6.25645 5.621923,8.23945 1.897011,1.42017 3.070552,1.9954 5.303615,2.59962 2.465869,0.66743 6.54883,0.55207 9.075994,-0.2562 3.566262,-1.14066 7.076671,-4.16221 8.798842,-7.57378 1.223717,-2.42415 1.655343,-4.29071 1.655343,-7.16143 0,-4.43234 -1.494317,-8.06109 -4.576881,-11.11522 -2.982823,-2.95505 -6.510071,-4.36854 -10.915445,-4.37385 z m 0.202876,2.44643 c 2.92038,0.0388 5.900353,1.08237 8.464753,3.27814 2.609576,2.23427 4.388759,6.16592 4.388759,9.69815 0,5.62092 -3.758737,10.80152 -9.014974,12.4251 -4.778391,1.47587 -9.584091,0.34679 -13.039603,-3.06351 -3.344936,-3.30126 -4.791857,-8.39914 -3.567387,-12.56762 1.835765,-6.24994 7.193404,-9.84337 12.768452,-9.77026 z"
       id="path2397-7-0"
       inkscape:connector-curvature="0" />
  </g>
</svg>
