<?xml version="1.0" encoding="UTF-8" standalone="no"?>
<!-- Created with Inkscape (http://www.inkscape.org/) -->

<svg
   xmlns:dc="http://purl.org/dc/elements/1.1/"
   xmlns:cc="http://creativecommons.org/ns#"
   xmlns:rdf="http://www.w3.org/1999/02/22-rdf-syntax-ns#"
   xmlns:svg="http://www.w3.org/2000/svg"
   xmlns="http://www.w3.org/2000/svg"
   xmlns:sodipodi="http://sodipodi.sourceforge.net/DTD/sodipodi-0.dtd"
   xmlns:inkscape="http://www.inkscape.org/namespaces/inkscape"
   width="59.5mm"
   height="58mm"
   viewBox="0 0 59.499998 58"
   version="1.1"
   id="svg2684"
   inkscape:version="0.92.3 (2405546, 2018-03-11)"
   sodipodi:docname="engrenagem-arduino.svg">
  <defs
     id="defs2678" />
  <sodipodi:namedview
     id="base"
     pagecolor="#ffffff"
     bordercolor="#666666"
     borderopacity="1.0"
     inkscape:pageopacity="0.0"
     inkscape:pageshadow="2"
     inkscape:zoom="2.8"
     inkscape:cx="138.22584"
     inkscape:cy="127.77205"
     inkscape:document-units="mm"
     inkscape:current-layer="layer1"
     showgrid="false"
     units="mm"
     inkscape:window-width="1920"
     inkscape:window-height="1001"
     inkscape:window-x="-9"
     inkscape:window-y="-9"
     inkscape:window-maximized="1" />
  <metadata
     id="metadata2681">
    <rdf:RDF>
      <cc:Work
         rdf:about="">
        <dc:format>image/svg+xml</dc:format>
        <dc:type
           rdf:resource="http://purl.org/dc/dcmitype/StillImage" />
        <dc:title></dc:title>
      </cc:Work>
    </rdf:RDF>
  </metadata>
  <g
     inkscape:label="Camada 1"
     inkscape:groupmode="layer"
     id="layer1"
     transform="translate(0,-238.99998)">
    <path
       id="path2166"
       style="fill:#e73135;fill-opacity:1;stroke-width:0.37561509"
       d="m 32.41298,264.69008 c 0,-0.41319 -0.132808,-0.75124 -0.295125,-0.75124 -0.162322,0 -0.295128,0.33805 -0.295128,0.75124 0,0.41317 0.132808,0.75122 0.295128,0.75122 0.162318,0 0.295125,-0.33805 0.295125,-0.75122 z m -1.287823,0.006 c 0,-0.44113 -0.137905,-0.60797 -0.33752,-0.40835 -0.185636,0.18565 -0.223957,0.52128 -0.08515,0.74587 0.35318,0.57145 0.422672,0.51595 0.422672,-0.33752 z m -3.595173,-0.006 c 0,-0.20659 0.253539,-0.37563 0.563423,-0.37563 0.309882,0 0.563423,0.16904 0.563423,0.37563 0,0.20658 -0.253541,0.37561 -0.563423,0.37561 -0.309884,0 -0.563423,-0.16903 -0.563423,-0.37561 z m 1.314652,0 c 0,-0.81461 -1.46541,-0.7024 -1.624636,0.12436 -0.102726,0.53339 0.06479,0.65989 0.746087,0.56341 0.483203,-0.0684 0.878549,-0.37793 0.878549,-0.68782 z m -2.195474,1.19117 c -0.828641,-0.91565 -0.78372,-1.67929 0.14841,-2.52286 0.646666,-0.58523 0.947583,-0.62987 1.878075,-0.27865 0.817552,0.30859 1.403648,0.30665 2.235688,-0.007 0.980377,-0.37005 1.232104,-0.3212 1.92737,0.37407 1.639749,1.63975 -0.418442,4.01073 -2.404778,2.77024 -0.529917,-0.33095 -0.853746,-0.34648 -1.145276,-0.0549 -0.624055,0.62406 -1.948252,0.48336 -2.639489,-0.28044 z m 10.586401,5.38746 c 0.123097,-1.08363 0.103095,-1.09947 -0.593,-0.46952 -0.582436,0.5271 -1.437624,0.65196 -4.465747,0.65196 -3.937844,0 -4.646832,-0.25789 -4.646832,-1.69028 0,-1.43236 0.708988,-1.69026 4.646832,-1.69026 3.037133,0 3.882437,0.12408 4.470289,0.65605 0.710205,0.64273 0.720731,0.61028 0.518033,-1.59636 -0.113799,-1.23883 -0.317696,-2.97079 -0.4531,-3.84878 l -0.246197,-1.59637 h -6.677809 c -6.361918,0 -6.687107,0.0355 -6.874263,0.75124 -0.145717,0.55721 -0.0115,0.75122 0.519613,0.75122 0.584999,0 0.716066,0.27501 0.716066,1.50247 0,1.03918 -0.162548,1.50245 -0.527173,1.50245 -0.364106,0 -0.56743,0.5761 -0.657325,1.8625 -0.122133,1.74775 -0.0723,1.86925 0.808882,1.97197 0.789104,0.092 0.938377,0.30579 0.934888,1.33891 l -0.0041,1.22943 6.201796,-0.10264 6.201786,-0.10264 z m -15.339805,1.8727 c 0,-0.30988 -0.169028,-0.56342 -0.375616,-0.56342 -0.206589,0 -0.375615,-0.4971 -0.375615,-1.10468 0,-0.60757 0.169026,-1.20914 0.375615,-1.33683 0.206588,-0.12762 0.375616,-1.05553 0.375616,-2.06192 0,-1.61157 -0.100781,-1.84409 -0.845135,-1.9498 -0.692596,-0.0984 -0.845133,-0.35731 -0.845133,-1.43468 0,-1.07737 0.152537,-1.33633 0.845133,-1.43468 0.688867,-0.0978 0.845135,-0.35829 0.845135,-1.40856 v -1.28853 h 7.887917 7.887917 v 1.6681 c 0,0.91744 0.169026,1.77255 0.375614,1.90024 0.554356,0.34262 0.486674,8.56565 -0.07513,9.12745 -0.321681,0.32168 -2.687737,0.45074 -8.263532,0.45074 -6.694294,0 -7.812794,-0.0806 -7.812794,-0.56343 z"
       inkscape:connector-curvature="0" />
    <path
       style="fill:#275a94;fill-opacity:1;fill-rule:evenodd;stroke:none;stroke-width:0.10431036;stroke-miterlimit:4;stroke-dasharray:none;stroke-opacity:1"
       d="m 25.966156,239.35847 c -2.241218,0.0609 -8.122542,1.53753 -8.388117,2.22978 -0.07882,0.20544 -0.04333,1.96254 0.07943,3.90456 l 0.2231,3.53065 -1.479086,1.14905 -1.479648,1.14897 -3.6758,-1.21824 c -2.8535078,-0.94594 -3.7768182,-1.15583 -4.1275706,-0.93822 -0.7022727,0.43576 -3.0439101,4.07009 -3.8601818,5.99069 l -0.7359239,1.73022 0.1787363,0.16914 -0.026444,0.0575 0.90151,0.7721 0.4987042,0.47259 c 0.8539196,0.80934 2.168159,2.03398 2.9204218,2.72142 l 1.3675778,1.24984 -0.1711712,1.84431 -0.1716226,1.84372 -3.5097666,1.664 L 1,269.34455 l 0.1803103,1.2026 c 0.2712993,1.80941 1.0823349,4.73604 1.7994817,6.49285 l 0.167562,0.41102 0.07998,0.30613 0.095673,0.1238 0.29544,0.72376 4.0222225,0.13047 3.8601855,0.12535 0.21792,0.0744 1.110379,1.36296 1.166874,1.43224 -0.991662,3.13133 c -0.54557,1.72223 -0.988716,3.42478 -0.98463,3.78332 0.0061,0.49346 0.392094,0.93079 1.589168,1.79996 1.86361,1.35315 5.775896,3.41554 6.479668,3.41554 0.289598,0 1.494771,-1.08256 2.923029,-2.62556 l 2.430544,-2.62559 1.434226,0.16756 c 0.461223,0.0539 0.832688,0.0941 1.146525,0.14516 l 0.581605,0.13246 c 0.938216,0.30132 1.281096,1.01739 2.613895,3.55051 l 1.786253,3.39517 1.955764,-0.15481 c 2.056016,-0.16277 4.916126,-0.83578 6.615671,-1.55655 l 1.008962,-0.42782 -0.159903,-2.41218 c -0.0879,-1.32693 -0.183274,-3.04107 -0.212399,-3.8093 l -0.05352,-1.39703 1.550407,-1.117 1.549875,-1.11645 3.258179,1.15576 c 1.42685,0.50608 2.819067,0.91211 3.51125,1.03744 l 0.191526,0.0632 0.0184,-0.0292 c 0.07696,0.009 0.141042,0.0128 0.182324,0.009 0.417646,-0.0496 0.996432,-0.5365 1.640536,-1.3803 1.025279,-1.34328 3.325358,-5.66548 3.325358,-6.24902 0,-0.2473 -3.866806,-3.98286 -5.547534,-5.35908 -0.110917,-0.091 -0.12287,-1.01364 -0.02667,-2.0506 l 0.175226,-1.88502 3.505727,-1.67416 L 59,265.97269 58.823162,264.85673 c -0.480827,-3.03765 -1.927019,-7.45942 -2.630659,-8.04334 -0.275851,-0.22899 -1.386132,-0.27991 -4.030237,-0.18488 l -3.649776,0.13146 -1.247945,-1.59463 -1.247312,-1.59424 0.989595,-3.12929 c 0.544499,-1.72114 0.990768,-3.42467 0.991181,-3.78586 0,-0.52876 -0.392931,-0.92185 -2.020002,-2.01692 -2.152052,-1.44849 -5.506897,-3.19402 -6.138876,-3.19402 -0.209747,0 -1.510623,1.21942 -2.891031,2.71016 l -2.509916,2.71056 -0.977866,-0.21943 c -0.537723,-0.12081 -1.410904,-0.2883 -1.940566,-0.37233 -0.928607,-0.14735 -1.024584,-0.26979 -2.696372,-3.42118 -0.953507,-1.79736 -1.919885,-3.33896 -2.147244,-3.42625 -0.144736,-0.0555 -0.390433,-0.0759 -0.710596,-0.0671 z m -0.126363,1.64208 0.743143,1.33035 c 0.408538,0.73156 1.236588,2.23902 1.840139,3.35037 0.758854,1.397 1.272809,2.05441 1.666021,2.13049 0.312824,0.0605 1.594201,0.25582 2.847148,0.43345 l 2.277692,0.32289 2.546678,-2.66587 2.546115,-2.66571 2.366348,1.38532 c 1.301503,0.76212 2.643925,1.58827 2.98264,1.8356 l 0.615688,0.44976 -1.110242,3.5587 -1.109898,3.55916 0.632615,0.68501 c 0.347838,0.37694 1.132743,1.36032 1.744414,2.18501 l 1.112371,1.49948 h 3.852084 3.852045 l 0.407955,1.01917 c 0.59336,1.48288 1.526539,5.2718 1.34613,5.46508 -0.08481,0.091 -1.586973,0.8696 -3.338128,1.73019 l -3.183752,1.56467 -0.303083,2.21659 c -0.166699,1.21909 -0.313414,2.47152 -0.325921,2.7835 -0.01652,0.40632 0.786838,1.29107 2.833865,3.12055 l 2.640837,2.36029 0.180859,0.25923 -1.053864,1.97721 c -0.598768,1.12383 -1.394358,2.40937 -1.768358,2.85731 l -0.679938,0.81492 -3.615183,-1.23305 -3.615227,-1.23308 -0.667239,0.53169 c -0.367168,0.29228 -1.339838,0.97313 -2.161553,1.51323 l -1.494369,0.98206 0.01773,1.43417 c 0.0097,0.78887 0.09672,2.47855 0.194058,3.75479 l 0.177257,2.32099 -0.853098,0.35602 c -0.469128,0.19602 -1.585774,0.51849 -2.481417,0.71612 -3.226753,0.71227 -3.288368,0.71366 -3.677897,0.0819 -0.196682,-0.31896 -1.024707,-1.84093 -1.840276,-3.3819 -1.08829,-2.05659 -1.635151,-2.83111 -2.056069,-2.91286 -0.315426,-0.0612 -1.578996,-0.25344 -2.80793,-0.42732 l -2.23441,-0.31632 -2.554268,2.63177 -2.55374,2.63212 -1.33953,-0.67887 c -2.059017,-1.04323 -4.599793,-2.70575 -4.599793,-3.01014 0,-0.15018 0.476814,-1.78965 1.059412,-3.64325 l 1.058913,-3.37026 -0.878104,-0.97222 c -0.483176,-0.53485 -1.265466,-1.53442 -1.738325,-2.22169 l -0.85981,-1.24991 -3.7730227,0.0718 c -3.0591107,0.0581 -3.8189125,2.5e-4 -4.0171058,-0.30505 -0.272968,-0.42049 -1.4100901,-4.08473 -1.6745645,-5.3958 l -0.171179,-0.84699 3.3752731,-1.5886 3.3747892,-1.5886 0.1564097,-1.6064 c 0.085704,-0.88359 0.2309468,-2.13574 0.322906,-2.7825 l 0.166979,-1.1755 -2.7645793,-2.47328 C 5.9556812,257.81604 4.71128,256.51546 4.71128,256.28647 c 0,-0.43864 2.3782709,-4.54667 2.9881757,-5.16159 0.3024261,-0.30472 0.9026332,-0.17008 3.9646993,0.89088 l 3.608606,1.25038 1.954243,-1.47752 c 1.074929,-0.81285 2.052286,-1.47808 2.171195,-1.47808 0.118938,0 0.13251,-1.75202 0.03046,-3.89331 l -0.185468,-3.89326 1.795902,-0.53534 c 0.987699,-0.29453 2.471987,-0.63757 3.29839,-0.76198 z m 24.597466,43.77256 0.0323,0.0114 -0.0094,-0.004 z m -20.271736,3.83221 c 0.0034,0.004 0.0048,0.009 0.0077,0.0128 z"
       id="path2405-2-9-0-65"
       inkscape:connector-curvature="0" />
    <path
       style="fill:#275a94;fill-opacity:1;fill-rule:evenodd;stroke:none;stroke-width:0.26077592;stroke-opacity:1"
       d="m 30.047593,252.36894 c -7.064178,-0.009 -12.92407,4.42584 -14.98537,11.34063 -0.631211,2.1173 -0.631661,6.2291 -0.0016,8.3311 1.018268,3.39432 2.977458,6.26596 5.630556,8.25217 1.899894,1.42235 3.075277,1.99828 5.311749,2.60364 2.469677,0.66838 6.558935,0.55288 9.089934,-0.25678 3.571762,-1.14233 7.087549,-4.16845 8.812414,-7.58534 1.225606,-2.42783 1.657887,-4.29723 1.657887,-7.17238 0,-4.43925 -1.496596,-8.07355 -4.583887,-11.13237 -2.98747,-2.9597 -6.520099,-4.37526 -10.932273,-4.38067 z m 0.203207,2.45033 c 2.924843,0.0385 5.90938,1.08401 8.477756,3.2831 2.613583,2.23778 4.39552,6.17536 4.39552,9.71293 0,5.62979 -3.764508,10.81837 -9.028855,12.44442 -4.785743,1.47812 -9.59887,0.34735 -13.059649,-3.06823 -3.350066,-3.30631 -4.799268,-8.412 -3.5729,-12.58699 1.838595,-6.25949 7.204523,-9.8585 12.788128,-9.78523 z"
       id="path2397-7-0-2-15"
       inkscape:connector-curvature="0" />
  </g>
</svg>
