<?xml version="1.0" encoding="UTF-8" standalone="no"?>
<!-- Created with Inkscape (http://www.inkscape.org/) -->

<svg
   xmlns:dc="http://purl.org/dc/elements/1.1/"
   xmlns:cc="http://creativecommons.org/ns#"
   xmlns:rdf="http://www.w3.org/1999/02/22-rdf-syntax-ns#"
   xmlns:svg="http://www.w3.org/2000/svg"
   xmlns="http://www.w3.org/2000/svg"
   xmlns:sodipodi="http://sodipodi.sourceforge.net/DTD/sodipodi-0.dtd"
   xmlns:inkscape="http://www.inkscape.org/namespaces/inkscape"
   width="59.5mm"
   height="58mm"
   viewBox="0 0 59.499998 58"
   version="1.1"
   id="svg2684"
   inkscape:version="0.92.3 (2405546, 2018-03-11)"
   sodipodi:docname="engrenagem-camera.svg">
  <defs
     id="defs2678" />
  <sodipodi:namedview
     id="base"
     pagecolor="#ffffff"
     bordercolor="#666666"
     borderopacity="1.0"
     inkscape:pageopacity="0.0"
     inkscape:pageshadow="2"
     inkscape:zoom="2.8"
     inkscape:cx="138.22584"
     inkscape:cy="127.77205"
     inkscape:document-units="mm"
     inkscape:current-layer="layer1"
     showgrid="false"
     units="mm"
     inkscape:window-width="1920"
     inkscape:window-height="1001"
     inkscape:window-x="-9"
     inkscape:window-y="-9"
     inkscape:window-maximized="1" />
  <metadata
     id="metadata2681">
    <rdf:RDF>
      <cc:Work
         rdf:about="">
        <dc:format>image/svg+xml</dc:format>
        <dc:type
           rdf:resource="http://purl.org/dc/dcmitype/StillImage" />
        <dc:title></dc:title>
      </cc:Work>
    </rdf:RDF>
  </metadata>
  <g
     inkscape:label="Camada 1"
     inkscape:groupmode="layer"
     id="layer1"
     transform="translate(0,-238.99998)">
    <path
       id="path2148"
       style="fill:#e73135;fill-opacity:1;stroke-width:0.3977676"
       d="m 35.681069,264.84134 c 0,-0.86265 -1.551835,-0.74381 -1.720454,0.1317 -0.108784,0.56486 0.06861,0.69881 0.790091,0.59666 0.5117,-0.0725 0.930363,-0.40025 0.930363,-0.7284 z m -7.974454,3.80548 c -0.878589,-1.34091 -0.191756,-2.61217 1.411288,-2.61217 1.603043,0 2.289876,1.27126 1.411288,2.61217 -0.348752,0.53225 -0.983831,0.96773 -1.411288,0.96773 -0.427457,0 -1.062538,-0.43548 -1.411288,-0.96773 z m 3.576456,0.87923 c 0.949985,-1.3563 0.777194,-2.91161 -0.428857,-3.8603 -0.576433,-0.45342 -1.357772,-0.82441 -1.736311,-0.82441 -1.281676,0 -2.784374,1.55505 -2.784374,2.88137 0,1.73429 1.001361,2.68738 2.823466,2.68738 1.10624,0 1.671495,-0.23503 2.126076,-0.88404 z m -8.264271,2.60769 c -0.145857,-0.14583 -0.26518,-2.20871 -0.26518,-4.58416 0,-4.19437 0.02757,-4.32949 0.95578,-4.68238 0.525678,-0.19987 1.079239,-0.56316 1.230136,-0.80731 0.193686,-0.31339 0.551804,-0.26213 1.217949,0.17435 0.719136,0.4712 2.063412,0.61826 5.651243,0.61826 3.131152,0 4.867499,0.15985 5.184974,0.47732 0.596456,0.59646 0.648695,7.21012 0.06556,8.29972 -0.382012,0.7138 -0.894558,0.76938 -7.093524,0.76938 -3.674967,0 -6.801092,-0.11937 -6.946938,-0.26518 z"
       inkscape:connector-curvature="0" />
    <path
       style="fill:#275a94;fill-opacity:1;fill-rule:evenodd;stroke:none;stroke-width:0.10431004;stroke-miterlimit:4;stroke-dasharray:none;stroke-opacity:1"
       d="m 25.966226,239.35886 c -2.241196,0.0609 -8.12251,1.53753 -8.388099,2.22979 -0.07882,0.20542 -0.04331,1.96253 0.07942,3.90454 l 0.223128,3.53063 -1.479084,1.14905 -1.479659,1.14895 -3.675803,-1.21821 c -2.853505,-0.94594 -3.7767953,-1.15584 -4.1275626,-0.93823 -0.7022708,0.43578 -3.043869,4.0701 -3.8601598,5.99067 l -0.7359059,1.73021 0.178721,0.16917 -0.026571,0.0576 0.9015006,0.7721 0.4987249,0.47256 c 0.8538879,0.80937 2.1681159,2.03399 2.9203781,2.72143 l 1.3675927,1.24983 -0.1711833,1.84431 -0.1716207,1.8437 -3.509739,1.664 L 1,269.34486 l 0.180324,1.2026 c 0.2712616,1.8094 1.0823178,4.73603 1.7994768,6.49286 l 0.1675636,0.41098 0.079972,0.30616 0.095643,0.12372 0.2954697,0.72374 4.0221984,0.1305 3.8601995,0.12523 0.217902,0.0743 1.11036,1.36295 1.166878,1.43226 -0.991649,3.1313 c -0.545571,1.72222 -0.9887,3.42479 -0.984635,3.7833 0.0062,0.49349 0.39208,0.93083 1.589161,1.79999 1.863594,1.35311 5.775876,3.41553 6.479674,3.41553 0.289583,0 1.494734,-1.08253 2.923014,-2.62555 l 2.430548,-2.62558 1.434219,0.16755 c 0.461191,0.0538 0.832663,0.0941 1.146521,0.14523 l 0.581589,0.13244 c 0.938234,0.30134 1.281074,1.01737 2.613895,3.55049 l 1.786245,3.39516 1.95576,-0.1548 c 2.056005,-0.16276 4.916102,-0.83576 6.61562,-1.55654 l 1.008981,-0.42784 -0.159883,-2.41216 c -0.08792,-1.32694 -0.183292,-3.04107 -0.212424,-3.80931 l -0.05351,-1.39701 1.550399,-1.11698 1.549858,-1.11648 3.258178,1.15576 c 1.426861,0.50612 2.819055,0.91215 3.511263,1.03745 l 0.191514,0.0631 0.01861,-0.0292 c 0.07694,0.009 0.141062,0.012 0.182341,0.008 0.417659,-0.0496 0.996403,-0.53648 1.640503,-1.38031 1.025331,-1.34328 3.325375,-5.66547 3.325375,-6.249 0,-0.24731 -3.866802,-3.98287 -5.547515,-5.35908 -0.110934,-0.091 -0.122886,-1.01363 -0.02678,-2.05055 l 0.175245,-1.88502 3.505744,-1.67417 L 59,265.9718 58.823148,264.85587 c -0.480809,-3.03763 -1.927014,-7.4594 -2.630652,-8.04334 -0.275836,-0.22896 -1.386113,-0.2799 -4.030202,-0.18487 l -3.649776,0.1314 -1.247945,-1.59469 -1.247307,-1.59421 0.989614,-3.1293 c 0.544504,-1.72111 0.990752,-3.42463 0.991182,-3.78583 0.0012,-0.52878 -0.392935,-0.92184 -2.020023,-2.01691 -2.152044,-1.44849 -5.506862,-3.19401 -6.138836,-3.19401 -0.209774,0 -1.510645,1.2194 -2.891046,2.71013 l -2.50989,2.71059 -0.977872,-0.21945 c -0.537734,-0.12087 -1.410898,-0.28827 -1.940547,-0.37236 -0.928622,-0.14733 -1.024589,-0.26973 -2.696363,-3.42113 -0.95354,-1.79738 -1.919874,-3.33895 -2.147259,-3.42624 -0.14473,-0.0555 -0.390426,-0.0759 -0.710574,-0.0672 z m -0.126344,1.64207 0.743118,1.33035 c 0.408543,0.73156 1.236617,2.23902 1.840161,3.35035 0.758837,1.39702 1.27278,2.05442 1.666013,2.13049 0.312809,0.0606 1.594197,0.25581 2.847149,0.43345 l 2.277666,0.32291 2.546678,-2.66583 2.546104,-2.66575 2.366338,1.38533 c 1.301509,0.76209 2.643907,1.58825 2.982653,1.83557 l 0.615677,0.44978 -1.110257,3.55867 -1.109898,3.55916 0.632621,0.68501 c 0.347835,0.37696 1.132739,1.3603 1.744433,2.18499 l 1.112386,1.49951 h 3.852044 3.852018 l 0.407951,1.01915 c 0.593374,1.48286 1.526568,5.27179 1.346137,5.46507 -0.08482,0.091 -1.586958,0.86958 -3.338086,1.73017 l -3.183756,1.56468 -0.303095,2.21658 c -0.166696,1.21908 -0.313433,2.47153 -0.325927,2.78349 -0.01639,0.4063 0.786828,1.29108 2.833856,3.12052 l 2.640819,2.36032 0.180877,0.25922 -1.053834,1.97719 c -0.598807,1.12384 -1.394379,2.40939 -1.768399,2.8573 l -0.679908,0.81494 -3.615187,-1.23306 -3.615218,-1.23306 -0.667244,0.53166 c -0.367158,0.29229 -1.339832,0.97314 -2.161547,1.51323 l -1.494351,0.98204 0.01774,1.43418 c 0.0096,0.78886 0.09673,2.47853 0.194039,3.75478 l 0.177281,2.321 -0.8531,0.35603 c -0.469111,0.19598 -1.585789,0.51849 -2.481427,0.71608 -3.226734,0.71229 -3.288363,0.71367 -3.677878,0.0821 -0.196667,-0.31894 -1.024701,-1.84093 -1.840256,-3.3819 -1.088276,-2.05657 -1.635167,-2.83108 -2.056089,-2.91285 -0.315405,-0.0612 -1.578974,-0.25342 -2.807893,-0.42729 l -2.234412,-0.31635 -2.554284,2.63176 -2.553732,2.6321 -1.339527,-0.67884 c -2.059011,-1.04325 -4.599784,-2.70575 -4.599784,-3.01012 0,-0.15019 0.476831,-1.78964 1.059422,-3.64327 l 1.05891,-3.37024 -0.878089,-0.97224 c -0.483167,-0.53483 -1.265477,-1.53439 -1.738327,-2.22166 l -0.859799,-1.24989 -3.7730448,0.0719 c -3.0590557,0.0582 -3.8188555,2.6e-4 -4.017083,-0.30505 -0.2729481,-0.42059 -1.4100822,-4.08483 -1.6745699,-5.3959 l -0.1711434,-0.84698 3.3752451,-1.58862 3.3747713,-1.58858 0.1564185,-1.60637 c 0.085692,-0.88361 0.2309437,-2.13575 0.3229032,-2.78252 l 0.166971,-1.17549 -2.7645677,-2.47326 c -1.5207253,-1.36034 -2.7651652,-2.66091 -2.7651652,-2.88993 0,-0.43863 2.3782804,-4.54664 2.9882013,-5.16155 0.3024268,-0.30471 0.9026263,-0.17009 3.9646806,0.89085 l 3.608589,1.2504 1.954235,-1.47753 c 1.074947,-0.81284 2.052278,-1.47807 2.171215,-1.47807 0.118901,0 0.132492,-1.75203 0.03038,-3.8933 l -0.185482,-3.89327 1.795905,-0.53529 c 0.987688,-0.29455 2.471982,-0.63759 3.298376,-0.762 z m 24.597378,43.77244 0.03222,0.0105 -0.0095,-0.005 z m -20.271686,3.83222 c 0.0036,0.005 0.005,0.009 0.008,0.012 z"
       id="path2405-2-9-0-6"
       inkscape:connector-curvature="0" />
    <path
       style="fill:#275a94;fill-opacity:1;fill-rule:evenodd;stroke:none;stroke-width:0.2607753;stroke-opacity:1"
       d="m 30.047657,252.36929 c -7.064147,-0.009 -12.924051,4.42583 -14.985351,11.3406 -0.631193,2.11729 -0.631654,6.22909 -0.0017,8.33111 1.018277,3.39429 2.977452,6.26593 5.630562,8.25212 1.899871,1.42234 3.075246,1.99827 5.311707,2.60362 2.469679,0.6684 6.558932,0.55291 9.089935,-0.25678 3.571723,-1.14233 7.087528,-4.16846 8.812399,-7.5853 1.22557,-2.42781 1.657859,-4.29724 1.657859,-7.17234 0,-4.43925 -1.496599,-8.07352 -4.583881,-11.13239 -2.987469,-2.95968 -6.520071,-4.37522 -10.932213,-4.38064 z m 0.203218,2.45034 c 2.924809,0.0383 5.909364,1.08401 8.477705,3.2831 2.613573,2.23777 4.395511,6.17533 4.395511,9.71289 0,5.62977 -3.764483,10.8183 -9.028806,12.44438 -4.78575,1.47812 -9.598846,0.34737 -13.059618,-3.06822 -3.350067,-3.30629 -4.799266,-8.412 -3.572897,-12.58693 1.83859,-6.25949 7.204491,-9.8585 12.788105,-9.78522 z"
       id="path2397-7-0-2-1"
       inkscape:connector-curvature="0" />
  </g>
</svg>
