<?xml version="1.0" encoding="UTF-8" standalone="no"?>
<!-- Created with Inkscape (http://www.inkscape.org/) -->

<svg
   xmlns:dc="http://purl.org/dc/elements/1.1/"
   xmlns:cc="http://creativecommons.org/ns#"
   xmlns:rdf="http://www.w3.org/1999/02/22-rdf-syntax-ns#"
   xmlns:svg="http://www.w3.org/2000/svg"
   xmlns="http://www.w3.org/2000/svg"
   xmlns:sodipodi="http://sodipodi.sourceforge.net/DTD/sodipodi-0.dtd"
   xmlns:inkscape="http://www.inkscape.org/namespaces/inkscape"
   width="59.5mm"
   height="58mm"
   viewBox="0 0 59.499998 58"
   version="1.1"
   id="svg2684"
   inkscape:version="0.92.3 (2405546, 2018-03-11)"
   sodipodi:docname="engrenagem-cronometro.svg">
  <defs
     id="defs2678" />
  <sodipodi:namedview
     id="base"
     pagecolor="#ffffff"
     bordercolor="#666666"
     borderopacity="1.0"
     inkscape:pageopacity="0.0"
     inkscape:pageshadow="2"
     inkscape:zoom="2.8"
     inkscape:cx="209.48773"
     inkscape:cy="130.86516"
     inkscape:document-units="mm"
     inkscape:current-layer="layer1"
     showgrid="false"
     units="mm"
     inkscape:window-width="1920"
     inkscape:window-height="1001"
     inkscape:window-x="-9"
     inkscape:window-y="-9"
     inkscape:window-maximized="1" />
  <metadata
     id="metadata2681">
    <rdf:RDF>
      <cc:Work
         rdf:about="">
        <dc:format>image/svg+xml</dc:format>
        <dc:type
           rdf:resource="http://purl.org/dc/dcmitype/StillImage" />
        <dc:title></dc:title>
      </cc:Work>
    </rdf:RDF>
  </metadata>
  <g
     inkscape:label="Camada 1"
     inkscape:groupmode="layer"
     id="layer1"
     transform="translate(0,-238.99998)">
    <path
       style="fill:#275a94;fill-opacity:1;fill-rule:evenodd;stroke:none;stroke-width:0.10402076;stroke-miterlimit:4;stroke-dasharray:none;stroke-opacity:1"
       d="m 25.897029,239.51662 c -2.234919,0.0598 -8.099915,1.53318 -8.364824,2.22362 -0.07869,0.20479 -0.04309,1.95711 0.07921,3.89369 l 0.222537,3.52096 -1.474995,1.14575 -1.475546,1.14579 -3.665615,-1.21485 c -2.8455761,-0.94331 -3.7663147,-1.15274 -4.116141,-0.93555 -0.7003041,0.43437 -3.0353898,4.05876 -3.8494168,5.97403 l -0.7339181,1.72531 0.1782566,0.16865 -0.026554,0.0576 0.8989958,0.77003 0.49731,0.47131 c 0.8515676,0.80703 2.1621342,2.02837 2.9123078,2.71377 l 1.3638018,1.24657 -0.1707269,1.83911 -0.1711187,1.83858 -3.4999973,1.65924 L 1,269.41939 l 0.1798332,1.19937 c 0.2705299,1.8044 1.0793118,4.72277 1.7944723,6.47482 l 0.1671089,0.40984 0.079745,0.30537 0.095392,0.12281 0.2946594,0.7218 4.0109838,0.12991 3.8495424,0.1247 0.217322,0.0737 1.107245,1.35919 1.163685,1.42831 -0.988948,3.12266 c -0.544066,1.7173 -0.985946,3.41503 -0.981902,3.77279 0.0064,0.49204 0.391002,0.92809 1.584723,1.79488 1.858494,1.3495 5.75989,3.40604 6.461757,3.40604 0.288799,0 1.490588,-1.07965 2.914944,-2.61832 l 2.423729,-2.61814 1.430276,0.16706 c 0.459891,0.0551 0.830349,0.0952 1.14335,0.14439 l 0.57998,0.13214 c 0.935591,0.30054 1.277521,1.01477 2.606642,3.54083 l 1.781275,3.38567 1.950362,-0.15441 c 2.050292,-0.16235 4.902447,-0.83348 6.597276,-1.55209 l 1.006162,-0.42679 -0.159441,-2.40545 c -0.08758,-1.32328 -0.18278,-3.03249 -0.211825,-3.79872 l -0.05334,-1.39306 1.546089,-1.11401 1.545567,-1.11336 3.249134,1.15268 c 1.422916,0.50453 2.811238,0.90951 3.501615,1.03456 l 0.190956,0.062 0.0184,-0.029 c 0.07669,0.006 0.140685,0.008 0.181839,0.005 0.416485,-0.0497 0.993628,-0.53494 1.635971,-1.37643 1.022451,-1.33948 3.316124,-5.64971 3.316124,-6.23159 0,-0.24662 -3.856082,-3.97177 -5.532124,-5.3442 -0.110552,-0.0913 -0.122496,-1.01089 -0.02678,-2.04485 l 0.174777,-1.87979 3.496016,-1.66963 3.496403,-1.66897 -0.176381,-1.11288 c -0.479477,-3.02918 -1.921662,-7.43873 -2.623332,-8.02094 -0.275064,-0.22838 -1.382276,-0.27921 -4.019018,-0.18437 l -3.639691,0.1311 -1.244434,-1.59013 -1.243876,-1.58985 0.986879,-3.12065 c 0.542993,-1.7164 0.987999,-3.41512 0.988415,-3.77535 10e-4,-0.52723 -0.391809,-0.91928 -2.014404,-2.01127 -2.14608,-1.44438 -5.491611,-3.18513 -6.121819,-3.18513 -0.20918,0 -1.506443,1.21605 -2.883014,2.70262 l -2.502946,2.70301 -0.975166,-0.2188 c -0.536263,-0.1196 -1.406951,-0.28754 -1.935161,-0.37138 -0.926109,-0.14688 -1.021742,-0.26899 -2.6889,-3.4116 -0.950877,-1.79239 -1.914556,-3.32972 -2.141359,-3.41674 -0.144274,-0.0561 -0.389279,-0.0751 -0.708555,-0.0666 z m -0.125968,1.63746 0.741088,1.32674 c 0.407394,0.72952 1.233134,2.23281 1.835052,3.34099 0.756723,1.39315 1.26922,2.04868 1.661378,2.12465 0.311949,0.0595 1.589795,0.25513 2.839225,0.43216 l 2.271364,0.32201 2.539596,-2.65846 2.539033,-2.65825 2.359786,1.38146 c 1.297936,0.75993 2.636624,1.58377 2.974392,1.83045 l 0.614024,0.44861 -1.10723,3.54867 -1.106774,3.54937 0.630845,0.68313 c 0.346876,0.37593 1.129551,1.35659 1.739593,2.17896 l 1.109286,1.49522 h 3.841371 3.841368 l 0.406809,1.01647 c 0.591711,1.47875 1.522355,5.25706 1.34241,5.44978 -0.08471,0.0918 -1.582582,0.86717 -3.328848,1.72552 l -3.174948,1.56015 -0.302249,2.21059 c -0.166237,1.21569 -0.312523,2.46472 -0.325056,2.77583 -0.01648,0.40515 0.784677,1.28744 2.826041,3.11185 l 2.633522,2.35375 0.180349,0.25839 -1.050921,1.9718 c -0.597117,1.12065 -1.390551,2.40269 -1.763495,2.84944 l -0.678024,0.81252 -3.605178,-1.22953 -3.605164,-1.22975 -0.665395,0.53038 c -0.366138,0.29136 -1.336116,0.97035 -2.155584,1.50891 l -1.490176,0.97928 0.01742,1.43016 c 0.009,0.78668 0.09649,2.4718 0.193476,3.74453 l 0.1768,2.31454 -0.850758,0.35494 c -0.467792,0.19533 -1.581378,0.51715 -2.474564,0.7142 -3.21775,0.71025 -3.2792,0.7117 -3.667666,0.0809 -0.196118,-0.31808 -1.021863,-1.83608 -1.835094,-3.37259 -1.085305,-2.05096 -1.630653,-2.82324 -2.050428,-2.90497 -0.314544,-0.06 -1.574618,-0.25244 -2.800127,-0.42585 l -2.228202,-0.31563 -2.547198,2.62439 -2.546631,2.625 -1.335838,-0.67692 c -2.053298,-1.04046 -4.586969,-2.69844 -4.586969,-3.00179 0,-0.1499 0.47547,-1.78482 1.05644,-3.6332 l 1.055953,-3.36086 -0.875677,-0.96968 c -0.481844,-0.53327 -1.261927,-1.53017 -1.733476,-2.2155 l -0.857379,-1.24647 -3.762606,0.0712 c -3.0505798,0.0579 -3.8082736,3.1e-4 -4.0058993,-0.30432 -0.272241,-0.41946 -1.4062069,-4.07344 -1.6700056,-5.38083 l -0.1706994,-0.84464 3.365891,-1.58427 3.3654704,-1.58417 0.155958,-1.60196 c 0.085483,-0.88114 0.2303114,-2.12974 0.3220109,-2.77482 l 0.166571,-1.17199 -2.7569472,-2.46635 c -1.5164988,-1.35666 -2.7574826,-2.65358 -2.7574826,-2.88184 0,-0.43757 2.3716853,-4.53408 2.9799386,-5.14726 0.3015556,-0.30401 0.9000814,-0.1697 3.9536402,0.88823 l 3.598588,1.24699 1.948847,-1.47347 c 1.071987,-0.8106 2.046567,-1.47399 2.165216,-1.47399 0.118565,0 0.132127,-1.74707 0.03021,-3.88244 l -0.184926,-3.88238 1.790852,-0.53402 c 0.985029,-0.29351 2.465202,-0.63567 3.28928,-0.75976 z m 24.529166,43.65105 0.03255,0.008 -0.0089,-0.003 z m -20.215441,3.8216 c 0.0024,0.003 0.0035,0.006 0.0071,0.008 z"
       id="path2405-2"
       inkscape:connector-curvature="0" />
    <path
       style="fill:#275a94;fill-opacity:1;fill-rule:evenodd;stroke:none;stroke-width:0.26005197;stroke-opacity:1"
       d="m 29.967167,252.49094 c -7.044599,-0.006 -12.888216,4.41348 -14.943773,11.30922 -0.629474,2.11141 -0.629946,6.21186 -0.0011,8.3079 1.015458,3.38485 2.969243,6.24873 5.614982,8.22928 1.894626,1.41836 3.06669,1.99277 5.296994,2.59638 2.462812,0.6666 6.540686,0.55133 9.064732,-0.25596 3.561798,-1.13919 7.067908,-4.15703 8.787928,-7.56427 1.222176,-2.4212 1.653252,-4.28542 1.653252,-7.15255 0,-4.42686 -1.492446,-8.05113 -4.571172,-11.10142 -2.979154,-2.95154 -6.501996,-4.36323 -10.90189,-4.36858 z m 0.202634,2.44357 c 2.916725,0.039 5.893026,1.08103 8.454208,3.27398 2.606345,2.23161 4.383334,6.15829 4.383334,9.68598 0,5.61405 -3.754067,10.78827 -9.003757,12.40978 -4.772502,1.47412 -9.572206,0.34648 -13.023413,-3.05971 -3.340789,-3.29711 -4.785968,-8.38863 -3.562996,-12.55204 1.8335,-6.24201 7.184466,-9.83112 12.752624,-9.75799 z"
       id="path2397-7"
       inkscape:connector-curvature="0" />
    <path
       id="path2124"
       style="fill:#e73135;fill-opacity:1;fill-rule:evenodd;stroke:none;stroke-width:0.3198826px;stroke-linecap:butt;stroke-linejoin:miter;stroke-opacity:1"
       d="m 30.123314,262.46262 1.016104,0.0215 0.927704,0.24296 0.706849,0.37551 0.795222,0.48598 0.618477,0.39765 0.574341,0.61852 0.662647,0.68465 0.485974,0.88369 0.331359,0.79521 0.242971,1.08241 0.110302,1.06013 -0.02234,1.23703 -0.397584,1.10445 c 0,0 -0.274511,0.78254 -0.493149,0.97008 -0.21868,0.18738 -0.687258,1.03088 -0.687258,1.03088 l -1.436995,1.09327 -0.968376,0.65592 -1.249542,0.34379 c 0,0 -0.874664,0 -0.999626,0.031 -0.124945,0.0322 -1.374495,-0.12506 -1.374495,-0.12506 l -1.280759,-0.31243 c 0,0 -0.968414,-0.68708 -1.155845,-0.68708 -0.187423,0 -1.062123,-0.90608 -1.062123,-0.90608 l -0.93714,-1.06217 -0.780982,-1.53057 -0.09365,-1.96811 -0.03097,-1.28077 0.46857,-1.21833 c 0,0 0.618446,-1.17543 0.728889,-1.19752 0.110325,-0.0217 0.949827,-1.03805 0.949827,-1.03805 l 0.839378,-0.68488 0.773117,-0.44172 1.082361,-0.46382 0.86147,-0.15475 z m -0.750942,-2.53523 0.124962,1.15584 -1.312029,0.15619 -1.28077,0.4998 -1.218311,0.68725 -1.218298,0.90604 -0.905896,0.9372 -0.905931,1.49931 -0.374876,0.93713 -0.187434,1.78056 -0.03106,1.4995 0.312398,1.59332 0.531043,1.31198 0.968387,1.49938 1.187065,1.1559 1.187065,0.71837 1.749364,0.81217 1.374503,0.21878 1.561944,-0.12495 1.811818,-0.28121 1.155816,-0.56227 1.436978,-0.93712 1.124587,-1.34341 1.124585,-1.96801 0.499812,-1.59305 0.0312,-1.56194 -0.156199,-1.78063 -0.687244,-1.93676 -0.812194,-1.09334 -1.56194,-1.37465 -1.49944,-0.93711 -1.436962,-0.62482 -1.124607,-0.1562 -0.03109,-1.12446 h 1.280767 l 0.03117,-0.65614 -0.531041,-0.87459 -0.74975,-0.49973 -0.749723,-0.1562 -0.718467,0.1245 -0.562287,0.43746 -0.406105,0.3749 -0.187437,0.43718 v 0.8435 z"
       inkscape:connector-curvature="0" />
    <path
       id="path2138"
       style="fill:#e73135;fill-opacity:1;fill-rule:evenodd;stroke:none;stroke-width:0.3198826px;stroke-linecap:butt;stroke-linejoin:miter;stroke-opacity:1"
       d="m 30.192355,268.08102 c 0,0 0.398294,0 0.546687,0.17191 0.14838,0.17165 0.101564,0.44511 0.101564,0.44511 0,0 0.03906,0.30447 -0.06252,0.42948 -0.101539,0.12471 -0.288915,0.3515 -0.546663,0.29676 -0.257727,-0.0557 -0.499845,-0.17189 -0.538865,-0.38265 -0.03907,-0.21079 -0.10159,-0.3749 0.0073,-0.63251 0.109467,-0.25791 0.492004,-0.3281 0.492004,-0.3281 z m 3.454345,3.53984 -2.951577,-1.61437 c 0,0 -1.264048,0.44738 -1.722929,-0.56342 -0.458464,-1.00962 0.329851,-1.573 0.329851,-1.573 0,0 0.553489,-0.7128 1.468211,-0.35924 0.929369,0.35924 0.656001,1.41374 0.656001,1.41374 z"
       inkscape:connector-curvature="0" />
    <path
       inkscape:connector-curvature="0"
       style="fill:#e73135;fill-opacity:1;stroke:none;stroke-width:0.3198826"
       d="m 29.682239,273.72247 c 0,-0.42637 0.2132,-0.63961 0.639729,-0.63961 0.426509,0 0.639769,0.21324 0.639769,0.63961 0,0.42654 -0.21326,0.63983 -0.639769,0.63983 -0.426529,0 -0.639729,-0.21329 -0.639729,-0.63983 z"
       id="path2464-4" />
    <path
       inkscape:connector-curvature="0"
       style="fill:#e73135;fill-opacity:1;stroke:none;stroke-width:0.3198826"
       d="m 26.521869,272.64948 c -0.278769,-0.33592 -0.260791,-0.52904 0.0751,-0.8077 0.335885,-0.27875 0.528854,-0.26089 0.80759,0.0745 0.278764,0.33596 0.260833,0.52903 -0.07508,0.80777 -0.335895,0.27862 -0.528852,0.26078 -0.807612,-0.0745 z"
       id="path2462-8" />
    <path
       inkscape:connector-curvature="0"
       style="fill:#e73135;fill-opacity:1;stroke:none;stroke-width:0.3198826"
       d="m 25.283802,269.65909 c -0.660932,-0.24522 -0.479302,-1.37461 0.221037,-1.37461 0.341482,0 0.718389,0.15775 0.837556,0.35074 0.274877,0.44473 -0.527454,1.22077 -1.058593,1.02387 z"
       id="path2456-7" />
    <path
       inkscape:connector-curvature="0"
       style="fill:#e73135;fill-opacity:1;stroke:none;stroke-width:0.3198826"
       d="m 34.70036,269.67721 c -0.492781,-0.4927 -0.20709,-1.39288 0.442119,-1.39288 0.497591,0 0.636613,0.17268 0.559782,0.69473 -0.106128,0.72149 -0.620332,1.07976 -1.001901,0.69815 z"
       id="path2454-5" />
    <path
       inkscape:connector-curvature="0"
       style="fill:#e73135;fill-opacity:1;stroke:none;stroke-width:0.3198826"
       d="m 26.521869,265.93165 c -0.278769,-0.33593 -0.260791,-0.52881 0.0751,-0.80748 0.335885,-0.2789 0.528854,-0.26087 0.80759,0.0745 0.278764,0.33589 0.260833,0.52871 -0.07508,0.80748 -0.335895,0.27874 -0.528852,0.26081 -0.807612,-0.0747 z"
       id="path2452-8" />
    <path
       inkscape:connector-curvature="0"
       style="fill:#e73135;fill-opacity:1;stroke:none;stroke-width:0.3198826"
       d="m 33.420826,266.15861 c -0.439456,-0.43953 -0.211518,-1.11835 0.339882,-1.01213 0.307881,0.0588 0.559802,0.30981 0.559802,0.55666 0,0.50503 -0.564356,0.79069 -0.899684,0.45547 z"
       id="path2450-8" />
    <path
       inkscape:connector-curvature="0"
       style="fill:#e73135;fill-opacity:1;stroke:none;stroke-width:0.3198826"
       d="m 29.895439,264.87235 c -0.468662,-0.46868 -0.198801,-1.38618 0.407657,-1.38618 0.816519,0 1.130799,0.55078 0.647023,1.13362 -0.422308,0.50876 -0.725715,0.58144 -1.05468,0.25256 z"
       id="path2448-7" />
  </g>
</svg>
