<?xml version="1.0" encoding="UTF-8" standalone="no"?>
<!-- Created with Inkscape (http://www.inkscape.org/) -->

<svg
   xmlns:dc="http://purl.org/dc/elements/1.1/"
   xmlns:cc="http://creativecommons.org/ns#"
   xmlns:rdf="http://www.w3.org/1999/02/22-rdf-syntax-ns#"
   xmlns:svg="http://www.w3.org/2000/svg"
   xmlns="http://www.w3.org/2000/svg"
   xmlns:sodipodi="http://sodipodi.sourceforge.net/DTD/sodipodi-0.dtd"
   xmlns:inkscape="http://www.inkscape.org/namespaces/inkscape"
   width="59.5mm"
   height="58mm"
   viewBox="0 0 59.499998 58"
   version="1.1"
   id="svg2684"
   inkscape:version="0.92.3 (2405546, 2018-03-11)"
   sodipodi:docname="engrenagem-android.svg">
  <defs
     id="defs2678" />
  <sodipodi:namedview
     id="base"
     pagecolor="#ffffff"
     bordercolor="#666666"
     borderopacity="1.0"
     inkscape:pageopacity="0.0"
     inkscape:pageshadow="2"
     inkscape:zoom="2.8"
     inkscape:cx="214.38247"
     inkscape:cy="131.10164"
     inkscape:document-units="mm"
     inkscape:current-layer="layer1"
     showgrid="false"
     units="mm"
     inkscape:window-width="1920"
     inkscape:window-height="1001"
     inkscape:window-x="-9"
     inkscape:window-y="-9"
     inkscape:window-maximized="1" />
  <metadata
     id="metadata2681">
    <rdf:RDF>
      <cc:Work
         rdf:about="">
        <dc:format>image/svg+xml</dc:format>
        <dc:type
           rdf:resource="http://purl.org/dc/dcmitype/StillImage" />
        <dc:title></dc:title>
      </cc:Work>
    </rdf:RDF>
  </metadata>
  <g
     inkscape:label="Camada 1"
     inkscape:groupmode="layer"
     id="layer1"
     transform="translate(0,-238.99998)">
    <path
       style="fill:#275a94;fill-opacity:1;fill-rule:evenodd;stroke:none;stroke-width:0.10583334;stroke-miterlimit:4;stroke-dasharray:none;stroke-opacity:1"
       d="m 25.594824,239.26712 c -2.273935,0.0619 -8.241069,1.56003 -8.510591,2.2624 -0.07996,0.20837 -0.04389,1.99118 0.08061,3.96151 l 0.226348,3.58221 -1.500683,1.16582 -1.501201,1.16582 -3.729488,-1.2361 c -2.8951697,-0.95972 -3.8319927,-1.1727 -4.1878577,-0.95188 -0.712501,0.44213 -3.088362,4.12952 -3.916557,6.07819 l -0.746724,1.75544 0.181384,0.17157 -0.02636,0.0584 0.914673,0.78341 0.505912,0.47956 c 0.86646,0.82106 2.199924,2.06361 2.963127,2.76107 l 1.387512,1.26814 -0.173633,1.87121 -0.174149,1.87069 -3.561023,1.68827 -3.56153997,1.68827 0.182935,1.22008 c 0.275299,1.83583 1.09816197,4.80524 1.82572797,6.58771 l 0.170015,0.41703 0.08113,0.31057 0.09715,0.12558 0.299723,0.73432 4.080888,0.13229 3.9165567,0.12713 0.221175,0.0754 1.126546,1.38286 1.183908,1.45314 -1.00614,3.17707 c -0.553524,1.74738 -1.003126,3.47472 -0.998906,3.83852 0.0058,0.50071 0.397745,0.94436 1.612305,1.82625 1.890852,1.37294 5.860218,3.46542 6.574275,3.46542 0.293804,0 1.51657,-1.09839 2.965712,-2.66392 l 2.465998,-2.66392 1.45521,0.17001 c 0.467981,0.0547 0.844833,0.0955 1.163235,0.14728 l 0.590145,0.13436 c 0.951881,0.30573 1.299813,1.03229 2.652035,3.60237 l 1.812293,3.44475 1.984375,-0.1571 c 2.086036,-0.16512 4.987909,-0.84797 6.712252,-1.57923 l 1.023709,-0.43409 -0.162263,-2.44739 c -0.08913,-1.34626 -0.185888,-3.08542 -0.21549,-3.86488 l -0.05426,-1.41749 1.57303,-1.13326 1.572514,-1.13275 3.305741,1.17254 c 1.447684,0.51356 2.860207,0.92554 3.562573,1.05265 l 0.1943,0.0641 0.0186,-0.0295 c 0.0781,0.009 0.14315,0.0127 0.18501,0.008 0.42375,-0.0502 1.01101,-0.54428 1.66449,-1.40043 1.04023,-1.36284 3.37396,-5.74813 3.37396,-6.34018 0,-0.25092 -3.92334,-4.04102 -5.6286,-5.4374 -0.112542,-0.0922 -0.124649,-1.02841 -0.02687,-2.08049 l 0.177769,-1.91255 3.55689,-1.6986 3.5574,-1.69809 -0.17932,-1.13223 c -0.48791,-3.08202 -1.95527,-7.56833 -2.66908,-8.16074 -0.27999,-0.23237 -1.40639,-0.28406 -4.08916,-0.18759 l -3.703132,0.13333 -1.266073,-1.61799 -1.265555,-1.61747 1.004072,-3.175 c 0.552454,-1.7463 1.005092,-3.47468 1.005621,-3.84116 7.94e-4,-0.53648 -0.398594,-0.9353 -2.049486,-2.04639 -2.183474,-1.46953 -5.587331,-3.24063 -6.228561,-3.24063 -0.212768,0 -1.532591,1.23725 -2.933153,2.74971 l -2.546614,2.75022 -0.992188,-0.22273 c -0.545539,-0.12251 -1.431472,-0.29246 -1.968873,-0.37775 -0.942239,-0.14955 -1.039535,-0.2737 -2.735749,-3.47111 -0.967425,-1.82362 -1.947926,-3.38772 -2.17868,-3.47627 -0.146724,-0.0563 -0.396039,-0.077 -0.720887,-0.0682 z m -0.128156,1.66605 0.753961,1.34979 c 0.414506,0.74223 1.254638,2.27174 1.867069,3.39928 0.769892,1.41744 1.291373,2.08438 1.690335,2.16162 0.317368,0.0615 1.617496,0.25956 2.888713,0.43977 l 2.310969,0.32763 2.583823,-2.70475 2.583304,-2.70474 2.400888,1.4056 c 1.320543,0.77326 2.682512,1.61146 3.026171,1.86242 l 0.624769,0.4563 -1.126548,3.61063 -1.126027,3.61115 0.641821,0.69505 c 0.352928,0.38246 1.14922,1.38017 1.769917,2.21692 l 1.128612,1.52135 h 3.90829 3.908285 l 0.41393,1.03404 c 0.60201,1.50457 1.54883,5.34877 1.36581,5.54489 -0.0861,0.0923 -1.61021,0.88232 -3.38688,1.75545 l -3.230288,1.5875 -0.307475,2.24895 c -0.169174,1.23693 -0.318002,2.50766 -0.330729,2.82412 -0.01659,0.41229 0.798338,1.30999 2.875272,3.16622 l 2.67943,2.39468 0.18345,0.26304 -1.06919,2.00608 c -0.60753,1.14022 -1.41477,2.44454 -1.7942,2.89904 l -0.68988,0.82683 -3.667996,-1.25109 -3.667993,-1.25109 -0.67696,0.5395 c -0.372528,0.29652 -1.359426,0.98731 -2.19315,1.53531 l -1.516184,0.99632 0.01757,1.45521 c 0.0097,0.80037 0.09817,2.51459 0.196887,3.80959 l 0.179835,2.35489 -0.865579,0.36122 c -0.475951,0.19887 -1.608934,0.52599 -2.517677,0.72657 -3.273798,0.72261 -3.336359,0.72406 -3.731556,0.0832 -0.19956,-0.32361 -1.039691,-1.86787 -1.86707,-3.43131 -1.104273,-2.08668 -1.659099,-2.87249 -2.086176,-2.95538 -0.319987,-0.0621 -1.602025,-0.25714 -2.848922,-0.43356 l -2.267046,-0.32091 -2.591573,2.67012 -2.591056,2.67063 -1.359091,-0.68884 c -2.089057,-1.05839 -4.666898,-2.74524 -4.666898,-3.05408 0,-0.15238 0.483773,-1.81579 1.07487,-3.69642 l 1.074353,-3.41942 -0.890902,-0.98651 c -0.490227,-0.54262 -1.283948,-1.5568 -1.763717,-2.25412 l -0.872298,-1.26814 -3.8281897,0.0729 c -3.103714,0.059 -3.874632,2.1e-4 -4.075722,-0.30954 -0.27698,-0.42665 -1.43074,-4.14437 -1.699121,-5.4746 l -0.173633,-0.85938 3.424597,-1.61179 3.42408,-1.61179 0.158647,-1.62987 c 0.08703,-0.89647 0.23434,-2.16693 0.327628,-2.82309 l 0.169499,-1.19269 -2.804996,-2.50941 c -1.542943,-1.3802 -2.805514,-2.69976 -2.805514,-2.93212 0,-0.44501 2.412995,-4.61301 3.031856,-5.23689 0.306755,-0.30924 0.915783,-0.17262 4.0224937,0.90382 l 3.661275,1.26866 1.982825,-1.49913 c 1.090695,-0.82467 2.082308,-1.49965 2.202966,-1.49965 0.120658,0 0.134421,-1.77755 0.03101,-3.95015 l -0.188106,-3.95015 1.822111,-0.54312 c 1.002112,-0.29878 2.508054,-0.64683 3.346566,-0.77307 z m 24.956618,44.41176 0.03307,0.0114 -0.0093,-0.003 z m -20.567738,3.88814 c 0.0024,0.004 0.005,0.008 0.0072,0.0124 z"
       id="path2405"
       inkscape:connector-curvature="0" />
    <path
       style="fill:#275a94;fill-opacity:1;fill-rule:evenodd;stroke:none;stroke-width:0.26458332;stroke-opacity:1"
       d="m 29.735917,252.46755 c -7.167369,-0.009 -13.112773,4.49054 -15.20424,11.50627 -0.640409,2.14821 -0.640863,6.32003 -10e-4,8.45271 1.033219,3.44393 3.021017,6.35746 5.71283,8.37262 1.927692,1.44311 3.120112,2.02753 5.389334,2.6417 2.505697,0.67817 6.654623,0.56092 9.222695,-0.26045 3.623881,-1.15906 7.191018,-4.22937 8.941057,-7.69617 1.243451,-2.46327 1.682067,-4.35993 1.682067,-7.27708 0,-4.50407 -1.518449,-8.19145 -4.650878,-11.29492 -3.030992,-3.00296 -6.615239,-4.43918 -11.09183,-4.44468 z m 0.20619,2.48615 c 2.967484,0.0389 5.995638,1.09988 8.60154,3.33106 2.651715,2.2704 4.459677,6.26549 4.459677,9.8547 0,5.71202 -3.819478,10.97637 -9.160679,12.6261 -4.855668,1.49976 -9.739079,0.35247 -13.250356,-3.11299 -3.398955,-3.3546 -4.869323,-8.53482 -3.625102,-12.7708 1.865426,-6.35087 7.30972,-10.00242 12.97492,-9.92807 z"
       id="path2397"
       inkscape:connector-curvature="0" />
    <path
       id="path2357"
       style="fill:#e73135;fill-opacity:1;fill-rule:nonzero;stroke:none;stroke-width:0.26458332;stroke-opacity:1"
       d="m 30.896234,261.24412 c 0.19975,-0.52055 -0.459531,-1.2882 -0.882068,-1.02706 -0.319506,0.19747 -0.391388,1.01671 -0.113583,1.29452 0.319326,0.31932 0.822328,0.1842 0.995651,-0.26746 z m -4.261683,-0.42276 c -0.619916,-0.9461 2.509385,-1.25006 3.56022,-1.25006 0.93029,0 2.027462,0.3804 2.027462,1.27124 0,1.40252 -4.813451,1.16045 -5.587682,-0.0212 z m 0.02336,0.7683 c -0.09642,-0.25126 -0.367315,-0.41986 -0.601995,-0.37467 -0.54644,0.10524 -0.727383,1.00286 -0.260364,1.2916 0.4844,0.29949 1.08435,-0.33843 0.862359,-0.91693 z m -2.453268,1.43366 c -0.226531,-0.32342 0.492462,-1.11711 0.492462,-1.35322 0,-0.52361 0.819666,-1.30505 1.368889,-1.30505 0.998907,0 5.150881,1.55374 4.421766,2.28286 -0.505169,0.50516 -5.835026,1.01515 -6.283117,0.37541 z m 4.227929,-0.24363 c 2.531997,-0.58681 1.162778,-1.01524 1.504818,-1.01524 0.34204,0 2.146345,-0.49701 2.146345,-0.49701 -0.650449,-0.11053 -0.813131,-1.10623 -1.853613,-1.73074 -1.105077,-0.66328 0.289682,-1.22021 0.427474,-2.01592 0.174956,-1.01034 0.525627,0.0467 0.104474,0.97106 -0.226293,0.49666 -0.79288,2.23376 -2.485419,2.61792 -2.026166,0.45989 -3.334415,-1.76226 -3.844471,-2.22394 -0.372779,-0.33736 0.220469,-0.21443 0.0227,-0.0166 -0.197781,0.19778 -0.420126,-0.29427 0,0 l 2.301429,1.55441 -2.059192,1.24652 c -0.46138,0.91499 0.09458,-0.70804 0,0 -0.157792,1.18124 -1.109569,1.05117 -0.647868,0.9096 0.276748,-0.0848 1.515442,0.52833 4.047439,-0.0585 z m -5.743833,3.00792 c -0.30344,-1.209 0.04372,-3.47924 0.750408,-4.90719 0.60556,-1.22361 0.64084,-1.43487 0.297029,-1.77868 -1.015277,-1.01528 0.298453,-2.12237 1.571542,-1.32435 0.474155,0.29722 0.749028,0.30367 1.506057,0.0353 0.509323,-0.18053 1.227793,-0.33495 1.596599,-0.34317 0.45539,-0.0101 0.821012,-0.26963 1.139438,-0.80868 0.260409,-0.44084 0.693365,-0.79375 0.973778,-0.79375 0.60315,0 1.141418,0.89112 0.933662,1.5457 -0.104701,0.32988 0.156686,0.69665 0.888545,1.24677 1.271799,0.95599 2.598184,2.85339 2.837796,4.05949 0.173011,0.87086 0.156496,0.8933 -0.530653,0.72083 -0.810157,-0.20334 -10.106333,1.82413 -10.749584,2.34444 -0.852411,0.68951 -1.042249,0.69002 -1.214617,0.003 z m 16.211038,1.61446 c 0.02612,-0.0178 -0.657487,-0.34054 -0.804516,-1.02991 -0.230573,-1.08109 0.630137,-0.011 0.07094,-0.011 -0.835419,0 -0.467246,-1.38382 -0.103743,-0.0339 0.270854,1.00587 -0.662438,0.15881 0,0 0.394229,-0.0945 0.811217,1.09256 0.837321,1.0748 z m -2.117399,0.70204 c -0.06424,-0.10914 -0.199213,-0.61515 -0.299951,-1.12448 -0.100737,-0.50932 -0.239892,-1.12831 -0.309231,-1.37553 -0.170313,-0.60722 0.805587,-1.53489 1.614688,-1.53489 0.853514,0 1.383435,0.83801 1.606712,2.54083 l 0.177043,1.35021 -0.855755,0.17115 c -1.128636,0.22572 -1.790086,0.21639 -1.933506,-0.0273 z m 1.525349,1.78543 c 0.744802,-0.39861 0.761878,-0.20417 0,0 0,0 0.187021,-0.002 0,0 -0.257958,0.003 -0.214839,-0.40145 0,0 0.326591,0.61024 -0.689639,0.3691 0,0 z m -0.901311,0.54707 c -0.556115,-1.03911 -0.338418,-1.52415 0.815544,-1.81706 0.599188,-0.15209 1.254032,-0.21336 1.455208,-0.13616 0.450755,0.17297 0.485317,1.71045 0.04827,2.14749 -0.517025,0.51703 -2.005065,0.39237 -2.319025,-0.19427 z M 21.955495,270.0802 c 0.332827,0 -0.229046,1.33589 -0.374177,0.42095 -0.0981,-0.61846 0.381108,0.42914 0.20595,0.26169 -0.435997,-0.41682 -0.223307,-1.19524 0.0899,-0.74744 0.174265,0.24916 0.02706,0.14494 -0.295846,0.48575 0.130062,0.6933 -0.133999,-0.18584 -0.07748,-0.47888 0.247034,-1.28092 0.226682,0.0579 0.451662,0.0579 z m -1.484802,0.50463 c -0.40173,-1.93512 -0.211055,-2.48459 0.936936,-2.69995 1.20878,-0.22677 1.547314,0.10283 1.948941,1.89749 0.394465,1.76264 0.262403,1.96735 -1.389268,2.15352 l -1.188325,0.13394 z m 2.209224,2.83398 c 0.230185,-0.0883 0,0.29124 0,0 0,-0.44547 0.651924,-0.13517 0.04029,0.0183 -0.903403,0.22673 -0.243616,-0.5482 -0.04029,-0.0183 0.180688,0.47086 -0.645393,0.24766 0,0 z m -1.120584,0.88172 c -0.160684,-0.19362 -0.324091,-0.63159 -0.363126,-0.97328 -0.06036,-0.52832 0.107117,-0.674 1.119651,-0.97393 1.06676,-0.31599 1.225032,-0.30582 1.521354,0.0978 0.448068,0.61031 0.415949,1.28466 -0.08505,1.78566 -0.507412,0.50741 -1.793595,0.5448 -2.192834,0.0637 z m 9.527671,0.75209 c 3.811447,-0.89718 -2.547618,1.04282 -2.06107,0.0175 0.578927,-1.22 -1.123249,-0.97493 -1.900145,-4.29402 -0.866679,-3.70266 4.480653,1.23943 4.057116,1.07691 -0.473393,-0.18166 0.378775,-0.37878 0,0 -0.364422,0.36442 -2.052299,1.78349 -1.289884,3.29561 0.475218,0.94252 0.691478,-1.79982 1.380731,-1.79762 0.170251,5.3e-4 -1.762747,2.07261 -0.186748,1.70163 z m -4.770715,1.84603 c -1.227162,-1.10867 -1.408288,-1.52645 -2.274377,-5.24612 -0.801806,-3.44361 -0.856432,-4.82059 -0.2047,-5.15998 0.643862,-0.33529 9.641818,-2.42334 10.442802,-2.42334 0.359608,0 0.836425,0.20836 1.059595,0.46303 0.429906,0.49057 2.061538,7.03203 2.051691,8.22553 -0.0074,0.89742 -0.82794,2.69552 -1.478177,3.23924 -0.551633,0.46127 -6.34659,1.83995 -7.709522,1.83418 -0.607528,-0.003 -1.160245,-0.27568 -1.887312,-0.93254 z m 8.964154,1.45807 c -0.560054,0.011 0,0 -0.85218,-0.0709 -0.605814,-0.0504 -0.526696,-0.27695 0.242879,-0.27695 0.469453,0 0.609301,0.34781 0.609301,0.34781 z m -1.787305,0.99218 c -0.48505,-0.60628 -0.615463,-1.43891 -0.26919,-1.71866 0.185187,-0.14962 0.831382,-0.35357 1.435986,-0.45323 1.077138,-0.17756 1.103107,-0.16381 1.288968,0.68241 0.155856,0.70961 0.08434,0.94891 -0.400991,1.34191 -0.684123,0.55397 -1.672826,0.62498 -2.054773,0.14757 z m -3.385534,0.0589 c 0.185036,-0.48219 0.309813,-0.0435 -0.383411,0.10643 -0.731422,0.15816 0.470398,-0.19342 0.383411,-0.10643 -0.322715,0.32272 0.356597,-1.16508 0.01347,0.53637 -0.06577,0.3261 -0.09177,-0.33231 -0.01347,-0.53637 z m -1.021197,0.91912 c -0.254754,-0.25475 -0.414417,-0.7499 -0.368765,-1.14361 0.06784,-0.58509 0.261244,-0.73228 1.229137,-0.93547 1.251252,-0.26267 1.617597,-0.0218 1.625447,1.06863 0.0078,1.0835 -1.713206,1.78307 -2.485819,1.01045 z"
       inkscape:connector-curvature="0"
       sodipodi:nodetypes="cccccssccsccscsssccssccscscccccccccccsccssscccccccscccccssccsccssccssssssscsscssccccsccssccsscscssccssccssccccscsscccccccscccccccccccccc" />
  </g>
</svg>
