<?xml version="1.0" encoding="UTF-8" standalone="no"?>
<!-- Created with Inkscape (http://www.inkscape.org/) -->

<svg
   xmlns:dc="http://purl.org/dc/elements/1.1/"
   xmlns:cc="http://creativecommons.org/ns#"
   xmlns:rdf="http://www.w3.org/1999/02/22-rdf-syntax-ns#"
   xmlns:svg="http://www.w3.org/2000/svg"
   xmlns="http://www.w3.org/2000/svg"
   xmlns:sodipodi="http://sodipodi.sourceforge.net/DTD/sodipodi-0.dtd"
   xmlns:inkscape="http://www.inkscape.org/namespaces/inkscape"
   width="59.5mm"
   height="58mm"
   viewBox="0 0 59.499998 58"
   version="1.1"
   id="svg2684"
   inkscape:version="0.92.3 (2405546, 2018-03-11)"
   sodipodi:docname="engrenagem-drone.svg">
  <defs
     id="defs2678" />
  <sodipodi:namedview
     id="base"
     pagecolor="#ffffff"
     bordercolor="#666666"
     borderopacity="1.0"
     inkscape:pageopacity="0.0"
     inkscape:pageshadow="2"
     inkscape:zoom="2.8"
     inkscape:cx="138.22584"
     inkscape:cy="127.77205"
     inkscape:document-units="mm"
     inkscape:current-layer="layer1"
     showgrid="false"
     units="mm"
     inkscape:window-width="1920"
     inkscape:window-height="1001"
     inkscape:window-x="-9"
     inkscape:window-y="-9"
     inkscape:window-maximized="1" />
  <metadata
     id="metadata2681">
    <rdf:RDF>
      <cc:Work
         rdf:about="">
        <dc:format>image/svg+xml</dc:format>
        <dc:type
           rdf:resource="http://purl.org/dc/dcmitype/StillImage" />
        <dc:title></dc:title>
      </cc:Work>
    </rdf:RDF>
  </metadata>
  <g
     inkscape:label="Camada 1"
     inkscape:groupmode="layer"
     id="layer1"
     transform="translate(0,-238.99998)">
    <path
       id="path2410"
       style="fill:#e73135;fill-opacity:1;stroke-width:0.31760851"
       d="m 25.465162,260.46675 c -0.218357,-0.0881 -0.575667,-0.0881 -0.794024,0 -0.218358,0.0881 -0.0397,0.1602 0.397012,0.1602 0.436713,0 0.615369,-0.0721 0.397012,-0.1602 z m 2.143864,2.29248 c 0,-0.25227 -0.321579,-0.79525 -0.714621,-1.20658 -0.393041,-0.41133 -0.503211,-0.47905 -0.244818,-0.15049 0.422582,0.5374 0.406621,0.63306 -0.158804,0.9519 -0.603636,0.34041 -0.597065,0.36335 0.165414,0.57754 0.436713,0.12266 0.829756,0.23729 0.873428,0.25469 0.04367,0.0174 0.0794,-0.17478 0.0794,-0.42706 z m 8.094257,1.08617 c -0.474083,-0.76706 0.392525,-2.82944 1.195826,-2.84583 0.450736,-0.01 0.237617,2.1736 -0.260893,2.67209 -0.588144,0.58815 -0.669476,0.60327 -0.934933,0.17374 z m 0.458489,0.49591 c 1.482126,-0.76642 1.772438,-2.63672 0.602574,-3.88196 -0.67934,-0.7231 -1.251297,-0.96447 -1.177466,-0.49687 0.163267,1.03401 -1.424517,2.18596 -2.279659,1.65391 -0.389751,-0.2425 -0.393478,-0.39215 -0.02512,-1.009 0.389101,-0.65164 0.383227,-0.6765 -0.0585,-0.2479 -0.599069,0.58126 -1.046655,2.22325 -0.606028,2.22325 0.172287,0 0.845451,-0.22239 1.495916,-0.49416 l 1.182665,-0.49413 -0.220851,1.60575 c -0.121476,0.88318 -0.128886,1.6058 -0.01648,1.6058 0.112406,0 0.608737,-0.20911 1.102949,-0.46469 z m -12.364062,0.66237 c 0,-0.066 -0.250117,-0.31609 -0.555815,-0.55582 -0.50375,-0.39507 -0.514984,-0.38383 -0.11992,0.11992 0.414915,0.52904 0.675733,0.69728 0.675733,0.43589 z m 1.433507,-0.71291 c -0.614263,-1.47011 -0.604294,-1.70101 0.07513,-1.73969 0.34972,-0.02 0.261393,-0.11307 -0.238206,-0.25123 -0.501214,-0.1386 -0.832941,-0.48966 -0.899557,-0.95199 l -0.105528,-0.73241 -0.767898,0.72139 c -0.522567,0.49092 -0.752691,1.03349 -0.720307,1.69827 0.04673,0.95937 0.04996,0.96121 0.179901,0.10348 0.182748,-1.20637 0.908862,-1.09321 1.541635,0.24026 0.424883,0.89537 0.451311,1.20669 0.134817,1.58804 -0.332233,0.40031 -0.263017,0.47435 0.443506,0.47435 h 0.837175 z m 7.187796,0.80736 c -0.36957,-0.34431 -0.8661,-0.5188 -1.15775,-0.40688 -0.406837,0.1561 -0.313427,0.31589 0.459428,0.78588 0.533548,0.32447 0.98667,0.77071 1.006933,0.99163 0.02026,0.2209 0.104712,0.13854 0.187663,-0.18306 0.08651,-0.33539 -0.125106,-0.84179 -0.496274,-1.18757 z m -4.174767,1.45738 c 0,-0.26054 0.285849,-0.65224 0.63522,-0.87041 0.349369,-0.21819 0.635218,-0.50525 0.635218,-0.63792 0,-0.41729 -0.720286,-0.26266 -1.324832,0.28443 -0.61797,0.55927 -0.794475,1.69764 -0.263215,1.69764 0.174685,0 0.317609,-0.21318 0.317609,-0.47374 z m 1.648511,0.87075 c 0.05887,-0.3057 0.317512,-0.55582 0.574757,-0.55582 0.257244,0 0.515884,0.25012 0.574755,0.55582 0.0751,0.38996 -0.09638,0.55581 -0.574755,0.55581 -0.478368,0 -0.649858,-0.16585 -0.574757,-0.55581 z m 1.422181,0.37236 c 0.105743,-0.27555 -0.04167,-0.73497 -0.32758,-1.02088 -0.481385,-0.48137 -0.558303,-0.48137 -1.039688,0 -0.64935,0.64934 -0.351302,1.52194 0.519844,1.52194 0.360334,0 0.741675,-0.22547 0.847424,-0.50106 z m 1.494537,1.62932 c 0.280148,-0.42756 0.418537,-1.01409 0.30753,-1.30336 -0.158819,-0.41384 -0.29017,-0.31586 -0.616307,0.45977 -0.24347,0.57906 -0.650112,0.98776 -0.985622,0.99062 -0.484939,0.004 -0.499238,0.0514 -0.09474,0.31274 0.690662,0.44634 0.824439,0.40207 1.389133,-0.45977 z m -3.135985,0.40873 c -0.349371,-0.19215 -0.882158,-0.6523 -1.183972,-1.02257 -0.512984,-0.62937 -0.549218,-0.63413 -0.555818,-0.0731 -0.0085,0.72068 0.862562,1.44387 1.73979,1.44447 l 0.63522,3.3e-4 -0.63522,-0.34931 z m 4.878732,3.88485 c -0.98195,-0.80234 -0.471793,-1.38029 0.964793,-1.09298 1.143617,0.22874 1.646089,0.97572 0.951963,1.41525 -0.359013,0.22732 -0.342002,0.28159 0.08947,0.28553 0.751669,0.007 1.855334,-1.51076 1.817648,-2.4994 -0.03068,-0.80457 -0.03813,-0.80762 -0.238206,-0.0972 -0.113606,0.40332 -0.313742,0.7249 -0.444756,0.71461 -0.131014,-0.0108 -0.3454,-0.0197 -0.476415,-0.0213 -0.285232,-0.004 -1.032231,-1.54099 -1.032231,-2.12529 0,-0.57808 0.624735,-0.51434 1.398763,0.14273 0.629804,0.53462 0.637305,0.53336 0.196864,-0.0331 -0.526561,-0.67724 -1.830518,-1.24655 -2.254661,-0.98443 -0.161904,0.10011 -0.08066,0.6746 0.185456,1.3115 0.612578,1.46608 0.596929,1.7673 -0.08224,1.58318 -1.86566,-0.50579 -2.302672,-0.52472 -2.302672,-0.0997 0,0.55946 1.210449,2.11332 1.646287,2.11332 0.181361,0 -0.0077,-0.27572 -0.420065,-0.61266 z m -7.460632,1.31426 c 0.0854,-0.13816 -0.334942,-0.19399 -0.934087,-0.12402 -1.543618,0.18018 -1.416603,-0.64136 0.230204,-1.48895 1.028696,-0.52945 1.628555,-0.22518 1.379794,0.69991 -0.160749,0.5978 -0.122316,0.58389 0.293437,-0.10612 0.263124,-0.43672 0.483474,-0.98817 0.489662,-1.22549 0.01116,-0.42731 -0.07713,-0.42083 -2.175925,0.15972 -0.742416,0.20537 -0.753313,0.17882 -0.532016,-1.29688 0.220407,-1.46976 0.207879,-1.50108 -0.512497,-1.28123 -1.009173,0.30792 -1.854225,1.09669 -1.829928,1.70802 0.01376,0.3457 0.107557,0.28993 0.295352,-0.17549 0.667234,-1.65373 1.806332,-1.18044 1.346532,0.55946 -0.216177,0.81803 -0.449126,1.06941 -0.973115,1.05026 -0.915265,-0.0335 -0.869136,0.31373 0.147955,1.11378 0.827821,0.65116 2.474459,0.89271 2.774632,0.40702 z m -2.841558,1.24137 c -1.605492,-0.73412 -2.517699,-2.41175 -2.244949,-4.12864 0.237004,-1.4919 2.034274,-3.21362 3.354611,-3.21362 0.6335,0 0.996668,-0.19088 1.123498,-0.59049 0.320589,-1.0101 -0.08411,-1.53164 -1.075582,-1.38613 -2.248549,0.33002 -4.807422,-2.41474 -4.272998,-4.58343 1.084617,-4.40133 7.294511,-4.33954 7.798249,0.0777 0.09031,0.79183 0.241966,0.9243 1.058238,0.9243 0.900061,0 0.962393,-0.0832 1.12553,-1.50229 0.406892,-3.5395 4.327158,-4.96073 6.694154,-2.42686 2.241677,2.39969 0.9891,5.92147 -2.348872,6.60417 -0.819473,0.1676 -1.024277,0.36563 -1.024277,0.99049 0,0.6886 0.169039,0.80114 1.429244,0.95149 2.568868,0.30646 3.811316,1.65502 3.811316,4.1368 0,0.99198 -0.231356,1.51261 -1.087228,2.4465 -0.969742,1.05817 -1.252895,1.18588 -2.62028,1.18171 -2.060007,-0.006 -3.136456,-0.77663 -3.835528,-2.74488 -0.484529,-1.36421 -0.657747,-1.55313 -1.349955,-1.4722 -0.66921,0.0783 -0.821576,0.29867 -0.968786,1.40147 -0.413929,3.10093 -2.865198,4.56913 -5.566385,3.33398 z"
       inkscape:connector-curvature="0" />
    <path
       style="fill:#275a94;fill-opacity:1;fill-rule:evenodd;stroke:none;stroke-width:0.10430959;stroke-miterlimit:4;stroke-dasharray:none;stroke-opacity:1"
       d="m 25.965984,239.35938 c -2.241213,0.061 -8.122521,1.53751 -8.3881,2.22975 -0.07882,0.20543 -0.04331,1.96252 0.07945,3.90453 l 0.223077,3.53059 -1.479083,1.14904 -1.47963,1.14896 -3.675788,-1.21823 c -2.8534913,-0.94593 -3.7768175,-1.1558 -4.1275602,-0.93823 -0.7022763,0.43579 -3.0438884,4.07006 -3.8601739,5.99069 l -0.7359461,1.73017 0.1787698,0.16911 -0.026361,0.0576 0.901481,0.77209 0.4987139,0.47265 c 0.8539316,0.80924 2.1681941,2.03391 2.9204241,2.72132 l 1.3675604,1.24987 -0.1711122,1.84428 -0.171687,1.84373 -3.5097362,1.66394 L 1,269.34513 l 0.1803102,1.20259 c 0.2713022,1.80938 1.0823247,4.73598 1.7994653,6.49278 l 0.1675613,0.41104 0.079967,0.30609 0.095728,0.12372 0.2953961,0.72379 4.0222373,0.1304 3.8601108,0.12531 0.217927,0.0743 1.11045,1.36294 1.166822,1.4322 -0.991657,3.13131 c -0.545552,1.72224 -0.988732,3.42468 -0.984581,3.78327 0.0059,0.49349 0.392055,0.93076 1.589148,1.79993 1.863584,1.35319 5.77584,3.41551 6.479621,3.41551 0.289562,0 1.494779,-1.08255 2.923019,-2.62554 l 2.430514,-2.62557 1.434225,0.16758 c 0.461273,0.0539 0.832696,0.0941 1.146532,0.14517 l 0.581593,0.1324 c 0.938207,0.30134 1.281102,1.0174 2.613852,3.5505 l 1.786259,3.39512 1.955777,-0.1548 c 2.056015,-0.16279 4.916135,-0.83577 6.615661,-1.55649 l 1.008953,-0.42786 -0.15991,-2.41214 c -0.08789,-1.32688 -0.183251,-3.04101 -0.212379,-3.80924 l -0.05354,-1.39703 1.550404,-1.11702 1.549888,-1.1164 3.258142,1.15576 c 1.426858,0.50604 2.819049,0.91207 3.511257,1.0374 l 0.191509,0.0631 0.01849,-0.0292 c 0.07697,0.008 0.141079,0.0125 0.182334,0.008 0.417647,-0.0496 0.996452,-0.5365 1.640528,-1.38026 1.025284,-1.3433 3.325366,-5.66544 3.325366,-6.24896 0,-0.24729 -3.866829,-3.98282 -5.547549,-5.35904 -0.110905,-0.0909 -0.122835,-1.01364 -0.02652,-2.05057 L 51.988077,269.32021 55.4938,267.64606 59,265.97296 58.823205,264.857 c -0.480863,-3.03759 -1.927055,-7.45931 -2.630643,-8.04322 -0.275898,-0.22901 -1.386131,-0.27993 -4.030266,-0.18488 l -3.649777,0.13142 -1.247904,-1.59464 -1.247324,-1.59419 0.989593,-3.12929 c 0.544492,-1.7211 0.990713,-3.42459 0.991168,-3.78579 9.52e-4,-0.52877 -0.392924,-0.92183 -2.019963,-2.01689 -2.152063,-1.44847 -5.506917,-3.19398 -6.13889,-3.19398 -0.209759,0 -1.510571,1.21938 -2.890971,2.71011 l -2.509949,2.71055 -0.977854,-0.21943 c -0.537723,-0.12082 -1.410908,-0.28828 -1.940599,-0.37236 -0.928559,-0.14735 -1.024554,-0.26973 -2.69634,-3.42111 -0.953483,-1.79735 -1.919865,-3.33892 -2.147218,-3.42622 -0.14472,-0.0555 -0.390432,-0.076 -0.710615,-0.0672 z m -0.12637,1.64205 0.743162,1.33033 c 0.40852,0.73155 1.236525,2.23901 1.840115,3.35032 0.758881,1.39701 1.272816,2.05441 1.666017,2.13048 0.312822,0.0605 1.594196,0.25583 2.847128,0.43342 l 2.277716,0.32291 2.54662,-2.66579 2.546118,-2.66571 2.366351,1.38531 c 1.301494,0.76208 2.643928,1.58823 2.982621,1.83555 l 0.615696,0.44978 -1.110224,3.55863 -1.1099,3.55913 0.632606,0.68501 c 0.34784,0.37695 1.132742,1.3603 1.744399,2.18499 l 1.112389,1.49947 h 3.852046 3.852063 l 0.407949,1.01914 c 0.593346,1.48289 1.526532,5.27175 1.346142,5.46503 -0.08487,0.091 -1.587013,0.8696 -3.338136,1.73017 l -3.183733,1.56464 -0.303119,2.21659 c -0.166667,1.21908 -0.313404,2.4715 -0.325965,2.78341 -0.01638,0.40638 0.786882,1.2911 2.833926,3.1206 l 2.640839,2.3602 0.18081,0.25923 -1.053834,1.97719 c -0.598773,1.12384 -1.394394,2.40934 -1.768345,2.85729 l -0.679937,0.81493 -3.6152,-1.23305 -3.615189,-1.23305 -0.667238,0.53167 c -0.367173,0.29227 -1.33983,0.97311 -2.161534,1.51322 l -1.494382,0.98203 0.01766,1.43418 c 0.0095,0.78885 0.09671,2.47856 0.194063,3.75475 l 0.177241,2.32095 -0.853085,0.356 c -0.469132,0.19603 -1.585771,0.51847 -2.481462,0.71615 -3.226714,0.71223 -3.288293,0.71362 -3.677855,0.082 -0.196681,-0.31896 -1.02468,-1.84091 -1.840251,-3.38187 -1.088291,-2.0566 -1.635153,-2.83112 -2.056052,-2.91283 -0.315437,-0.0612 -1.57901,-0.25342 -2.80795,-0.4273 l -2.234386,-0.31633 -2.554246,2.63176 -2.553722,2.63211 -1.339531,-0.67889 c -2.059008,-1.0432 -4.599763,-2.70573 -4.599763,-3.01012 0,-0.15018 0.476796,-1.78964 1.059373,-3.64319 l 1.058919,-3.37028 -0.878112,-0.97218 c -0.4832,-0.53483 -1.265455,-1.53438 -1.738297,-2.22166 l -0.859811,-1.24987 -3.7730183,0.0718 c -3.0590958,0.0581 -3.8188942,2.3e-4 -4.0170732,-0.30506 -0.2729854,-0.42051 -1.410117,-4.0847 -1.6745557,-5.39576 l -0.1712329,-0.84697 3.3753142,-1.58861 3.3747711,-1.58855 0.15641,-1.60641 c 0.085702,-0.88357 0.2309371,-2.13571 0.3228598,-2.78247 l 0.167015,-1.17547 -2.7645731,-2.47328 c -1.52075,-1.36033 -2.7651477,-2.66089 -2.7651477,-2.88989 0,-0.43862 2.3782705,-4.54661 2.9881638,-5.16151 0.3024279,-0.30473 0.9026434,-0.17007 3.964699,0.89086 l 3.608593,1.25034 1.954227,-1.47749 c 1.074924,-0.81283 2.052284,-1.47805 2.171195,-1.47805 0.118924,0 0.132536,-1.75201 0.03053,-3.89328 l -0.185446,-3.89324 1.795882,-0.53528 c 0.987729,-0.29453 2.471992,-0.63757 3.298399,-0.762 z m 24.597382,43.77208 0.03224,0.0108 -0.0094,-0.004 z m -20.27164,3.83216 c 0.0029,0.004 0.0049,0.008 0.0077,0.0123 z"
       id="path2405-2-9-0-8"
       inkscape:connector-curvature="0" />
    <path
       style="fill:#275a94;fill-opacity:1;fill-rule:evenodd;stroke:none;stroke-width:0.26077393;stroke-opacity:1"
       d="m 30.047398,252.36969 c -7.064165,-0.008 -12.92401,4.42581 -14.985288,11.34051 -0.631236,2.11728 -0.631697,6.22905 -0.0013,8.33102 1.01828,3.39427 2.977489,6.26585 5.630524,8.25209 1.899944,1.42229 3.075288,1.99823 5.31177,2.60358 2.469661,0.66836 6.558882,0.55287 9.089907,-0.25675 3.571749,-1.14233 7.087524,-4.16841 8.812356,-7.58528 1.225609,-2.42781 1.657886,-4.29715 1.657886,-7.17228 0,-4.43921 -1.496601,-8.07347 -4.583875,-11.13226 -2.987429,-2.95968 -6.520075,-4.37522 -10.932232,-4.38063 z m 0.203195,2.45033 c 2.924866,0.0384 5.909379,1.08401 8.477749,3.28307 2.613584,2.23774 4.395495,6.17526 4.395495,9.71282 0,5.62972 -3.764495,10.81823 -9.028831,12.44424 -4.785691,1.4781 -9.598822,0.34738 -13.059601,-3.06817 -3.350049,-3.30631 -4.799218,-8.41191 -3.572889,-12.58689 1.838588,-6.25939 7.204514,-9.85836 12.788077,-9.78507 z"
       id="path2397-7-0-2-6"
       inkscape:connector-curvature="0" />
  </g>
</svg>
