<?xml version="1.0" encoding="UTF-8" standalone="no"?>
<!-- Created with Inkscape (http://www.inkscape.org/) -->

<svg
   xmlns:dc="http://purl.org/dc/elements/1.1/"
   xmlns:cc="http://creativecommons.org/ns#"
   xmlns:rdf="http://www.w3.org/1999/02/22-rdf-syntax-ns#"
   xmlns:svg="http://www.w3.org/2000/svg"
   xmlns="http://www.w3.org/2000/svg"
   xmlns:sodipodi="http://sodipodi.sourceforge.net/DTD/sodipodi-0.dtd"
   xmlns:inkscape="http://www.inkscape.org/namespaces/inkscape"
   width="59.5mm"
   height="58mm"
   viewBox="0 0 59.499998 58"
   version="1.1"
   id="svg2684"
   inkscape:version="0.92.3 (2405546, 2018-03-11)"
   sodipodi:docname="engrenagem-ferramenta.svg">
  <defs
     id="defs2678" />
  <sodipodi:namedview
     id="base"
     pagecolor="#ffffff"
     bordercolor="#666666"
     borderopacity="1.0"
     inkscape:pageopacity="0.0"
     inkscape:pageshadow="2"
     inkscape:zoom="2.8"
     inkscape:cx="138.22584"
     inkscape:cy="127.77205"
     inkscape:document-units="mm"
     inkscape:current-layer="layer1"
     showgrid="false"
     units="mm"
     inkscape:window-width="1920"
     inkscape:window-height="1001"
     inkscape:window-x="-9"
     inkscape:window-y="-9"
     inkscape:window-maximized="1" />
  <metadata
     id="metadata2681">
    <rdf:RDF>
      <cc:Work
         rdf:about="">
        <dc:format>image/svg+xml</dc:format>
        <dc:type
           rdf:resource="http://purl.org/dc/dcmitype/StillImage" />
        <dc:title></dc:title>
      </cc:Work>
    </rdf:RDF>
  </metadata>
  <g
     inkscape:label="Camada 1"
     inkscape:groupmode="layer"
     id="layer1"
     transform="translate(0,-238.99998)">
    <path
       id="path2356"
       style="fill:#e73135;fill-opacity:1;stroke-width:0.31760964"
       d="m 26.016417,265.01225 c 0.174064,-0.52218 1.122516,-1.07805 1.387431,-0.81313 0.302161,0.30213 -0.479327,1.18747 -1.048214,1.18747 -0.255196,0 -0.407842,-0.16845 -0.339217,-0.37434 z m 6.034585,6.03459 c 0.174062,-0.52219 1.122515,-1.07806 1.387429,-0.81315 0.302161,0.30215 -0.479326,1.18748 -1.048212,1.18748 -0.255198,0 -0.407844,-0.16846 -0.339217,-0.37433 z m -5.961185,-10.76396 c -0.100499,-0.16261 -0.406181,-0.29566 -0.679287,-0.29566 -0.403743,0 -0.423197,0.0884 -0.104076,0.47293 0.410082,0.4941 1.101588,0.33761 0.783361,-0.17727 z m 11.606319,1.81023 c 0,-0.53428 -1.666816,-2.10589 -2.233464,-2.10589 -0.289615,0 -0.788558,0.28948 -1.108765,0.64333 -0.570018,0.62984 -0.556469,0.66964 0.647808,1.90292 l 1.230002,1.25964 0.732207,-0.68788 c 0.402716,-0.37834 0.732212,-0.83379 0.732212,-1.01212 z m -3.339305,1.0657 c -0.692135,-0.70881 -1.311909,-1.1283 -1.377273,-0.93222 -0.06536,0.1961 0.351928,0.84224 0.927316,1.43589 0.976281,1.00727 1.141133,1.92243 0.206579,1.14682 -0.329167,-0.27317 -1.324943,0.55483 -4.52903,3.76606 -2.258901,2.26392 -4.216352,4.11622 -4.349884,4.11622 -0.767091,0 0.184289,-1.21321 3.767524,-4.80442 3.659085,-3.66722 4.373069,-4.72383 3.191977,-4.72383 -0.210565,0 -2.234384,1.85563 -4.497373,4.12365 l -4.114525,4.12367 1.252418,1.28261 1.252414,1.28257 4.764145,-4.76414 4.764145,-4.76415 z m -9.365083,11.09665 c 0,-0.14725 -0.393042,-0.63262 -0.873426,-1.07864 -0.853446,-0.79237 -0.879992,-0.79628 -1.160396,-0.17115 -0.373662,0.83305 0.534682,1.90952 1.41665,1.67887 0.339446,-0.0887 0.617172,-0.28184 0.617172,-0.42908 z m -1.905658,0.83696 c 0,-0.33524 -0.609527,-0.47606 -0.790822,-0.18275 -0.109718,0.17754 0.02331,0.32281 0.295662,0.32281 0.272338,0 0.49516,-0.063 0.49516,-0.14006 z m 11.373682,-0.0563 c -0.282698,-0.28266 -0.672967,-0.41575 -0.867265,-0.29566 -0.517023,0.31955 -0.09526,0.80969 0.696724,0.80969 0.630719,0 0.644129,-0.0404 0.170541,-0.51403 z m -13.27934,1.09237 c 0,-0.20598 0.32044,-1.36941 0.712087,-2.58544 0.650046,-2.01832 0.983812,-2.48708 3.831018,-5.38048 l 3.118933,-3.16948 -0.654923,-0.69713 c -0.360205,-0.38341 -0.654921,-1.06925 -0.654921,-1.5241 0,-0.45485 -0.08912,-1.05924 -0.198049,-1.34309 -0.181358,-0.47262 -0.248259,-0.47065 -0.794024,0.0232 -0.327786,0.29665 -0.595976,0.78554 -0.595976,1.08645 0,0.63728 -0.493892,1.09023 -1.538453,1.41088 -0.571294,0.17538 -0.959102,0.0228 -1.667451,-0.65577 -1.005056,-0.96289 -1.19424,-0.62318 -0.45213,0.81191 0.446957,0.86431 2.503634,1.90616 2.927049,1.48276 0.297855,-0.29785 1.366205,0.42248 1.366205,0.92117 0,0.53024 -0.500089,0.62324 -0.794024,0.14765 -0.107965,-0.17469 -0.702387,-0.31761 -1.320945,-0.31761 -1.66686,0 -3.284396,-1.69575 -3.284396,-3.44321 0,-0.70591 0.130916,-1.36439 0.290924,-1.46325 0.160012,-0.0989 0.720714,0.24998 1.246009,0.77528 1.12409,1.12408 1.798937,1.20822 2.292573,0.28588 0.306887,-0.57345 0.212462,-0.81953 -0.659751,-1.71941 -1.155649,-1.19234 -1.034544,-1.74031 0.384609,-1.74031 2.025088,0 3.750659,1.83045 3.750659,3.9786 0,0.38926 0.205985,0.87869 0.457742,1.08765 0.375663,0.31177 0.942764,-0.1084 3.162487,-2.3432 1.670445,-1.68177 2.957724,-2.72305 3.366297,-2.72305 0.739633,0 3.176984,2.38584 3.176984,3.10987 0,0.25609 -1.236198,1.72891 -2.747102,3.27293 -2.335771,2.38697 -2.686622,2.88018 -2.343185,3.294 0.222156,0.26768 0.822292,0.48671 1.33363,0.48671 2.174243,0 4.033866,2.14374 3.59458,4.14378 -0.113307,0.51587 -0.295037,0.93797 -0.403856,0.93797 -0.108818,0 -0.654855,-0.44297 -1.213413,-0.98434 -0.748319,-0.72529 -1.191087,-0.92863 -1.682572,-0.77261 -0.919177,0.29172 -0.846235,1.35918 0.156376,2.28837 1.065135,0.98714 0.802621,1.69184 -0.630243,1.69184 -1.98541,0 -3.208254,-1.49517 -3.85433,-4.71272 -0.201155,-1.00177 -0.176155,-1.04055 0.453712,-0.70344 0.451939,0.24186 0.6666,0.6667 0.6666,1.31929 0,0.52939 0.152891,1.24821 0.339759,1.59738 0.436977,0.81649 1.118881,0.31799 1.416098,-1.03521 0.133284,-0.60686 0.492256,-1.05777 0.993921,-1.24849 1.093775,-0.41585 1.181114,-0.39613 2.126794,0.48028 0.76306,0.70719 0.840402,0.72342 0.840402,0.17654 0,-1.08296 -1.362092,-2.30998 -2.651117,-2.38824 -0.647026,-0.0392 -1.464342,-0.332 -1.816261,-0.65047 -0.628619,-0.5689 -0.694008,-0.52513 -3.723811,2.49177 -2.837096,2.82502 -3.272726,3.13497 -5.442255,3.87205 -2.687603,0.91313 -2.88226,0.94196 -2.88226,0.42677 z"
       inkscape:connector-curvature="0" />
    <path
       style="fill:#275a94;fill-opacity:1;fill-rule:evenodd;stroke:none;stroke-width:0.10430997;stroke-miterlimit:4;stroke-dasharray:none;stroke-opacity:1"
       d="m 25.965984,239.35894 c -2.241212,0.061 -8.12252,1.53752 -8.3881,2.22977 -0.07882,0.20542 -0.04331,1.96253 0.07945,3.90455 l 0.223077,3.53062 -1.479084,1.14905 -1.479628,1.14897 -3.675789,-1.21824 c -2.8534912,-0.94594 -3.7768175,-1.15581 -4.1275602,-0.93824 -0.7022763,0.43579 -3.0438885,4.07009 -3.8601739,5.99073 l -0.7359461,1.73018 0.1787698,0.16912 -0.026361,0.0576 0.9014811,0.77209 0.4987139,0.47265 c 0.8539316,0.80925 2.168194,2.03394 2.920424,2.72134 l 1.3675605,1.24989 -0.1711121,1.84429 -0.1716872,1.84374 -3.5097361,1.66394 L 1,269.3449 l 0.1803102,1.20261 c 0.2713022,1.80938 1.0823248,4.73602 1.7994652,6.49281 l 0.1675613,0.41105 0.079968,0.3061 0.095727,0.12372 0.2953961,0.72379 4.0222374,0.1304 3.8601108,0.12531 0.217928,0.0743 1.110449,1.36293 1.166821,1.43222 -0.991656,3.13133 c -0.545553,1.72226 -0.988732,3.42471 -0.984581,3.7833 0.006,0.49349 0.392055,0.93077 1.589148,1.79995 1.863583,1.35319 5.77584,3.41554 6.479621,3.41554 0.289562,0 1.494779,-1.08256 2.923019,-2.62558 l 2.430514,-2.62557 1.434224,0.16757 c 0.461274,0.0539 0.832697,0.0941 1.146533,0.14518 l 0.581594,0.13243 c 0.938206,0.30135 1.281101,1.01742 2.613852,3.55054 l 1.786259,3.39514 1.955776,-0.15482 c 2.056015,-0.16277 4.916134,-0.83576 6.615661,-1.55649 l 1.008953,-0.42786 -0.159909,-2.41217 c -0.0879,-1.32687 -0.183252,-3.04102 -0.21238,-3.80925 l -0.05354,-1.39705 1.550405,-1.11702 1.549888,-1.11642 3.258142,1.15577 c 1.426858,0.50604 2.819049,0.91207 3.511257,1.03742 l 0.191509,0.0631 0.01849,-0.0292 c 0.07697,0.008 0.141078,0.0125 0.182333,0.008 0.417647,-0.0496 0.996452,-0.53651 1.640527,-1.38026 1.025285,-1.34332 3.325367,-5.6655 3.325367,-6.24901 0,-0.24731 -3.866828,-3.98286 -5.547549,-5.35908 -0.110906,-0.091 -0.122835,-1.01364 -0.02652,-2.0506 l 0.175166,-1.88501 3.505724,-1.67415 L 59,265.97274 58.823205,264.85677 c -0.480863,-3.03761 -1.927055,-7.45936 -2.630643,-8.04328 -0.275897,-0.22901 -1.386131,-0.27993 -4.030266,-0.18488 l -3.649777,0.13142 -1.247904,-1.59465 -1.247323,-1.59421 0.989592,-3.12931 c 0.544492,-1.72111 0.990713,-3.42461 0.991168,-3.78582 9.52e-4,-0.52877 -0.392924,-0.92183 -2.019962,-2.0169 -2.152064,-1.44848 -5.506918,-3.194 -6.13889,-3.194 -0.209759,0 -1.510572,1.21939 -2.890973,2.71013 l -2.509948,2.71057 -0.977854,-0.21944 c -0.537723,-0.12082 -1.410908,-0.28828 -1.940598,-0.37235 -0.92856,-0.14736 -1.024555,-0.26974 -2.696341,-3.42114 -0.953483,-1.79737 -1.919865,-3.33895 -2.147219,-3.42624 -0.144719,-0.0555 -0.390431,-0.076 -0.710614,-0.0672 z m -0.12637,1.64206 0.743162,1.33034 c 0.40852,0.73156 1.236525,2.23903 1.840116,3.35035 0.75888,1.39702 1.272815,2.05442 1.666015,2.13049 0.312824,0.0605 1.594198,0.25584 2.847129,0.43343 l 2.277716,0.32291 2.546619,-2.66581 2.546119,-2.66574 2.366351,1.38533 c 1.301494,0.76208 2.643928,1.58824 2.982622,1.83557 l 0.615695,0.44978 -1.110224,3.55865 -1.1099,3.55916 0.632607,0.68501 c 0.347839,0.37696 1.132741,1.36031 1.744398,2.18501 l 1.112389,1.49947 h 3.852046 3.852063 l 0.40795,1.01916 c 0.593346,1.48289 1.526531,5.27177 1.346141,5.46505 -0.08487,0.091 -1.587013,0.86962 -3.338135,1.7302 l -3.183735,1.56465 -0.303118,2.21659 c -0.166668,1.21909 -0.313404,2.47152 -0.325965,2.78345 -0.01639,0.40636 0.786881,1.29109 2.833926,3.12061 l 2.640839,2.36022 0.180809,0.25923 -1.053833,1.9772 c -0.598773,1.12386 -1.394394,2.40938 -1.768345,2.85732 l -0.679936,0.81493 -3.615201,-1.23304 -3.615189,-1.23308 -0.667238,0.53169 c -0.367172,0.29227 -1.33983,0.9731 -2.161534,1.51322 l -1.494381,0.98204 0.01766,1.43419 c 0.0095,0.78885 0.09671,2.47858 0.194062,3.75477 l 0.17724,2.32098 -0.853084,0.35601 c -0.469132,0.19602 -1.585772,0.51846 -2.481462,0.71614 -3.226714,0.71223 -3.288293,0.71362 -3.677854,0.082 -0.196682,-0.31896 -1.024681,-1.84093 -1.840252,-3.38191 -1.08829,-2.05661 -1.635153,-2.83114 -2.056052,-2.91285 -0.315438,-0.0612 -1.57901,-0.25342 -2.80795,-0.4273 l -2.234386,-0.31632 -2.554246,2.63176 -2.553722,2.63213 -1.339531,-0.67889 c -2.059007,-1.04321 -4.599764,-2.70575 -4.599764,-3.01014 0,-0.15017 0.476797,-1.78965 1.059375,-3.64322 l 1.058918,-3.37031 -0.878112,-0.97217 c -0.483199,-0.53483 -1.265455,-1.5344 -1.738297,-2.22168 l -0.85981,-1.24989 -3.7730193,0.0718 c -3.0590958,0.0581 -3.8188943,2.4e-4 -4.0170732,-0.30506 -0.2729855,-0.42052 -1.410117,-4.08472 -1.6745557,-5.3958 l -0.1712329,-0.84698 3.3753142,-1.5886 3.374771,-1.58857 0.1564101,-1.60642 c 0.085701,-0.88358 0.2309372,-2.13573 0.3228598,-2.78249 l 0.167015,-1.17548 -2.764573,-2.4733 c -1.52075,-1.36033 -2.7651479,-2.66091 -2.7651479,-2.88991 0,-0.43862 2.3782707,-4.54664 2.9881639,-5.16155 0.302428,-0.30473 0.9026435,-0.17007 3.964699,0.89087 l 3.608593,1.25035 1.954226,-1.47751 c 1.074925,-0.81283 2.052285,-1.47805 2.171196,-1.47805 0.118925,0 0.132536,-1.75202 0.03053,-3.89331 l -0.185446,-3.89327 1.795882,-0.53529 c 0.987729,-0.29453 2.471992,-0.63757 3.2984,-0.762 z m 24.597383,43.77239 0.03224,0.0108 -0.0094,-0.004 z m -20.271641,3.8322 c 0.0029,0.004 0.0049,0.008 0.0077,0.0122 z"
       id="path2405-2-9-0-0"
       inkscape:connector-curvature="0" />
    <path
       style="fill:#275a94;fill-opacity:1;fill-rule:evenodd;stroke:none;stroke-width:0.26077488;stroke-opacity:1"
       d="m 30.047398,252.36934 c -7.064165,-0.008 -12.92401,4.42585 -14.985288,11.34059 -0.631235,2.11731 -0.631696,6.22909 -0.0013,8.33107 1.018279,3.39431 2.977489,6.26591 5.630524,8.25217 1.899944,1.4223 3.075288,1.99824 5.31177,2.60359 2.469661,0.66838 6.558881,0.55289 9.089907,-0.25675 3.57175,-1.14235 7.087524,-4.16845 8.812356,-7.58533 1.225609,-2.42783 1.657885,-4.29718 1.657885,-7.17235 0,-4.43922 -1.4966,-8.07351 -4.583874,-11.13233 -2.987429,-2.95969 -6.520075,-4.37524 -10.932232,-4.38066 z m 0.203195,2.45035 c 2.924867,0.0384 5.909378,1.08402 8.477748,3.2831 2.613585,2.23775 4.395495,6.1753 4.395495,9.71289 0,5.62975 -3.764493,10.81831 -9.02883,12.44433 -4.785691,1.4781 -9.598821,0.34738 -13.059601,-3.06821 -3.350048,-3.30631 -4.799218,-8.41196 -3.572889,-12.58697 1.838588,-6.25943 7.204514,-9.85843 12.788077,-9.78514 z"
       id="path2397-7-0-2-0"
       inkscape:connector-curvature="0" />
  </g>
</svg>
